%TF.GenerationSoftware,KiCad,Pcbnew,9.0.6*%
%TF.CreationDate,2026-01-30T19:54:56-05:00*%
%TF.ProjectId,flight controller,666c6967-6874-4206-936f-6e74726f6c6c,rev?*%
%TF.SameCoordinates,Original*%
%TF.FileFunction,Legend,Top*%
%TF.FilePolarity,Positive*%
%FSLAX46Y46*%
G04 Gerber Fmt 4.6, Leading zero omitted, Abs format (unit mm)*
G04 Created by KiCad (PCBNEW 9.0.6) date 2026-01-30 19:54:56*
%MOMM*%
%LPD*%
G01*
G04 APERTURE LIST*
G04 Aperture macros list*
%AMRoundRect*
0 Rectangle with rounded corners*
0 $1 Rounding radius*
0 $2 $3 $4 $5 $6 $7 $8 $9 X,Y pos of 4 corners*
0 Add a 4 corners polygon primitive as box body*
4,1,4,$2,$3,$4,$5,$6,$7,$8,$9,$2,$3,0*
0 Add four circle primitives for the rounded corners*
1,1,$1+$1,$2,$3*
1,1,$1+$1,$4,$5*
1,1,$1+$1,$6,$7*
1,1,$1+$1,$8,$9*
0 Add four rect primitives between the rounded corners*
20,1,$1+$1,$2,$3,$4,$5,0*
20,1,$1+$1,$4,$5,$6,$7,0*
20,1,$1+$1,$6,$7,$8,$9,0*
20,1,$1+$1,$8,$9,$2,$3,0*%
G04 Aperture macros list end*
%ADD10C,0.150000*%
%ADD11C,0.120000*%
%ADD12C,0.250000*%
%ADD13C,0.100000*%
%ADD14C,2.700000*%
%ADD15RoundRect,0.200000X-0.200000X-0.275000X0.200000X-0.275000X0.200000X0.275000X-0.200000X0.275000X0*%
%ADD16RoundRect,0.250000X-0.600000X-0.725000X0.600000X-0.725000X0.600000X0.725000X-0.600000X0.725000X0*%
%ADD17O,1.700000X1.950000*%
%ADD18RoundRect,0.225000X-0.225000X-0.250000X0.225000X-0.250000X0.225000X0.250000X-0.225000X0.250000X0*%
%ADD19RoundRect,0.225000X0.250000X-0.225000X0.250000X0.225000X-0.250000X0.225000X-0.250000X-0.225000X0*%
%ADD20RoundRect,0.225000X0.225000X0.250000X-0.225000X0.250000X-0.225000X-0.250000X0.225000X-0.250000X0*%
%ADD21C,1.400000*%
%ADD22RoundRect,0.770000X0.980000X0.980000X-0.980000X0.980000X-0.980000X-0.980000X0.980000X-0.980000X0*%
%ADD23C,3.500000*%
%ADD24RoundRect,0.225000X-0.250000X0.225000X-0.250000X-0.225000X0.250000X-0.225000X0.250000X0.225000X0*%
%ADD25RoundRect,0.250000X0.325000X0.650000X-0.325000X0.650000X-0.325000X-0.650000X0.325000X-0.650000X0*%
%ADD26RoundRect,0.250000X1.000000X0.650000X-1.000000X0.650000X-1.000000X-0.650000X1.000000X-0.650000X0*%
%ADD27RoundRect,0.250000X0.925000X1.500000X-0.925000X1.500000X-0.925000X-1.500000X0.925000X-1.500000X0*%
%ADD28C,0.650000*%
%ADD29RoundRect,0.150000X-0.500000X0.150000X-0.500000X-0.150000X0.500000X-0.150000X0.500000X0.150000X0*%
%ADD30RoundRect,0.075000X-0.575000X0.075000X-0.575000X-0.075000X0.575000X-0.075000X0.575000X0.075000X0*%
%ADD31O,2.100000X1.000000*%
%ADD32O,1.600000X1.000000*%
%ADD33RoundRect,0.250000X0.475000X-0.250000X0.475000X0.250000X-0.475000X0.250000X-0.475000X-0.250000X0*%
%ADD34RoundRect,0.250000X0.250000X0.475000X-0.250000X0.475000X-0.250000X-0.475000X0.250000X-0.475000X0*%
%ADD35RoundRect,0.200000X0.200000X0.275000X-0.200000X0.275000X-0.200000X-0.275000X0.200000X-0.275000X0*%
%ADD36RoundRect,0.090000X0.660000X0.360000X-0.660000X0.360000X-0.660000X-0.360000X0.660000X-0.360000X0*%
%ADD37C,1.200000*%
%ADD38R,1.600000X0.700000*%
%ADD39R,1.500000X1.200000*%
%ADD40R,2.200000X1.200000*%
%ADD41R,1.500000X1.600000*%
%ADD42RoundRect,0.243750X0.243750X0.456250X-0.243750X0.456250X-0.243750X-0.456250X0.243750X-0.456250X0*%
%ADD43RoundRect,0.087500X0.125000X0.087500X-0.125000X0.087500X-0.125000X-0.087500X0.125000X-0.087500X0*%
%ADD44RoundRect,0.087500X0.087500X0.125000X-0.087500X0.125000X-0.087500X-0.125000X0.087500X-0.125000X0*%
%ADD45R,0.450000X0.300000*%
%ADD46R,0.300000X0.450000*%
%ADD47RoundRect,0.250000X-0.325000X-0.650000X0.325000X-0.650000X0.325000X0.650000X-0.325000X0.650000X0*%
%ADD48RoundRect,0.150000X0.512500X0.150000X-0.512500X0.150000X-0.512500X-0.150000X0.512500X-0.150000X0*%
%ADD49RoundRect,0.087500X0.087500X-0.225000X0.087500X0.225000X-0.087500X0.225000X-0.087500X-0.225000X0*%
%ADD50RoundRect,0.087500X0.225000X-0.087500X0.225000X0.087500X-0.225000X0.087500X-0.225000X-0.087500X0*%
G04 APERTURE END LIST*
D10*
X141166666Y-56804819D02*
X140833333Y-56328628D01*
X140595238Y-56804819D02*
X140595238Y-55804819D01*
X140595238Y-55804819D02*
X140976190Y-55804819D01*
X140976190Y-55804819D02*
X141071428Y-55852438D01*
X141071428Y-55852438D02*
X141119047Y-55900057D01*
X141119047Y-55900057D02*
X141166666Y-55995295D01*
X141166666Y-55995295D02*
X141166666Y-56138152D01*
X141166666Y-56138152D02*
X141119047Y-56233390D01*
X141119047Y-56233390D02*
X141071428Y-56281009D01*
X141071428Y-56281009D02*
X140976190Y-56328628D01*
X140976190Y-56328628D02*
X140595238Y-56328628D01*
X141595238Y-56281009D02*
X141928571Y-56281009D01*
X142071428Y-56804819D02*
X141595238Y-56804819D01*
X141595238Y-56804819D02*
X141595238Y-55804819D01*
X141595238Y-55804819D02*
X142071428Y-55804819D01*
X142833333Y-56281009D02*
X142500000Y-56281009D01*
X142500000Y-56804819D02*
X142500000Y-55804819D01*
X142500000Y-55804819D02*
X142976190Y-55804819D01*
X143500000Y-55804819D02*
X143500000Y-56042914D01*
X143261905Y-55947676D02*
X143500000Y-56042914D01*
X143500000Y-56042914D02*
X143738095Y-55947676D01*
X143357143Y-56233390D02*
X143500000Y-56042914D01*
X143500000Y-56042914D02*
X143642857Y-56233390D01*
X144261905Y-55804819D02*
X144261905Y-56042914D01*
X144023810Y-55947676D02*
X144261905Y-56042914D01*
X144261905Y-56042914D02*
X144500000Y-55947676D01*
X144119048Y-56233390D02*
X144261905Y-56042914D01*
X144261905Y-56042914D02*
X144404762Y-56233390D01*
X152833333Y-78024819D02*
X152500000Y-77548628D01*
X152261905Y-78024819D02*
X152261905Y-77024819D01*
X152261905Y-77024819D02*
X152642857Y-77024819D01*
X152642857Y-77024819D02*
X152738095Y-77072438D01*
X152738095Y-77072438D02*
X152785714Y-77120057D01*
X152785714Y-77120057D02*
X152833333Y-77215295D01*
X152833333Y-77215295D02*
X152833333Y-77358152D01*
X152833333Y-77358152D02*
X152785714Y-77453390D01*
X152785714Y-77453390D02*
X152738095Y-77501009D01*
X152738095Y-77501009D02*
X152642857Y-77548628D01*
X152642857Y-77548628D02*
X152261905Y-77548628D01*
X153214286Y-77120057D02*
X153261905Y-77072438D01*
X153261905Y-77072438D02*
X153357143Y-77024819D01*
X153357143Y-77024819D02*
X153595238Y-77024819D01*
X153595238Y-77024819D02*
X153690476Y-77072438D01*
X153690476Y-77072438D02*
X153738095Y-77120057D01*
X153738095Y-77120057D02*
X153785714Y-77215295D01*
X153785714Y-77215295D02*
X153785714Y-77310533D01*
X153785714Y-77310533D02*
X153738095Y-77453390D01*
X153738095Y-77453390D02*
X153166667Y-78024819D01*
X153166667Y-78024819D02*
X153785714Y-78024819D01*
X162166666Y-103904819D02*
X162166666Y-104619104D01*
X162166666Y-104619104D02*
X162119047Y-104761961D01*
X162119047Y-104761961D02*
X162023809Y-104857200D01*
X162023809Y-104857200D02*
X161880952Y-104904819D01*
X161880952Y-104904819D02*
X161785714Y-104904819D01*
X163071428Y-104238152D02*
X163071428Y-104904819D01*
X162833333Y-103857200D02*
X162595238Y-104571485D01*
X162595238Y-104571485D02*
X163214285Y-104571485D01*
X157833333Y-96429580D02*
X157785714Y-96477200D01*
X157785714Y-96477200D02*
X157642857Y-96524819D01*
X157642857Y-96524819D02*
X157547619Y-96524819D01*
X157547619Y-96524819D02*
X157404762Y-96477200D01*
X157404762Y-96477200D02*
X157309524Y-96381961D01*
X157309524Y-96381961D02*
X157261905Y-96286723D01*
X157261905Y-96286723D02*
X157214286Y-96096247D01*
X157214286Y-96096247D02*
X157214286Y-95953390D01*
X157214286Y-95953390D02*
X157261905Y-95762914D01*
X157261905Y-95762914D02*
X157309524Y-95667676D01*
X157309524Y-95667676D02*
X157404762Y-95572438D01*
X157404762Y-95572438D02*
X157547619Y-95524819D01*
X157547619Y-95524819D02*
X157642857Y-95524819D01*
X157642857Y-95524819D02*
X157785714Y-95572438D01*
X157785714Y-95572438D02*
X157833333Y-95620057D01*
X158309524Y-96524819D02*
X158500000Y-96524819D01*
X158500000Y-96524819D02*
X158595238Y-96477200D01*
X158595238Y-96477200D02*
X158642857Y-96429580D01*
X158642857Y-96429580D02*
X158738095Y-96286723D01*
X158738095Y-96286723D02*
X158785714Y-96096247D01*
X158785714Y-96096247D02*
X158785714Y-95715295D01*
X158785714Y-95715295D02*
X158738095Y-95620057D01*
X158738095Y-95620057D02*
X158690476Y-95572438D01*
X158690476Y-95572438D02*
X158595238Y-95524819D01*
X158595238Y-95524819D02*
X158404762Y-95524819D01*
X158404762Y-95524819D02*
X158309524Y-95572438D01*
X158309524Y-95572438D02*
X158261905Y-95620057D01*
X158261905Y-95620057D02*
X158214286Y-95715295D01*
X158214286Y-95715295D02*
X158214286Y-95953390D01*
X158214286Y-95953390D02*
X158261905Y-96048628D01*
X158261905Y-96048628D02*
X158309524Y-96096247D01*
X158309524Y-96096247D02*
X158404762Y-96143866D01*
X158404762Y-96143866D02*
X158595238Y-96143866D01*
X158595238Y-96143866D02*
X158690476Y-96096247D01*
X158690476Y-96096247D02*
X158738095Y-96048628D01*
X158738095Y-96048628D02*
X158785714Y-95953390D01*
X141166666Y-124304819D02*
X140833333Y-123828628D01*
X140595238Y-124304819D02*
X140595238Y-123304819D01*
X140595238Y-123304819D02*
X140976190Y-123304819D01*
X140976190Y-123304819D02*
X141071428Y-123352438D01*
X141071428Y-123352438D02*
X141119047Y-123400057D01*
X141119047Y-123400057D02*
X141166666Y-123495295D01*
X141166666Y-123495295D02*
X141166666Y-123638152D01*
X141166666Y-123638152D02*
X141119047Y-123733390D01*
X141119047Y-123733390D02*
X141071428Y-123781009D01*
X141071428Y-123781009D02*
X140976190Y-123828628D01*
X140976190Y-123828628D02*
X140595238Y-123828628D01*
X141595238Y-123781009D02*
X141928571Y-123781009D01*
X142071428Y-124304819D02*
X141595238Y-124304819D01*
X141595238Y-124304819D02*
X141595238Y-123304819D01*
X141595238Y-123304819D02*
X142071428Y-123304819D01*
X142833333Y-123781009D02*
X142500000Y-123781009D01*
X142500000Y-124304819D02*
X142500000Y-123304819D01*
X142500000Y-123304819D02*
X142976190Y-123304819D01*
X143500000Y-123304819D02*
X143500000Y-123542914D01*
X143261905Y-123447676D02*
X143500000Y-123542914D01*
X143500000Y-123542914D02*
X143738095Y-123447676D01*
X143357143Y-123733390D02*
X143500000Y-123542914D01*
X143500000Y-123542914D02*
X143642857Y-123733390D01*
X144261905Y-123304819D02*
X144261905Y-123542914D01*
X144023810Y-123447676D02*
X144261905Y-123542914D01*
X144261905Y-123542914D02*
X144500000Y-123447676D01*
X144119048Y-123733390D02*
X144261905Y-123542914D01*
X144261905Y-123542914D02*
X144404762Y-123733390D01*
X171690476Y-110404819D02*
X171690476Y-111119104D01*
X171690476Y-111119104D02*
X171642857Y-111261961D01*
X171642857Y-111261961D02*
X171547619Y-111357200D01*
X171547619Y-111357200D02*
X171404762Y-111404819D01*
X171404762Y-111404819D02*
X171309524Y-111404819D01*
X172690476Y-111404819D02*
X172119048Y-111404819D01*
X172404762Y-111404819D02*
X172404762Y-110404819D01*
X172404762Y-110404819D02*
X172309524Y-110547676D01*
X172309524Y-110547676D02*
X172214286Y-110642914D01*
X172214286Y-110642914D02*
X172119048Y-110690533D01*
X173309524Y-110404819D02*
X173404762Y-110404819D01*
X173404762Y-110404819D02*
X173500000Y-110452438D01*
X173500000Y-110452438D02*
X173547619Y-110500057D01*
X173547619Y-110500057D02*
X173595238Y-110595295D01*
X173595238Y-110595295D02*
X173642857Y-110785771D01*
X173642857Y-110785771D02*
X173642857Y-111023866D01*
X173642857Y-111023866D02*
X173595238Y-111214342D01*
X173595238Y-111214342D02*
X173547619Y-111309580D01*
X173547619Y-111309580D02*
X173500000Y-111357200D01*
X173500000Y-111357200D02*
X173404762Y-111404819D01*
X173404762Y-111404819D02*
X173309524Y-111404819D01*
X173309524Y-111404819D02*
X173214286Y-111357200D01*
X173214286Y-111357200D02*
X173166667Y-111309580D01*
X173166667Y-111309580D02*
X173119048Y-111214342D01*
X173119048Y-111214342D02*
X173071429Y-111023866D01*
X173071429Y-111023866D02*
X173071429Y-110785771D01*
X173071429Y-110785771D02*
X173119048Y-110595295D01*
X173119048Y-110595295D02*
X173166667Y-110500057D01*
X173166667Y-110500057D02*
X173214286Y-110452438D01*
X173214286Y-110452438D02*
X173309524Y-110404819D01*
X170440476Y-91904819D02*
X170440476Y-92619104D01*
X170440476Y-92619104D02*
X170392857Y-92761961D01*
X170392857Y-92761961D02*
X170297619Y-92857200D01*
X170297619Y-92857200D02*
X170154762Y-92904819D01*
X170154762Y-92904819D02*
X170059524Y-92904819D01*
X170869048Y-92000057D02*
X170916667Y-91952438D01*
X170916667Y-91952438D02*
X171011905Y-91904819D01*
X171011905Y-91904819D02*
X171250000Y-91904819D01*
X171250000Y-91904819D02*
X171345238Y-91952438D01*
X171345238Y-91952438D02*
X171392857Y-92000057D01*
X171392857Y-92000057D02*
X171440476Y-92095295D01*
X171440476Y-92095295D02*
X171440476Y-92190533D01*
X171440476Y-92190533D02*
X171392857Y-92333390D01*
X171392857Y-92333390D02*
X170821429Y-92904819D01*
X170821429Y-92904819D02*
X171440476Y-92904819D01*
X171821429Y-92000057D02*
X171869048Y-91952438D01*
X171869048Y-91952438D02*
X171964286Y-91904819D01*
X171964286Y-91904819D02*
X172202381Y-91904819D01*
X172202381Y-91904819D02*
X172297619Y-91952438D01*
X172297619Y-91952438D02*
X172345238Y-92000057D01*
X172345238Y-92000057D02*
X172392857Y-92095295D01*
X172392857Y-92095295D02*
X172392857Y-92190533D01*
X172392857Y-92190533D02*
X172345238Y-92333390D01*
X172345238Y-92333390D02*
X171773810Y-92904819D01*
X171773810Y-92904819D02*
X172392857Y-92904819D01*
X158929580Y-80642857D02*
X158977200Y-80690476D01*
X158977200Y-80690476D02*
X159024819Y-80833333D01*
X159024819Y-80833333D02*
X159024819Y-80928571D01*
X159024819Y-80928571D02*
X158977200Y-81071428D01*
X158977200Y-81071428D02*
X158881961Y-81166666D01*
X158881961Y-81166666D02*
X158786723Y-81214285D01*
X158786723Y-81214285D02*
X158596247Y-81261904D01*
X158596247Y-81261904D02*
X158453390Y-81261904D01*
X158453390Y-81261904D02*
X158262914Y-81214285D01*
X158262914Y-81214285D02*
X158167676Y-81166666D01*
X158167676Y-81166666D02*
X158072438Y-81071428D01*
X158072438Y-81071428D02*
X158024819Y-80928571D01*
X158024819Y-80928571D02*
X158024819Y-80833333D01*
X158024819Y-80833333D02*
X158072438Y-80690476D01*
X158072438Y-80690476D02*
X158120057Y-80642857D01*
X158120057Y-80261904D02*
X158072438Y-80214285D01*
X158072438Y-80214285D02*
X158024819Y-80119047D01*
X158024819Y-80119047D02*
X158024819Y-79880952D01*
X158024819Y-79880952D02*
X158072438Y-79785714D01*
X158072438Y-79785714D02*
X158120057Y-79738095D01*
X158120057Y-79738095D02*
X158215295Y-79690476D01*
X158215295Y-79690476D02*
X158310533Y-79690476D01*
X158310533Y-79690476D02*
X158453390Y-79738095D01*
X158453390Y-79738095D02*
X159024819Y-80309523D01*
X159024819Y-80309523D02*
X159024819Y-79690476D01*
X158024819Y-78785714D02*
X158024819Y-79261904D01*
X158024819Y-79261904D02*
X158501009Y-79309523D01*
X158501009Y-79309523D02*
X158453390Y-79261904D01*
X158453390Y-79261904D02*
X158405771Y-79166666D01*
X158405771Y-79166666D02*
X158405771Y-78928571D01*
X158405771Y-78928571D02*
X158453390Y-78833333D01*
X158453390Y-78833333D02*
X158501009Y-78785714D01*
X158501009Y-78785714D02*
X158596247Y-78738095D01*
X158596247Y-78738095D02*
X158834342Y-78738095D01*
X158834342Y-78738095D02*
X158929580Y-78785714D01*
X158929580Y-78785714D02*
X158977200Y-78833333D01*
X158977200Y-78833333D02*
X159024819Y-78928571D01*
X159024819Y-78928571D02*
X159024819Y-79166666D01*
X159024819Y-79166666D02*
X158977200Y-79261904D01*
X158977200Y-79261904D02*
X158929580Y-79309523D01*
X170440476Y-85904819D02*
X170440476Y-86619104D01*
X170440476Y-86619104D02*
X170392857Y-86761961D01*
X170392857Y-86761961D02*
X170297619Y-86857200D01*
X170297619Y-86857200D02*
X170154762Y-86904819D01*
X170154762Y-86904819D02*
X170059524Y-86904819D01*
X170869048Y-86000057D02*
X170916667Y-85952438D01*
X170916667Y-85952438D02*
X171011905Y-85904819D01*
X171011905Y-85904819D02*
X171250000Y-85904819D01*
X171250000Y-85904819D02*
X171345238Y-85952438D01*
X171345238Y-85952438D02*
X171392857Y-86000057D01*
X171392857Y-86000057D02*
X171440476Y-86095295D01*
X171440476Y-86095295D02*
X171440476Y-86190533D01*
X171440476Y-86190533D02*
X171392857Y-86333390D01*
X171392857Y-86333390D02*
X170821429Y-86904819D01*
X170821429Y-86904819D02*
X171440476Y-86904819D01*
X172297619Y-85904819D02*
X172107143Y-85904819D01*
X172107143Y-85904819D02*
X172011905Y-85952438D01*
X172011905Y-85952438D02*
X171964286Y-86000057D01*
X171964286Y-86000057D02*
X171869048Y-86142914D01*
X171869048Y-86142914D02*
X171821429Y-86333390D01*
X171821429Y-86333390D02*
X171821429Y-86714342D01*
X171821429Y-86714342D02*
X171869048Y-86809580D01*
X171869048Y-86809580D02*
X171916667Y-86857200D01*
X171916667Y-86857200D02*
X172011905Y-86904819D01*
X172011905Y-86904819D02*
X172202381Y-86904819D01*
X172202381Y-86904819D02*
X172297619Y-86857200D01*
X172297619Y-86857200D02*
X172345238Y-86809580D01*
X172345238Y-86809580D02*
X172392857Y-86714342D01*
X172392857Y-86714342D02*
X172392857Y-86476247D01*
X172392857Y-86476247D02*
X172345238Y-86381009D01*
X172345238Y-86381009D02*
X172297619Y-86333390D01*
X172297619Y-86333390D02*
X172202381Y-86285771D01*
X172202381Y-86285771D02*
X172011905Y-86285771D01*
X172011905Y-86285771D02*
X171916667Y-86333390D01*
X171916667Y-86333390D02*
X171869048Y-86381009D01*
X171869048Y-86381009D02*
X171821429Y-86476247D01*
X157333333Y-78789580D02*
X157285714Y-78837200D01*
X157285714Y-78837200D02*
X157142857Y-78884819D01*
X157142857Y-78884819D02*
X157047619Y-78884819D01*
X157047619Y-78884819D02*
X156904762Y-78837200D01*
X156904762Y-78837200D02*
X156809524Y-78741961D01*
X156809524Y-78741961D02*
X156761905Y-78646723D01*
X156761905Y-78646723D02*
X156714286Y-78456247D01*
X156714286Y-78456247D02*
X156714286Y-78313390D01*
X156714286Y-78313390D02*
X156761905Y-78122914D01*
X156761905Y-78122914D02*
X156809524Y-78027676D01*
X156809524Y-78027676D02*
X156904762Y-77932438D01*
X156904762Y-77932438D02*
X157047619Y-77884819D01*
X157047619Y-77884819D02*
X157142857Y-77884819D01*
X157142857Y-77884819D02*
X157285714Y-77932438D01*
X157285714Y-77932438D02*
X157333333Y-77980057D01*
X158285714Y-78884819D02*
X157714286Y-78884819D01*
X158000000Y-78884819D02*
X158000000Y-77884819D01*
X158000000Y-77884819D02*
X157904762Y-78027676D01*
X157904762Y-78027676D02*
X157809524Y-78122914D01*
X157809524Y-78122914D02*
X157714286Y-78170533D01*
X157166666Y-137779819D02*
X157166666Y-138494104D01*
X157166666Y-138494104D02*
X157119047Y-138636961D01*
X157119047Y-138636961D02*
X157023809Y-138732200D01*
X157023809Y-138732200D02*
X156880952Y-138779819D01*
X156880952Y-138779819D02*
X156785714Y-138779819D01*
X158166666Y-138779819D02*
X157595238Y-138779819D01*
X157880952Y-138779819D02*
X157880952Y-137779819D01*
X157880952Y-137779819D02*
X157785714Y-137922676D01*
X157785714Y-137922676D02*
X157690476Y-138017914D01*
X157690476Y-138017914D02*
X157595238Y-138065533D01*
X162428571Y-123939700D02*
X163571429Y-123939700D01*
X163000000Y-124511128D02*
X163000000Y-123368271D01*
X151428571Y-123939700D02*
X152571429Y-123939700D01*
X141690476Y-48904819D02*
X141690476Y-49619104D01*
X141690476Y-49619104D02*
X141642857Y-49761961D01*
X141642857Y-49761961D02*
X141547619Y-49857200D01*
X141547619Y-49857200D02*
X141404762Y-49904819D01*
X141404762Y-49904819D02*
X141309524Y-49904819D01*
X142690476Y-49904819D02*
X142119048Y-49904819D01*
X142404762Y-49904819D02*
X142404762Y-48904819D01*
X142404762Y-48904819D02*
X142309524Y-49047676D01*
X142309524Y-49047676D02*
X142214286Y-49142914D01*
X142214286Y-49142914D02*
X142119048Y-49190533D01*
X143547619Y-48904819D02*
X143357143Y-48904819D01*
X143357143Y-48904819D02*
X143261905Y-48952438D01*
X143261905Y-48952438D02*
X143214286Y-49000057D01*
X143214286Y-49000057D02*
X143119048Y-49142914D01*
X143119048Y-49142914D02*
X143071429Y-49333390D01*
X143071429Y-49333390D02*
X143071429Y-49714342D01*
X143071429Y-49714342D02*
X143119048Y-49809580D01*
X143119048Y-49809580D02*
X143166667Y-49857200D01*
X143166667Y-49857200D02*
X143261905Y-49904819D01*
X143261905Y-49904819D02*
X143452381Y-49904819D01*
X143452381Y-49904819D02*
X143547619Y-49857200D01*
X143547619Y-49857200D02*
X143595238Y-49809580D01*
X143595238Y-49809580D02*
X143642857Y-49714342D01*
X143642857Y-49714342D02*
X143642857Y-49476247D01*
X143642857Y-49476247D02*
X143595238Y-49381009D01*
X143595238Y-49381009D02*
X143547619Y-49333390D01*
X143547619Y-49333390D02*
X143452381Y-49285771D01*
X143452381Y-49285771D02*
X143261905Y-49285771D01*
X143261905Y-49285771D02*
X143166667Y-49333390D01*
X143166667Y-49333390D02*
X143119048Y-49381009D01*
X143119048Y-49381009D02*
X143071429Y-49476247D01*
X141690476Y-116404819D02*
X141690476Y-117119104D01*
X141690476Y-117119104D02*
X141642857Y-117261961D01*
X141642857Y-117261961D02*
X141547619Y-117357200D01*
X141547619Y-117357200D02*
X141404762Y-117404819D01*
X141404762Y-117404819D02*
X141309524Y-117404819D01*
X142690476Y-117404819D02*
X142119048Y-117404819D01*
X142404762Y-117404819D02*
X142404762Y-116404819D01*
X142404762Y-116404819D02*
X142309524Y-116547676D01*
X142309524Y-116547676D02*
X142214286Y-116642914D01*
X142214286Y-116642914D02*
X142119048Y-116690533D01*
X143642857Y-117404819D02*
X143071429Y-117404819D01*
X143357143Y-117404819D02*
X143357143Y-116404819D01*
X143357143Y-116404819D02*
X143261905Y-116547676D01*
X143261905Y-116547676D02*
X143166667Y-116642914D01*
X143166667Y-116642914D02*
X143071429Y-116690533D01*
X155789580Y-89642857D02*
X155837200Y-89690476D01*
X155837200Y-89690476D02*
X155884819Y-89833333D01*
X155884819Y-89833333D02*
X155884819Y-89928571D01*
X155884819Y-89928571D02*
X155837200Y-90071428D01*
X155837200Y-90071428D02*
X155741961Y-90166666D01*
X155741961Y-90166666D02*
X155646723Y-90214285D01*
X155646723Y-90214285D02*
X155456247Y-90261904D01*
X155456247Y-90261904D02*
X155313390Y-90261904D01*
X155313390Y-90261904D02*
X155122914Y-90214285D01*
X155122914Y-90214285D02*
X155027676Y-90166666D01*
X155027676Y-90166666D02*
X154932438Y-90071428D01*
X154932438Y-90071428D02*
X154884819Y-89928571D01*
X154884819Y-89928571D02*
X154884819Y-89833333D01*
X154884819Y-89833333D02*
X154932438Y-89690476D01*
X154932438Y-89690476D02*
X154980057Y-89642857D01*
X155884819Y-88690476D02*
X155884819Y-89261904D01*
X155884819Y-88976190D02*
X154884819Y-88976190D01*
X154884819Y-88976190D02*
X155027676Y-89071428D01*
X155027676Y-89071428D02*
X155122914Y-89166666D01*
X155122914Y-89166666D02*
X155170533Y-89261904D01*
X154884819Y-87785714D02*
X154884819Y-88261904D01*
X154884819Y-88261904D02*
X155361009Y-88309523D01*
X155361009Y-88309523D02*
X155313390Y-88261904D01*
X155313390Y-88261904D02*
X155265771Y-88166666D01*
X155265771Y-88166666D02*
X155265771Y-87928571D01*
X155265771Y-87928571D02*
X155313390Y-87833333D01*
X155313390Y-87833333D02*
X155361009Y-87785714D01*
X155361009Y-87785714D02*
X155456247Y-87738095D01*
X155456247Y-87738095D02*
X155694342Y-87738095D01*
X155694342Y-87738095D02*
X155789580Y-87785714D01*
X155789580Y-87785714D02*
X155837200Y-87833333D01*
X155837200Y-87833333D02*
X155884819Y-87928571D01*
X155884819Y-87928571D02*
X155884819Y-88166666D01*
X155884819Y-88166666D02*
X155837200Y-88261904D01*
X155837200Y-88261904D02*
X155789580Y-88309523D01*
X141690476Y-129379819D02*
X141690476Y-130094104D01*
X141690476Y-130094104D02*
X141642857Y-130236961D01*
X141642857Y-130236961D02*
X141547619Y-130332200D01*
X141547619Y-130332200D02*
X141404762Y-130379819D01*
X141404762Y-130379819D02*
X141309524Y-130379819D01*
X142690476Y-130379819D02*
X142119048Y-130379819D01*
X142404762Y-130379819D02*
X142404762Y-129379819D01*
X142404762Y-129379819D02*
X142309524Y-129522676D01*
X142309524Y-129522676D02*
X142214286Y-129617914D01*
X142214286Y-129617914D02*
X142119048Y-129665533D01*
X143023810Y-129379819D02*
X143642857Y-129379819D01*
X143642857Y-129379819D02*
X143309524Y-129760771D01*
X143309524Y-129760771D02*
X143452381Y-129760771D01*
X143452381Y-129760771D02*
X143547619Y-129808390D01*
X143547619Y-129808390D02*
X143595238Y-129856009D01*
X143595238Y-129856009D02*
X143642857Y-129951247D01*
X143642857Y-129951247D02*
X143642857Y-130189342D01*
X143642857Y-130189342D02*
X143595238Y-130284580D01*
X143595238Y-130284580D02*
X143547619Y-130332200D01*
X143547619Y-130332200D02*
X143452381Y-130379819D01*
X143452381Y-130379819D02*
X143166667Y-130379819D01*
X143166667Y-130379819D02*
X143071429Y-130332200D01*
X143071429Y-130332200D02*
X143023810Y-130284580D01*
X148833333Y-82709580D02*
X148785714Y-82757200D01*
X148785714Y-82757200D02*
X148642857Y-82804819D01*
X148642857Y-82804819D02*
X148547619Y-82804819D01*
X148547619Y-82804819D02*
X148404762Y-82757200D01*
X148404762Y-82757200D02*
X148309524Y-82661961D01*
X148309524Y-82661961D02*
X148261905Y-82566723D01*
X148261905Y-82566723D02*
X148214286Y-82376247D01*
X148214286Y-82376247D02*
X148214286Y-82233390D01*
X148214286Y-82233390D02*
X148261905Y-82042914D01*
X148261905Y-82042914D02*
X148309524Y-81947676D01*
X148309524Y-81947676D02*
X148404762Y-81852438D01*
X148404762Y-81852438D02*
X148547619Y-81804819D01*
X148547619Y-81804819D02*
X148642857Y-81804819D01*
X148642857Y-81804819D02*
X148785714Y-81852438D01*
X148785714Y-81852438D02*
X148833333Y-81900057D01*
X149690476Y-82138152D02*
X149690476Y-82804819D01*
X149452381Y-81757200D02*
X149214286Y-82471485D01*
X149214286Y-82471485D02*
X149833333Y-82471485D01*
X152833333Y-76429580D02*
X152785714Y-76477200D01*
X152785714Y-76477200D02*
X152642857Y-76524819D01*
X152642857Y-76524819D02*
X152547619Y-76524819D01*
X152547619Y-76524819D02*
X152404762Y-76477200D01*
X152404762Y-76477200D02*
X152309524Y-76381961D01*
X152309524Y-76381961D02*
X152261905Y-76286723D01*
X152261905Y-76286723D02*
X152214286Y-76096247D01*
X152214286Y-76096247D02*
X152214286Y-75953390D01*
X152214286Y-75953390D02*
X152261905Y-75762914D01*
X152261905Y-75762914D02*
X152309524Y-75667676D01*
X152309524Y-75667676D02*
X152404762Y-75572438D01*
X152404762Y-75572438D02*
X152547619Y-75524819D01*
X152547619Y-75524819D02*
X152642857Y-75524819D01*
X152642857Y-75524819D02*
X152785714Y-75572438D01*
X152785714Y-75572438D02*
X152833333Y-75620057D01*
X153166667Y-75524819D02*
X153785714Y-75524819D01*
X153785714Y-75524819D02*
X153452381Y-75905771D01*
X153452381Y-75905771D02*
X153595238Y-75905771D01*
X153595238Y-75905771D02*
X153690476Y-75953390D01*
X153690476Y-75953390D02*
X153738095Y-76001009D01*
X153738095Y-76001009D02*
X153785714Y-76096247D01*
X153785714Y-76096247D02*
X153785714Y-76334342D01*
X153785714Y-76334342D02*
X153738095Y-76429580D01*
X153738095Y-76429580D02*
X153690476Y-76477200D01*
X153690476Y-76477200D02*
X153595238Y-76524819D01*
X153595238Y-76524819D02*
X153309524Y-76524819D01*
X153309524Y-76524819D02*
X153214286Y-76477200D01*
X153214286Y-76477200D02*
X153166667Y-76429580D01*
X152761905Y-62454819D02*
X152761905Y-61454819D01*
X152761905Y-61454819D02*
X153000000Y-61454819D01*
X153000000Y-61454819D02*
X153142857Y-61502438D01*
X153142857Y-61502438D02*
X153238095Y-61597676D01*
X153238095Y-61597676D02*
X153285714Y-61692914D01*
X153285714Y-61692914D02*
X153333333Y-61883390D01*
X153333333Y-61883390D02*
X153333333Y-62026247D01*
X153333333Y-62026247D02*
X153285714Y-62216723D01*
X153285714Y-62216723D02*
X153238095Y-62311961D01*
X153238095Y-62311961D02*
X153142857Y-62407200D01*
X153142857Y-62407200D02*
X153000000Y-62454819D01*
X153000000Y-62454819D02*
X152761905Y-62454819D01*
X154285714Y-62454819D02*
X153714286Y-62454819D01*
X154000000Y-62454819D02*
X154000000Y-61454819D01*
X154000000Y-61454819D02*
X153904762Y-61597676D01*
X153904762Y-61597676D02*
X153809524Y-61692914D01*
X153809524Y-61692914D02*
X153714286Y-61740533D01*
X167940476Y-61879819D02*
X167940476Y-62594104D01*
X167940476Y-62594104D02*
X167892857Y-62736961D01*
X167892857Y-62736961D02*
X167797619Y-62832200D01*
X167797619Y-62832200D02*
X167654762Y-62879819D01*
X167654762Y-62879819D02*
X167559524Y-62879819D01*
X168369048Y-61975057D02*
X168416667Y-61927438D01*
X168416667Y-61927438D02*
X168511905Y-61879819D01*
X168511905Y-61879819D02*
X168750000Y-61879819D01*
X168750000Y-61879819D02*
X168845238Y-61927438D01*
X168845238Y-61927438D02*
X168892857Y-61975057D01*
X168892857Y-61975057D02*
X168940476Y-62070295D01*
X168940476Y-62070295D02*
X168940476Y-62165533D01*
X168940476Y-62165533D02*
X168892857Y-62308390D01*
X168892857Y-62308390D02*
X168321429Y-62879819D01*
X168321429Y-62879819D02*
X168940476Y-62879819D01*
X169892857Y-62879819D02*
X169321429Y-62879819D01*
X169607143Y-62879819D02*
X169607143Y-61879819D01*
X169607143Y-61879819D02*
X169511905Y-62022676D01*
X169511905Y-62022676D02*
X169416667Y-62117914D01*
X169416667Y-62117914D02*
X169321429Y-62165533D01*
X150333333Y-77704819D02*
X149857143Y-77704819D01*
X149857143Y-77704819D02*
X149857143Y-76704819D01*
X151190476Y-77704819D02*
X150619048Y-77704819D01*
X150904762Y-77704819D02*
X150904762Y-76704819D01*
X150904762Y-76704819D02*
X150809524Y-76847676D01*
X150809524Y-76847676D02*
X150714286Y-76942914D01*
X150714286Y-76942914D02*
X150619048Y-76990533D01*
X141690476Y-61904819D02*
X141690476Y-62619104D01*
X141690476Y-62619104D02*
X141642857Y-62761961D01*
X141642857Y-62761961D02*
X141547619Y-62857200D01*
X141547619Y-62857200D02*
X141404762Y-62904819D01*
X141404762Y-62904819D02*
X141309524Y-62904819D01*
X142690476Y-62904819D02*
X142119048Y-62904819D01*
X142404762Y-62904819D02*
X142404762Y-61904819D01*
X142404762Y-61904819D02*
X142309524Y-62047676D01*
X142309524Y-62047676D02*
X142214286Y-62142914D01*
X142214286Y-62142914D02*
X142119048Y-62190533D01*
X143261905Y-62333390D02*
X143166667Y-62285771D01*
X143166667Y-62285771D02*
X143119048Y-62238152D01*
X143119048Y-62238152D02*
X143071429Y-62142914D01*
X143071429Y-62142914D02*
X143071429Y-62095295D01*
X143071429Y-62095295D02*
X143119048Y-62000057D01*
X143119048Y-62000057D02*
X143166667Y-61952438D01*
X143166667Y-61952438D02*
X143261905Y-61904819D01*
X143261905Y-61904819D02*
X143452381Y-61904819D01*
X143452381Y-61904819D02*
X143547619Y-61952438D01*
X143547619Y-61952438D02*
X143595238Y-62000057D01*
X143595238Y-62000057D02*
X143642857Y-62095295D01*
X143642857Y-62095295D02*
X143642857Y-62142914D01*
X143642857Y-62142914D02*
X143595238Y-62238152D01*
X143595238Y-62238152D02*
X143547619Y-62285771D01*
X143547619Y-62285771D02*
X143452381Y-62333390D01*
X143452381Y-62333390D02*
X143261905Y-62333390D01*
X143261905Y-62333390D02*
X143166667Y-62381009D01*
X143166667Y-62381009D02*
X143119048Y-62428628D01*
X143119048Y-62428628D02*
X143071429Y-62523866D01*
X143071429Y-62523866D02*
X143071429Y-62714342D01*
X143071429Y-62714342D02*
X143119048Y-62809580D01*
X143119048Y-62809580D02*
X143166667Y-62857200D01*
X143166667Y-62857200D02*
X143261905Y-62904819D01*
X143261905Y-62904819D02*
X143452381Y-62904819D01*
X143452381Y-62904819D02*
X143547619Y-62857200D01*
X143547619Y-62857200D02*
X143595238Y-62809580D01*
X143595238Y-62809580D02*
X143642857Y-62714342D01*
X143642857Y-62714342D02*
X143642857Y-62523866D01*
X143642857Y-62523866D02*
X143595238Y-62428628D01*
X143595238Y-62428628D02*
X143547619Y-62381009D01*
X143547619Y-62381009D02*
X143452381Y-62333390D01*
X171690476Y-116404819D02*
X171690476Y-117119104D01*
X171690476Y-117119104D02*
X171642857Y-117261961D01*
X171642857Y-117261961D02*
X171547619Y-117357200D01*
X171547619Y-117357200D02*
X171404762Y-117404819D01*
X171404762Y-117404819D02*
X171309524Y-117404819D01*
X172690476Y-117404819D02*
X172119048Y-117404819D01*
X172404762Y-117404819D02*
X172404762Y-116404819D01*
X172404762Y-116404819D02*
X172309524Y-116547676D01*
X172309524Y-116547676D02*
X172214286Y-116642914D01*
X172214286Y-116642914D02*
X172119048Y-116690533D01*
X173071429Y-116500057D02*
X173119048Y-116452438D01*
X173119048Y-116452438D02*
X173214286Y-116404819D01*
X173214286Y-116404819D02*
X173452381Y-116404819D01*
X173452381Y-116404819D02*
X173547619Y-116452438D01*
X173547619Y-116452438D02*
X173595238Y-116500057D01*
X173595238Y-116500057D02*
X173642857Y-116595295D01*
X173642857Y-116595295D02*
X173642857Y-116690533D01*
X173642857Y-116690533D02*
X173595238Y-116833390D01*
X173595238Y-116833390D02*
X173023810Y-117404819D01*
X173023810Y-117404819D02*
X173642857Y-117404819D01*
X167940476Y-48904819D02*
X167940476Y-49619104D01*
X167940476Y-49619104D02*
X167892857Y-49761961D01*
X167892857Y-49761961D02*
X167797619Y-49857200D01*
X167797619Y-49857200D02*
X167654762Y-49904819D01*
X167654762Y-49904819D02*
X167559524Y-49904819D01*
X168369048Y-49000057D02*
X168416667Y-48952438D01*
X168416667Y-48952438D02*
X168511905Y-48904819D01*
X168511905Y-48904819D02*
X168750000Y-48904819D01*
X168750000Y-48904819D02*
X168845238Y-48952438D01*
X168845238Y-48952438D02*
X168892857Y-49000057D01*
X168892857Y-49000057D02*
X168940476Y-49095295D01*
X168940476Y-49095295D02*
X168940476Y-49190533D01*
X168940476Y-49190533D02*
X168892857Y-49333390D01*
X168892857Y-49333390D02*
X168321429Y-49904819D01*
X168321429Y-49904819D02*
X168940476Y-49904819D01*
X169845238Y-48904819D02*
X169369048Y-48904819D01*
X169369048Y-48904819D02*
X169321429Y-49381009D01*
X169321429Y-49381009D02*
X169369048Y-49333390D01*
X169369048Y-49333390D02*
X169464286Y-49285771D01*
X169464286Y-49285771D02*
X169702381Y-49285771D01*
X169702381Y-49285771D02*
X169797619Y-49333390D01*
X169797619Y-49333390D02*
X169845238Y-49381009D01*
X169845238Y-49381009D02*
X169892857Y-49476247D01*
X169892857Y-49476247D02*
X169892857Y-49714342D01*
X169892857Y-49714342D02*
X169845238Y-49809580D01*
X169845238Y-49809580D02*
X169797619Y-49857200D01*
X169797619Y-49857200D02*
X169702381Y-49904819D01*
X169702381Y-49904819D02*
X169464286Y-49904819D01*
X169464286Y-49904819D02*
X169369048Y-49857200D01*
X169369048Y-49857200D02*
X169321429Y-49809580D01*
X146099819Y-76809523D02*
X146814104Y-76809523D01*
X146814104Y-76809523D02*
X146956961Y-76857142D01*
X146956961Y-76857142D02*
X147052200Y-76952380D01*
X147052200Y-76952380D02*
X147099819Y-77095237D01*
X147099819Y-77095237D02*
X147099819Y-77190475D01*
X147099819Y-75809523D02*
X147099819Y-76380951D01*
X147099819Y-76095237D02*
X146099819Y-76095237D01*
X146099819Y-76095237D02*
X146242676Y-76190475D01*
X146242676Y-76190475D02*
X146337914Y-76285713D01*
X146337914Y-76285713D02*
X146385533Y-76380951D01*
X147099819Y-75333332D02*
X147099819Y-75142856D01*
X147099819Y-75142856D02*
X147052200Y-75047618D01*
X147052200Y-75047618D02*
X147004580Y-74999999D01*
X147004580Y-74999999D02*
X146861723Y-74904761D01*
X146861723Y-74904761D02*
X146671247Y-74857142D01*
X146671247Y-74857142D02*
X146290295Y-74857142D01*
X146290295Y-74857142D02*
X146195057Y-74904761D01*
X146195057Y-74904761D02*
X146147438Y-74952380D01*
X146147438Y-74952380D02*
X146099819Y-75047618D01*
X146099819Y-75047618D02*
X146099819Y-75238094D01*
X146099819Y-75238094D02*
X146147438Y-75333332D01*
X146147438Y-75333332D02*
X146195057Y-75380951D01*
X146195057Y-75380951D02*
X146290295Y-75428570D01*
X146290295Y-75428570D02*
X146528390Y-75428570D01*
X146528390Y-75428570D02*
X146623628Y-75380951D01*
X146623628Y-75380951D02*
X146671247Y-75333332D01*
X146671247Y-75333332D02*
X146718866Y-75238094D01*
X146718866Y-75238094D02*
X146718866Y-75047618D01*
X146718866Y-75047618D02*
X146671247Y-74952380D01*
X146671247Y-74952380D02*
X146623628Y-74904761D01*
X146623628Y-74904761D02*
X146528390Y-74857142D01*
X170440476Y-79904819D02*
X170440476Y-80619104D01*
X170440476Y-80619104D02*
X170392857Y-80761961D01*
X170392857Y-80761961D02*
X170297619Y-80857200D01*
X170297619Y-80857200D02*
X170154762Y-80904819D01*
X170154762Y-80904819D02*
X170059524Y-80904819D01*
X170869048Y-80000057D02*
X170916667Y-79952438D01*
X170916667Y-79952438D02*
X171011905Y-79904819D01*
X171011905Y-79904819D02*
X171250000Y-79904819D01*
X171250000Y-79904819D02*
X171345238Y-79952438D01*
X171345238Y-79952438D02*
X171392857Y-80000057D01*
X171392857Y-80000057D02*
X171440476Y-80095295D01*
X171440476Y-80095295D02*
X171440476Y-80190533D01*
X171440476Y-80190533D02*
X171392857Y-80333390D01*
X171392857Y-80333390D02*
X170821429Y-80904819D01*
X170821429Y-80904819D02*
X171440476Y-80904819D01*
X171773810Y-79904819D02*
X172440476Y-79904819D01*
X172440476Y-79904819D02*
X172011905Y-80904819D01*
X152166666Y-103904819D02*
X152166666Y-104619104D01*
X152166666Y-104619104D02*
X152119047Y-104761961D01*
X152119047Y-104761961D02*
X152023809Y-104857200D01*
X152023809Y-104857200D02*
X151880952Y-104904819D01*
X151880952Y-104904819D02*
X151785714Y-104904819D01*
X152547619Y-103904819D02*
X153166666Y-103904819D01*
X153166666Y-103904819D02*
X152833333Y-104285771D01*
X152833333Y-104285771D02*
X152976190Y-104285771D01*
X152976190Y-104285771D02*
X153071428Y-104333390D01*
X153071428Y-104333390D02*
X153119047Y-104381009D01*
X153119047Y-104381009D02*
X153166666Y-104476247D01*
X153166666Y-104476247D02*
X153166666Y-104714342D01*
X153166666Y-104714342D02*
X153119047Y-104809580D01*
X153119047Y-104809580D02*
X153071428Y-104857200D01*
X153071428Y-104857200D02*
X152976190Y-104904819D01*
X152976190Y-104904819D02*
X152690476Y-104904819D01*
X152690476Y-104904819D02*
X152595238Y-104857200D01*
X152595238Y-104857200D02*
X152547619Y-104809580D01*
X157679580Y-84642857D02*
X157727200Y-84690476D01*
X157727200Y-84690476D02*
X157774819Y-84833333D01*
X157774819Y-84833333D02*
X157774819Y-84928571D01*
X157774819Y-84928571D02*
X157727200Y-85071428D01*
X157727200Y-85071428D02*
X157631961Y-85166666D01*
X157631961Y-85166666D02*
X157536723Y-85214285D01*
X157536723Y-85214285D02*
X157346247Y-85261904D01*
X157346247Y-85261904D02*
X157203390Y-85261904D01*
X157203390Y-85261904D02*
X157012914Y-85214285D01*
X157012914Y-85214285D02*
X156917676Y-85166666D01*
X156917676Y-85166666D02*
X156822438Y-85071428D01*
X156822438Y-85071428D02*
X156774819Y-84928571D01*
X156774819Y-84928571D02*
X156774819Y-84833333D01*
X156774819Y-84833333D02*
X156822438Y-84690476D01*
X156822438Y-84690476D02*
X156870057Y-84642857D01*
X157774819Y-83690476D02*
X157774819Y-84261904D01*
X157774819Y-83976190D02*
X156774819Y-83976190D01*
X156774819Y-83976190D02*
X156917676Y-84071428D01*
X156917676Y-84071428D02*
X157012914Y-84166666D01*
X157012914Y-84166666D02*
X157060533Y-84261904D01*
X156774819Y-82833333D02*
X156774819Y-83023809D01*
X156774819Y-83023809D02*
X156822438Y-83119047D01*
X156822438Y-83119047D02*
X156870057Y-83166666D01*
X156870057Y-83166666D02*
X157012914Y-83261904D01*
X157012914Y-83261904D02*
X157203390Y-83309523D01*
X157203390Y-83309523D02*
X157584342Y-83309523D01*
X157584342Y-83309523D02*
X157679580Y-83261904D01*
X157679580Y-83261904D02*
X157727200Y-83214285D01*
X157727200Y-83214285D02*
X157774819Y-83119047D01*
X157774819Y-83119047D02*
X157774819Y-82928571D01*
X157774819Y-82928571D02*
X157727200Y-82833333D01*
X157727200Y-82833333D02*
X157679580Y-82785714D01*
X157679580Y-82785714D02*
X157584342Y-82738095D01*
X157584342Y-82738095D02*
X157346247Y-82738095D01*
X157346247Y-82738095D02*
X157251009Y-82785714D01*
X157251009Y-82785714D02*
X157203390Y-82833333D01*
X157203390Y-82833333D02*
X157155771Y-82928571D01*
X157155771Y-82928571D02*
X157155771Y-83119047D01*
X157155771Y-83119047D02*
X157203390Y-83214285D01*
X157203390Y-83214285D02*
X157251009Y-83261904D01*
X157251009Y-83261904D02*
X157346247Y-83309523D01*
X157333333Y-73539580D02*
X157285714Y-73587200D01*
X157285714Y-73587200D02*
X157142857Y-73634819D01*
X157142857Y-73634819D02*
X157047619Y-73634819D01*
X157047619Y-73634819D02*
X156904762Y-73587200D01*
X156904762Y-73587200D02*
X156809524Y-73491961D01*
X156809524Y-73491961D02*
X156761905Y-73396723D01*
X156761905Y-73396723D02*
X156714286Y-73206247D01*
X156714286Y-73206247D02*
X156714286Y-73063390D01*
X156714286Y-73063390D02*
X156761905Y-72872914D01*
X156761905Y-72872914D02*
X156809524Y-72777676D01*
X156809524Y-72777676D02*
X156904762Y-72682438D01*
X156904762Y-72682438D02*
X157047619Y-72634819D01*
X157047619Y-72634819D02*
X157142857Y-72634819D01*
X157142857Y-72634819D02*
X157285714Y-72682438D01*
X157285714Y-72682438D02*
X157333333Y-72730057D01*
X157714286Y-72730057D02*
X157761905Y-72682438D01*
X157761905Y-72682438D02*
X157857143Y-72634819D01*
X157857143Y-72634819D02*
X158095238Y-72634819D01*
X158095238Y-72634819D02*
X158190476Y-72682438D01*
X158190476Y-72682438D02*
X158238095Y-72730057D01*
X158238095Y-72730057D02*
X158285714Y-72825295D01*
X158285714Y-72825295D02*
X158285714Y-72920533D01*
X158285714Y-72920533D02*
X158238095Y-73063390D01*
X158238095Y-73063390D02*
X157666667Y-73634819D01*
X157666667Y-73634819D02*
X158285714Y-73634819D01*
X152833333Y-82384819D02*
X152500000Y-81908628D01*
X152261905Y-82384819D02*
X152261905Y-81384819D01*
X152261905Y-81384819D02*
X152642857Y-81384819D01*
X152642857Y-81384819D02*
X152738095Y-81432438D01*
X152738095Y-81432438D02*
X152785714Y-81480057D01*
X152785714Y-81480057D02*
X152833333Y-81575295D01*
X152833333Y-81575295D02*
X152833333Y-81718152D01*
X152833333Y-81718152D02*
X152785714Y-81813390D01*
X152785714Y-81813390D02*
X152738095Y-81861009D01*
X152738095Y-81861009D02*
X152642857Y-81908628D01*
X152642857Y-81908628D02*
X152261905Y-81908628D01*
X153404762Y-81813390D02*
X153309524Y-81765771D01*
X153309524Y-81765771D02*
X153261905Y-81718152D01*
X153261905Y-81718152D02*
X153214286Y-81622914D01*
X153214286Y-81622914D02*
X153214286Y-81575295D01*
X153214286Y-81575295D02*
X153261905Y-81480057D01*
X153261905Y-81480057D02*
X153309524Y-81432438D01*
X153309524Y-81432438D02*
X153404762Y-81384819D01*
X153404762Y-81384819D02*
X153595238Y-81384819D01*
X153595238Y-81384819D02*
X153690476Y-81432438D01*
X153690476Y-81432438D02*
X153738095Y-81480057D01*
X153738095Y-81480057D02*
X153785714Y-81575295D01*
X153785714Y-81575295D02*
X153785714Y-81622914D01*
X153785714Y-81622914D02*
X153738095Y-81718152D01*
X153738095Y-81718152D02*
X153690476Y-81765771D01*
X153690476Y-81765771D02*
X153595238Y-81813390D01*
X153595238Y-81813390D02*
X153404762Y-81813390D01*
X153404762Y-81813390D02*
X153309524Y-81861009D01*
X153309524Y-81861009D02*
X153261905Y-81908628D01*
X153261905Y-81908628D02*
X153214286Y-82003866D01*
X153214286Y-82003866D02*
X153214286Y-82194342D01*
X153214286Y-82194342D02*
X153261905Y-82289580D01*
X153261905Y-82289580D02*
X153309524Y-82337200D01*
X153309524Y-82337200D02*
X153404762Y-82384819D01*
X153404762Y-82384819D02*
X153595238Y-82384819D01*
X153595238Y-82384819D02*
X153690476Y-82337200D01*
X153690476Y-82337200D02*
X153738095Y-82289580D01*
X153738095Y-82289580D02*
X153785714Y-82194342D01*
X153785714Y-82194342D02*
X153785714Y-82003866D01*
X153785714Y-82003866D02*
X153738095Y-81908628D01*
X153738095Y-81908628D02*
X153690476Y-81861009D01*
X153690476Y-81861009D02*
X153595238Y-81813390D01*
X162333333Y-91024819D02*
X162000000Y-90548628D01*
X161761905Y-91024819D02*
X161761905Y-90024819D01*
X161761905Y-90024819D02*
X162142857Y-90024819D01*
X162142857Y-90024819D02*
X162238095Y-90072438D01*
X162238095Y-90072438D02*
X162285714Y-90120057D01*
X162285714Y-90120057D02*
X162333333Y-90215295D01*
X162333333Y-90215295D02*
X162333333Y-90358152D01*
X162333333Y-90358152D02*
X162285714Y-90453390D01*
X162285714Y-90453390D02*
X162238095Y-90501009D01*
X162238095Y-90501009D02*
X162142857Y-90548628D01*
X162142857Y-90548628D02*
X161761905Y-90548628D01*
X162666667Y-90024819D02*
X163333333Y-90024819D01*
X163333333Y-90024819D02*
X162904762Y-91024819D01*
X171690476Y-129379819D02*
X171690476Y-130094104D01*
X171690476Y-130094104D02*
X171642857Y-130236961D01*
X171642857Y-130236961D02*
X171547619Y-130332200D01*
X171547619Y-130332200D02*
X171404762Y-130379819D01*
X171404762Y-130379819D02*
X171309524Y-130379819D01*
X172690476Y-130379819D02*
X172119048Y-130379819D01*
X172404762Y-130379819D02*
X172404762Y-129379819D01*
X172404762Y-129379819D02*
X172309524Y-129522676D01*
X172309524Y-129522676D02*
X172214286Y-129617914D01*
X172214286Y-129617914D02*
X172119048Y-129665533D01*
X173547619Y-129713152D02*
X173547619Y-130379819D01*
X173309524Y-129332200D02*
X173071429Y-130046485D01*
X173071429Y-130046485D02*
X173690476Y-130046485D01*
X161857142Y-89524819D02*
X161523809Y-89048628D01*
X161285714Y-89524819D02*
X161285714Y-88524819D01*
X161285714Y-88524819D02*
X161666666Y-88524819D01*
X161666666Y-88524819D02*
X161761904Y-88572438D01*
X161761904Y-88572438D02*
X161809523Y-88620057D01*
X161809523Y-88620057D02*
X161857142Y-88715295D01*
X161857142Y-88715295D02*
X161857142Y-88858152D01*
X161857142Y-88858152D02*
X161809523Y-88953390D01*
X161809523Y-88953390D02*
X161761904Y-89001009D01*
X161761904Y-89001009D02*
X161666666Y-89048628D01*
X161666666Y-89048628D02*
X161285714Y-89048628D01*
X162809523Y-89524819D02*
X162238095Y-89524819D01*
X162523809Y-89524819D02*
X162523809Y-88524819D01*
X162523809Y-88524819D02*
X162428571Y-88667676D01*
X162428571Y-88667676D02*
X162333333Y-88762914D01*
X162333333Y-88762914D02*
X162238095Y-88810533D01*
X163428571Y-88524819D02*
X163523809Y-88524819D01*
X163523809Y-88524819D02*
X163619047Y-88572438D01*
X163619047Y-88572438D02*
X163666666Y-88620057D01*
X163666666Y-88620057D02*
X163714285Y-88715295D01*
X163714285Y-88715295D02*
X163761904Y-88905771D01*
X163761904Y-88905771D02*
X163761904Y-89143866D01*
X163761904Y-89143866D02*
X163714285Y-89334342D01*
X163714285Y-89334342D02*
X163666666Y-89429580D01*
X163666666Y-89429580D02*
X163619047Y-89477200D01*
X163619047Y-89477200D02*
X163523809Y-89524819D01*
X163523809Y-89524819D02*
X163428571Y-89524819D01*
X163428571Y-89524819D02*
X163333333Y-89477200D01*
X163333333Y-89477200D02*
X163285714Y-89429580D01*
X163285714Y-89429580D02*
X163238095Y-89334342D01*
X163238095Y-89334342D02*
X163190476Y-89143866D01*
X163190476Y-89143866D02*
X163190476Y-88905771D01*
X163190476Y-88905771D02*
X163238095Y-88715295D01*
X163238095Y-88715295D02*
X163285714Y-88620057D01*
X163285714Y-88620057D02*
X163333333Y-88572438D01*
X163333333Y-88572438D02*
X163428571Y-88524819D01*
X153261905Y-69454819D02*
X153261905Y-68454819D01*
X153261905Y-68454819D02*
X153500000Y-68454819D01*
X153500000Y-68454819D02*
X153642857Y-68502438D01*
X153642857Y-68502438D02*
X153738095Y-68597676D01*
X153738095Y-68597676D02*
X153785714Y-68692914D01*
X153785714Y-68692914D02*
X153833333Y-68883390D01*
X153833333Y-68883390D02*
X153833333Y-69026247D01*
X153833333Y-69026247D02*
X153785714Y-69216723D01*
X153785714Y-69216723D02*
X153738095Y-69311961D01*
X153738095Y-69311961D02*
X153642857Y-69407200D01*
X153642857Y-69407200D02*
X153500000Y-69454819D01*
X153500000Y-69454819D02*
X153261905Y-69454819D01*
X154214286Y-68550057D02*
X154261905Y-68502438D01*
X154261905Y-68502438D02*
X154357143Y-68454819D01*
X154357143Y-68454819D02*
X154595238Y-68454819D01*
X154595238Y-68454819D02*
X154690476Y-68502438D01*
X154690476Y-68502438D02*
X154738095Y-68550057D01*
X154738095Y-68550057D02*
X154785714Y-68645295D01*
X154785714Y-68645295D02*
X154785714Y-68740533D01*
X154785714Y-68740533D02*
X154738095Y-68883390D01*
X154738095Y-68883390D02*
X154166667Y-69454819D01*
X154166667Y-69454819D02*
X154785714Y-69454819D01*
X157771428Y-66737704D02*
X158228571Y-66737704D01*
X157999999Y-66737704D02*
X157999999Y-67537704D01*
X157999999Y-67537704D02*
X158076190Y-67423419D01*
X158076190Y-67423419D02*
X158152380Y-67347228D01*
X158152380Y-67347228D02*
X158228571Y-67309133D01*
X142166666Y-110404819D02*
X142166666Y-111119104D01*
X142166666Y-111119104D02*
X142119047Y-111261961D01*
X142119047Y-111261961D02*
X142023809Y-111357200D01*
X142023809Y-111357200D02*
X141880952Y-111404819D01*
X141880952Y-111404819D02*
X141785714Y-111404819D01*
X143071428Y-110404819D02*
X142880952Y-110404819D01*
X142880952Y-110404819D02*
X142785714Y-110452438D01*
X142785714Y-110452438D02*
X142738095Y-110500057D01*
X142738095Y-110500057D02*
X142642857Y-110642914D01*
X142642857Y-110642914D02*
X142595238Y-110833390D01*
X142595238Y-110833390D02*
X142595238Y-111214342D01*
X142595238Y-111214342D02*
X142642857Y-111309580D01*
X142642857Y-111309580D02*
X142690476Y-111357200D01*
X142690476Y-111357200D02*
X142785714Y-111404819D01*
X142785714Y-111404819D02*
X142976190Y-111404819D01*
X142976190Y-111404819D02*
X143071428Y-111357200D01*
X143071428Y-111357200D02*
X143119047Y-111309580D01*
X143119047Y-111309580D02*
X143166666Y-111214342D01*
X143166666Y-111214342D02*
X143166666Y-110976247D01*
X143166666Y-110976247D02*
X143119047Y-110881009D01*
X143119047Y-110881009D02*
X143071428Y-110833390D01*
X143071428Y-110833390D02*
X142976190Y-110785771D01*
X142976190Y-110785771D02*
X142785714Y-110785771D01*
X142785714Y-110785771D02*
X142690476Y-110833390D01*
X142690476Y-110833390D02*
X142642857Y-110881009D01*
X142642857Y-110881009D02*
X142595238Y-110976247D01*
X155617319Y-90833333D02*
X156331604Y-90833333D01*
X156331604Y-90833333D02*
X156474461Y-90880952D01*
X156474461Y-90880952D02*
X156569700Y-90976190D01*
X156569700Y-90976190D02*
X156617319Y-91119047D01*
X156617319Y-91119047D02*
X156617319Y-91214285D01*
X156045890Y-90214285D02*
X155998271Y-90309523D01*
X155998271Y-90309523D02*
X155950652Y-90357142D01*
X155950652Y-90357142D02*
X155855414Y-90404761D01*
X155855414Y-90404761D02*
X155807795Y-90404761D01*
X155807795Y-90404761D02*
X155712557Y-90357142D01*
X155712557Y-90357142D02*
X155664938Y-90309523D01*
X155664938Y-90309523D02*
X155617319Y-90214285D01*
X155617319Y-90214285D02*
X155617319Y-90023809D01*
X155617319Y-90023809D02*
X155664938Y-89928571D01*
X155664938Y-89928571D02*
X155712557Y-89880952D01*
X155712557Y-89880952D02*
X155807795Y-89833333D01*
X155807795Y-89833333D02*
X155855414Y-89833333D01*
X155855414Y-89833333D02*
X155950652Y-89880952D01*
X155950652Y-89880952D02*
X155998271Y-89928571D01*
X155998271Y-89928571D02*
X156045890Y-90023809D01*
X156045890Y-90023809D02*
X156045890Y-90214285D01*
X156045890Y-90214285D02*
X156093509Y-90309523D01*
X156093509Y-90309523D02*
X156141128Y-90357142D01*
X156141128Y-90357142D02*
X156236366Y-90404761D01*
X156236366Y-90404761D02*
X156426842Y-90404761D01*
X156426842Y-90404761D02*
X156522080Y-90357142D01*
X156522080Y-90357142D02*
X156569700Y-90309523D01*
X156569700Y-90309523D02*
X156617319Y-90214285D01*
X156617319Y-90214285D02*
X156617319Y-90023809D01*
X156617319Y-90023809D02*
X156569700Y-89928571D01*
X156569700Y-89928571D02*
X156522080Y-89880952D01*
X156522080Y-89880952D02*
X156426842Y-89833333D01*
X156426842Y-89833333D02*
X156236366Y-89833333D01*
X156236366Y-89833333D02*
X156141128Y-89880952D01*
X156141128Y-89880952D02*
X156093509Y-89928571D01*
X156093509Y-89928571D02*
X156045890Y-90023809D01*
X161761905Y-86604819D02*
X161761905Y-85604819D01*
X161761905Y-85604819D02*
X162000000Y-85604819D01*
X162000000Y-85604819D02*
X162142857Y-85652438D01*
X162142857Y-85652438D02*
X162238095Y-85747676D01*
X162238095Y-85747676D02*
X162285714Y-85842914D01*
X162285714Y-85842914D02*
X162333333Y-86033390D01*
X162333333Y-86033390D02*
X162333333Y-86176247D01*
X162333333Y-86176247D02*
X162285714Y-86366723D01*
X162285714Y-86366723D02*
X162238095Y-86461961D01*
X162238095Y-86461961D02*
X162142857Y-86557200D01*
X162142857Y-86557200D02*
X162000000Y-86604819D01*
X162000000Y-86604819D02*
X161761905Y-86604819D01*
X162666667Y-85604819D02*
X163285714Y-85604819D01*
X163285714Y-85604819D02*
X162952381Y-85985771D01*
X162952381Y-85985771D02*
X163095238Y-85985771D01*
X163095238Y-85985771D02*
X163190476Y-86033390D01*
X163190476Y-86033390D02*
X163238095Y-86081009D01*
X163238095Y-86081009D02*
X163285714Y-86176247D01*
X163285714Y-86176247D02*
X163285714Y-86414342D01*
X163285714Y-86414342D02*
X163238095Y-86509580D01*
X163238095Y-86509580D02*
X163190476Y-86557200D01*
X163190476Y-86557200D02*
X163095238Y-86604819D01*
X163095238Y-86604819D02*
X162809524Y-86604819D01*
X162809524Y-86604819D02*
X162714286Y-86557200D01*
X162714286Y-86557200D02*
X162666667Y-86509580D01*
X142166666Y-103904819D02*
X142166666Y-104619104D01*
X142166666Y-104619104D02*
X142119047Y-104761961D01*
X142119047Y-104761961D02*
X142023809Y-104857200D01*
X142023809Y-104857200D02*
X141880952Y-104904819D01*
X141880952Y-104904819D02*
X141785714Y-104904819D01*
X142595238Y-104000057D02*
X142642857Y-103952438D01*
X142642857Y-103952438D02*
X142738095Y-103904819D01*
X142738095Y-103904819D02*
X142976190Y-103904819D01*
X142976190Y-103904819D02*
X143071428Y-103952438D01*
X143071428Y-103952438D02*
X143119047Y-104000057D01*
X143119047Y-104000057D02*
X143166666Y-104095295D01*
X143166666Y-104095295D02*
X143166666Y-104190533D01*
X143166666Y-104190533D02*
X143119047Y-104333390D01*
X143119047Y-104333390D02*
X142547619Y-104904819D01*
X142547619Y-104904819D02*
X143166666Y-104904819D01*
X160789580Y-93666666D02*
X160837200Y-93714285D01*
X160837200Y-93714285D02*
X160884819Y-93857142D01*
X160884819Y-93857142D02*
X160884819Y-93952380D01*
X160884819Y-93952380D02*
X160837200Y-94095237D01*
X160837200Y-94095237D02*
X160741961Y-94190475D01*
X160741961Y-94190475D02*
X160646723Y-94238094D01*
X160646723Y-94238094D02*
X160456247Y-94285713D01*
X160456247Y-94285713D02*
X160313390Y-94285713D01*
X160313390Y-94285713D02*
X160122914Y-94238094D01*
X160122914Y-94238094D02*
X160027676Y-94190475D01*
X160027676Y-94190475D02*
X159932438Y-94095237D01*
X159932438Y-94095237D02*
X159884819Y-93952380D01*
X159884819Y-93952380D02*
X159884819Y-93857142D01*
X159884819Y-93857142D02*
X159932438Y-93714285D01*
X159932438Y-93714285D02*
X159980057Y-93666666D01*
X160313390Y-93095237D02*
X160265771Y-93190475D01*
X160265771Y-93190475D02*
X160218152Y-93238094D01*
X160218152Y-93238094D02*
X160122914Y-93285713D01*
X160122914Y-93285713D02*
X160075295Y-93285713D01*
X160075295Y-93285713D02*
X159980057Y-93238094D01*
X159980057Y-93238094D02*
X159932438Y-93190475D01*
X159932438Y-93190475D02*
X159884819Y-93095237D01*
X159884819Y-93095237D02*
X159884819Y-92904761D01*
X159884819Y-92904761D02*
X159932438Y-92809523D01*
X159932438Y-92809523D02*
X159980057Y-92761904D01*
X159980057Y-92761904D02*
X160075295Y-92714285D01*
X160075295Y-92714285D02*
X160122914Y-92714285D01*
X160122914Y-92714285D02*
X160218152Y-92761904D01*
X160218152Y-92761904D02*
X160265771Y-92809523D01*
X160265771Y-92809523D02*
X160313390Y-92904761D01*
X160313390Y-92904761D02*
X160313390Y-93095237D01*
X160313390Y-93095237D02*
X160361009Y-93190475D01*
X160361009Y-93190475D02*
X160408628Y-93238094D01*
X160408628Y-93238094D02*
X160503866Y-93285713D01*
X160503866Y-93285713D02*
X160694342Y-93285713D01*
X160694342Y-93285713D02*
X160789580Y-93238094D01*
X160789580Y-93238094D02*
X160837200Y-93190475D01*
X160837200Y-93190475D02*
X160884819Y-93095237D01*
X160884819Y-93095237D02*
X160884819Y-92904761D01*
X160884819Y-92904761D02*
X160837200Y-92809523D01*
X160837200Y-92809523D02*
X160789580Y-92761904D01*
X160789580Y-92761904D02*
X160694342Y-92714285D01*
X160694342Y-92714285D02*
X160503866Y-92714285D01*
X160503866Y-92714285D02*
X160408628Y-92761904D01*
X160408628Y-92761904D02*
X160361009Y-92809523D01*
X160361009Y-92809523D02*
X160313390Y-92904761D01*
X167940476Y-67904819D02*
X167940476Y-68619104D01*
X167940476Y-68619104D02*
X167892857Y-68761961D01*
X167892857Y-68761961D02*
X167797619Y-68857200D01*
X167797619Y-68857200D02*
X167654762Y-68904819D01*
X167654762Y-68904819D02*
X167559524Y-68904819D01*
X168369048Y-68000057D02*
X168416667Y-67952438D01*
X168416667Y-67952438D02*
X168511905Y-67904819D01*
X168511905Y-67904819D02*
X168750000Y-67904819D01*
X168750000Y-67904819D02*
X168845238Y-67952438D01*
X168845238Y-67952438D02*
X168892857Y-68000057D01*
X168892857Y-68000057D02*
X168940476Y-68095295D01*
X168940476Y-68095295D02*
X168940476Y-68190533D01*
X168940476Y-68190533D02*
X168892857Y-68333390D01*
X168892857Y-68333390D02*
X168321429Y-68904819D01*
X168321429Y-68904819D02*
X168940476Y-68904819D01*
X169559524Y-67904819D02*
X169654762Y-67904819D01*
X169654762Y-67904819D02*
X169750000Y-67952438D01*
X169750000Y-67952438D02*
X169797619Y-68000057D01*
X169797619Y-68000057D02*
X169845238Y-68095295D01*
X169845238Y-68095295D02*
X169892857Y-68285771D01*
X169892857Y-68285771D02*
X169892857Y-68523866D01*
X169892857Y-68523866D02*
X169845238Y-68714342D01*
X169845238Y-68714342D02*
X169797619Y-68809580D01*
X169797619Y-68809580D02*
X169750000Y-68857200D01*
X169750000Y-68857200D02*
X169654762Y-68904819D01*
X169654762Y-68904819D02*
X169559524Y-68904819D01*
X169559524Y-68904819D02*
X169464286Y-68857200D01*
X169464286Y-68857200D02*
X169416667Y-68809580D01*
X169416667Y-68809580D02*
X169369048Y-68714342D01*
X169369048Y-68714342D02*
X169321429Y-68523866D01*
X169321429Y-68523866D02*
X169321429Y-68285771D01*
X169321429Y-68285771D02*
X169369048Y-68095295D01*
X169369048Y-68095295D02*
X169416667Y-68000057D01*
X169416667Y-68000057D02*
X169464286Y-67952438D01*
X169464286Y-67952438D02*
X169559524Y-67904819D01*
X170440476Y-73904819D02*
X170440476Y-74619104D01*
X170440476Y-74619104D02*
X170392857Y-74761961D01*
X170392857Y-74761961D02*
X170297619Y-74857200D01*
X170297619Y-74857200D02*
X170154762Y-74904819D01*
X170154762Y-74904819D02*
X170059524Y-74904819D01*
X170869048Y-74000057D02*
X170916667Y-73952438D01*
X170916667Y-73952438D02*
X171011905Y-73904819D01*
X171011905Y-73904819D02*
X171250000Y-73904819D01*
X171250000Y-73904819D02*
X171345238Y-73952438D01*
X171345238Y-73952438D02*
X171392857Y-74000057D01*
X171392857Y-74000057D02*
X171440476Y-74095295D01*
X171440476Y-74095295D02*
X171440476Y-74190533D01*
X171440476Y-74190533D02*
X171392857Y-74333390D01*
X171392857Y-74333390D02*
X170821429Y-74904819D01*
X170821429Y-74904819D02*
X171440476Y-74904819D01*
X171773810Y-73904819D02*
X172392857Y-73904819D01*
X172392857Y-73904819D02*
X172059524Y-74285771D01*
X172059524Y-74285771D02*
X172202381Y-74285771D01*
X172202381Y-74285771D02*
X172297619Y-74333390D01*
X172297619Y-74333390D02*
X172345238Y-74381009D01*
X172345238Y-74381009D02*
X172392857Y-74476247D01*
X172392857Y-74476247D02*
X172392857Y-74714342D01*
X172392857Y-74714342D02*
X172345238Y-74809580D01*
X172345238Y-74809580D02*
X172297619Y-74857200D01*
X172297619Y-74857200D02*
X172202381Y-74904819D01*
X172202381Y-74904819D02*
X171916667Y-74904819D01*
X171916667Y-74904819D02*
X171821429Y-74857200D01*
X171821429Y-74857200D02*
X171773810Y-74809580D01*
X154738095Y-94404819D02*
X154738095Y-95214342D01*
X154738095Y-95214342D02*
X154785714Y-95309580D01*
X154785714Y-95309580D02*
X154833333Y-95357200D01*
X154833333Y-95357200D02*
X154928571Y-95404819D01*
X154928571Y-95404819D02*
X155119047Y-95404819D01*
X155119047Y-95404819D02*
X155214285Y-95357200D01*
X155214285Y-95357200D02*
X155261904Y-95309580D01*
X155261904Y-95309580D02*
X155309523Y-95214342D01*
X155309523Y-95214342D02*
X155309523Y-94404819D01*
X155738095Y-94500057D02*
X155785714Y-94452438D01*
X155785714Y-94452438D02*
X155880952Y-94404819D01*
X155880952Y-94404819D02*
X156119047Y-94404819D01*
X156119047Y-94404819D02*
X156214285Y-94452438D01*
X156214285Y-94452438D02*
X156261904Y-94500057D01*
X156261904Y-94500057D02*
X156309523Y-94595295D01*
X156309523Y-94595295D02*
X156309523Y-94690533D01*
X156309523Y-94690533D02*
X156261904Y-94833390D01*
X156261904Y-94833390D02*
X155690476Y-95404819D01*
X155690476Y-95404819D02*
X156309523Y-95404819D01*
X170440476Y-97904819D02*
X170440476Y-98619104D01*
X170440476Y-98619104D02*
X170392857Y-98761961D01*
X170392857Y-98761961D02*
X170297619Y-98857200D01*
X170297619Y-98857200D02*
X170154762Y-98904819D01*
X170154762Y-98904819D02*
X170059524Y-98904819D01*
X171440476Y-98904819D02*
X170869048Y-98904819D01*
X171154762Y-98904819D02*
X171154762Y-97904819D01*
X171154762Y-97904819D02*
X171059524Y-98047676D01*
X171059524Y-98047676D02*
X170964286Y-98142914D01*
X170964286Y-98142914D02*
X170869048Y-98190533D01*
X172345238Y-97904819D02*
X171869048Y-97904819D01*
X171869048Y-97904819D02*
X171821429Y-98381009D01*
X171821429Y-98381009D02*
X171869048Y-98333390D01*
X171869048Y-98333390D02*
X171964286Y-98285771D01*
X171964286Y-98285771D02*
X172202381Y-98285771D01*
X172202381Y-98285771D02*
X172297619Y-98333390D01*
X172297619Y-98333390D02*
X172345238Y-98381009D01*
X172345238Y-98381009D02*
X172392857Y-98476247D01*
X172392857Y-98476247D02*
X172392857Y-98714342D01*
X172392857Y-98714342D02*
X172345238Y-98809580D01*
X172345238Y-98809580D02*
X172297619Y-98857200D01*
X172297619Y-98857200D02*
X172202381Y-98904819D01*
X172202381Y-98904819D02*
X171964286Y-98904819D01*
X171964286Y-98904819D02*
X171869048Y-98857200D01*
X171869048Y-98857200D02*
X171821429Y-98809580D01*
X157929580Y-89166666D02*
X157977200Y-89214285D01*
X157977200Y-89214285D02*
X158024819Y-89357142D01*
X158024819Y-89357142D02*
X158024819Y-89452380D01*
X158024819Y-89452380D02*
X157977200Y-89595237D01*
X157977200Y-89595237D02*
X157881961Y-89690475D01*
X157881961Y-89690475D02*
X157786723Y-89738094D01*
X157786723Y-89738094D02*
X157596247Y-89785713D01*
X157596247Y-89785713D02*
X157453390Y-89785713D01*
X157453390Y-89785713D02*
X157262914Y-89738094D01*
X157262914Y-89738094D02*
X157167676Y-89690475D01*
X157167676Y-89690475D02*
X157072438Y-89595237D01*
X157072438Y-89595237D02*
X157024819Y-89452380D01*
X157024819Y-89452380D02*
X157024819Y-89357142D01*
X157024819Y-89357142D02*
X157072438Y-89214285D01*
X157072438Y-89214285D02*
X157120057Y-89166666D01*
X157024819Y-88833332D02*
X157024819Y-88166666D01*
X157024819Y-88166666D02*
X158024819Y-88595237D01*
X171166666Y-124304819D02*
X170833333Y-123828628D01*
X170595238Y-124304819D02*
X170595238Y-123304819D01*
X170595238Y-123304819D02*
X170976190Y-123304819D01*
X170976190Y-123304819D02*
X171071428Y-123352438D01*
X171071428Y-123352438D02*
X171119047Y-123400057D01*
X171119047Y-123400057D02*
X171166666Y-123495295D01*
X171166666Y-123495295D02*
X171166666Y-123638152D01*
X171166666Y-123638152D02*
X171119047Y-123733390D01*
X171119047Y-123733390D02*
X171071428Y-123781009D01*
X171071428Y-123781009D02*
X170976190Y-123828628D01*
X170976190Y-123828628D02*
X170595238Y-123828628D01*
X171595238Y-123781009D02*
X171928571Y-123781009D01*
X172071428Y-124304819D02*
X171595238Y-124304819D01*
X171595238Y-124304819D02*
X171595238Y-123304819D01*
X171595238Y-123304819D02*
X172071428Y-123304819D01*
X172833333Y-123781009D02*
X172500000Y-123781009D01*
X172500000Y-124304819D02*
X172500000Y-123304819D01*
X172500000Y-123304819D02*
X172976190Y-123304819D01*
X173500000Y-123304819D02*
X173500000Y-123542914D01*
X173261905Y-123447676D02*
X173500000Y-123542914D01*
X173500000Y-123542914D02*
X173738095Y-123447676D01*
X173357143Y-123733390D02*
X173500000Y-123542914D01*
X173500000Y-123542914D02*
X173642857Y-123733390D01*
X174261905Y-123304819D02*
X174261905Y-123542914D01*
X174023810Y-123447676D02*
X174261905Y-123542914D01*
X174261905Y-123542914D02*
X174500000Y-123447676D01*
X174119048Y-123733390D02*
X174261905Y-123542914D01*
X174261905Y-123542914D02*
X174404762Y-123733390D01*
X155238095Y-80754819D02*
X155238095Y-81564342D01*
X155238095Y-81564342D02*
X155285714Y-81659580D01*
X155285714Y-81659580D02*
X155333333Y-81707200D01*
X155333333Y-81707200D02*
X155428571Y-81754819D01*
X155428571Y-81754819D02*
X155619047Y-81754819D01*
X155619047Y-81754819D02*
X155714285Y-81707200D01*
X155714285Y-81707200D02*
X155761904Y-81659580D01*
X155761904Y-81659580D02*
X155809523Y-81564342D01*
X155809523Y-81564342D02*
X155809523Y-80754819D01*
X156190476Y-80754819D02*
X156809523Y-80754819D01*
X156809523Y-80754819D02*
X156476190Y-81135771D01*
X156476190Y-81135771D02*
X156619047Y-81135771D01*
X156619047Y-81135771D02*
X156714285Y-81183390D01*
X156714285Y-81183390D02*
X156761904Y-81231009D01*
X156761904Y-81231009D02*
X156809523Y-81326247D01*
X156809523Y-81326247D02*
X156809523Y-81564342D01*
X156809523Y-81564342D02*
X156761904Y-81659580D01*
X156761904Y-81659580D02*
X156714285Y-81707200D01*
X156714285Y-81707200D02*
X156619047Y-81754819D01*
X156619047Y-81754819D02*
X156333333Y-81754819D01*
X156333333Y-81754819D02*
X156238095Y-81707200D01*
X156238095Y-81707200D02*
X156190476Y-81659580D01*
X151690476Y-48904819D02*
X151690476Y-49619104D01*
X151690476Y-49619104D02*
X151642857Y-49761961D01*
X151642857Y-49761961D02*
X151547619Y-49857200D01*
X151547619Y-49857200D02*
X151404762Y-49904819D01*
X151404762Y-49904819D02*
X151309524Y-49904819D01*
X152690476Y-49904819D02*
X152119048Y-49904819D01*
X152404762Y-49904819D02*
X152404762Y-48904819D01*
X152404762Y-48904819D02*
X152309524Y-49047676D01*
X152309524Y-49047676D02*
X152214286Y-49142914D01*
X152214286Y-49142914D02*
X152119048Y-49190533D01*
X153023810Y-48904819D02*
X153690476Y-48904819D01*
X153690476Y-48904819D02*
X153261905Y-49904819D01*
X148833333Y-76509580D02*
X148785714Y-76557200D01*
X148785714Y-76557200D02*
X148642857Y-76604819D01*
X148642857Y-76604819D02*
X148547619Y-76604819D01*
X148547619Y-76604819D02*
X148404762Y-76557200D01*
X148404762Y-76557200D02*
X148309524Y-76461961D01*
X148309524Y-76461961D02*
X148261905Y-76366723D01*
X148261905Y-76366723D02*
X148214286Y-76176247D01*
X148214286Y-76176247D02*
X148214286Y-76033390D01*
X148214286Y-76033390D02*
X148261905Y-75842914D01*
X148261905Y-75842914D02*
X148309524Y-75747676D01*
X148309524Y-75747676D02*
X148404762Y-75652438D01*
X148404762Y-75652438D02*
X148547619Y-75604819D01*
X148547619Y-75604819D02*
X148642857Y-75604819D01*
X148642857Y-75604819D02*
X148785714Y-75652438D01*
X148785714Y-75652438D02*
X148833333Y-75700057D01*
X149738095Y-75604819D02*
X149261905Y-75604819D01*
X149261905Y-75604819D02*
X149214286Y-76081009D01*
X149214286Y-76081009D02*
X149261905Y-76033390D01*
X149261905Y-76033390D02*
X149357143Y-75985771D01*
X149357143Y-75985771D02*
X149595238Y-75985771D01*
X149595238Y-75985771D02*
X149690476Y-76033390D01*
X149690476Y-76033390D02*
X149738095Y-76081009D01*
X149738095Y-76081009D02*
X149785714Y-76176247D01*
X149785714Y-76176247D02*
X149785714Y-76414342D01*
X149785714Y-76414342D02*
X149738095Y-76509580D01*
X149738095Y-76509580D02*
X149690476Y-76557200D01*
X149690476Y-76557200D02*
X149595238Y-76604819D01*
X149595238Y-76604819D02*
X149357143Y-76604819D01*
X149357143Y-76604819D02*
X149261905Y-76557200D01*
X149261905Y-76557200D02*
X149214286Y-76509580D01*
X157289580Y-89642857D02*
X157337200Y-89690476D01*
X157337200Y-89690476D02*
X157384819Y-89833333D01*
X157384819Y-89833333D02*
X157384819Y-89928571D01*
X157384819Y-89928571D02*
X157337200Y-90071428D01*
X157337200Y-90071428D02*
X157241961Y-90166666D01*
X157241961Y-90166666D02*
X157146723Y-90214285D01*
X157146723Y-90214285D02*
X156956247Y-90261904D01*
X156956247Y-90261904D02*
X156813390Y-90261904D01*
X156813390Y-90261904D02*
X156622914Y-90214285D01*
X156622914Y-90214285D02*
X156527676Y-90166666D01*
X156527676Y-90166666D02*
X156432438Y-90071428D01*
X156432438Y-90071428D02*
X156384819Y-89928571D01*
X156384819Y-89928571D02*
X156384819Y-89833333D01*
X156384819Y-89833333D02*
X156432438Y-89690476D01*
X156432438Y-89690476D02*
X156480057Y-89642857D01*
X157384819Y-88690476D02*
X157384819Y-89261904D01*
X157384819Y-88976190D02*
X156384819Y-88976190D01*
X156384819Y-88976190D02*
X156527676Y-89071428D01*
X156527676Y-89071428D02*
X156622914Y-89166666D01*
X156622914Y-89166666D02*
X156670533Y-89261904D01*
X156718152Y-87833333D02*
X157384819Y-87833333D01*
X156337200Y-88071428D02*
X157051485Y-88309523D01*
X157051485Y-88309523D02*
X157051485Y-87690476D01*
X150440476Y-97904819D02*
X150440476Y-98619104D01*
X150440476Y-98619104D02*
X150392857Y-98761961D01*
X150392857Y-98761961D02*
X150297619Y-98857200D01*
X150297619Y-98857200D02*
X150154762Y-98904819D01*
X150154762Y-98904819D02*
X150059524Y-98904819D01*
X150869048Y-98000057D02*
X150916667Y-97952438D01*
X150916667Y-97952438D02*
X151011905Y-97904819D01*
X151011905Y-97904819D02*
X151250000Y-97904819D01*
X151250000Y-97904819D02*
X151345238Y-97952438D01*
X151345238Y-97952438D02*
X151392857Y-98000057D01*
X151392857Y-98000057D02*
X151440476Y-98095295D01*
X151440476Y-98095295D02*
X151440476Y-98190533D01*
X151440476Y-98190533D02*
X151392857Y-98333390D01*
X151392857Y-98333390D02*
X150821429Y-98904819D01*
X150821429Y-98904819D02*
X151440476Y-98904819D01*
X152297619Y-98238152D02*
X152297619Y-98904819D01*
X152059524Y-97857200D02*
X151821429Y-98571485D01*
X151821429Y-98571485D02*
X152440476Y-98571485D01*
X155357142Y-85429580D02*
X155309523Y-85477200D01*
X155309523Y-85477200D02*
X155166666Y-85524819D01*
X155166666Y-85524819D02*
X155071428Y-85524819D01*
X155071428Y-85524819D02*
X154928571Y-85477200D01*
X154928571Y-85477200D02*
X154833333Y-85381961D01*
X154833333Y-85381961D02*
X154785714Y-85286723D01*
X154785714Y-85286723D02*
X154738095Y-85096247D01*
X154738095Y-85096247D02*
X154738095Y-84953390D01*
X154738095Y-84953390D02*
X154785714Y-84762914D01*
X154785714Y-84762914D02*
X154833333Y-84667676D01*
X154833333Y-84667676D02*
X154928571Y-84572438D01*
X154928571Y-84572438D02*
X155071428Y-84524819D01*
X155071428Y-84524819D02*
X155166666Y-84524819D01*
X155166666Y-84524819D02*
X155309523Y-84572438D01*
X155309523Y-84572438D02*
X155357142Y-84620057D01*
X156309523Y-85524819D02*
X155738095Y-85524819D01*
X156023809Y-85524819D02*
X156023809Y-84524819D01*
X156023809Y-84524819D02*
X155928571Y-84667676D01*
X155928571Y-84667676D02*
X155833333Y-84762914D01*
X155833333Y-84762914D02*
X155738095Y-84810533D01*
X156642857Y-84524819D02*
X157261904Y-84524819D01*
X157261904Y-84524819D02*
X156928571Y-84905771D01*
X156928571Y-84905771D02*
X157071428Y-84905771D01*
X157071428Y-84905771D02*
X157166666Y-84953390D01*
X157166666Y-84953390D02*
X157214285Y-85001009D01*
X157214285Y-85001009D02*
X157261904Y-85096247D01*
X157261904Y-85096247D02*
X157261904Y-85334342D01*
X157261904Y-85334342D02*
X157214285Y-85429580D01*
X157214285Y-85429580D02*
X157166666Y-85477200D01*
X157166666Y-85477200D02*
X157071428Y-85524819D01*
X157071428Y-85524819D02*
X156785714Y-85524819D01*
X156785714Y-85524819D02*
X156690476Y-85477200D01*
X156690476Y-85477200D02*
X156642857Y-85429580D01*
X156738095Y-76354819D02*
X156738095Y-77164342D01*
X156738095Y-77164342D02*
X156785714Y-77259580D01*
X156785714Y-77259580D02*
X156833333Y-77307200D01*
X156833333Y-77307200D02*
X156928571Y-77354819D01*
X156928571Y-77354819D02*
X157119047Y-77354819D01*
X157119047Y-77354819D02*
X157214285Y-77307200D01*
X157214285Y-77307200D02*
X157261904Y-77259580D01*
X157261904Y-77259580D02*
X157309523Y-77164342D01*
X157309523Y-77164342D02*
X157309523Y-76354819D01*
X158309523Y-77354819D02*
X157738095Y-77354819D01*
X158023809Y-77354819D02*
X158023809Y-76354819D01*
X158023809Y-76354819D02*
X157928571Y-76497676D01*
X157928571Y-76497676D02*
X157833333Y-76592914D01*
X157833333Y-76592914D02*
X157738095Y-76640533D01*
X162166666Y-110404819D02*
X162166666Y-111119104D01*
X162166666Y-111119104D02*
X162119047Y-111261961D01*
X162119047Y-111261961D02*
X162023809Y-111357200D01*
X162023809Y-111357200D02*
X161880952Y-111404819D01*
X161880952Y-111404819D02*
X161785714Y-111404819D01*
X162690476Y-111404819D02*
X162880952Y-111404819D01*
X162880952Y-111404819D02*
X162976190Y-111357200D01*
X162976190Y-111357200D02*
X163023809Y-111309580D01*
X163023809Y-111309580D02*
X163119047Y-111166723D01*
X163119047Y-111166723D02*
X163166666Y-110976247D01*
X163166666Y-110976247D02*
X163166666Y-110595295D01*
X163166666Y-110595295D02*
X163119047Y-110500057D01*
X163119047Y-110500057D02*
X163071428Y-110452438D01*
X163071428Y-110452438D02*
X162976190Y-110404819D01*
X162976190Y-110404819D02*
X162785714Y-110404819D01*
X162785714Y-110404819D02*
X162690476Y-110452438D01*
X162690476Y-110452438D02*
X162642857Y-110500057D01*
X162642857Y-110500057D02*
X162595238Y-110595295D01*
X162595238Y-110595295D02*
X162595238Y-110833390D01*
X162595238Y-110833390D02*
X162642857Y-110928628D01*
X162642857Y-110928628D02*
X162690476Y-110976247D01*
X162690476Y-110976247D02*
X162785714Y-111023866D01*
X162785714Y-111023866D02*
X162976190Y-111023866D01*
X162976190Y-111023866D02*
X163071428Y-110976247D01*
X163071428Y-110976247D02*
X163119047Y-110928628D01*
X163119047Y-110928628D02*
X163166666Y-110833390D01*
X154754819Y-80761904D02*
X155564342Y-80761904D01*
X155564342Y-80761904D02*
X155659580Y-80714285D01*
X155659580Y-80714285D02*
X155707200Y-80666666D01*
X155707200Y-80666666D02*
X155754819Y-80571428D01*
X155754819Y-80571428D02*
X155754819Y-80380952D01*
X155754819Y-80380952D02*
X155707200Y-80285714D01*
X155707200Y-80285714D02*
X155659580Y-80238095D01*
X155659580Y-80238095D02*
X155564342Y-80190476D01*
X155564342Y-80190476D02*
X154754819Y-80190476D01*
X154754819Y-79285714D02*
X154754819Y-79476190D01*
X154754819Y-79476190D02*
X154802438Y-79571428D01*
X154802438Y-79571428D02*
X154850057Y-79619047D01*
X154850057Y-79619047D02*
X154992914Y-79714285D01*
X154992914Y-79714285D02*
X155183390Y-79761904D01*
X155183390Y-79761904D02*
X155564342Y-79761904D01*
X155564342Y-79761904D02*
X155659580Y-79714285D01*
X155659580Y-79714285D02*
X155707200Y-79666666D01*
X155707200Y-79666666D02*
X155754819Y-79571428D01*
X155754819Y-79571428D02*
X155754819Y-79380952D01*
X155754819Y-79380952D02*
X155707200Y-79285714D01*
X155707200Y-79285714D02*
X155659580Y-79238095D01*
X155659580Y-79238095D02*
X155564342Y-79190476D01*
X155564342Y-79190476D02*
X155326247Y-79190476D01*
X155326247Y-79190476D02*
X155231009Y-79238095D01*
X155231009Y-79238095D02*
X155183390Y-79285714D01*
X155183390Y-79285714D02*
X155135771Y-79380952D01*
X155135771Y-79380952D02*
X155135771Y-79571428D01*
X155135771Y-79571428D02*
X155183390Y-79666666D01*
X155183390Y-79666666D02*
X155231009Y-79714285D01*
X155231009Y-79714285D02*
X155326247Y-79761904D01*
X161857142Y-84384819D02*
X161523809Y-83908628D01*
X161285714Y-84384819D02*
X161285714Y-83384819D01*
X161285714Y-83384819D02*
X161666666Y-83384819D01*
X161666666Y-83384819D02*
X161761904Y-83432438D01*
X161761904Y-83432438D02*
X161809523Y-83480057D01*
X161809523Y-83480057D02*
X161857142Y-83575295D01*
X161857142Y-83575295D02*
X161857142Y-83718152D01*
X161857142Y-83718152D02*
X161809523Y-83813390D01*
X161809523Y-83813390D02*
X161761904Y-83861009D01*
X161761904Y-83861009D02*
X161666666Y-83908628D01*
X161666666Y-83908628D02*
X161285714Y-83908628D01*
X162238095Y-83480057D02*
X162285714Y-83432438D01*
X162285714Y-83432438D02*
X162380952Y-83384819D01*
X162380952Y-83384819D02*
X162619047Y-83384819D01*
X162619047Y-83384819D02*
X162714285Y-83432438D01*
X162714285Y-83432438D02*
X162761904Y-83480057D01*
X162761904Y-83480057D02*
X162809523Y-83575295D01*
X162809523Y-83575295D02*
X162809523Y-83670533D01*
X162809523Y-83670533D02*
X162761904Y-83813390D01*
X162761904Y-83813390D02*
X162190476Y-84384819D01*
X162190476Y-84384819D02*
X162809523Y-84384819D01*
X163428571Y-83384819D02*
X163523809Y-83384819D01*
X163523809Y-83384819D02*
X163619047Y-83432438D01*
X163619047Y-83432438D02*
X163666666Y-83480057D01*
X163666666Y-83480057D02*
X163714285Y-83575295D01*
X163714285Y-83575295D02*
X163761904Y-83765771D01*
X163761904Y-83765771D02*
X163761904Y-84003866D01*
X163761904Y-84003866D02*
X163714285Y-84194342D01*
X163714285Y-84194342D02*
X163666666Y-84289580D01*
X163666666Y-84289580D02*
X163619047Y-84337200D01*
X163619047Y-84337200D02*
X163523809Y-84384819D01*
X163523809Y-84384819D02*
X163428571Y-84384819D01*
X163428571Y-84384819D02*
X163333333Y-84337200D01*
X163333333Y-84337200D02*
X163285714Y-84289580D01*
X163285714Y-84289580D02*
X163238095Y-84194342D01*
X163238095Y-84194342D02*
X163190476Y-84003866D01*
X163190476Y-84003866D02*
X163190476Y-83765771D01*
X163190476Y-83765771D02*
X163238095Y-83575295D01*
X163238095Y-83575295D02*
X163285714Y-83480057D01*
X163285714Y-83480057D02*
X163333333Y-83432438D01*
X163333333Y-83432438D02*
X163428571Y-83384819D01*
X155857142Y-93929580D02*
X155809523Y-93977200D01*
X155809523Y-93977200D02*
X155666666Y-94024819D01*
X155666666Y-94024819D02*
X155571428Y-94024819D01*
X155571428Y-94024819D02*
X155428571Y-93977200D01*
X155428571Y-93977200D02*
X155333333Y-93881961D01*
X155333333Y-93881961D02*
X155285714Y-93786723D01*
X155285714Y-93786723D02*
X155238095Y-93596247D01*
X155238095Y-93596247D02*
X155238095Y-93453390D01*
X155238095Y-93453390D02*
X155285714Y-93262914D01*
X155285714Y-93262914D02*
X155333333Y-93167676D01*
X155333333Y-93167676D02*
X155428571Y-93072438D01*
X155428571Y-93072438D02*
X155571428Y-93024819D01*
X155571428Y-93024819D02*
X155666666Y-93024819D01*
X155666666Y-93024819D02*
X155809523Y-93072438D01*
X155809523Y-93072438D02*
X155857142Y-93120057D01*
X156809523Y-94024819D02*
X156238095Y-94024819D01*
X156523809Y-94024819D02*
X156523809Y-93024819D01*
X156523809Y-93024819D02*
X156428571Y-93167676D01*
X156428571Y-93167676D02*
X156333333Y-93262914D01*
X156333333Y-93262914D02*
X156238095Y-93310533D01*
X157190476Y-93120057D02*
X157238095Y-93072438D01*
X157238095Y-93072438D02*
X157333333Y-93024819D01*
X157333333Y-93024819D02*
X157571428Y-93024819D01*
X157571428Y-93024819D02*
X157666666Y-93072438D01*
X157666666Y-93072438D02*
X157714285Y-93120057D01*
X157714285Y-93120057D02*
X157761904Y-93215295D01*
X157761904Y-93215295D02*
X157761904Y-93310533D01*
X157761904Y-93310533D02*
X157714285Y-93453390D01*
X157714285Y-93453390D02*
X157142857Y-94024819D01*
X157142857Y-94024819D02*
X157761904Y-94024819D01*
X152166666Y-110404819D02*
X152166666Y-111119104D01*
X152166666Y-111119104D02*
X152119047Y-111261961D01*
X152119047Y-111261961D02*
X152023809Y-111357200D01*
X152023809Y-111357200D02*
X151880952Y-111404819D01*
X151880952Y-111404819D02*
X151785714Y-111404819D01*
X152547619Y-110404819D02*
X153214285Y-110404819D01*
X153214285Y-110404819D02*
X152785714Y-111404819D01*
X172166666Y-103904819D02*
X172166666Y-104619104D01*
X172166666Y-104619104D02*
X172119047Y-104761961D01*
X172119047Y-104761961D02*
X172023809Y-104857200D01*
X172023809Y-104857200D02*
X171880952Y-104904819D01*
X171880952Y-104904819D02*
X171785714Y-104904819D01*
X173119047Y-103904819D02*
X172642857Y-103904819D01*
X172642857Y-103904819D02*
X172595238Y-104381009D01*
X172595238Y-104381009D02*
X172642857Y-104333390D01*
X172642857Y-104333390D02*
X172738095Y-104285771D01*
X172738095Y-104285771D02*
X172976190Y-104285771D01*
X172976190Y-104285771D02*
X173071428Y-104333390D01*
X173071428Y-104333390D02*
X173119047Y-104381009D01*
X173119047Y-104381009D02*
X173166666Y-104476247D01*
X173166666Y-104476247D02*
X173166666Y-104714342D01*
X173166666Y-104714342D02*
X173119047Y-104809580D01*
X173119047Y-104809580D02*
X173071428Y-104857200D01*
X173071428Y-104857200D02*
X172976190Y-104904819D01*
X172976190Y-104904819D02*
X172738095Y-104904819D01*
X172738095Y-104904819D02*
X172642857Y-104857200D01*
X172642857Y-104857200D02*
X172595238Y-104809580D01*
X171166666Y-56804819D02*
X170833333Y-56328628D01*
X170595238Y-56804819D02*
X170595238Y-55804819D01*
X170595238Y-55804819D02*
X170976190Y-55804819D01*
X170976190Y-55804819D02*
X171071428Y-55852438D01*
X171071428Y-55852438D02*
X171119047Y-55900057D01*
X171119047Y-55900057D02*
X171166666Y-55995295D01*
X171166666Y-55995295D02*
X171166666Y-56138152D01*
X171166666Y-56138152D02*
X171119047Y-56233390D01*
X171119047Y-56233390D02*
X171071428Y-56281009D01*
X171071428Y-56281009D02*
X170976190Y-56328628D01*
X170976190Y-56328628D02*
X170595238Y-56328628D01*
X171595238Y-56281009D02*
X171928571Y-56281009D01*
X172071428Y-56804819D02*
X171595238Y-56804819D01*
X171595238Y-56804819D02*
X171595238Y-55804819D01*
X171595238Y-55804819D02*
X172071428Y-55804819D01*
X172833333Y-56281009D02*
X172500000Y-56281009D01*
X172500000Y-56804819D02*
X172500000Y-55804819D01*
X172500000Y-55804819D02*
X172976190Y-55804819D01*
X173500000Y-55804819D02*
X173500000Y-56042914D01*
X173261905Y-55947676D02*
X173500000Y-56042914D01*
X173500000Y-56042914D02*
X173738095Y-55947676D01*
X173357143Y-56233390D02*
X173500000Y-56042914D01*
X173500000Y-56042914D02*
X173642857Y-56233390D01*
X174261905Y-55804819D02*
X174261905Y-56042914D01*
X174023810Y-55947676D02*
X174261905Y-56042914D01*
X174261905Y-56042914D02*
X174500000Y-55947676D01*
X174119048Y-56233390D02*
X174261905Y-56042914D01*
X174261905Y-56042914D02*
X174404762Y-56233390D01*
D11*
%TO.C,R2*%
X152762742Y-78477500D02*
X153237258Y-78477500D01*
X152762742Y-79522500D02*
X153237258Y-79522500D01*
%TO.C,J4*%
X157150000Y-105250000D02*
X157150000Y-106500000D01*
X157440000Y-105540000D02*
X157440000Y-111510000D01*
X157440000Y-111510000D02*
X167560000Y-111510000D01*
X157450000Y-105550000D02*
X157450000Y-106300000D01*
X157450000Y-106300000D02*
X159250000Y-106300000D01*
X157450000Y-107800000D02*
X158200000Y-107800000D01*
X158200000Y-107800000D02*
X158200000Y-110750000D01*
X158200000Y-110750000D02*
X162500000Y-110750000D01*
X158400000Y-105250000D02*
X157150000Y-105250000D01*
X159250000Y-105550000D02*
X157450000Y-105550000D01*
X159250000Y-106300000D02*
X159250000Y-105550000D01*
X160750000Y-105550000D02*
X160750000Y-106300000D01*
X160750000Y-106300000D02*
X164250000Y-106300000D01*
X164250000Y-105550000D02*
X160750000Y-105550000D01*
X164250000Y-106300000D02*
X164250000Y-105550000D01*
X165750000Y-105550000D02*
X165750000Y-106300000D01*
X165750000Y-106300000D02*
X167550000Y-106300000D01*
X166800000Y-107800000D02*
X166800000Y-110750000D01*
X166800000Y-110750000D02*
X162500000Y-110750000D01*
X167550000Y-105550000D02*
X165750000Y-105550000D01*
X167550000Y-106300000D02*
X167550000Y-105550000D01*
X167550000Y-107800000D02*
X166800000Y-107800000D01*
X167560000Y-105540000D02*
X157440000Y-105540000D01*
X167560000Y-111510000D02*
X167560000Y-105540000D01*
%TO.C,C9*%
X157859420Y-96990000D02*
X158140580Y-96990000D01*
X157859420Y-98010000D02*
X158140580Y-98010000D01*
%TO.C,J10*%
X167150000Y-111750000D02*
X167150000Y-113000000D01*
X167440000Y-112040000D02*
X167440000Y-118010000D01*
X167440000Y-118010000D02*
X177560000Y-118010000D01*
X167450000Y-112050000D02*
X167450000Y-112800000D01*
X167450000Y-112800000D02*
X169250000Y-112800000D01*
X167450000Y-114300000D02*
X168200000Y-114300000D01*
X168200000Y-114300000D02*
X168200000Y-117250000D01*
X168200000Y-117250000D02*
X172500000Y-117250000D01*
X168400000Y-111750000D02*
X167150000Y-111750000D01*
X169250000Y-112050000D02*
X167450000Y-112050000D01*
X169250000Y-112800000D02*
X169250000Y-112050000D01*
X170750000Y-112050000D02*
X170750000Y-112800000D01*
X170750000Y-112800000D02*
X174250000Y-112800000D01*
X174250000Y-112050000D02*
X170750000Y-112050000D01*
X174250000Y-112800000D02*
X174250000Y-112050000D01*
X175750000Y-112050000D02*
X175750000Y-112800000D01*
X175750000Y-112800000D02*
X177550000Y-112800000D01*
X176800000Y-114300000D02*
X176800000Y-117250000D01*
X176800000Y-117250000D02*
X172500000Y-117250000D01*
X177550000Y-112050000D02*
X175750000Y-112050000D01*
X177550000Y-112800000D02*
X177550000Y-112050000D01*
X177550000Y-114300000D02*
X176800000Y-114300000D01*
X177560000Y-112040000D02*
X167440000Y-112040000D01*
X177560000Y-118010000D02*
X177560000Y-112040000D01*
%TO.C,J22*%
X164650000Y-93250000D02*
X164650000Y-94500000D01*
X164940000Y-93540000D02*
X164940000Y-99510000D01*
X164940000Y-99510000D02*
X177560000Y-99510000D01*
X164950000Y-93550000D02*
X164950000Y-94300000D01*
X164950000Y-94300000D02*
X166750000Y-94300000D01*
X164950000Y-95800000D02*
X165700000Y-95800000D01*
X165700000Y-95800000D02*
X165700000Y-98750000D01*
X165700000Y-98750000D02*
X171250000Y-98750000D01*
X165900000Y-93250000D02*
X164650000Y-93250000D01*
X166750000Y-93550000D02*
X164950000Y-93550000D01*
X166750000Y-94300000D02*
X166750000Y-93550000D01*
X168250000Y-93550000D02*
X168250000Y-94300000D01*
X168250000Y-94300000D02*
X174250000Y-94300000D01*
X174250000Y-93550000D02*
X168250000Y-93550000D01*
X174250000Y-94300000D02*
X174250000Y-93550000D01*
X175750000Y-93550000D02*
X175750000Y-94300000D01*
X175750000Y-94300000D02*
X177550000Y-94300000D01*
X176800000Y-95800000D02*
X176800000Y-98750000D01*
X176800000Y-98750000D02*
X171250000Y-98750000D01*
X177550000Y-93550000D02*
X175750000Y-93550000D01*
X177550000Y-94300000D02*
X177550000Y-93550000D01*
X177550000Y-95800000D02*
X176800000Y-95800000D01*
X177560000Y-93540000D02*
X164940000Y-93540000D01*
X177560000Y-99510000D02*
X177560000Y-93540000D01*
%TO.C,C25*%
X159490000Y-80140580D02*
X159490000Y-79859420D01*
X160510000Y-80140580D02*
X160510000Y-79859420D01*
%TO.C,J26*%
X164650000Y-87250000D02*
X164650000Y-88500000D01*
X164940000Y-87540000D02*
X164940000Y-93510000D01*
X164940000Y-93510000D02*
X177560000Y-93510000D01*
X164950000Y-87550000D02*
X164950000Y-88300000D01*
X164950000Y-88300000D02*
X166750000Y-88300000D01*
X164950000Y-89800000D02*
X165700000Y-89800000D01*
X165700000Y-89800000D02*
X165700000Y-92750000D01*
X165700000Y-92750000D02*
X171250000Y-92750000D01*
X165900000Y-87250000D02*
X164650000Y-87250000D01*
X166750000Y-87550000D02*
X164950000Y-87550000D01*
X166750000Y-88300000D02*
X166750000Y-87550000D01*
X168250000Y-87550000D02*
X168250000Y-88300000D01*
X168250000Y-88300000D02*
X174250000Y-88300000D01*
X174250000Y-87550000D02*
X168250000Y-87550000D01*
X174250000Y-88300000D02*
X174250000Y-87550000D01*
X175750000Y-87550000D02*
X175750000Y-88300000D01*
X175750000Y-88300000D02*
X177550000Y-88300000D01*
X176800000Y-89800000D02*
X176800000Y-92750000D01*
X176800000Y-92750000D02*
X171250000Y-92750000D01*
X177550000Y-87550000D02*
X175750000Y-87550000D01*
X177550000Y-88300000D02*
X177550000Y-87550000D01*
X177550000Y-89800000D02*
X176800000Y-89800000D01*
X177560000Y-87540000D02*
X164940000Y-87540000D01*
X177560000Y-93510000D02*
X177560000Y-87540000D01*
%TO.C,C1*%
X157640580Y-76490000D02*
X157359420Y-76490000D01*
X157640580Y-77510000D02*
X157359420Y-77510000D01*
%TO.C,J1*%
X152440000Y-132715000D02*
X151850000Y-132715000D01*
X152440000Y-132715000D02*
X152440000Y-127815000D01*
X152440000Y-134935000D02*
X151850000Y-134935000D01*
X152440000Y-137035000D02*
X152440000Y-134935000D01*
X162560000Y-127815000D02*
X152440000Y-127815000D01*
X162560000Y-132715000D02*
X162560000Y-127815000D01*
X162560000Y-137035000D02*
X152440000Y-137035000D01*
X162560000Y-137035000D02*
X162560000Y-134935000D01*
X163150000Y-132715000D02*
X162560000Y-132715000D01*
X163150000Y-134935000D02*
X162560000Y-134935000D01*
X151850000Y-134935000D02*
G75*
G02*
X151850000Y-132715000I0J1110000D01*
G01*
X163150000Y-132715000D02*
G75*
G02*
X163150000Y-134935000I0J-1110000D01*
G01*
%TO.C,J16*%
X137150000Y-50250000D02*
X137150000Y-51500000D01*
X137440000Y-50540000D02*
X137440000Y-56510000D01*
X137440000Y-56510000D02*
X147560000Y-56510000D01*
X137450000Y-50550000D02*
X137450000Y-51300000D01*
X137450000Y-51300000D02*
X139250000Y-51300000D01*
X137450000Y-52800000D02*
X138200000Y-52800000D01*
X138200000Y-52800000D02*
X138200000Y-55750000D01*
X138200000Y-55750000D02*
X142500000Y-55750000D01*
X138400000Y-50250000D02*
X137150000Y-50250000D01*
X139250000Y-50550000D02*
X137450000Y-50550000D01*
X139250000Y-51300000D02*
X139250000Y-50550000D01*
X140750000Y-50550000D02*
X140750000Y-51300000D01*
X140750000Y-51300000D02*
X144250000Y-51300000D01*
X144250000Y-50550000D02*
X140750000Y-50550000D01*
X144250000Y-51300000D02*
X144250000Y-50550000D01*
X145750000Y-50550000D02*
X145750000Y-51300000D01*
X145750000Y-51300000D02*
X147550000Y-51300000D01*
X146800000Y-52800000D02*
X146800000Y-55750000D01*
X146800000Y-55750000D02*
X142500000Y-55750000D01*
X147550000Y-50550000D02*
X145750000Y-50550000D01*
X147550000Y-51300000D02*
X147550000Y-50550000D01*
X147550000Y-52800000D02*
X146800000Y-52800000D01*
X147560000Y-50540000D02*
X137440000Y-50540000D01*
X147560000Y-56510000D02*
X147560000Y-50540000D01*
%TO.C,J11*%
X137150000Y-117750000D02*
X137150000Y-119000000D01*
X137440000Y-118040000D02*
X137440000Y-124010000D01*
X137440000Y-124010000D02*
X147560000Y-124010000D01*
X137450000Y-118050000D02*
X137450000Y-118800000D01*
X137450000Y-118800000D02*
X139250000Y-118800000D01*
X137450000Y-120300000D02*
X138200000Y-120300000D01*
X138200000Y-120300000D02*
X138200000Y-123250000D01*
X138200000Y-123250000D02*
X142500000Y-123250000D01*
X138400000Y-117750000D02*
X137150000Y-117750000D01*
X139250000Y-118050000D02*
X137450000Y-118050000D01*
X139250000Y-118800000D02*
X139250000Y-118050000D01*
X140750000Y-118050000D02*
X140750000Y-118800000D01*
X140750000Y-118800000D02*
X144250000Y-118800000D01*
X144250000Y-118050000D02*
X140750000Y-118050000D01*
X144250000Y-118800000D02*
X144250000Y-118050000D01*
X145750000Y-118050000D02*
X145750000Y-118800000D01*
X145750000Y-118800000D02*
X147550000Y-118800000D01*
X146800000Y-120300000D02*
X146800000Y-123250000D01*
X146800000Y-123250000D02*
X142500000Y-123250000D01*
X147550000Y-118050000D02*
X145750000Y-118050000D01*
X147550000Y-118800000D02*
X147550000Y-118050000D01*
X147550000Y-120300000D02*
X146800000Y-120300000D01*
X147560000Y-118040000D02*
X137440000Y-118040000D01*
X147560000Y-124010000D02*
X147560000Y-118040000D01*
%TO.C,C15*%
X153490000Y-88859420D02*
X153490000Y-89140580D01*
X154510000Y-88859420D02*
X154510000Y-89140580D01*
%TO.C,J13*%
X137150000Y-130725000D02*
X137150000Y-131975000D01*
X137440000Y-131015000D02*
X137440000Y-136985000D01*
X137440000Y-136985000D02*
X147560000Y-136985000D01*
X137450000Y-131025000D02*
X137450000Y-131775000D01*
X137450000Y-131775000D02*
X139250000Y-131775000D01*
X137450000Y-133275000D02*
X138200000Y-133275000D01*
X138200000Y-133275000D02*
X138200000Y-136225000D01*
X138200000Y-136225000D02*
X142500000Y-136225000D01*
X138400000Y-130725000D02*
X137150000Y-130725000D01*
X139250000Y-131025000D02*
X137450000Y-131025000D01*
X139250000Y-131775000D02*
X139250000Y-131025000D01*
X140750000Y-131025000D02*
X140750000Y-131775000D01*
X140750000Y-131775000D02*
X144250000Y-131775000D01*
X144250000Y-131025000D02*
X140750000Y-131025000D01*
X144250000Y-131775000D02*
X144250000Y-131025000D01*
X145750000Y-131025000D02*
X145750000Y-131775000D01*
X145750000Y-131775000D02*
X147550000Y-131775000D01*
X146800000Y-133275000D02*
X146800000Y-136225000D01*
X146800000Y-136225000D02*
X142500000Y-136225000D01*
X147550000Y-131025000D02*
X145750000Y-131025000D01*
X147550000Y-131775000D02*
X147550000Y-131025000D01*
X147550000Y-133275000D02*
X146800000Y-133275000D01*
X147560000Y-131015000D02*
X137440000Y-131015000D01*
X147560000Y-136985000D02*
X147560000Y-131015000D01*
%TO.C,C4*%
X149711252Y-79590000D02*
X148288748Y-79590000D01*
X149711252Y-81410000D02*
X148288748Y-81410000D01*
%TO.C,C3*%
X152859420Y-76990000D02*
X153140580Y-76990000D01*
X152859420Y-78010000D02*
X153140580Y-78010000D01*
%TO.C,D1*%
X157010000Y-57850000D02*
X151500000Y-57850000D01*
X157010000Y-61150000D02*
X151500000Y-61150000D01*
X157010000Y-61150000D02*
X157010000Y-57850000D01*
%TO.C,J21*%
X159650000Y-63225000D02*
X159650000Y-64475000D01*
X159940000Y-63515000D02*
X159940000Y-69485000D01*
X159940000Y-69485000D02*
X177560000Y-69485000D01*
X159950000Y-63525000D02*
X159950000Y-64275000D01*
X159950000Y-64275000D02*
X161750000Y-64275000D01*
X159950000Y-65775000D02*
X160700000Y-65775000D01*
X160700000Y-65775000D02*
X160700000Y-68725000D01*
X160700000Y-68725000D02*
X168750000Y-68725000D01*
X160900000Y-63225000D02*
X159650000Y-63225000D01*
X161750000Y-63525000D02*
X159950000Y-63525000D01*
X161750000Y-64275000D02*
X161750000Y-63525000D01*
X163250000Y-63525000D02*
X163250000Y-64275000D01*
X163250000Y-64275000D02*
X174250000Y-64275000D01*
X174250000Y-63525000D02*
X163250000Y-63525000D01*
X174250000Y-64275000D02*
X174250000Y-63525000D01*
X175750000Y-63525000D02*
X175750000Y-64275000D01*
X175750000Y-64275000D02*
X177550000Y-64275000D01*
X176800000Y-65775000D02*
X176800000Y-68725000D01*
X176800000Y-68725000D02*
X168750000Y-68725000D01*
X177550000Y-63525000D02*
X175750000Y-63525000D01*
X177550000Y-64275000D02*
X177550000Y-63525000D01*
X177550000Y-65775000D02*
X176800000Y-65775000D01*
X177560000Y-63515000D02*
X159940000Y-63515000D01*
X177560000Y-69485000D02*
X177560000Y-63515000D01*
%TO.C,L1*%
X146990000Y-69590000D02*
X154010000Y-69590000D01*
X146990000Y-70990000D02*
X146990000Y-69590000D01*
X146990000Y-76410000D02*
X146990000Y-75010000D01*
X154010000Y-69590000D02*
X154010000Y-70990000D01*
X154010000Y-75010000D02*
X154010000Y-76410000D01*
X154010000Y-76410000D02*
X146990000Y-76410000D01*
%TO.C,J18*%
X137150000Y-63250000D02*
X137150000Y-64500000D01*
X137440000Y-63540000D02*
X137440000Y-69510000D01*
X137440000Y-69510000D02*
X147560000Y-69510000D01*
X137450000Y-63550000D02*
X137450000Y-64300000D01*
X137450000Y-64300000D02*
X139250000Y-64300000D01*
X137450000Y-65800000D02*
X138200000Y-65800000D01*
X138200000Y-65800000D02*
X138200000Y-68750000D01*
X138200000Y-68750000D02*
X142500000Y-68750000D01*
X138400000Y-63250000D02*
X137150000Y-63250000D01*
X139250000Y-63550000D02*
X137450000Y-63550000D01*
X139250000Y-64300000D02*
X139250000Y-63550000D01*
X140750000Y-63550000D02*
X140750000Y-64300000D01*
X140750000Y-64300000D02*
X144250000Y-64300000D01*
X144250000Y-63550000D02*
X140750000Y-63550000D01*
X144250000Y-64300000D02*
X144250000Y-63550000D01*
X145750000Y-63550000D02*
X145750000Y-64300000D01*
X145750000Y-64300000D02*
X147550000Y-64300000D01*
X146800000Y-65800000D02*
X146800000Y-68750000D01*
X146800000Y-68750000D02*
X142500000Y-68750000D01*
X147550000Y-63550000D02*
X145750000Y-63550000D01*
X147550000Y-64300000D02*
X147550000Y-63550000D01*
X147550000Y-65800000D02*
X146800000Y-65800000D01*
X147560000Y-63540000D02*
X137440000Y-63540000D01*
X147560000Y-69510000D02*
X147560000Y-63540000D01*
%TO.C,J12*%
X167150000Y-117750000D02*
X167150000Y-119000000D01*
X167440000Y-118040000D02*
X167440000Y-124010000D01*
X167440000Y-124010000D02*
X177560000Y-124010000D01*
X167450000Y-118050000D02*
X167450000Y-118800000D01*
X167450000Y-118800000D02*
X169250000Y-118800000D01*
X167450000Y-120300000D02*
X168200000Y-120300000D01*
X168200000Y-120300000D02*
X168200000Y-123250000D01*
X168200000Y-123250000D02*
X172500000Y-123250000D01*
X168400000Y-117750000D02*
X167150000Y-117750000D01*
X169250000Y-118050000D02*
X167450000Y-118050000D01*
X169250000Y-118800000D02*
X169250000Y-118050000D01*
X170750000Y-118050000D02*
X170750000Y-118800000D01*
X170750000Y-118800000D02*
X174250000Y-118800000D01*
X174250000Y-118050000D02*
X170750000Y-118050000D01*
X174250000Y-118800000D02*
X174250000Y-118050000D01*
X175750000Y-118050000D02*
X175750000Y-118800000D01*
X175750000Y-118800000D02*
X177550000Y-118800000D01*
X176800000Y-120300000D02*
X176800000Y-123250000D01*
X176800000Y-123250000D02*
X172500000Y-123250000D01*
X177550000Y-118050000D02*
X175750000Y-118050000D01*
X177550000Y-118800000D02*
X177550000Y-118050000D01*
X177550000Y-120300000D02*
X176800000Y-120300000D01*
X177560000Y-118040000D02*
X167440000Y-118040000D01*
X177560000Y-124010000D02*
X177560000Y-118040000D01*
%TO.C,J25*%
X159650000Y-50250000D02*
X159650000Y-51500000D01*
X159940000Y-50540000D02*
X159940000Y-56510000D01*
X159940000Y-56510000D02*
X177560000Y-56510000D01*
X159950000Y-50550000D02*
X159950000Y-51300000D01*
X159950000Y-51300000D02*
X161750000Y-51300000D01*
X159950000Y-52800000D02*
X160700000Y-52800000D01*
X160700000Y-52800000D02*
X160700000Y-55750000D01*
X160700000Y-55750000D02*
X168750000Y-55750000D01*
X160900000Y-50250000D02*
X159650000Y-50250000D01*
X161750000Y-50550000D02*
X159950000Y-50550000D01*
X161750000Y-51300000D02*
X161750000Y-50550000D01*
X163250000Y-50550000D02*
X163250000Y-51300000D01*
X163250000Y-51300000D02*
X174250000Y-51300000D01*
X174250000Y-50550000D02*
X163250000Y-50550000D01*
X174250000Y-51300000D02*
X174250000Y-50550000D01*
X175750000Y-50550000D02*
X175750000Y-51300000D01*
X175750000Y-51300000D02*
X177550000Y-51300000D01*
X176800000Y-52800000D02*
X176800000Y-55750000D01*
X176800000Y-55750000D02*
X168750000Y-55750000D01*
X177550000Y-50550000D02*
X175750000Y-50550000D01*
X177550000Y-51300000D02*
X177550000Y-50550000D01*
X177550000Y-52800000D02*
X176800000Y-52800000D01*
X177560000Y-50540000D02*
X159940000Y-50540000D01*
X177560000Y-56510000D02*
X177560000Y-50540000D01*
%TO.C,J19*%
X142780000Y-71300000D02*
X141000000Y-71300000D01*
X142780000Y-80700000D02*
X141000000Y-80700000D01*
X145700000Y-73200000D02*
X145700000Y-72400000D01*
%TO.C,J27*%
X164650000Y-81250000D02*
X164650000Y-82500000D01*
X164940000Y-81540000D02*
X164940000Y-87510000D01*
X164940000Y-87510000D02*
X177560000Y-87510000D01*
X164950000Y-81550000D02*
X164950000Y-82300000D01*
X164950000Y-82300000D02*
X166750000Y-82300000D01*
X164950000Y-83800000D02*
X165700000Y-83800000D01*
X165700000Y-83800000D02*
X165700000Y-86750000D01*
X165700000Y-86750000D02*
X171250000Y-86750000D01*
X165900000Y-81250000D02*
X164650000Y-81250000D01*
X166750000Y-81550000D02*
X164950000Y-81550000D01*
X166750000Y-82300000D02*
X166750000Y-81550000D01*
X168250000Y-81550000D02*
X168250000Y-82300000D01*
X168250000Y-82300000D02*
X174250000Y-82300000D01*
X174250000Y-81550000D02*
X168250000Y-81550000D01*
X174250000Y-82300000D02*
X174250000Y-81550000D01*
X175750000Y-81550000D02*
X175750000Y-82300000D01*
X175750000Y-82300000D02*
X177550000Y-82300000D01*
X176800000Y-83800000D02*
X176800000Y-86750000D01*
X176800000Y-86750000D02*
X171250000Y-86750000D01*
X177550000Y-81550000D02*
X175750000Y-81550000D01*
X177550000Y-82300000D02*
X177550000Y-81550000D01*
X177550000Y-83800000D02*
X176800000Y-83800000D01*
X177560000Y-81540000D02*
X164940000Y-81540000D01*
X177560000Y-87510000D02*
X177560000Y-81540000D01*
%TO.C,J3*%
X147150000Y-105250000D02*
X147150000Y-106500000D01*
X147440000Y-105540000D02*
X147440000Y-111510000D01*
X147440000Y-111510000D02*
X157560000Y-111510000D01*
X147450000Y-105550000D02*
X147450000Y-106300000D01*
X147450000Y-106300000D02*
X149250000Y-106300000D01*
X147450000Y-107800000D02*
X148200000Y-107800000D01*
X148200000Y-107800000D02*
X148200000Y-110750000D01*
X148200000Y-110750000D02*
X152500000Y-110750000D01*
X148400000Y-105250000D02*
X147150000Y-105250000D01*
X149250000Y-105550000D02*
X147450000Y-105550000D01*
X149250000Y-106300000D02*
X149250000Y-105550000D01*
X150750000Y-105550000D02*
X150750000Y-106300000D01*
X150750000Y-106300000D02*
X154250000Y-106300000D01*
X154250000Y-105550000D02*
X150750000Y-105550000D01*
X154250000Y-106300000D02*
X154250000Y-105550000D01*
X155750000Y-105550000D02*
X155750000Y-106300000D01*
X155750000Y-106300000D02*
X157550000Y-106300000D01*
X156800000Y-107800000D02*
X156800000Y-110750000D01*
X156800000Y-110750000D02*
X152500000Y-110750000D01*
X157550000Y-105550000D02*
X155750000Y-105550000D01*
X157550000Y-106300000D02*
X157550000Y-105550000D01*
X157550000Y-107800000D02*
X156800000Y-107800000D01*
X157560000Y-105540000D02*
X147440000Y-105540000D01*
X157560000Y-111510000D02*
X157560000Y-105540000D01*
%TO.C,C16*%
X158265000Y-84261252D02*
X158265000Y-83738748D01*
X159735000Y-84261252D02*
X159735000Y-83738748D01*
%TO.C,C2*%
X157761252Y-70765000D02*
X157238748Y-70765000D01*
X157761252Y-72235000D02*
X157238748Y-72235000D01*
%TO.C,R8*%
X153237258Y-79977500D02*
X152762742Y-79977500D01*
X153237258Y-81022500D02*
X152762742Y-81022500D01*
%TO.C,R7*%
X162262742Y-91477500D02*
X162737258Y-91477500D01*
X162262742Y-92522500D02*
X162737258Y-92522500D01*
%TO.C,J14*%
X167150000Y-130725000D02*
X167150000Y-131975000D01*
X167440000Y-131015000D02*
X167440000Y-136985000D01*
X167440000Y-136985000D02*
X177560000Y-136985000D01*
X167450000Y-131025000D02*
X167450000Y-131775000D01*
X167450000Y-131775000D02*
X169250000Y-131775000D01*
X167450000Y-133275000D02*
X168200000Y-133275000D01*
X168200000Y-133275000D02*
X168200000Y-136225000D01*
X168200000Y-136225000D02*
X172500000Y-136225000D01*
X168400000Y-130725000D02*
X167150000Y-130725000D01*
X169250000Y-131025000D02*
X167450000Y-131025000D01*
X169250000Y-131775000D02*
X169250000Y-131025000D01*
X170750000Y-131025000D02*
X170750000Y-131775000D01*
X170750000Y-131775000D02*
X174250000Y-131775000D01*
X174250000Y-131025000D02*
X170750000Y-131025000D01*
X174250000Y-131775000D02*
X174250000Y-131025000D01*
X175750000Y-131025000D02*
X175750000Y-131775000D01*
X175750000Y-131775000D02*
X177550000Y-131775000D01*
X176800000Y-133275000D02*
X176800000Y-136225000D01*
X176800000Y-136225000D02*
X172500000Y-136225000D01*
X177550000Y-131025000D02*
X175750000Y-131025000D01*
X177550000Y-131775000D02*
X177550000Y-131025000D01*
X177550000Y-133275000D02*
X176800000Y-133275000D01*
X177560000Y-131015000D02*
X167440000Y-131015000D01*
X177560000Y-136985000D02*
X177560000Y-131015000D01*
%TO.C,R10*%
X162262742Y-89977500D02*
X162737258Y-89977500D01*
X162262742Y-91022500D02*
X162737258Y-91022500D01*
%TO.C,D2*%
X150500000Y-63200000D02*
X150500000Y-68250000D01*
X150950000Y-62750000D02*
X150500000Y-63200000D01*
X151300000Y-64600000D02*
X151300000Y-66400000D01*
X156700000Y-64600000D02*
X156700000Y-66400000D01*
X157500000Y-62750000D02*
X150950000Y-62750000D01*
X157500000Y-68250000D02*
X150500000Y-68250000D01*
X157500000Y-68250000D02*
X157500000Y-62750000D01*
%TO.C,J6*%
X137150000Y-111750000D02*
X137150000Y-113000000D01*
X137440000Y-112040000D02*
X137440000Y-118010000D01*
X137440000Y-118010000D02*
X147560000Y-118010000D01*
X137450000Y-112050000D02*
X137450000Y-112800000D01*
X137450000Y-112800000D02*
X139250000Y-112800000D01*
X137450000Y-114300000D02*
X138200000Y-114300000D01*
X138200000Y-114300000D02*
X138200000Y-117250000D01*
X138200000Y-117250000D02*
X142500000Y-117250000D01*
X138400000Y-111750000D02*
X137150000Y-111750000D01*
X139250000Y-112050000D02*
X137450000Y-112050000D01*
X139250000Y-112800000D02*
X139250000Y-112050000D01*
X140750000Y-112050000D02*
X140750000Y-112800000D01*
X140750000Y-112800000D02*
X144250000Y-112800000D01*
X144250000Y-112050000D02*
X140750000Y-112050000D01*
X144250000Y-112800000D02*
X144250000Y-112050000D01*
X145750000Y-112050000D02*
X145750000Y-112800000D01*
X145750000Y-112800000D02*
X147550000Y-112800000D01*
X146800000Y-114300000D02*
X146800000Y-117250000D01*
X146800000Y-117250000D02*
X142500000Y-117250000D01*
X147550000Y-112050000D02*
X145750000Y-112050000D01*
X147550000Y-112800000D02*
X147550000Y-112050000D01*
X147550000Y-114300000D02*
X146800000Y-114300000D01*
X147560000Y-112040000D02*
X137440000Y-112040000D01*
X147560000Y-118010000D02*
X147560000Y-112040000D01*
D12*
%TO.C,J8*%
X137162500Y-83260000D02*
X137162500Y-98500000D01*
X137162500Y-83260000D02*
X140102500Y-83260000D01*
X137162500Y-98500000D02*
X140152500Y-98500000D01*
X142892500Y-98480000D02*
X150062500Y-98480000D01*
X150062500Y-95990000D02*
X150062500Y-96000000D01*
X150062500Y-98480000D02*
X150062500Y-95990000D01*
X150112500Y-83240000D02*
X142952500Y-83240000D01*
X152162500Y-95200000D02*
X152162500Y-93350000D01*
X152162500Y-95200000D02*
X152162500Y-95990000D01*
X152162500Y-95990000D02*
X150062500Y-95990000D01*
X151462500Y-93590000D02*
G75*
G02*
X151362500Y-93590000I-50000J0D01*
G01*
X151362500Y-93590000D02*
G75*
G02*
X151462500Y-93590000I50000J0D01*
G01*
D11*
%TO.C,D3*%
X161500000Y-85460000D02*
X164185000Y-85460000D01*
X164185000Y-83540000D02*
X161500000Y-83540000D01*
X164185000Y-85460000D02*
X164185000Y-83540000D01*
%TO.C,J2*%
X137150000Y-105250000D02*
X137150000Y-106500000D01*
X137440000Y-105540000D02*
X137440000Y-111510000D01*
X137440000Y-111510000D02*
X147560000Y-111510000D01*
X137450000Y-105550000D02*
X137450000Y-106300000D01*
X137450000Y-106300000D02*
X139250000Y-106300000D01*
X137450000Y-107800000D02*
X138200000Y-107800000D01*
X138200000Y-107800000D02*
X138200000Y-110750000D01*
X138200000Y-110750000D02*
X142500000Y-110750000D01*
X138400000Y-105250000D02*
X137150000Y-105250000D01*
X139250000Y-105550000D02*
X137450000Y-105550000D01*
X139250000Y-106300000D02*
X139250000Y-105550000D01*
X140750000Y-105550000D02*
X140750000Y-106300000D01*
X140750000Y-106300000D02*
X144250000Y-106300000D01*
X144250000Y-105550000D02*
X140750000Y-105550000D01*
X144250000Y-106300000D02*
X144250000Y-105550000D01*
X145750000Y-105550000D02*
X145750000Y-106300000D01*
X145750000Y-106300000D02*
X147550000Y-106300000D01*
X146800000Y-107800000D02*
X146800000Y-110750000D01*
X146800000Y-110750000D02*
X142500000Y-110750000D01*
X147550000Y-105550000D02*
X145750000Y-105550000D01*
X147550000Y-106300000D02*
X147550000Y-105550000D01*
X147550000Y-107800000D02*
X146800000Y-107800000D01*
X147560000Y-105540000D02*
X137440000Y-105540000D01*
X147560000Y-111510000D02*
X147560000Y-105540000D01*
%TO.C,C8*%
X158490000Y-93359420D02*
X158490000Y-93640580D01*
X159510000Y-93359420D02*
X159510000Y-93640580D01*
%TO.C,J20*%
X159650000Y-69250000D02*
X159650000Y-70500000D01*
X159940000Y-69540000D02*
X159940000Y-75510000D01*
X159940000Y-75510000D02*
X177560000Y-75510000D01*
X159950000Y-69550000D02*
X159950000Y-70300000D01*
X159950000Y-70300000D02*
X161750000Y-70300000D01*
X159950000Y-71800000D02*
X160700000Y-71800000D01*
X160700000Y-71800000D02*
X160700000Y-74750000D01*
X160700000Y-74750000D02*
X168750000Y-74750000D01*
X160900000Y-69250000D02*
X159650000Y-69250000D01*
X161750000Y-69550000D02*
X159950000Y-69550000D01*
X161750000Y-70300000D02*
X161750000Y-69550000D01*
X163250000Y-69550000D02*
X163250000Y-70300000D01*
X163250000Y-70300000D02*
X174250000Y-70300000D01*
X174250000Y-69550000D02*
X163250000Y-69550000D01*
X174250000Y-70300000D02*
X174250000Y-69550000D01*
X175750000Y-69550000D02*
X175750000Y-70300000D01*
X175750000Y-70300000D02*
X177550000Y-70300000D01*
X176800000Y-71800000D02*
X176800000Y-74750000D01*
X176800000Y-74750000D02*
X168750000Y-74750000D01*
X177550000Y-69550000D02*
X175750000Y-69550000D01*
X177550000Y-70300000D02*
X177550000Y-69550000D01*
X177550000Y-71800000D02*
X176800000Y-71800000D01*
X177560000Y-69540000D02*
X159940000Y-69540000D01*
X177560000Y-75510000D02*
X177560000Y-69540000D01*
%TO.C,J23*%
X164650000Y-75250000D02*
X164650000Y-76500000D01*
X164940000Y-75540000D02*
X164940000Y-81510000D01*
X164940000Y-81510000D02*
X177560000Y-81510000D01*
X164950000Y-75550000D02*
X164950000Y-76300000D01*
X164950000Y-76300000D02*
X166750000Y-76300000D01*
X164950000Y-77800000D02*
X165700000Y-77800000D01*
X165700000Y-77800000D02*
X165700000Y-80750000D01*
X165700000Y-80750000D02*
X171250000Y-80750000D01*
X165900000Y-75250000D02*
X164650000Y-75250000D01*
X166750000Y-75550000D02*
X164950000Y-75550000D01*
X166750000Y-76300000D02*
X166750000Y-75550000D01*
X168250000Y-75550000D02*
X168250000Y-76300000D01*
X168250000Y-76300000D02*
X174250000Y-76300000D01*
X174250000Y-75550000D02*
X168250000Y-75550000D01*
X174250000Y-76300000D02*
X174250000Y-75550000D01*
X175750000Y-75550000D02*
X175750000Y-76300000D01*
X175750000Y-76300000D02*
X177550000Y-76300000D01*
X176800000Y-77800000D02*
X176800000Y-80750000D01*
X176800000Y-80750000D02*
X171250000Y-80750000D01*
X177550000Y-75550000D02*
X175750000Y-75550000D01*
X177550000Y-76300000D02*
X177550000Y-75550000D01*
X177550000Y-77800000D02*
X176800000Y-77800000D01*
X177560000Y-75540000D02*
X164940000Y-75540000D01*
X177560000Y-81510000D02*
X177560000Y-75540000D01*
%TO.C,U2*%
X154390000Y-91890000D02*
X154565000Y-91890000D01*
X154390000Y-92315000D02*
X154390000Y-91890000D01*
X154390000Y-94110000D02*
X154390000Y-93685000D01*
X154565000Y-94110000D02*
X154390000Y-94110000D01*
X156435000Y-91890000D02*
X156610000Y-91890000D01*
X156592261Y-94110000D02*
X156435000Y-94110000D01*
X156610000Y-91890000D02*
X156610000Y-92315000D01*
X156640000Y-93870000D02*
X156640000Y-93590000D01*
X156920000Y-93590000D01*
X156640000Y-93870000D01*
G36*
X156640000Y-93870000D02*
G01*
X156640000Y-93590000D01*
X156920000Y-93590000D01*
X156640000Y-93870000D01*
G37*
%TO.C,J15*%
X164650000Y-99250000D02*
X164650000Y-100500000D01*
X164940000Y-99540000D02*
X164940000Y-105510000D01*
X164940000Y-105510000D02*
X177560000Y-105510000D01*
X164950000Y-99550000D02*
X164950000Y-100300000D01*
X164950000Y-100300000D02*
X166750000Y-100300000D01*
X164950000Y-101800000D02*
X165700000Y-101800000D01*
X165700000Y-101800000D02*
X165700000Y-104750000D01*
X165700000Y-104750000D02*
X171250000Y-104750000D01*
X165900000Y-99250000D02*
X164650000Y-99250000D01*
X166750000Y-99550000D02*
X164950000Y-99550000D01*
X166750000Y-100300000D02*
X166750000Y-99550000D01*
X168250000Y-99550000D02*
X168250000Y-100300000D01*
X168250000Y-100300000D02*
X174250000Y-100300000D01*
X174250000Y-99550000D02*
X168250000Y-99550000D01*
X174250000Y-100300000D02*
X174250000Y-99550000D01*
X175750000Y-99550000D02*
X175750000Y-100300000D01*
X175750000Y-100300000D02*
X177550000Y-100300000D01*
X176800000Y-101800000D02*
X176800000Y-104750000D01*
X176800000Y-104750000D02*
X171250000Y-104750000D01*
X177550000Y-99550000D02*
X175750000Y-99550000D01*
X177550000Y-100300000D02*
X177550000Y-99550000D01*
X177550000Y-101800000D02*
X176800000Y-101800000D01*
X177560000Y-99540000D02*
X164940000Y-99540000D01*
X177560000Y-105510000D02*
X177560000Y-99540000D01*
%TO.C,C7*%
X158490000Y-89140580D02*
X158490000Y-88859420D01*
X159510000Y-89140580D02*
X159510000Y-88859420D01*
D13*
%TO.C,U3*%
X154400000Y-82400000D02*
X154400000Y-82900000D01*
X154400000Y-82400000D02*
X154900000Y-82400000D01*
X154400000Y-85600000D02*
X154400000Y-85100000D01*
X154400000Y-85600000D02*
X154900000Y-85600000D01*
X157100000Y-82400000D02*
X157600000Y-82400000D01*
X157600000Y-82400000D02*
X157600000Y-82900000D01*
X157600000Y-85600000D02*
X157100000Y-85600000D01*
X157600000Y-85600000D02*
X157600000Y-85100000D01*
D11*
X154325000Y-83250000D02*
X153989000Y-83490000D01*
X153989000Y-83010000D01*
X154325000Y-83250000D01*
G36*
X154325000Y-83250000D02*
G01*
X153989000Y-83490000D01*
X153989000Y-83010000D01*
X154325000Y-83250000D01*
G37*
%TO.C,J17*%
X147150000Y-50250000D02*
X147150000Y-51500000D01*
X147440000Y-50540000D02*
X147440000Y-56510000D01*
X147440000Y-56510000D02*
X157560000Y-56510000D01*
X147450000Y-50550000D02*
X147450000Y-51300000D01*
X147450000Y-51300000D02*
X149250000Y-51300000D01*
X147450000Y-52800000D02*
X148200000Y-52800000D01*
X148200000Y-52800000D02*
X148200000Y-55750000D01*
X148200000Y-55750000D02*
X152500000Y-55750000D01*
X148400000Y-50250000D02*
X147150000Y-50250000D01*
X149250000Y-50550000D02*
X147450000Y-50550000D01*
X149250000Y-51300000D02*
X149250000Y-50550000D01*
X150750000Y-50550000D02*
X150750000Y-51300000D01*
X150750000Y-51300000D02*
X154250000Y-51300000D01*
X154250000Y-50550000D02*
X150750000Y-50550000D01*
X154250000Y-51300000D02*
X154250000Y-50550000D01*
X155750000Y-50550000D02*
X155750000Y-51300000D01*
X155750000Y-51300000D02*
X157550000Y-51300000D01*
X156800000Y-52800000D02*
X156800000Y-55750000D01*
X156800000Y-55750000D02*
X152500000Y-55750000D01*
X157550000Y-50550000D02*
X155750000Y-50550000D01*
X157550000Y-51300000D02*
X157550000Y-50550000D01*
X157550000Y-52800000D02*
X156800000Y-52800000D01*
X157560000Y-50540000D02*
X147440000Y-50540000D01*
X157560000Y-56510000D02*
X157560000Y-50540000D01*
%TO.C,C5*%
X148288748Y-77090000D02*
X149711252Y-77090000D01*
X148288748Y-78910000D02*
X149711252Y-78910000D01*
%TO.C,C14*%
X154990000Y-88859420D02*
X154990000Y-89140580D01*
X156010000Y-88859420D02*
X156010000Y-89140580D01*
%TO.C,J24*%
X137150000Y-99250000D02*
X137150000Y-100500000D01*
X137440000Y-99540000D02*
X137440000Y-105510000D01*
X137440000Y-105510000D02*
X165060000Y-105510000D01*
X137450000Y-99550000D02*
X137450000Y-100300000D01*
X137450000Y-100300000D02*
X139250000Y-100300000D01*
X137450000Y-101800000D02*
X138200000Y-101800000D01*
X138200000Y-101800000D02*
X138200000Y-104750000D01*
X138200000Y-104750000D02*
X151250000Y-104750000D01*
X138400000Y-99250000D02*
X137150000Y-99250000D01*
X139250000Y-99550000D02*
X137450000Y-99550000D01*
X139250000Y-100300000D02*
X139250000Y-99550000D01*
X140750000Y-99550000D02*
X140750000Y-100300000D01*
X140750000Y-100300000D02*
X161750000Y-100300000D01*
X161750000Y-99550000D02*
X140750000Y-99550000D01*
X161750000Y-100300000D02*
X161750000Y-99550000D01*
X163250000Y-99550000D02*
X163250000Y-100300000D01*
X163250000Y-100300000D02*
X165050000Y-100300000D01*
X164300000Y-101800000D02*
X164300000Y-104750000D01*
X164300000Y-104750000D02*
X151250000Y-104750000D01*
X165050000Y-99550000D02*
X163250000Y-99550000D01*
X165050000Y-100300000D02*
X165050000Y-99550000D01*
X165050000Y-101800000D02*
X164300000Y-101800000D01*
X165060000Y-99540000D02*
X137440000Y-99540000D01*
X165060000Y-105510000D02*
X165060000Y-99540000D01*
%TO.C,C13*%
X155859420Y-85990000D02*
X156140580Y-85990000D01*
X155859420Y-87010000D02*
X156140580Y-87010000D01*
%TO.C,U1*%
X156590000Y-72940000D02*
X158410000Y-72940000D01*
X156590000Y-72990000D02*
X156590000Y-72940000D01*
X156590000Y-76060000D02*
X156590000Y-76010000D01*
X158410000Y-72940000D02*
X158410000Y-72990000D01*
X158410000Y-76010000D02*
X158410000Y-76060000D01*
X158410000Y-76060000D02*
X156590000Y-76060000D01*
X159190000Y-76340000D02*
X158710000Y-76340000D01*
X158950000Y-76010000D01*
X159190000Y-76340000D01*
G36*
X159190000Y-76340000D02*
G01*
X158710000Y-76340000D01*
X158950000Y-76010000D01*
X159190000Y-76340000D01*
G37*
%TO.C,J9*%
X157150000Y-111750000D02*
X157150000Y-113000000D01*
X157440000Y-112040000D02*
X157440000Y-118010000D01*
X157440000Y-118010000D02*
X167560000Y-118010000D01*
X157450000Y-112050000D02*
X157450000Y-112800000D01*
X157450000Y-112800000D02*
X159250000Y-112800000D01*
X157450000Y-114300000D02*
X158200000Y-114300000D01*
X158200000Y-114300000D02*
X158200000Y-117250000D01*
X158200000Y-117250000D02*
X162500000Y-117250000D01*
X158400000Y-111750000D02*
X157150000Y-111750000D01*
X159250000Y-112050000D02*
X157450000Y-112050000D01*
X159250000Y-112800000D02*
X159250000Y-112050000D01*
X160750000Y-112050000D02*
X160750000Y-112800000D01*
X160750000Y-112800000D02*
X164250000Y-112800000D01*
X164250000Y-112050000D02*
X160750000Y-112050000D01*
X164250000Y-112800000D02*
X164250000Y-112050000D01*
X165750000Y-112050000D02*
X165750000Y-112800000D01*
X165750000Y-112800000D02*
X167550000Y-112800000D01*
X166800000Y-114300000D02*
X166800000Y-117250000D01*
X166800000Y-117250000D02*
X162500000Y-117250000D01*
X167550000Y-112050000D02*
X165750000Y-112050000D01*
X167550000Y-112800000D02*
X167550000Y-112050000D01*
X167550000Y-114300000D02*
X166800000Y-114300000D01*
X167560000Y-112040000D02*
X157440000Y-112040000D01*
X167560000Y-118010000D02*
X167560000Y-112040000D01*
%TO.C,U6*%
X156140000Y-78390000D02*
X156315000Y-78390000D01*
X156140000Y-79065000D02*
X156140000Y-78390000D01*
X156140000Y-81610000D02*
X156140000Y-80935000D01*
X156315000Y-81610000D02*
X156140000Y-81610000D01*
X158685000Y-78390000D02*
X158860000Y-78390000D01*
X158860000Y-78390000D02*
X158860000Y-79065000D01*
X158860000Y-80935000D02*
X158860000Y-81610000D01*
X158860000Y-81610000D02*
X158685000Y-81610000D01*
X156990000Y-82070000D02*
X156510000Y-82070000D01*
X156750000Y-81740000D01*
X156990000Y-82070000D01*
G36*
X156990000Y-82070000D02*
G01*
X156510000Y-82070000D01*
X156750000Y-81740000D01*
X156990000Y-82070000D01*
G37*
%TO.C,R20*%
X162737258Y-81977500D02*
X162262742Y-81977500D01*
X162737258Y-83022500D02*
X162262742Y-83022500D01*
%TO.C,C12*%
X156359420Y-94490000D02*
X156640580Y-94490000D01*
X156359420Y-95510000D02*
X156640580Y-95510000D01*
%TO.C,J7*%
X147150000Y-111750000D02*
X147150000Y-113000000D01*
X147440000Y-112040000D02*
X147440000Y-118010000D01*
X147440000Y-118010000D02*
X157560000Y-118010000D01*
X147450000Y-112050000D02*
X147450000Y-112800000D01*
X147450000Y-112800000D02*
X149250000Y-112800000D01*
X147450000Y-114300000D02*
X148200000Y-114300000D01*
X148200000Y-114300000D02*
X148200000Y-117250000D01*
X148200000Y-117250000D02*
X152500000Y-117250000D01*
X148400000Y-111750000D02*
X147150000Y-111750000D01*
X149250000Y-112050000D02*
X147450000Y-112050000D01*
X149250000Y-112800000D02*
X149250000Y-112050000D01*
X150750000Y-112050000D02*
X150750000Y-112800000D01*
X150750000Y-112800000D02*
X154250000Y-112800000D01*
X154250000Y-112050000D02*
X150750000Y-112050000D01*
X154250000Y-112800000D02*
X154250000Y-112050000D01*
X155750000Y-112050000D02*
X155750000Y-112800000D01*
X155750000Y-112800000D02*
X157550000Y-112800000D01*
X156800000Y-114300000D02*
X156800000Y-117250000D01*
X156800000Y-117250000D02*
X152500000Y-117250000D01*
X157550000Y-112050000D02*
X155750000Y-112050000D01*
X157550000Y-112800000D02*
X157550000Y-112050000D01*
X157550000Y-114300000D02*
X156800000Y-114300000D01*
X157560000Y-112040000D02*
X147440000Y-112040000D01*
X157560000Y-118010000D02*
X157560000Y-112040000D01*
%TO.C,J5*%
X167150000Y-105250000D02*
X167150000Y-106500000D01*
X167440000Y-105540000D02*
X167440000Y-111510000D01*
X167440000Y-111510000D02*
X177560000Y-111510000D01*
X167450000Y-105550000D02*
X167450000Y-106300000D01*
X167450000Y-106300000D02*
X169250000Y-106300000D01*
X167450000Y-107800000D02*
X168200000Y-107800000D01*
X168200000Y-107800000D02*
X168200000Y-110750000D01*
X168200000Y-110750000D02*
X172500000Y-110750000D01*
X168400000Y-105250000D02*
X167150000Y-105250000D01*
X169250000Y-105550000D02*
X167450000Y-105550000D01*
X169250000Y-106300000D02*
X169250000Y-105550000D01*
X170750000Y-105550000D02*
X170750000Y-106300000D01*
X170750000Y-106300000D02*
X174250000Y-106300000D01*
X174250000Y-105550000D02*
X170750000Y-105550000D01*
X174250000Y-106300000D02*
X174250000Y-105550000D01*
X175750000Y-105550000D02*
X175750000Y-106300000D01*
X175750000Y-106300000D02*
X177550000Y-106300000D01*
X176800000Y-107800000D02*
X176800000Y-110750000D01*
X176800000Y-110750000D02*
X172500000Y-110750000D01*
X177550000Y-105550000D02*
X175750000Y-105550000D01*
X177550000Y-106300000D02*
X177550000Y-105550000D01*
X177550000Y-107800000D02*
X176800000Y-107800000D01*
X177560000Y-105540000D02*
X167440000Y-105540000D01*
X177560000Y-111510000D02*
X177560000Y-105540000D01*
%TD*%
%LPC*%
D14*
%TO.C,REF\u002A\u002A*%
X142500000Y-60000000D03*
%TD*%
D15*
%TO.C,R2*%
X152175000Y-79000000D03*
X153825000Y-79000000D03*
%TD*%
D16*
%TO.C,J4*%
X160000000Y-108000000D03*
D17*
X162500000Y-108000000D03*
X165000000Y-108000000D03*
%TD*%
D18*
%TO.C,C9*%
X157225000Y-97500000D03*
X158775000Y-97500000D03*
%TD*%
D14*
%TO.C,REF\u002A\u002A*%
X142500000Y-127500000D03*
%TD*%
D16*
%TO.C,J10*%
X170000000Y-114500000D03*
D17*
X172500000Y-114500000D03*
X175000000Y-114500000D03*
%TD*%
D16*
%TO.C,J22*%
X167500000Y-96000000D03*
D17*
X170000000Y-96000000D03*
X172500000Y-96000000D03*
X175000000Y-96000000D03*
%TD*%
D19*
%TO.C,C25*%
X160000000Y-80775000D03*
X160000000Y-79225000D03*
%TD*%
D16*
%TO.C,J26*%
X167500000Y-90000000D03*
D17*
X170000000Y-90000000D03*
X172500000Y-90000000D03*
X175000000Y-90000000D03*
%TD*%
D20*
%TO.C,C1*%
X158275000Y-77000000D03*
X156725000Y-77000000D03*
%TD*%
D21*
%TO.C,J1*%
X163000000Y-133825000D03*
X152000000Y-133825000D03*
D22*
X155000000Y-123825000D03*
D23*
X160000000Y-123825000D03*
%TD*%
D16*
%TO.C,J16*%
X140000000Y-53000000D03*
D17*
X142500000Y-53000000D03*
X145000000Y-53000000D03*
%TD*%
D16*
%TO.C,J11*%
X140000000Y-120500000D03*
D17*
X142500000Y-120500000D03*
X145000000Y-120500000D03*
%TD*%
D24*
%TO.C,C15*%
X154000000Y-88225000D03*
X154000000Y-89775000D03*
%TD*%
D16*
%TO.C,J13*%
X140000000Y-133475000D03*
D17*
X142500000Y-133475000D03*
X145000000Y-133475000D03*
%TD*%
D25*
%TO.C,C4*%
X150475000Y-80500000D03*
X147525000Y-80500000D03*
%TD*%
D18*
%TO.C,C3*%
X152225000Y-77500000D03*
X153775000Y-77500000D03*
%TD*%
D26*
%TO.C,D1*%
X155500000Y-59500000D03*
X151500000Y-59500000D03*
%TD*%
D16*
%TO.C,J21*%
X162500000Y-65975000D03*
D17*
X165000000Y-65975000D03*
X167500000Y-65975000D03*
X170000000Y-65975000D03*
X172500000Y-65975000D03*
X175000000Y-65975000D03*
%TD*%
D27*
%TO.C,L1*%
X153525000Y-73000000D03*
X147475000Y-73000000D03*
%TD*%
D16*
%TO.C,J18*%
X140000000Y-66000000D03*
D17*
X142500000Y-66000000D03*
X145000000Y-66000000D03*
%TD*%
D16*
%TO.C,J12*%
X170000000Y-120500000D03*
D17*
X172500000Y-120500000D03*
X175000000Y-120500000D03*
%TD*%
D16*
%TO.C,J25*%
X162500000Y-53000000D03*
D17*
X165000000Y-53000000D03*
X167500000Y-53000000D03*
X170000000Y-53000000D03*
X172500000Y-53000000D03*
X175000000Y-53000000D03*
%TD*%
D28*
%TO.C,J19*%
X143605000Y-73110000D03*
X143605000Y-78890000D03*
D29*
X144745000Y-72800000D03*
X144745000Y-73600000D03*
D30*
X144745000Y-74750000D03*
X144745000Y-75750000D03*
X144745000Y-76250000D03*
X144745000Y-77250000D03*
D29*
X144745000Y-78400000D03*
X144745000Y-79200000D03*
X144745000Y-79200000D03*
X144745000Y-78400000D03*
D30*
X144745000Y-77750000D03*
X144745000Y-76750000D03*
X144745000Y-75250000D03*
X144745000Y-74250000D03*
D29*
X144745000Y-73600000D03*
X144745000Y-72800000D03*
D31*
X144105000Y-71680000D03*
D32*
X139925000Y-71680000D03*
D31*
X144105000Y-80320000D03*
D32*
X139925000Y-80320000D03*
%TD*%
D16*
%TO.C,J27*%
X167500000Y-84000000D03*
D17*
X170000000Y-84000000D03*
X172500000Y-84000000D03*
X175000000Y-84000000D03*
%TD*%
D16*
%TO.C,J3*%
X150000000Y-108000000D03*
D17*
X152500000Y-108000000D03*
X155000000Y-108000000D03*
%TD*%
D33*
%TO.C,C16*%
X159000000Y-84950000D03*
X159000000Y-83050000D03*
%TD*%
D34*
%TO.C,C2*%
X158450000Y-71500000D03*
X156550000Y-71500000D03*
%TD*%
D35*
%TO.C,R8*%
X153825000Y-80500000D03*
X152175000Y-80500000D03*
%TD*%
D15*
%TO.C,R7*%
X161675000Y-92000000D03*
X163325000Y-92000000D03*
%TD*%
D16*
%TO.C,J14*%
X170000000Y-133475000D03*
D17*
X172500000Y-133475000D03*
X175000000Y-133475000D03*
%TD*%
D15*
%TO.C,R10*%
X161675000Y-90500000D03*
X163325000Y-90500000D03*
%TD*%
D36*
%TO.C,D2*%
X156450000Y-67150000D03*
X156450000Y-63850000D03*
X151550000Y-63850000D03*
X151550000Y-67150000D03*
%TD*%
D16*
%TO.C,J6*%
X140000000Y-114500000D03*
D17*
X142500000Y-114500000D03*
X145000000Y-114500000D03*
%TD*%
D37*
%TO.C,J8*%
X141162500Y-85550000D03*
X141162500Y-93550000D03*
D38*
X152162500Y-92750000D03*
X152162500Y-91650000D03*
X152162500Y-90550000D03*
X152162500Y-89450000D03*
X152162500Y-88350000D03*
X152162500Y-87250000D03*
X152162500Y-86150000D03*
X152162500Y-85050000D03*
D39*
X151162500Y-82750000D03*
D40*
X141562500Y-82750000D03*
X141562500Y-98250000D03*
D41*
X151162500Y-97350000D03*
D38*
X152162500Y-83950000D03*
%TD*%
D42*
%TO.C,D3*%
X163437500Y-84500000D03*
X161562500Y-84500000D03*
%TD*%
D16*
%TO.C,J2*%
X140000000Y-108000000D03*
D17*
X142500000Y-108000000D03*
X145000000Y-108000000D03*
%TD*%
D24*
%TO.C,C8*%
X159000000Y-92725000D03*
X159000000Y-94275000D03*
%TD*%
D16*
%TO.C,J20*%
X162500000Y-72000000D03*
D17*
X165000000Y-72000000D03*
X167500000Y-72000000D03*
X170000000Y-72000000D03*
X172500000Y-72000000D03*
X175000000Y-72000000D03*
%TD*%
D16*
%TO.C,J23*%
X167500000Y-78000000D03*
D17*
X170000000Y-78000000D03*
X172500000Y-78000000D03*
X175000000Y-78000000D03*
%TD*%
D43*
%TO.C,U2*%
X156262500Y-93250000D03*
X156262500Y-92750000D03*
D44*
X156000000Y-92237500D03*
X155500000Y-92237500D03*
X155000000Y-92237500D03*
D43*
X154737500Y-92750000D03*
X154737500Y-93250000D03*
D44*
X155000000Y-93762500D03*
X155500000Y-93762500D03*
X156000000Y-93762500D03*
%TD*%
D16*
%TO.C,J15*%
X167500000Y-102000000D03*
D17*
X170000000Y-102000000D03*
X172500000Y-102000000D03*
X175000000Y-102000000D03*
%TD*%
D19*
%TO.C,C7*%
X159000000Y-89775000D03*
X159000000Y-88225000D03*
%TD*%
D14*
%TO.C,REF\u002A\u002A*%
X172500000Y-127500000D03*
%TD*%
D45*
%TO.C,U3*%
X154725000Y-83250000D03*
X154725000Y-83750000D03*
X154725000Y-84250000D03*
X154725000Y-84750000D03*
D46*
X155250000Y-85275000D03*
X155750000Y-85275000D03*
X156250000Y-85275000D03*
X156750000Y-85275000D03*
D45*
X157275000Y-84750000D03*
X157275000Y-84250000D03*
X157275000Y-83750000D03*
X157275000Y-83250000D03*
D46*
X156750000Y-82725000D03*
X156250000Y-82725000D03*
X155750000Y-82725000D03*
X155250000Y-82725000D03*
%TD*%
D16*
%TO.C,J17*%
X150000000Y-53000000D03*
D17*
X152500000Y-53000000D03*
X155000000Y-53000000D03*
%TD*%
D47*
%TO.C,C5*%
X147525000Y-78000000D03*
X150475000Y-78000000D03*
%TD*%
D24*
%TO.C,C14*%
X155500000Y-88225000D03*
X155500000Y-89775000D03*
%TD*%
D16*
%TO.C,J24*%
X140000000Y-102000000D03*
D17*
X142500000Y-102000000D03*
X145000000Y-102000000D03*
X147500000Y-102000000D03*
X150000000Y-102000000D03*
X152500000Y-102000000D03*
X155000000Y-102000000D03*
X157500000Y-102000000D03*
X160000000Y-102000000D03*
X162500000Y-102000000D03*
%TD*%
D18*
%TO.C,C13*%
X155225000Y-86500000D03*
X156775000Y-86500000D03*
%TD*%
D48*
%TO.C,U1*%
X158637500Y-75450000D03*
X158637500Y-74500000D03*
X158637500Y-73550000D03*
X156362500Y-73550000D03*
X156362500Y-74500000D03*
X156362500Y-75450000D03*
%TD*%
D16*
%TO.C,J9*%
X160000000Y-114500000D03*
D17*
X162500000Y-114500000D03*
X165000000Y-114500000D03*
%TD*%
D49*
%TO.C,U6*%
X156750000Y-81162500D03*
X157250000Y-81162500D03*
X157750000Y-81162500D03*
X158250000Y-81162500D03*
D50*
X158412500Y-80500000D03*
X158412500Y-80000000D03*
X158412500Y-79500000D03*
D49*
X158250000Y-78837500D03*
X157750000Y-78837500D03*
X157250000Y-78837500D03*
X156750000Y-78837500D03*
D50*
X156587500Y-79500000D03*
X156587500Y-80000000D03*
X156587500Y-80500000D03*
%TD*%
D35*
%TO.C,R20*%
X163325000Y-82500000D03*
X161675000Y-82500000D03*
%TD*%
D18*
%TO.C,C12*%
X155725000Y-95000000D03*
X157275000Y-95000000D03*
%TD*%
D16*
%TO.C,J7*%
X150000000Y-114500000D03*
D17*
X152500000Y-114500000D03*
X155000000Y-114500000D03*
%TD*%
D16*
%TO.C,J5*%
X170000000Y-108000000D03*
D17*
X172500000Y-108000000D03*
X175000000Y-108000000D03*
%TD*%
D14*
%TO.C,REF\u002A\u002A*%
X172500000Y-60000000D03*
%TD*%
%LPD*%
M02*
