%TF.GenerationSoftware,KiCad,Pcbnew,9.0.6*%
%TF.CreationDate,2026-01-30T19:37:08-05:00*%
%TF.ProjectId,flight controller,666c6967-6874-4206-936f-6e74726f6c6c,rev?*%
%TF.SameCoordinates,Original*%
%TF.FileFunction,Soldermask,Top*%
%TF.FilePolarity,Negative*%
%FSLAX46Y46*%
G04 Gerber Fmt 4.6, Leading zero omitted, Abs format (unit mm)*
G04 Created by KiCad (PCBNEW 9.0.6) date 2026-01-30 19:37:08*
%MOMM*%
%LPD*%
G01*
G04 APERTURE LIST*
G04 Aperture macros list*
%AMRoundRect*
0 Rectangle with rounded corners*
0 $1 Rounding radius*
0 $2 $3 $4 $5 $6 $7 $8 $9 X,Y pos of 4 corners*
0 Add a 4 corners polygon primitive as box body*
4,1,4,$2,$3,$4,$5,$6,$7,$8,$9,$2,$3,0*
0 Add four circle primitives for the rounded corners*
1,1,$1+$1,$2,$3*
1,1,$1+$1,$4,$5*
1,1,$1+$1,$6,$7*
1,1,$1+$1,$8,$9*
0 Add four rect primitives between the rounded corners*
20,1,$1+$1,$2,$3,$4,$5,0*
20,1,$1+$1,$4,$5,$6,$7,0*
20,1,$1+$1,$6,$7,$8,$9,0*
20,1,$1+$1,$8,$9,$2,$3,0*%
G04 Aperture macros list end*
%ADD10C,2.700000*%
%ADD11RoundRect,0.200000X-0.200000X-0.275000X0.200000X-0.275000X0.200000X0.275000X-0.200000X0.275000X0*%
%ADD12RoundRect,0.250000X-0.600000X-0.725000X0.600000X-0.725000X0.600000X0.725000X-0.600000X0.725000X0*%
%ADD13O,1.700000X1.950000*%
%ADD14RoundRect,0.225000X-0.225000X-0.250000X0.225000X-0.250000X0.225000X0.250000X-0.225000X0.250000X0*%
%ADD15RoundRect,0.225000X0.250000X-0.225000X0.250000X0.225000X-0.250000X0.225000X-0.250000X-0.225000X0*%
%ADD16RoundRect,0.225000X0.225000X0.250000X-0.225000X0.250000X-0.225000X-0.250000X0.225000X-0.250000X0*%
%ADD17C,1.400000*%
%ADD18RoundRect,0.770000X0.980000X0.980000X-0.980000X0.980000X-0.980000X-0.980000X0.980000X-0.980000X0*%
%ADD19C,3.500000*%
%ADD20RoundRect,0.225000X-0.250000X0.225000X-0.250000X-0.225000X0.250000X-0.225000X0.250000X0.225000X0*%
%ADD21RoundRect,0.250000X0.325000X0.650000X-0.325000X0.650000X-0.325000X-0.650000X0.325000X-0.650000X0*%
%ADD22RoundRect,0.250000X1.000000X0.650000X-1.000000X0.650000X-1.000000X-0.650000X1.000000X-0.650000X0*%
%ADD23RoundRect,0.250000X0.925000X1.500000X-0.925000X1.500000X-0.925000X-1.500000X0.925000X-1.500000X0*%
%ADD24C,0.650000*%
%ADD25RoundRect,0.150000X-0.500000X0.150000X-0.500000X-0.150000X0.500000X-0.150000X0.500000X0.150000X0*%
%ADD26RoundRect,0.075000X-0.575000X0.075000X-0.575000X-0.075000X0.575000X-0.075000X0.575000X0.075000X0*%
%ADD27O,2.100000X1.000000*%
%ADD28O,1.600000X1.000000*%
%ADD29RoundRect,0.250000X0.475000X-0.250000X0.475000X0.250000X-0.475000X0.250000X-0.475000X-0.250000X0*%
%ADD30RoundRect,0.250000X0.250000X0.475000X-0.250000X0.475000X-0.250000X-0.475000X0.250000X-0.475000X0*%
%ADD31RoundRect,0.200000X0.200000X0.275000X-0.200000X0.275000X-0.200000X-0.275000X0.200000X-0.275000X0*%
%ADD32RoundRect,0.090000X0.660000X0.360000X-0.660000X0.360000X-0.660000X-0.360000X0.660000X-0.360000X0*%
%ADD33C,1.200000*%
%ADD34R,1.600000X0.700000*%
%ADD35R,1.500000X1.200000*%
%ADD36R,2.200000X1.200000*%
%ADD37R,1.500000X1.600000*%
%ADD38RoundRect,0.243750X0.243750X0.456250X-0.243750X0.456250X-0.243750X-0.456250X0.243750X-0.456250X0*%
%ADD39RoundRect,0.087500X0.125000X0.087500X-0.125000X0.087500X-0.125000X-0.087500X0.125000X-0.087500X0*%
%ADD40RoundRect,0.087500X0.087500X0.125000X-0.087500X0.125000X-0.087500X-0.125000X0.087500X-0.125000X0*%
%ADD41R,0.450000X0.300000*%
%ADD42R,0.300000X0.450000*%
%ADD43RoundRect,0.250000X-0.325000X-0.650000X0.325000X-0.650000X0.325000X0.650000X-0.325000X0.650000X0*%
%ADD44RoundRect,0.150000X0.512500X0.150000X-0.512500X0.150000X-0.512500X-0.150000X0.512500X-0.150000X0*%
%ADD45RoundRect,0.087500X0.087500X-0.225000X0.087500X0.225000X-0.087500X0.225000X-0.087500X-0.225000X0*%
%ADD46RoundRect,0.087500X0.225000X-0.087500X0.225000X0.087500X-0.225000X0.087500X-0.225000X-0.087500X0*%
G04 APERTURE END LIST*
D10*
%TO.C,REF\u002A\u002A*%
X142500000Y-60000000D03*
%TD*%
D11*
%TO.C,R2*%
X152175000Y-79000000D03*
X153825000Y-79000000D03*
%TD*%
D12*
%TO.C,J4*%
X160000000Y-108000000D03*
D13*
X162500000Y-108000000D03*
X165000000Y-108000000D03*
%TD*%
D14*
%TO.C,C9*%
X157225000Y-97500000D03*
X158775000Y-97500000D03*
%TD*%
D10*
%TO.C,REF\u002A\u002A*%
X142500000Y-127500000D03*
%TD*%
D12*
%TO.C,J10*%
X170000000Y-114500000D03*
D13*
X172500000Y-114500000D03*
X175000000Y-114500000D03*
%TD*%
D12*
%TO.C,J22*%
X167500000Y-96000000D03*
D13*
X170000000Y-96000000D03*
X172500000Y-96000000D03*
X175000000Y-96000000D03*
%TD*%
D15*
%TO.C,C25*%
X160000000Y-80775000D03*
X160000000Y-79225000D03*
%TD*%
D12*
%TO.C,J26*%
X167500000Y-90000000D03*
D13*
X170000000Y-90000000D03*
X172500000Y-90000000D03*
X175000000Y-90000000D03*
%TD*%
D16*
%TO.C,C1*%
X158275000Y-77000000D03*
X156725000Y-77000000D03*
%TD*%
D17*
%TO.C,J1*%
X163000000Y-133825000D03*
X152000000Y-133825000D03*
D18*
X155000000Y-123825000D03*
D19*
X160000000Y-123825000D03*
%TD*%
D12*
%TO.C,J16*%
X140000000Y-53000000D03*
D13*
X142500000Y-53000000D03*
X145000000Y-53000000D03*
%TD*%
D12*
%TO.C,J11*%
X140000000Y-120500000D03*
D13*
X142500000Y-120500000D03*
X145000000Y-120500000D03*
%TD*%
D20*
%TO.C,C15*%
X154000000Y-88225000D03*
X154000000Y-89775000D03*
%TD*%
D12*
%TO.C,J13*%
X140000000Y-133475000D03*
D13*
X142500000Y-133475000D03*
X145000000Y-133475000D03*
%TD*%
D21*
%TO.C,C4*%
X150475000Y-80500000D03*
X147525000Y-80500000D03*
%TD*%
D14*
%TO.C,C3*%
X152225000Y-77500000D03*
X153775000Y-77500000D03*
%TD*%
D22*
%TO.C,D1*%
X155500000Y-59500000D03*
X151500000Y-59500000D03*
%TD*%
D12*
%TO.C,J21*%
X162500000Y-65975000D03*
D13*
X165000000Y-65975000D03*
X167500000Y-65975000D03*
X170000000Y-65975000D03*
X172500000Y-65975000D03*
X175000000Y-65975000D03*
%TD*%
D23*
%TO.C,L1*%
X153525000Y-73000000D03*
X147475000Y-73000000D03*
%TD*%
D12*
%TO.C,J18*%
X140000000Y-66000000D03*
D13*
X142500000Y-66000000D03*
X145000000Y-66000000D03*
%TD*%
D12*
%TO.C,J12*%
X170000000Y-120500000D03*
D13*
X172500000Y-120500000D03*
X175000000Y-120500000D03*
%TD*%
D12*
%TO.C,J25*%
X162500000Y-53000000D03*
D13*
X165000000Y-53000000D03*
X167500000Y-53000000D03*
X170000000Y-53000000D03*
X172500000Y-53000000D03*
X175000000Y-53000000D03*
%TD*%
D24*
%TO.C,J19*%
X143605000Y-73110000D03*
X143605000Y-78890000D03*
D25*
X144745000Y-72800000D03*
X144745000Y-73600000D03*
D26*
X144745000Y-74750000D03*
X144745000Y-75750000D03*
X144745000Y-76250000D03*
X144745000Y-77250000D03*
D25*
X144745000Y-78400000D03*
X144745000Y-79200000D03*
X144745000Y-79200000D03*
X144745000Y-78400000D03*
D26*
X144745000Y-77750000D03*
X144745000Y-76750000D03*
X144745000Y-75250000D03*
X144745000Y-74250000D03*
D25*
X144745000Y-73600000D03*
X144745000Y-72800000D03*
D27*
X144105000Y-71680000D03*
D28*
X139925000Y-71680000D03*
D27*
X144105000Y-80320000D03*
D28*
X139925000Y-80320000D03*
%TD*%
D12*
%TO.C,J27*%
X167500000Y-84000000D03*
D13*
X170000000Y-84000000D03*
X172500000Y-84000000D03*
X175000000Y-84000000D03*
%TD*%
D12*
%TO.C,J3*%
X150000000Y-108000000D03*
D13*
X152500000Y-108000000D03*
X155000000Y-108000000D03*
%TD*%
D29*
%TO.C,C16*%
X159000000Y-84950000D03*
X159000000Y-83050000D03*
%TD*%
D30*
%TO.C,C2*%
X158450000Y-71500000D03*
X156550000Y-71500000D03*
%TD*%
D31*
%TO.C,R8*%
X153825000Y-80500000D03*
X152175000Y-80500000D03*
%TD*%
D11*
%TO.C,R7*%
X161675000Y-92000000D03*
X163325000Y-92000000D03*
%TD*%
D12*
%TO.C,J14*%
X170000000Y-133475000D03*
D13*
X172500000Y-133475000D03*
X175000000Y-133475000D03*
%TD*%
D11*
%TO.C,R10*%
X161675000Y-90500000D03*
X163325000Y-90500000D03*
%TD*%
D32*
%TO.C,D2*%
X156450000Y-67150000D03*
X156450000Y-63850000D03*
X151550000Y-63850000D03*
X151550000Y-67150000D03*
%TD*%
D12*
%TO.C,J6*%
X140000000Y-114500000D03*
D13*
X142500000Y-114500000D03*
X145000000Y-114500000D03*
%TD*%
D33*
%TO.C,J8*%
X141162500Y-85550000D03*
X141162500Y-93550000D03*
D34*
X152162500Y-92750000D03*
X152162500Y-91650000D03*
X152162500Y-90550000D03*
X152162500Y-89450000D03*
X152162500Y-88350000D03*
X152162500Y-87250000D03*
X152162500Y-86150000D03*
X152162500Y-85050000D03*
D35*
X151162500Y-82750000D03*
D36*
X141562500Y-82750000D03*
X141562500Y-98250000D03*
D37*
X151162500Y-97350000D03*
D34*
X152162500Y-83950000D03*
%TD*%
D38*
%TO.C,D3*%
X163437500Y-84500000D03*
X161562500Y-84500000D03*
%TD*%
D12*
%TO.C,J2*%
X140000000Y-108000000D03*
D13*
X142500000Y-108000000D03*
X145000000Y-108000000D03*
%TD*%
D20*
%TO.C,C8*%
X159000000Y-92725000D03*
X159000000Y-94275000D03*
%TD*%
D12*
%TO.C,J20*%
X162500000Y-72000000D03*
D13*
X165000000Y-72000000D03*
X167500000Y-72000000D03*
X170000000Y-72000000D03*
X172500000Y-72000000D03*
X175000000Y-72000000D03*
%TD*%
D12*
%TO.C,J23*%
X167500000Y-78000000D03*
D13*
X170000000Y-78000000D03*
X172500000Y-78000000D03*
X175000000Y-78000000D03*
%TD*%
D39*
%TO.C,U2*%
X156262500Y-93250000D03*
X156262500Y-92750000D03*
D40*
X156000000Y-92237500D03*
X155500000Y-92237500D03*
X155000000Y-92237500D03*
D39*
X154737500Y-92750000D03*
X154737500Y-93250000D03*
D40*
X155000000Y-93762500D03*
X155500000Y-93762500D03*
X156000000Y-93762500D03*
%TD*%
D12*
%TO.C,J15*%
X167500000Y-102000000D03*
D13*
X170000000Y-102000000D03*
X172500000Y-102000000D03*
X175000000Y-102000000D03*
%TD*%
D15*
%TO.C,C7*%
X159000000Y-89775000D03*
X159000000Y-88225000D03*
%TD*%
D10*
%TO.C,REF\u002A\u002A*%
X172500000Y-127500000D03*
%TD*%
D41*
%TO.C,U3*%
X154725000Y-83250000D03*
X154725000Y-83750000D03*
X154725000Y-84250000D03*
X154725000Y-84750000D03*
D42*
X155250000Y-85275000D03*
X155750000Y-85275000D03*
X156250000Y-85275000D03*
X156750000Y-85275000D03*
D41*
X157275000Y-84750000D03*
X157275000Y-84250000D03*
X157275000Y-83750000D03*
X157275000Y-83250000D03*
D42*
X156750000Y-82725000D03*
X156250000Y-82725000D03*
X155750000Y-82725000D03*
X155250000Y-82725000D03*
%TD*%
D12*
%TO.C,J17*%
X150000000Y-53000000D03*
D13*
X152500000Y-53000000D03*
X155000000Y-53000000D03*
%TD*%
D43*
%TO.C,C5*%
X147525000Y-78000000D03*
X150475000Y-78000000D03*
%TD*%
D20*
%TO.C,C14*%
X155500000Y-88225000D03*
X155500000Y-89775000D03*
%TD*%
D12*
%TO.C,J24*%
X140000000Y-102000000D03*
D13*
X142500000Y-102000000D03*
X145000000Y-102000000D03*
X147500000Y-102000000D03*
X150000000Y-102000000D03*
X152500000Y-102000000D03*
X155000000Y-102000000D03*
X157500000Y-102000000D03*
X160000000Y-102000000D03*
X162500000Y-102000000D03*
%TD*%
D14*
%TO.C,C13*%
X155225000Y-86500000D03*
X156775000Y-86500000D03*
%TD*%
D44*
%TO.C,U1*%
X158637500Y-75450000D03*
X158637500Y-74500000D03*
X158637500Y-73550000D03*
X156362500Y-73550000D03*
X156362500Y-74500000D03*
X156362500Y-75450000D03*
%TD*%
D12*
%TO.C,J9*%
X160000000Y-114500000D03*
D13*
X162500000Y-114500000D03*
X165000000Y-114500000D03*
%TD*%
D45*
%TO.C,U6*%
X156750000Y-81162500D03*
X157250000Y-81162500D03*
X157750000Y-81162500D03*
X158250000Y-81162500D03*
D46*
X158412500Y-80500000D03*
X158412500Y-80000000D03*
X158412500Y-79500000D03*
D45*
X158250000Y-78837500D03*
X157750000Y-78837500D03*
X157250000Y-78837500D03*
X156750000Y-78837500D03*
D46*
X156587500Y-79500000D03*
X156587500Y-80000000D03*
X156587500Y-80500000D03*
%TD*%
D31*
%TO.C,R20*%
X163325000Y-82500000D03*
X161675000Y-82500000D03*
%TD*%
D14*
%TO.C,C12*%
X155725000Y-95000000D03*
X157275000Y-95000000D03*
%TD*%
D12*
%TO.C,J7*%
X150000000Y-114500000D03*
D13*
X152500000Y-114500000D03*
X155000000Y-114500000D03*
%TD*%
D12*
%TO.C,J5*%
X170000000Y-108000000D03*
D13*
X172500000Y-108000000D03*
X175000000Y-108000000D03*
%TD*%
D10*
%TO.C,REF\u002A\u002A*%
X172500000Y-60000000D03*
%TD*%
M02*
