%TF.GenerationSoftware,KiCad,Pcbnew,9.0.6*%
%TF.CreationDate,2026-01-30T19:55:17-05:00*%
%TF.ProjectId,flight controller,666c6967-6874-4206-936f-6e74726f6c6c,rev?*%
%TF.SameCoordinates,Original*%
%TF.FileFunction,Drillmap*%
%TF.FilePolarity,Positive*%
%FSLAX45Y45*%
G04 Gerber Fmt 4.5, Leading zero omitted, Abs format (unit mm)*
G04 Created by KiCad (PCBNEW 9.0.6) date 2026-01-30 19:55:17*
%MOMM*%
%LPD*%
G01*
G04 APERTURE LIST*
%ADD10C,0.050000*%
%ADD11C,0.200000*%
%ADD12C,0.100000*%
%ADD13C,0.120000*%
%ADD14C,0.190000*%
G04 APERTURE END LIST*
D10*
X13750000Y-5050000D02*
X17750000Y-5050000D01*
X17750000Y-13700000D01*
X13750000Y-13700000D01*
X13750000Y-5050000D01*
D11*
D12*
X13860000Y-9510000D02*
X13890000Y-9540000D01*
X13890000Y-9510000D02*
X13860000Y-9540000D01*
X13905000Y-9235000D02*
X13935000Y-9265000D01*
X13935000Y-9235000D02*
X13905000Y-9265000D01*
X13985000Y-9235000D02*
X14015000Y-9265000D01*
X14015000Y-9235000D02*
X13985000Y-9265000D01*
X14064895Y-9230898D02*
X14094895Y-9260898D01*
X14094895Y-9230898D02*
X14064895Y-9260898D01*
X14085000Y-6785000D02*
X14115000Y-6815000D01*
X14115000Y-6785000D02*
X14085000Y-6815000D01*
X14085000Y-8385000D02*
X14115000Y-8415000D01*
X14115000Y-8385000D02*
X14085000Y-8415000D01*
X14085000Y-8835000D02*
X14115000Y-8865000D01*
X14115000Y-8835000D02*
X14085000Y-8865000D01*
X14085000Y-8985000D02*
X14115000Y-9015000D01*
X14115000Y-8985000D02*
X14085000Y-9015000D01*
X14085000Y-9135000D02*
X14115000Y-9165000D01*
X14115000Y-9135000D02*
X14085000Y-9165000D01*
X14085000Y-9585000D02*
X14115000Y-9615000D01*
X14115000Y-9585000D02*
X14085000Y-9615000D01*
X14184752Y-8149900D02*
X14214752Y-8179900D01*
X14214752Y-8149900D02*
X14184752Y-8179900D01*
X14185000Y-7435000D02*
X14215000Y-7465000D01*
X14215000Y-7435000D02*
X14185000Y-7465000D01*
X14185000Y-7585000D02*
X14215000Y-7615000D01*
X14215000Y-7585000D02*
X14185000Y-7615000D01*
X14185000Y-8485000D02*
X14215000Y-8515000D01*
X14215000Y-8485000D02*
X14185000Y-8515000D01*
X14235000Y-8010000D02*
X14265000Y-8040000D01*
X14265000Y-8010000D02*
X14235000Y-8040000D01*
X14235000Y-8660000D02*
X14265000Y-8690000D01*
X14265000Y-8660000D02*
X14235000Y-8690000D01*
X14235000Y-8740000D02*
X14265000Y-8770000D01*
X14265000Y-8740000D02*
X14235000Y-8770000D01*
X14235000Y-9235000D02*
X14265000Y-9265000D01*
X14265000Y-9235000D02*
X14235000Y-9265000D01*
X14285000Y-6785000D02*
X14315000Y-6815000D01*
X14315000Y-6785000D02*
X14285000Y-6815000D01*
X14335000Y-7510000D02*
X14365000Y-7540000D01*
X14365000Y-7510000D02*
X14335000Y-7540000D01*
X14335000Y-7710000D02*
X14365000Y-7740000D01*
X14365000Y-7710000D02*
X14335000Y-7740000D01*
X14335000Y-9985000D02*
X14365000Y-10015000D01*
X14365000Y-9985000D02*
X14335000Y-10015000D01*
X14364800Y-8160000D02*
X14394800Y-8190000D01*
X14394800Y-8160000D02*
X14364800Y-8190000D01*
X14510000Y-8635000D02*
X14540000Y-8665000D01*
X14540000Y-8635000D02*
X14510000Y-8665000D01*
X14510000Y-8715000D02*
X14540000Y-8745000D01*
X14540000Y-8715000D02*
X14510000Y-8745000D01*
X14510000Y-9244999D02*
X14540000Y-9274999D01*
X14540000Y-9244999D02*
X14510000Y-9274999D01*
X14510000Y-9324999D02*
X14540000Y-9354999D01*
X14540000Y-9324999D02*
X14510000Y-9354999D01*
X14510000Y-9405000D02*
X14540000Y-9435000D01*
X14540000Y-9405000D02*
X14510000Y-9435000D01*
X14510000Y-9485000D02*
X14540000Y-9515000D01*
X14540000Y-9485000D02*
X14510000Y-9515000D01*
X14510000Y-9565000D02*
X14540000Y-9595000D01*
X14540000Y-9565000D02*
X14510000Y-9595000D01*
X14510000Y-9645001D02*
X14540000Y-9675001D01*
X14540000Y-9645001D02*
X14510000Y-9675001D01*
X14528431Y-5953431D02*
X14558431Y-5983431D01*
X14558431Y-5953431D02*
X14528431Y-5983431D01*
X14560000Y-8410000D02*
X14590000Y-8440000D01*
X14590000Y-8410000D02*
X14560000Y-8440000D01*
X14560000Y-8490000D02*
X14590000Y-8520000D01*
X14590000Y-8490000D02*
X14560000Y-8520000D01*
X14560000Y-8860000D02*
X14590000Y-8890000D01*
X14590000Y-8860000D02*
X14560000Y-8890000D01*
X14560000Y-8940000D02*
X14590000Y-8970000D01*
X14590000Y-8940000D02*
X14560000Y-8970000D01*
X14560000Y-9020001D02*
X14590000Y-9050001D01*
X14590000Y-9020001D02*
X14560000Y-9050001D01*
X14560000Y-9100001D02*
X14590000Y-9130001D01*
X14590000Y-9100001D02*
X14560000Y-9130001D01*
X14560000Y-10060000D02*
X14590000Y-10090000D01*
X14590000Y-10060000D02*
X14560000Y-10090000D01*
X14585000Y-6010000D02*
X14615000Y-6040000D01*
X14615000Y-6010000D02*
X14585000Y-6040000D01*
X14585000Y-6360000D02*
X14615000Y-6390000D01*
X14615000Y-6360000D02*
X14585000Y-6390000D01*
X14585000Y-6694999D02*
X14615000Y-6724999D01*
X14615000Y-6694999D02*
X14585000Y-6724999D01*
X14585000Y-6774999D02*
X14615000Y-6804999D01*
X14615000Y-6774999D02*
X14585000Y-6804999D01*
X14585000Y-6855000D02*
X14615000Y-6885000D01*
X14615000Y-6855000D02*
X14585000Y-6885000D01*
X14585000Y-6935000D02*
X14615000Y-6965000D01*
X14615000Y-6935000D02*
X14585000Y-6965000D01*
X14669999Y-9660000D02*
X14699999Y-9690000D01*
X14699999Y-9660000D02*
X14669999Y-9690000D01*
X14749999Y-9660000D02*
X14779999Y-9690000D01*
X14779999Y-9660000D02*
X14749999Y-9690000D01*
X14785000Y-6735000D02*
X14815000Y-6765000D01*
X14815000Y-6735000D02*
X14785000Y-6765000D01*
X14810000Y-8662500D02*
X14840000Y-8692500D01*
X14840000Y-8662500D02*
X14810000Y-8692500D01*
X14830000Y-9660000D02*
X14860000Y-9690000D01*
X14860000Y-9660000D02*
X14830000Y-9690000D01*
X14836253Y-8135763D02*
X14866253Y-8165763D01*
X14866253Y-8135763D02*
X14836253Y-8165763D01*
X14845000Y-7785000D02*
X14875000Y-7815000D01*
X14875000Y-7785000D02*
X14845000Y-7815000D01*
X14845000Y-7987762D02*
X14875000Y-8017762D01*
X14875000Y-7987762D02*
X14845000Y-8017762D01*
X14890000Y-8662500D02*
X14920000Y-8692500D01*
X14920000Y-8662500D02*
X14890000Y-8692500D01*
X14910000Y-9660000D02*
X14940000Y-9690000D01*
X14940000Y-9660000D02*
X14910000Y-9690000D01*
X14912000Y-6585000D02*
X14942000Y-6615000D01*
X14942000Y-6585000D02*
X14912000Y-6615000D01*
X14924928Y-7984366D02*
X14954928Y-8014366D01*
X14954928Y-7984366D02*
X14924928Y-8014366D01*
X14925000Y-7785000D02*
X14955000Y-7815000D01*
X14955000Y-7785000D02*
X14925000Y-7815000D01*
X14935000Y-9985000D02*
X14965000Y-10015000D01*
X14965000Y-9985000D02*
X14935000Y-10015000D01*
X14960000Y-5910000D02*
X14990000Y-5940000D01*
X14990000Y-5910000D02*
X14960000Y-5940000D01*
X14960000Y-6360000D02*
X14990000Y-6390000D01*
X14990000Y-6360000D02*
X14960000Y-6390000D01*
X14970001Y-8662500D02*
X15000001Y-8692500D01*
X15000001Y-8662500D02*
X14970001Y-8692500D01*
X14985000Y-9913935D02*
X15015000Y-9943935D01*
X15015000Y-9913935D02*
X14985000Y-9943935D01*
X15010000Y-6960100D02*
X15040000Y-6990100D01*
X15040000Y-6960100D02*
X15010000Y-6990100D01*
X15014499Y-6835000D02*
X15044499Y-6865000D01*
X15044499Y-6835000D02*
X15014499Y-6865000D01*
X15035000Y-8410000D02*
X15065000Y-8440000D01*
X15065000Y-8410000D02*
X15035000Y-8440000D01*
X15060000Y-6210000D02*
X15090000Y-6240000D01*
X15090000Y-6210000D02*
X15060000Y-6240000D01*
X15085000Y-8810000D02*
X15115000Y-8840000D01*
X15115000Y-8810000D02*
X15085000Y-8840000D01*
X15085000Y-9160000D02*
X15115000Y-9190000D01*
X15115000Y-9160000D02*
X15085000Y-9190000D01*
X15085000Y-9260000D02*
X15115000Y-9290000D01*
X15115000Y-9260000D02*
X15085000Y-9290000D01*
X15085000Y-9913935D02*
X15115000Y-9943935D01*
X15115000Y-9913935D02*
X15085000Y-9943935D01*
X15094499Y-6835000D02*
X15124499Y-6865000D01*
X15124499Y-6835000D02*
X15094499Y-6865000D01*
X15122500Y-8035000D02*
X15152500Y-8065000D01*
X15152500Y-8035000D02*
X15122500Y-8065000D01*
X15174500Y-6835000D02*
X15204500Y-6865000D01*
X15204500Y-6835000D02*
X15174500Y-6865000D01*
X15210000Y-6210000D02*
X15240000Y-6240000D01*
X15240000Y-6210000D02*
X15210000Y-6240000D01*
X15210000Y-7035000D02*
X15240000Y-7065000D01*
X15240000Y-7035000D02*
X15210000Y-7065000D01*
X15210000Y-7660000D02*
X15240000Y-7690000D01*
X15240000Y-7660000D02*
X15210000Y-7690000D01*
X15254500Y-6835000D02*
X15284500Y-6865000D01*
X15284500Y-6835000D02*
X15254500Y-6865000D01*
X15285000Y-7610000D02*
X15315000Y-7640000D01*
X15315000Y-7610000D02*
X15285000Y-7640000D01*
X15335000Y-5985000D02*
X15365000Y-6015000D01*
X15365000Y-5985000D02*
X15335000Y-6015000D01*
X15335000Y-8410000D02*
X15365000Y-8440000D01*
X15365000Y-8410000D02*
X15335000Y-8440000D01*
X15384500Y-6360000D02*
X15414500Y-6390000D01*
X15414500Y-6360000D02*
X15384500Y-6390000D01*
X15388468Y-8138857D02*
X15418468Y-8168857D01*
X15418468Y-8138857D02*
X15388468Y-8168857D01*
X15407605Y-9176805D02*
X15437605Y-9206805D01*
X15437605Y-9176805D02*
X15407605Y-9206805D01*
X15407605Y-9256805D02*
X15437605Y-9286805D01*
X15437605Y-9256805D02*
X15407605Y-9286805D01*
X15454844Y-6814094D02*
X15484844Y-6844094D01*
X15484844Y-6814094D02*
X15454844Y-6844094D01*
X15457500Y-7734900D02*
X15487500Y-7764900D01*
X15487500Y-7734900D02*
X15457500Y-7764900D01*
X15460000Y-7860000D02*
X15490000Y-7890000D01*
X15490000Y-7860000D02*
X15460000Y-7890000D01*
X15460000Y-8035000D02*
X15490000Y-8065000D01*
X15490000Y-8035000D02*
X15460000Y-8065000D01*
X15510000Y-8710000D02*
X15540000Y-8740000D01*
X15540000Y-8710000D02*
X15510000Y-8740000D01*
X15515486Y-7679785D02*
X15545486Y-7709785D01*
X15545486Y-7679785D02*
X15515486Y-7709785D01*
X15535000Y-6847500D02*
X15565000Y-6877500D01*
X15565000Y-6847500D02*
X15535000Y-6877500D01*
X15535000Y-9110000D02*
X15565000Y-9140000D01*
X15565000Y-9110000D02*
X15535000Y-9140000D01*
X15597500Y-9164418D02*
X15627500Y-9194418D01*
X15627500Y-9164418D02*
X15597500Y-9194418D01*
X15610000Y-8710000D02*
X15640000Y-8740000D01*
X15640000Y-8710000D02*
X15610000Y-8740000D01*
X15610000Y-8810000D02*
X15640000Y-8840000D01*
X15640000Y-8810000D02*
X15610000Y-8840000D01*
X15610000Y-8960000D02*
X15640000Y-8990000D01*
X15640000Y-8960000D02*
X15610000Y-8990000D01*
X15635000Y-6510000D02*
X15665000Y-6540000D01*
X15665000Y-6510000D02*
X15635000Y-6540000D01*
X15635000Y-9560000D02*
X15665000Y-9590000D01*
X15665000Y-9560000D02*
X15635000Y-9590000D01*
X15662858Y-9257203D02*
X15692858Y-9287203D01*
X15692858Y-9257203D02*
X15662858Y-9287203D01*
X15707669Y-9662331D02*
X15737669Y-9692331D01*
X15737669Y-9662331D02*
X15707669Y-9692331D01*
X15735000Y-8010000D02*
X15765000Y-8040000D01*
X15765000Y-8010000D02*
X15735000Y-8040000D01*
X15759137Y-8678102D02*
X15789137Y-8708102D01*
X15789137Y-8678102D02*
X15759137Y-8708102D01*
X15760000Y-8760000D02*
X15790000Y-8790000D01*
X15790000Y-8760000D02*
X15760000Y-8790000D01*
X15760000Y-8860000D02*
X15790000Y-8890000D01*
X15790000Y-8860000D02*
X15760000Y-8890000D01*
X15760000Y-8940000D02*
X15790000Y-8970000D01*
X15790000Y-8940000D02*
X15760000Y-8970000D01*
X15760000Y-9149999D02*
X15790000Y-9179999D01*
X15790000Y-9149999D02*
X15760000Y-9179999D01*
X15760000Y-9230000D02*
X15790000Y-9260000D01*
X15790000Y-9230000D02*
X15760000Y-9260000D01*
X15760000Y-9310000D02*
X15790000Y-9340000D01*
X15790000Y-9310000D02*
X15760000Y-9340000D01*
X15760000Y-9390000D02*
X15790000Y-9420000D01*
X15790000Y-9390000D02*
X15760000Y-9420000D01*
X15835000Y-8185000D02*
X15865000Y-8215000D01*
X15865000Y-8185000D02*
X15835000Y-8215000D01*
X15875000Y-6135000D02*
X15905000Y-6165000D01*
X15905000Y-6135000D02*
X15875000Y-6165000D01*
X15910000Y-6485000D02*
X15940000Y-6515000D01*
X15940000Y-6485000D02*
X15910000Y-6515000D01*
X15910000Y-6610000D02*
X15940000Y-6640000D01*
X15940000Y-6610000D02*
X15910000Y-6640000D01*
X15910000Y-6760000D02*
X15940000Y-6790000D01*
X15940000Y-6760000D02*
X15910000Y-6790000D01*
X15935000Y-9735000D02*
X15965000Y-9765000D01*
X15965000Y-9735000D02*
X15935000Y-9765000D01*
X15980000Y-7785000D02*
X16010000Y-7815000D01*
X16010000Y-7785000D02*
X15980000Y-7815000D01*
X15985000Y-8285000D02*
X16015000Y-8315000D01*
X16015000Y-8285000D02*
X15985000Y-8315000D01*
X16010000Y-9697500D02*
X16040000Y-9727500D01*
X16040000Y-9697500D02*
X16010000Y-9727500D01*
X16060000Y-7785000D02*
X16090000Y-7815000D01*
X16090000Y-7785000D02*
X16060000Y-7815000D01*
X16060000Y-7910000D02*
X16090000Y-7940000D01*
X16090000Y-7910000D02*
X16060000Y-7940000D01*
X16060000Y-8060000D02*
X16090000Y-8090000D01*
X16090000Y-8060000D02*
X16060000Y-8090000D01*
X16060000Y-8910000D02*
X16090000Y-8940000D01*
X16090000Y-8910000D02*
X16060000Y-8940000D01*
X16090000Y-9697500D02*
X16120000Y-9727500D01*
X16120000Y-9697500D02*
X16090000Y-9727500D01*
X16140000Y-7785000D02*
X16170000Y-7815000D01*
X16170000Y-7785000D02*
X16140000Y-7815000D01*
X16220001Y-7785000D02*
X16250001Y-7815000D01*
X16250001Y-7785000D02*
X16220001Y-7815000D01*
X16321220Y-8137500D02*
X16351220Y-8167500D01*
X16351220Y-8137500D02*
X16321220Y-8167500D01*
X16335000Y-9860000D02*
X16365000Y-9890000D01*
X16365000Y-9860000D02*
X16335000Y-9890000D01*
X16385000Y-5985000D02*
X16415000Y-6015000D01*
X16415000Y-5985000D02*
X16385000Y-6015000D01*
X16410000Y-9035000D02*
X16440000Y-9065000D01*
X16440000Y-9035000D02*
X16410000Y-9065000D01*
X16410000Y-9160000D02*
X16440000Y-9190000D01*
X16440000Y-9160000D02*
X16410000Y-9190000D01*
X16485000Y-8085000D02*
X16515000Y-8115000D01*
X16515000Y-8085000D02*
X16485000Y-8115000D01*
X16485000Y-8785000D02*
X16515000Y-8815000D01*
X16515000Y-8785000D02*
X16485000Y-8815000D01*
X16485000Y-9335000D02*
X16515000Y-9365000D01*
X16515000Y-9335000D02*
X16485000Y-9365000D01*
X16635000Y-6135000D02*
X16665000Y-6165000D01*
X16665000Y-6135000D02*
X16635000Y-6165000D01*
X14775000Y-7600000D02*
G75*
G02*
X14725000Y-7600000I-25000J0D01*
G01*
X14725000Y-7600000D02*
G75*
G02*
X14775000Y-7600000I25000J0D01*
G01*
X15075000Y-7600000D02*
G75*
G02*
X15025000Y-7600000I-25000J0D01*
G01*
X15025000Y-7600000D02*
G75*
G02*
X15075000Y-7600000I25000J0D01*
G01*
X15725000Y-6975000D02*
G75*
G02*
X15675000Y-6975000I-25000J0D01*
G01*
X15675000Y-6975000D02*
G75*
G02*
X15725000Y-6975000I25000J0D01*
G01*
X15975000Y-7150000D02*
G75*
G02*
X15925000Y-7150000I-25000J0D01*
G01*
X15925000Y-7150000D02*
G75*
G02*
X15975000Y-7150000I25000J0D01*
G01*
X16000000Y-7550000D02*
G75*
G02*
X15950000Y-7550000I-25000J0D01*
G01*
X15950000Y-7550000D02*
G75*
G02*
X16000000Y-7550000I25000J0D01*
G01*
X13992500Y-7138000D02*
X13992500Y-7198000D01*
X13962500Y-7168000D02*
X14022500Y-7168000D01*
X14022500Y-7138000D02*
X13962500Y-7138000D01*
X13962500Y-7198000D02*
G75*
G02*
X13962500Y-7138000I0J30000D01*
G01*
X13962500Y-7198000D02*
X14022500Y-7198000D01*
X14022500Y-7198000D02*
G75*
G03*
X14022500Y-7138000I0J30000D01*
G01*
X13992500Y-8002000D02*
X13992500Y-8062000D01*
X13962500Y-8032000D02*
X14022500Y-8032000D01*
X14022500Y-8002000D02*
X13962500Y-8002000D01*
X13962500Y-8062000D02*
G75*
G02*
X13962500Y-8002000I0J30000D01*
G01*
X13962500Y-8062000D02*
X14022500Y-8062000D01*
X14022500Y-8062000D02*
G75*
G03*
X14022500Y-8002000I0J30000D01*
G01*
X14410500Y-7138000D02*
X14410500Y-7198000D01*
X14380500Y-7168000D02*
X14440500Y-7168000D01*
X14465500Y-7138000D02*
X14355500Y-7138000D01*
X14355500Y-7198000D02*
G75*
G02*
X14355500Y-7138000I0J30000D01*
G01*
X14355500Y-7198000D02*
X14465500Y-7198000D01*
X14465500Y-7198000D02*
G75*
G03*
X14465500Y-7138000I0J30000D01*
G01*
X14410500Y-8002000D02*
X14410500Y-8062000D01*
X14380500Y-8032000D02*
X14440500Y-8032000D01*
X14465500Y-8002000D02*
X14355500Y-8002000D01*
X14355500Y-8062000D02*
G75*
G02*
X14355500Y-8002000I0J30000D01*
G01*
X14355500Y-8062000D02*
X14465500Y-8062000D01*
X14465500Y-8062000D02*
G75*
G03*
X14465500Y-8002000I0J30000D01*
G01*
X14033588Y-5333588D02*
X14033588Y-5266412D01*
X13966412Y-5266412D01*
X13966412Y-5333588D01*
X14033588Y-5333588D01*
X14033588Y-6633588D02*
X14033588Y-6566412D01*
X13966412Y-6566412D01*
X13966412Y-6633588D01*
X14033588Y-6633588D01*
X14033588Y-10233588D02*
X14033588Y-10166412D01*
X13966412Y-10166412D01*
X13966412Y-10233588D01*
X14033588Y-10233588D01*
X14033588Y-10833588D02*
X14033588Y-10766412D01*
X13966412Y-10766412D01*
X13966412Y-10833588D01*
X14033588Y-10833588D01*
X14033588Y-11483588D02*
X14033588Y-11416412D01*
X13966412Y-11416412D01*
X13966412Y-11483588D01*
X14033588Y-11483588D01*
X14033588Y-12083588D02*
X14033588Y-12016412D01*
X13966412Y-12016412D01*
X13966412Y-12083588D01*
X14033588Y-12083588D01*
X14033588Y-13381088D02*
X14033588Y-13313912D01*
X13966412Y-13313912D01*
X13966412Y-13381088D01*
X14033588Y-13381088D01*
X14283588Y-5333588D02*
X14283588Y-5266412D01*
X14216412Y-5266412D01*
X14216412Y-5333588D01*
X14283588Y-5333588D01*
X14283588Y-6633588D02*
X14283588Y-6566412D01*
X14216412Y-6566412D01*
X14216412Y-6633588D01*
X14283588Y-6633588D01*
X14283588Y-10233588D02*
X14283588Y-10166412D01*
X14216412Y-10166412D01*
X14216412Y-10233588D01*
X14283588Y-10233588D01*
X14283588Y-10833588D02*
X14283588Y-10766412D01*
X14216412Y-10766412D01*
X14216412Y-10833588D01*
X14283588Y-10833588D01*
X14283588Y-11483588D02*
X14283588Y-11416412D01*
X14216412Y-11416412D01*
X14216412Y-11483588D01*
X14283588Y-11483588D01*
X14283588Y-12083588D02*
X14283588Y-12016412D01*
X14216412Y-12016412D01*
X14216412Y-12083588D01*
X14283588Y-12083588D01*
X14283588Y-13381088D02*
X14283588Y-13313912D01*
X14216412Y-13313912D01*
X14216412Y-13381088D01*
X14283588Y-13381088D01*
X14533588Y-5333588D02*
X14533588Y-5266412D01*
X14466412Y-5266412D01*
X14466412Y-5333588D01*
X14533588Y-5333588D01*
X14533588Y-6633588D02*
X14533588Y-6566412D01*
X14466412Y-6566412D01*
X14466412Y-6633588D01*
X14533588Y-6633588D01*
X14533588Y-10233588D02*
X14533588Y-10166412D01*
X14466412Y-10166412D01*
X14466412Y-10233588D01*
X14533588Y-10233588D01*
X14533588Y-10833588D02*
X14533588Y-10766412D01*
X14466412Y-10766412D01*
X14466412Y-10833588D01*
X14533588Y-10833588D01*
X14533588Y-11483588D02*
X14533588Y-11416412D01*
X14466412Y-11416412D01*
X14466412Y-11483588D01*
X14533588Y-11483588D01*
X14533588Y-12083588D02*
X14533588Y-12016412D01*
X14466412Y-12016412D01*
X14466412Y-12083588D01*
X14533588Y-12083588D01*
X14533588Y-13381088D02*
X14533588Y-13313912D01*
X14466412Y-13313912D01*
X14466412Y-13381088D01*
X14533588Y-13381088D01*
X14783588Y-10233588D02*
X14783588Y-10166412D01*
X14716412Y-10166412D01*
X14716412Y-10233588D01*
X14783588Y-10233588D01*
X15033588Y-5333588D02*
X15033588Y-5266412D01*
X14966412Y-5266412D01*
X14966412Y-5333588D01*
X15033588Y-5333588D01*
X15033588Y-10233588D02*
X15033588Y-10166412D01*
X14966412Y-10166412D01*
X14966412Y-10233588D01*
X15033588Y-10233588D01*
X15033588Y-10833588D02*
X15033588Y-10766412D01*
X14966412Y-10766412D01*
X14966412Y-10833588D01*
X15033588Y-10833588D01*
X15033588Y-11483588D02*
X15033588Y-11416412D01*
X14966412Y-11416412D01*
X14966412Y-11483588D01*
X15033588Y-11483588D01*
X15283588Y-5333588D02*
X15283588Y-5266412D01*
X15216412Y-5266412D01*
X15216412Y-5333588D01*
X15283588Y-5333588D01*
X15283588Y-10233588D02*
X15283588Y-10166412D01*
X15216412Y-10166412D01*
X15216412Y-10233588D01*
X15283588Y-10233588D01*
X15283588Y-10833588D02*
X15283588Y-10766412D01*
X15216412Y-10766412D01*
X15216412Y-10833588D01*
X15283588Y-10833588D01*
X15283588Y-11483588D02*
X15283588Y-11416412D01*
X15216412Y-11416412D01*
X15216412Y-11483588D01*
X15283588Y-11483588D01*
X15533588Y-5333588D02*
X15533588Y-5266412D01*
X15466412Y-5266412D01*
X15466412Y-5333588D01*
X15533588Y-5333588D01*
X15533588Y-10233588D02*
X15533588Y-10166412D01*
X15466412Y-10166412D01*
X15466412Y-10233588D01*
X15533588Y-10233588D01*
X15533588Y-10833588D02*
X15533588Y-10766412D01*
X15466412Y-10766412D01*
X15466412Y-10833588D01*
X15533588Y-10833588D01*
X15533588Y-11483588D02*
X15533588Y-11416412D01*
X15466412Y-11416412D01*
X15466412Y-11483588D01*
X15533588Y-11483588D01*
X15783588Y-10233588D02*
X15783588Y-10166412D01*
X15716412Y-10166412D01*
X15716412Y-10233588D01*
X15783588Y-10233588D01*
X16033588Y-10233588D02*
X16033588Y-10166412D01*
X15966412Y-10166412D01*
X15966412Y-10233588D01*
X16033588Y-10233588D01*
X16033588Y-10833588D02*
X16033588Y-10766412D01*
X15966412Y-10766412D01*
X15966412Y-10833588D01*
X16033588Y-10833588D01*
X16033588Y-11483588D02*
X16033588Y-11416412D01*
X15966412Y-11416412D01*
X15966412Y-11483588D01*
X16033588Y-11483588D01*
X16283588Y-5333588D02*
X16283588Y-5266412D01*
X16216412Y-5266412D01*
X16216412Y-5333588D01*
X16283588Y-5333588D01*
X16283588Y-6631088D02*
X16283588Y-6563912D01*
X16216412Y-6563912D01*
X16216412Y-6631088D01*
X16283588Y-6631088D01*
X16283588Y-7233588D02*
X16283588Y-7166412D01*
X16216412Y-7166412D01*
X16216412Y-7233588D01*
X16283588Y-7233588D01*
X16283588Y-10233588D02*
X16283588Y-10166412D01*
X16216412Y-10166412D01*
X16216412Y-10233588D01*
X16283588Y-10233588D01*
X16283588Y-10833588D02*
X16283588Y-10766412D01*
X16216412Y-10766412D01*
X16216412Y-10833588D01*
X16283588Y-10833588D01*
X16283588Y-11483588D02*
X16283588Y-11416412D01*
X16216412Y-11416412D01*
X16216412Y-11483588D01*
X16283588Y-11483588D01*
X16533588Y-5333588D02*
X16533588Y-5266412D01*
X16466412Y-5266412D01*
X16466412Y-5333588D01*
X16533588Y-5333588D01*
X16533588Y-6631088D02*
X16533588Y-6563912D01*
X16466412Y-6563912D01*
X16466412Y-6631088D01*
X16533588Y-6631088D01*
X16533588Y-7233588D02*
X16533588Y-7166412D01*
X16466412Y-7166412D01*
X16466412Y-7233588D01*
X16533588Y-7233588D01*
X16533588Y-10833588D02*
X16533588Y-10766412D01*
X16466412Y-10766412D01*
X16466412Y-10833588D01*
X16533588Y-10833588D01*
X16533588Y-11483588D02*
X16533588Y-11416412D01*
X16466412Y-11416412D01*
X16466412Y-11483588D01*
X16533588Y-11483588D01*
X16783588Y-5333588D02*
X16783588Y-5266412D01*
X16716412Y-5266412D01*
X16716412Y-5333588D01*
X16783588Y-5333588D01*
X16783588Y-6631088D02*
X16783588Y-6563912D01*
X16716412Y-6563912D01*
X16716412Y-6631088D01*
X16783588Y-6631088D01*
X16783588Y-7233588D02*
X16783588Y-7166412D01*
X16716412Y-7166412D01*
X16716412Y-7233588D01*
X16783588Y-7233588D01*
X16783588Y-7833588D02*
X16783588Y-7766412D01*
X16716412Y-7766412D01*
X16716412Y-7833588D01*
X16783588Y-7833588D01*
X16783588Y-8433588D02*
X16783588Y-8366412D01*
X16716412Y-8366412D01*
X16716412Y-8433588D01*
X16783588Y-8433588D01*
X16783588Y-9033588D02*
X16783588Y-8966412D01*
X16716412Y-8966412D01*
X16716412Y-9033588D01*
X16783588Y-9033588D01*
X16783588Y-9633588D02*
X16783588Y-9566412D01*
X16716412Y-9566412D01*
X16716412Y-9633588D01*
X16783588Y-9633588D01*
X16783588Y-10233588D02*
X16783588Y-10166412D01*
X16716412Y-10166412D01*
X16716412Y-10233588D01*
X16783588Y-10233588D01*
X17033588Y-5333588D02*
X17033588Y-5266412D01*
X16966412Y-5266412D01*
X16966412Y-5333588D01*
X17033588Y-5333588D01*
X17033588Y-6631088D02*
X17033588Y-6563912D01*
X16966412Y-6563912D01*
X16966412Y-6631088D01*
X17033588Y-6631088D01*
X17033588Y-7233588D02*
X17033588Y-7166412D01*
X16966412Y-7166412D01*
X16966412Y-7233588D01*
X17033588Y-7233588D01*
X17033588Y-7833588D02*
X17033588Y-7766412D01*
X16966412Y-7766412D01*
X16966412Y-7833588D01*
X17033588Y-7833588D01*
X17033588Y-8433588D02*
X17033588Y-8366412D01*
X16966412Y-8366412D01*
X16966412Y-8433588D01*
X17033588Y-8433588D01*
X17033588Y-9033588D02*
X17033588Y-8966412D01*
X16966412Y-8966412D01*
X16966412Y-9033588D01*
X17033588Y-9033588D01*
X17033588Y-9633588D02*
X17033588Y-9566412D01*
X16966412Y-9566412D01*
X16966412Y-9633588D01*
X17033588Y-9633588D01*
X17033588Y-10233588D02*
X17033588Y-10166412D01*
X16966412Y-10166412D01*
X16966412Y-10233588D01*
X17033588Y-10233588D01*
X17033588Y-10833588D02*
X17033588Y-10766412D01*
X16966412Y-10766412D01*
X16966412Y-10833588D01*
X17033588Y-10833588D01*
X17033588Y-11483588D02*
X17033588Y-11416412D01*
X16966412Y-11416412D01*
X16966412Y-11483588D01*
X17033588Y-11483588D01*
X17033588Y-12083588D02*
X17033588Y-12016412D01*
X16966412Y-12016412D01*
X16966412Y-12083588D01*
X17033588Y-12083588D01*
X17033588Y-13381088D02*
X17033588Y-13313912D01*
X16966412Y-13313912D01*
X16966412Y-13381088D01*
X17033588Y-13381088D01*
X17283588Y-5333588D02*
X17283588Y-5266412D01*
X17216412Y-5266412D01*
X17216412Y-5333588D01*
X17283588Y-5333588D01*
X17283588Y-6631088D02*
X17283588Y-6563912D01*
X17216412Y-6563912D01*
X17216412Y-6631088D01*
X17283588Y-6631088D01*
X17283588Y-7233588D02*
X17283588Y-7166412D01*
X17216412Y-7166412D01*
X17216412Y-7233588D01*
X17283588Y-7233588D01*
X17283588Y-7833588D02*
X17283588Y-7766412D01*
X17216412Y-7766412D01*
X17216412Y-7833588D01*
X17283588Y-7833588D01*
X17283588Y-8433588D02*
X17283588Y-8366412D01*
X17216412Y-8366412D01*
X17216412Y-8433588D01*
X17283588Y-8433588D01*
X17283588Y-9033588D02*
X17283588Y-8966412D01*
X17216412Y-8966412D01*
X17216412Y-9033588D01*
X17283588Y-9033588D01*
X17283588Y-9633588D02*
X17283588Y-9566412D01*
X17216412Y-9566412D01*
X17216412Y-9633588D01*
X17283588Y-9633588D01*
X17283588Y-10233588D02*
X17283588Y-10166412D01*
X17216412Y-10166412D01*
X17216412Y-10233588D01*
X17283588Y-10233588D01*
X17283588Y-10833588D02*
X17283588Y-10766412D01*
X17216412Y-10766412D01*
X17216412Y-10833588D01*
X17283588Y-10833588D01*
X17283588Y-11483588D02*
X17283588Y-11416412D01*
X17216412Y-11416412D01*
X17216412Y-11483588D01*
X17283588Y-11483588D01*
X17283588Y-12083588D02*
X17283588Y-12016412D01*
X17216412Y-12016412D01*
X17216412Y-12083588D01*
X17283588Y-12083588D01*
X17283588Y-13381088D02*
X17283588Y-13313912D01*
X17216412Y-13313912D01*
X17216412Y-13381088D01*
X17283588Y-13381088D01*
X17533588Y-5333588D02*
X17533588Y-5266412D01*
X17466412Y-5266412D01*
X17466412Y-5333588D01*
X17533588Y-5333588D01*
X17533588Y-6631088D02*
X17533588Y-6563912D01*
X17466412Y-6563912D01*
X17466412Y-6631088D01*
X17533588Y-6631088D01*
X17533588Y-7233588D02*
X17533588Y-7166412D01*
X17466412Y-7166412D01*
X17466412Y-7233588D01*
X17533588Y-7233588D01*
X17533588Y-7833588D02*
X17533588Y-7766412D01*
X17466412Y-7766412D01*
X17466412Y-7833588D01*
X17533588Y-7833588D01*
X17533588Y-8433588D02*
X17533588Y-8366412D01*
X17466412Y-8366412D01*
X17466412Y-8433588D01*
X17533588Y-8433588D01*
X17533588Y-9033588D02*
X17533588Y-8966412D01*
X17466412Y-8966412D01*
X17466412Y-9033588D01*
X17533588Y-9033588D01*
X17533588Y-9633588D02*
X17533588Y-9566412D01*
X17466412Y-9566412D01*
X17466412Y-9633588D01*
X17533588Y-9633588D01*
X17533588Y-10233588D02*
X17533588Y-10166412D01*
X17466412Y-10166412D01*
X17466412Y-10233588D01*
X17533588Y-10233588D01*
X17533588Y-10833588D02*
X17533588Y-10766412D01*
X17466412Y-10766412D01*
X17466412Y-10833588D01*
X17533588Y-10833588D01*
X17533588Y-11483588D02*
X17533588Y-11416412D01*
X17466412Y-11416412D01*
X17466412Y-11483588D01*
X17533588Y-11483588D01*
X17533588Y-12083588D02*
X17533588Y-12016412D01*
X17466412Y-12016412D01*
X17466412Y-12083588D01*
X17533588Y-12083588D01*
X17533588Y-13381088D02*
X17533588Y-13313912D01*
X17466412Y-13313912D01*
X17466412Y-13381088D01*
X17533588Y-13381088D01*
X15200000Y-13432500D02*
X15250000Y-13382500D01*
X15200000Y-13332500D01*
X15150000Y-13382500D01*
X15200000Y-13432500D01*
X16300000Y-13432500D02*
X16350000Y-13382500D01*
X16300000Y-13332500D01*
X16250000Y-13382500D01*
X16300000Y-13432500D01*
D13*
X14056250Y-8495000D02*
X14176250Y-8615000D01*
X14176250Y-8495000D02*
X14056250Y-8615000D01*
X14176250Y-8555000D02*
G75*
G02*
X14056250Y-8555000I-60000J0D01*
G01*
X14056250Y-8555000D02*
G75*
G02*
X14176250Y-8555000I60000J0D01*
G01*
X14056250Y-9295000D02*
X14176250Y-9415000D01*
X14176250Y-9295000D02*
X14056250Y-9415000D01*
X14176250Y-9355000D02*
G75*
G02*
X14056250Y-9355000I-60000J0D01*
G01*
X14056250Y-9355000D02*
G75*
G02*
X14176250Y-9355000I60000J0D01*
G01*
D14*
X15405000Y-12287500D02*
X15595000Y-12477500D01*
X15595000Y-12287500D02*
X15405000Y-12477500D01*
X15500000Y-12287500D02*
X15500000Y-12477500D01*
X15405000Y-12382500D02*
X15595000Y-12382500D01*
X15905000Y-12287500D02*
X16095000Y-12477500D01*
X16095000Y-12287500D02*
X15905000Y-12477500D01*
X16000000Y-12287500D02*
X16000000Y-12477500D01*
X15905000Y-12382500D02*
X16095000Y-12382500D01*
D11*
X14008277Y-14013984D02*
X14008277Y-13813984D01*
X14008277Y-13813984D02*
X14055896Y-13813984D01*
X14055896Y-13813984D02*
X14084467Y-13823508D01*
X14084467Y-13823508D02*
X14103515Y-13842555D01*
X14103515Y-13842555D02*
X14113039Y-13861603D01*
X14113039Y-13861603D02*
X14122562Y-13899698D01*
X14122562Y-13899698D02*
X14122562Y-13928269D01*
X14122562Y-13928269D02*
X14113039Y-13966365D01*
X14113039Y-13966365D02*
X14103515Y-13985412D01*
X14103515Y-13985412D02*
X14084467Y-14004460D01*
X14084467Y-14004460D02*
X14055896Y-14013984D01*
X14055896Y-14013984D02*
X14008277Y-14013984D01*
X14208277Y-14013984D02*
X14208277Y-13880650D01*
X14208277Y-13918746D02*
X14217801Y-13899698D01*
X14217801Y-13899698D02*
X14227324Y-13890174D01*
X14227324Y-13890174D02*
X14246372Y-13880650D01*
X14246372Y-13880650D02*
X14265420Y-13880650D01*
X14332086Y-14013984D02*
X14332086Y-13880650D01*
X14332086Y-13813984D02*
X14322562Y-13823508D01*
X14322562Y-13823508D02*
X14332086Y-13833031D01*
X14332086Y-13833031D02*
X14341610Y-13823508D01*
X14341610Y-13823508D02*
X14332086Y-13813984D01*
X14332086Y-13813984D02*
X14332086Y-13833031D01*
X14455896Y-14013984D02*
X14436848Y-14004460D01*
X14436848Y-14004460D02*
X14427324Y-13985412D01*
X14427324Y-13985412D02*
X14427324Y-13813984D01*
X14560658Y-14013984D02*
X14541610Y-14004460D01*
X14541610Y-14004460D02*
X14532086Y-13985412D01*
X14532086Y-13985412D02*
X14532086Y-13813984D01*
X14789229Y-14013984D02*
X14789229Y-13813984D01*
X14789229Y-13813984D02*
X14855896Y-13956841D01*
X14855896Y-13956841D02*
X14922562Y-13813984D01*
X14922562Y-13813984D02*
X14922562Y-14013984D01*
X15103515Y-14013984D02*
X15103515Y-13909222D01*
X15103515Y-13909222D02*
X15093991Y-13890174D01*
X15093991Y-13890174D02*
X15074943Y-13880650D01*
X15074943Y-13880650D02*
X15036848Y-13880650D01*
X15036848Y-13880650D02*
X15017801Y-13890174D01*
X15103515Y-14004460D02*
X15084467Y-14013984D01*
X15084467Y-14013984D02*
X15036848Y-14013984D01*
X15036848Y-14013984D02*
X15017801Y-14004460D01*
X15017801Y-14004460D02*
X15008277Y-13985412D01*
X15008277Y-13985412D02*
X15008277Y-13966365D01*
X15008277Y-13966365D02*
X15017801Y-13947317D01*
X15017801Y-13947317D02*
X15036848Y-13937793D01*
X15036848Y-13937793D02*
X15084467Y-13937793D01*
X15084467Y-13937793D02*
X15103515Y-13928269D01*
X15198753Y-13880650D02*
X15198753Y-14080650D01*
X15198753Y-13890174D02*
X15217801Y-13880650D01*
X15217801Y-13880650D02*
X15255896Y-13880650D01*
X15255896Y-13880650D02*
X15274943Y-13890174D01*
X15274943Y-13890174D02*
X15284467Y-13899698D01*
X15284467Y-13899698D02*
X15293991Y-13918746D01*
X15293991Y-13918746D02*
X15293991Y-13975888D01*
X15293991Y-13975888D02*
X15284467Y-13994936D01*
X15284467Y-13994936D02*
X15274943Y-14004460D01*
X15274943Y-14004460D02*
X15255896Y-14013984D01*
X15255896Y-14013984D02*
X15217801Y-14013984D01*
X15217801Y-14013984D02*
X15198753Y-14004460D01*
X15379705Y-13994936D02*
X15389229Y-14004460D01*
X15389229Y-14004460D02*
X15379705Y-14013984D01*
X15379705Y-14013984D02*
X15370182Y-14004460D01*
X15370182Y-14004460D02*
X15379705Y-13994936D01*
X15379705Y-13994936D02*
X15379705Y-14013984D01*
X15379705Y-13890174D02*
X15389229Y-13899698D01*
X15389229Y-13899698D02*
X15379705Y-13909222D01*
X15379705Y-13909222D02*
X15370182Y-13899698D01*
X15370182Y-13899698D02*
X15379705Y-13890174D01*
X15379705Y-13890174D02*
X15379705Y-13909222D01*
D12*
X13717500Y-14327500D02*
X13747500Y-14357500D01*
X13747500Y-14327500D02*
X13717500Y-14357500D01*
D11*
X14046372Y-14233984D02*
X14065420Y-14233984D01*
X14065420Y-14233984D02*
X14084467Y-14243508D01*
X14084467Y-14243508D02*
X14093991Y-14253031D01*
X14093991Y-14253031D02*
X14103515Y-14272079D01*
X14103515Y-14272079D02*
X14113039Y-14310174D01*
X14113039Y-14310174D02*
X14113039Y-14357793D01*
X14113039Y-14357793D02*
X14103515Y-14395888D01*
X14103515Y-14395888D02*
X14093991Y-14414936D01*
X14093991Y-14414936D02*
X14084467Y-14424460D01*
X14084467Y-14424460D02*
X14065420Y-14433984D01*
X14065420Y-14433984D02*
X14046372Y-14433984D01*
X14046372Y-14433984D02*
X14027324Y-14424460D01*
X14027324Y-14424460D02*
X14017801Y-14414936D01*
X14017801Y-14414936D02*
X14008277Y-14395888D01*
X14008277Y-14395888D02*
X13998753Y-14357793D01*
X13998753Y-14357793D02*
X13998753Y-14310174D01*
X13998753Y-14310174D02*
X14008277Y-14272079D01*
X14008277Y-14272079D02*
X14017801Y-14253031D01*
X14017801Y-14253031D02*
X14027324Y-14243508D01*
X14027324Y-14243508D02*
X14046372Y-14233984D01*
X14198753Y-14414936D02*
X14208277Y-14424460D01*
X14208277Y-14424460D02*
X14198753Y-14433984D01*
X14198753Y-14433984D02*
X14189229Y-14424460D01*
X14189229Y-14424460D02*
X14198753Y-14414936D01*
X14198753Y-14414936D02*
X14198753Y-14433984D01*
X14274943Y-14233984D02*
X14398753Y-14233984D01*
X14398753Y-14233984D02*
X14332086Y-14310174D01*
X14332086Y-14310174D02*
X14360658Y-14310174D01*
X14360658Y-14310174D02*
X14379705Y-14319698D01*
X14379705Y-14319698D02*
X14389229Y-14329222D01*
X14389229Y-14329222D02*
X14398753Y-14348269D01*
X14398753Y-14348269D02*
X14398753Y-14395888D01*
X14398753Y-14395888D02*
X14389229Y-14414936D01*
X14389229Y-14414936D02*
X14379705Y-14424460D01*
X14379705Y-14424460D02*
X14360658Y-14433984D01*
X14360658Y-14433984D02*
X14303515Y-14433984D01*
X14303515Y-14433984D02*
X14284467Y-14424460D01*
X14284467Y-14424460D02*
X14274943Y-14414936D01*
X14522562Y-14233984D02*
X14541610Y-14233984D01*
X14541610Y-14233984D02*
X14560658Y-14243508D01*
X14560658Y-14243508D02*
X14570182Y-14253031D01*
X14570182Y-14253031D02*
X14579705Y-14272079D01*
X14579705Y-14272079D02*
X14589229Y-14310174D01*
X14589229Y-14310174D02*
X14589229Y-14357793D01*
X14589229Y-14357793D02*
X14579705Y-14395888D01*
X14579705Y-14395888D02*
X14570182Y-14414936D01*
X14570182Y-14414936D02*
X14560658Y-14424460D01*
X14560658Y-14424460D02*
X14541610Y-14433984D01*
X14541610Y-14433984D02*
X14522562Y-14433984D01*
X14522562Y-14433984D02*
X14503515Y-14424460D01*
X14503515Y-14424460D02*
X14493991Y-14414936D01*
X14493991Y-14414936D02*
X14484467Y-14395888D01*
X14484467Y-14395888D02*
X14474943Y-14357793D01*
X14474943Y-14357793D02*
X14474943Y-14310174D01*
X14474943Y-14310174D02*
X14484467Y-14272079D01*
X14484467Y-14272079D02*
X14493991Y-14253031D01*
X14493991Y-14253031D02*
X14503515Y-14243508D01*
X14503515Y-14243508D02*
X14522562Y-14233984D01*
X14713039Y-14233984D02*
X14732086Y-14233984D01*
X14732086Y-14233984D02*
X14751134Y-14243508D01*
X14751134Y-14243508D02*
X14760658Y-14253031D01*
X14760658Y-14253031D02*
X14770182Y-14272079D01*
X14770182Y-14272079D02*
X14779705Y-14310174D01*
X14779705Y-14310174D02*
X14779705Y-14357793D01*
X14779705Y-14357793D02*
X14770182Y-14395888D01*
X14770182Y-14395888D02*
X14760658Y-14414936D01*
X14760658Y-14414936D02*
X14751134Y-14424460D01*
X14751134Y-14424460D02*
X14732086Y-14433984D01*
X14732086Y-14433984D02*
X14713039Y-14433984D01*
X14713039Y-14433984D02*
X14693991Y-14424460D01*
X14693991Y-14424460D02*
X14684467Y-14414936D01*
X14684467Y-14414936D02*
X14674943Y-14395888D01*
X14674943Y-14395888D02*
X14665420Y-14357793D01*
X14665420Y-14357793D02*
X14665420Y-14310174D01*
X14665420Y-14310174D02*
X14674943Y-14272079D01*
X14674943Y-14272079D02*
X14684467Y-14253031D01*
X14684467Y-14253031D02*
X14693991Y-14243508D01*
X14693991Y-14243508D02*
X14713039Y-14233984D01*
X14865420Y-14433984D02*
X14865420Y-14300650D01*
X14865420Y-14319698D02*
X14874943Y-14310174D01*
X14874943Y-14310174D02*
X14893991Y-14300650D01*
X14893991Y-14300650D02*
X14922563Y-14300650D01*
X14922563Y-14300650D02*
X14941610Y-14310174D01*
X14941610Y-14310174D02*
X14951134Y-14329222D01*
X14951134Y-14329222D02*
X14951134Y-14433984D01*
X14951134Y-14329222D02*
X14960658Y-14310174D01*
X14960658Y-14310174D02*
X14979705Y-14300650D01*
X14979705Y-14300650D02*
X15008277Y-14300650D01*
X15008277Y-14300650D02*
X15027324Y-14310174D01*
X15027324Y-14310174D02*
X15036848Y-14329222D01*
X15036848Y-14329222D02*
X15036848Y-14433984D01*
X15132086Y-14433984D02*
X15132086Y-14300650D01*
X15132086Y-14319698D02*
X15141610Y-14310174D01*
X15141610Y-14310174D02*
X15160658Y-14300650D01*
X15160658Y-14300650D02*
X15189229Y-14300650D01*
X15189229Y-14300650D02*
X15208277Y-14310174D01*
X15208277Y-14310174D02*
X15217801Y-14329222D01*
X15217801Y-14329222D02*
X15217801Y-14433984D01*
X15217801Y-14329222D02*
X15227324Y-14310174D01*
X15227324Y-14310174D02*
X15246372Y-14300650D01*
X15246372Y-14300650D02*
X15274943Y-14300650D01*
X15274943Y-14300650D02*
X15293991Y-14310174D01*
X15293991Y-14310174D02*
X15303515Y-14329222D01*
X15303515Y-14329222D02*
X15303515Y-14433984D01*
X15693991Y-14224460D02*
X15522563Y-14481603D01*
X15951134Y-14233984D02*
X15970182Y-14233984D01*
X15970182Y-14233984D02*
X15989229Y-14243508D01*
X15989229Y-14243508D02*
X15998753Y-14253031D01*
X15998753Y-14253031D02*
X16008277Y-14272079D01*
X16008277Y-14272079D02*
X16017801Y-14310174D01*
X16017801Y-14310174D02*
X16017801Y-14357793D01*
X16017801Y-14357793D02*
X16008277Y-14395888D01*
X16008277Y-14395888D02*
X15998753Y-14414936D01*
X15998753Y-14414936D02*
X15989229Y-14424460D01*
X15989229Y-14424460D02*
X15970182Y-14433984D01*
X15970182Y-14433984D02*
X15951134Y-14433984D01*
X15951134Y-14433984D02*
X15932086Y-14424460D01*
X15932086Y-14424460D02*
X15922563Y-14414936D01*
X15922563Y-14414936D02*
X15913039Y-14395888D01*
X15913039Y-14395888D02*
X15903515Y-14357793D01*
X15903515Y-14357793D02*
X15903515Y-14310174D01*
X15903515Y-14310174D02*
X15913039Y-14272079D01*
X15913039Y-14272079D02*
X15922563Y-14253031D01*
X15922563Y-14253031D02*
X15932086Y-14243508D01*
X15932086Y-14243508D02*
X15951134Y-14233984D01*
X16103515Y-14414936D02*
X16113039Y-14424460D01*
X16113039Y-14424460D02*
X16103515Y-14433984D01*
X16103515Y-14433984D02*
X16093991Y-14424460D01*
X16093991Y-14424460D02*
X16103515Y-14414936D01*
X16103515Y-14414936D02*
X16103515Y-14433984D01*
X16236848Y-14233984D02*
X16255896Y-14233984D01*
X16255896Y-14233984D02*
X16274944Y-14243508D01*
X16274944Y-14243508D02*
X16284467Y-14253031D01*
X16284467Y-14253031D02*
X16293991Y-14272079D01*
X16293991Y-14272079D02*
X16303515Y-14310174D01*
X16303515Y-14310174D02*
X16303515Y-14357793D01*
X16303515Y-14357793D02*
X16293991Y-14395888D01*
X16293991Y-14395888D02*
X16284467Y-14414936D01*
X16284467Y-14414936D02*
X16274944Y-14424460D01*
X16274944Y-14424460D02*
X16255896Y-14433984D01*
X16255896Y-14433984D02*
X16236848Y-14433984D01*
X16236848Y-14433984D02*
X16217801Y-14424460D01*
X16217801Y-14424460D02*
X16208277Y-14414936D01*
X16208277Y-14414936D02*
X16198753Y-14395888D01*
X16198753Y-14395888D02*
X16189229Y-14357793D01*
X16189229Y-14357793D02*
X16189229Y-14310174D01*
X16189229Y-14310174D02*
X16198753Y-14272079D01*
X16198753Y-14272079D02*
X16208277Y-14253031D01*
X16208277Y-14253031D02*
X16217801Y-14243508D01*
X16217801Y-14243508D02*
X16236848Y-14233984D01*
X16493991Y-14433984D02*
X16379706Y-14433984D01*
X16436848Y-14433984D02*
X16436848Y-14233984D01*
X16436848Y-14233984D02*
X16417801Y-14262555D01*
X16417801Y-14262555D02*
X16398753Y-14281603D01*
X16398753Y-14281603D02*
X16379706Y-14291127D01*
X16684467Y-14433984D02*
X16570182Y-14433984D01*
X16627325Y-14433984D02*
X16627325Y-14233984D01*
X16627325Y-14233984D02*
X16608277Y-14262555D01*
X16608277Y-14262555D02*
X16589229Y-14281603D01*
X16589229Y-14281603D02*
X16570182Y-14291127D01*
X16798753Y-14319698D02*
X16779706Y-14310174D01*
X16779706Y-14310174D02*
X16770182Y-14300650D01*
X16770182Y-14300650D02*
X16760658Y-14281603D01*
X16760658Y-14281603D02*
X16760658Y-14272079D01*
X16760658Y-14272079D02*
X16770182Y-14253031D01*
X16770182Y-14253031D02*
X16779706Y-14243508D01*
X16779706Y-14243508D02*
X16798753Y-14233984D01*
X16798753Y-14233984D02*
X16836849Y-14233984D01*
X16836849Y-14233984D02*
X16855896Y-14243508D01*
X16855896Y-14243508D02*
X16865420Y-14253031D01*
X16865420Y-14253031D02*
X16874944Y-14272079D01*
X16874944Y-14272079D02*
X16874944Y-14281603D01*
X16874944Y-14281603D02*
X16865420Y-14300650D01*
X16865420Y-14300650D02*
X16855896Y-14310174D01*
X16855896Y-14310174D02*
X16836849Y-14319698D01*
X16836849Y-14319698D02*
X16798753Y-14319698D01*
X16798753Y-14319698D02*
X16779706Y-14329222D01*
X16779706Y-14329222D02*
X16770182Y-14338746D01*
X16770182Y-14338746D02*
X16760658Y-14357793D01*
X16760658Y-14357793D02*
X16760658Y-14395888D01*
X16760658Y-14395888D02*
X16770182Y-14414936D01*
X16770182Y-14414936D02*
X16779706Y-14424460D01*
X16779706Y-14424460D02*
X16798753Y-14433984D01*
X16798753Y-14433984D02*
X16836849Y-14433984D01*
X16836849Y-14433984D02*
X16855896Y-14424460D01*
X16855896Y-14424460D02*
X16865420Y-14414936D01*
X16865420Y-14414936D02*
X16874944Y-14395888D01*
X16874944Y-14395888D02*
X16874944Y-14357793D01*
X16874944Y-14357793D02*
X16865420Y-14338746D01*
X16865420Y-14338746D02*
X16855896Y-14329222D01*
X16855896Y-14329222D02*
X16836849Y-14319698D01*
X16951134Y-14233984D02*
X16951134Y-14272079D01*
X17027325Y-14233984D02*
X17027325Y-14272079D01*
X17322563Y-14510174D02*
X17313039Y-14500650D01*
X17313039Y-14500650D02*
X17293991Y-14472079D01*
X17293991Y-14472079D02*
X17284468Y-14453031D01*
X17284468Y-14453031D02*
X17274944Y-14424460D01*
X17274944Y-14424460D02*
X17265420Y-14376841D01*
X17265420Y-14376841D02*
X17265420Y-14338746D01*
X17265420Y-14338746D02*
X17274944Y-14291127D01*
X17274944Y-14291127D02*
X17284468Y-14262555D01*
X17284468Y-14262555D02*
X17293991Y-14243508D01*
X17293991Y-14243508D02*
X17313039Y-14214936D01*
X17313039Y-14214936D02*
X17322563Y-14205412D01*
X17503515Y-14433984D02*
X17389230Y-14433984D01*
X17446372Y-14433984D02*
X17446372Y-14233984D01*
X17446372Y-14233984D02*
X17427325Y-14262555D01*
X17427325Y-14262555D02*
X17408277Y-14281603D01*
X17408277Y-14281603D02*
X17389230Y-14291127D01*
X17570182Y-14233984D02*
X17693991Y-14233984D01*
X17693991Y-14233984D02*
X17627325Y-14310174D01*
X17627325Y-14310174D02*
X17655896Y-14310174D01*
X17655896Y-14310174D02*
X17674944Y-14319698D01*
X17674944Y-14319698D02*
X17684468Y-14329222D01*
X17684468Y-14329222D02*
X17693991Y-14348269D01*
X17693991Y-14348269D02*
X17693991Y-14395888D01*
X17693991Y-14395888D02*
X17684468Y-14414936D01*
X17684468Y-14414936D02*
X17674944Y-14424460D01*
X17674944Y-14424460D02*
X17655896Y-14433984D01*
X17655896Y-14433984D02*
X17598753Y-14433984D01*
X17598753Y-14433984D02*
X17579706Y-14424460D01*
X17579706Y-14424460D02*
X17570182Y-14414936D01*
X17874944Y-14233984D02*
X17779706Y-14233984D01*
X17779706Y-14233984D02*
X17770182Y-14329222D01*
X17770182Y-14329222D02*
X17779706Y-14319698D01*
X17779706Y-14319698D02*
X17798753Y-14310174D01*
X17798753Y-14310174D02*
X17846372Y-14310174D01*
X17846372Y-14310174D02*
X17865420Y-14319698D01*
X17865420Y-14319698D02*
X17874944Y-14329222D01*
X17874944Y-14329222D02*
X17884468Y-14348269D01*
X17884468Y-14348269D02*
X17884468Y-14395888D01*
X17884468Y-14395888D02*
X17874944Y-14414936D01*
X17874944Y-14414936D02*
X17865420Y-14424460D01*
X17865420Y-14424460D02*
X17846372Y-14433984D01*
X17846372Y-14433984D02*
X17798753Y-14433984D01*
X17798753Y-14433984D02*
X17779706Y-14424460D01*
X17779706Y-14424460D02*
X17770182Y-14414936D01*
X18122563Y-14433984D02*
X18122563Y-14233984D01*
X18208277Y-14433984D02*
X18208277Y-14329222D01*
X18208277Y-14329222D02*
X18198753Y-14310174D01*
X18198753Y-14310174D02*
X18179706Y-14300650D01*
X18179706Y-14300650D02*
X18151134Y-14300650D01*
X18151134Y-14300650D02*
X18132087Y-14310174D01*
X18132087Y-14310174D02*
X18122563Y-14319698D01*
X18332087Y-14433984D02*
X18313039Y-14424460D01*
X18313039Y-14424460D02*
X18303515Y-14414936D01*
X18303515Y-14414936D02*
X18293992Y-14395888D01*
X18293992Y-14395888D02*
X18293992Y-14338746D01*
X18293992Y-14338746D02*
X18303515Y-14319698D01*
X18303515Y-14319698D02*
X18313039Y-14310174D01*
X18313039Y-14310174D02*
X18332087Y-14300650D01*
X18332087Y-14300650D02*
X18360658Y-14300650D01*
X18360658Y-14300650D02*
X18379706Y-14310174D01*
X18379706Y-14310174D02*
X18389230Y-14319698D01*
X18389230Y-14319698D02*
X18398753Y-14338746D01*
X18398753Y-14338746D02*
X18398753Y-14395888D01*
X18398753Y-14395888D02*
X18389230Y-14414936D01*
X18389230Y-14414936D02*
X18379706Y-14424460D01*
X18379706Y-14424460D02*
X18360658Y-14433984D01*
X18360658Y-14433984D02*
X18332087Y-14433984D01*
X18513039Y-14433984D02*
X18493992Y-14424460D01*
X18493992Y-14424460D02*
X18484468Y-14405412D01*
X18484468Y-14405412D02*
X18484468Y-14233984D01*
X18665420Y-14424460D02*
X18646373Y-14433984D01*
X18646373Y-14433984D02*
X18608277Y-14433984D01*
X18608277Y-14433984D02*
X18589230Y-14424460D01*
X18589230Y-14424460D02*
X18579706Y-14405412D01*
X18579706Y-14405412D02*
X18579706Y-14329222D01*
X18579706Y-14329222D02*
X18589230Y-14310174D01*
X18589230Y-14310174D02*
X18608277Y-14300650D01*
X18608277Y-14300650D02*
X18646373Y-14300650D01*
X18646373Y-14300650D02*
X18665420Y-14310174D01*
X18665420Y-14310174D02*
X18674944Y-14329222D01*
X18674944Y-14329222D02*
X18674944Y-14348269D01*
X18674944Y-14348269D02*
X18579706Y-14367317D01*
X18751134Y-14424460D02*
X18770182Y-14433984D01*
X18770182Y-14433984D02*
X18808277Y-14433984D01*
X18808277Y-14433984D02*
X18827325Y-14424460D01*
X18827325Y-14424460D02*
X18836849Y-14405412D01*
X18836849Y-14405412D02*
X18836849Y-14395888D01*
X18836849Y-14395888D02*
X18827325Y-14376841D01*
X18827325Y-14376841D02*
X18808277Y-14367317D01*
X18808277Y-14367317D02*
X18779706Y-14367317D01*
X18779706Y-14367317D02*
X18760658Y-14357793D01*
X18760658Y-14357793D02*
X18751134Y-14338746D01*
X18751134Y-14338746D02*
X18751134Y-14329222D01*
X18751134Y-14329222D02*
X18760658Y-14310174D01*
X18760658Y-14310174D02*
X18779706Y-14300650D01*
X18779706Y-14300650D02*
X18808277Y-14300650D01*
X18808277Y-14300650D02*
X18827325Y-14310174D01*
X18903515Y-14510174D02*
X18913039Y-14500650D01*
X18913039Y-14500650D02*
X18932087Y-14472079D01*
X18932087Y-14472079D02*
X18941611Y-14453031D01*
X18941611Y-14453031D02*
X18951134Y-14424460D01*
X18951134Y-14424460D02*
X18960658Y-14376841D01*
X18960658Y-14376841D02*
X18960658Y-14338746D01*
X18960658Y-14338746D02*
X18951134Y-14291127D01*
X18951134Y-14291127D02*
X18941611Y-14262555D01*
X18941611Y-14262555D02*
X18932087Y-14243508D01*
X18932087Y-14243508D02*
X18913039Y-14214936D01*
X18913039Y-14214936D02*
X18903515Y-14205412D01*
D12*
X13747500Y-14606500D02*
G75*
G02*
X13697500Y-14606500I-25000J0D01*
G01*
X13697500Y-14606500D02*
G75*
G02*
X13747500Y-14606500I25000J0D01*
G01*
D11*
X14046372Y-14497984D02*
X14065420Y-14497984D01*
X14065420Y-14497984D02*
X14084467Y-14507508D01*
X14084467Y-14507508D02*
X14093991Y-14517031D01*
X14093991Y-14517031D02*
X14103515Y-14536079D01*
X14103515Y-14536079D02*
X14113039Y-14574174D01*
X14113039Y-14574174D02*
X14113039Y-14621793D01*
X14113039Y-14621793D02*
X14103515Y-14659888D01*
X14103515Y-14659888D02*
X14093991Y-14678936D01*
X14093991Y-14678936D02*
X14084467Y-14688460D01*
X14084467Y-14688460D02*
X14065420Y-14697984D01*
X14065420Y-14697984D02*
X14046372Y-14697984D01*
X14046372Y-14697984D02*
X14027324Y-14688460D01*
X14027324Y-14688460D02*
X14017801Y-14678936D01*
X14017801Y-14678936D02*
X14008277Y-14659888D01*
X14008277Y-14659888D02*
X13998753Y-14621793D01*
X13998753Y-14621793D02*
X13998753Y-14574174D01*
X13998753Y-14574174D02*
X14008277Y-14536079D01*
X14008277Y-14536079D02*
X14017801Y-14517031D01*
X14017801Y-14517031D02*
X14027324Y-14507508D01*
X14027324Y-14507508D02*
X14046372Y-14497984D01*
X14198753Y-14678936D02*
X14208277Y-14688460D01*
X14208277Y-14688460D02*
X14198753Y-14697984D01*
X14198753Y-14697984D02*
X14189229Y-14688460D01*
X14189229Y-14688460D02*
X14198753Y-14678936D01*
X14198753Y-14678936D02*
X14198753Y-14697984D01*
X14389229Y-14497984D02*
X14293991Y-14497984D01*
X14293991Y-14497984D02*
X14284467Y-14593222D01*
X14284467Y-14593222D02*
X14293991Y-14583698D01*
X14293991Y-14583698D02*
X14313039Y-14574174D01*
X14313039Y-14574174D02*
X14360658Y-14574174D01*
X14360658Y-14574174D02*
X14379705Y-14583698D01*
X14379705Y-14583698D02*
X14389229Y-14593222D01*
X14389229Y-14593222D02*
X14398753Y-14612269D01*
X14398753Y-14612269D02*
X14398753Y-14659888D01*
X14398753Y-14659888D02*
X14389229Y-14678936D01*
X14389229Y-14678936D02*
X14379705Y-14688460D01*
X14379705Y-14688460D02*
X14360658Y-14697984D01*
X14360658Y-14697984D02*
X14313039Y-14697984D01*
X14313039Y-14697984D02*
X14293991Y-14688460D01*
X14293991Y-14688460D02*
X14284467Y-14678936D01*
X14522562Y-14497984D02*
X14541610Y-14497984D01*
X14541610Y-14497984D02*
X14560658Y-14507508D01*
X14560658Y-14507508D02*
X14570182Y-14517031D01*
X14570182Y-14517031D02*
X14579705Y-14536079D01*
X14579705Y-14536079D02*
X14589229Y-14574174D01*
X14589229Y-14574174D02*
X14589229Y-14621793D01*
X14589229Y-14621793D02*
X14579705Y-14659888D01*
X14579705Y-14659888D02*
X14570182Y-14678936D01*
X14570182Y-14678936D02*
X14560658Y-14688460D01*
X14560658Y-14688460D02*
X14541610Y-14697984D01*
X14541610Y-14697984D02*
X14522562Y-14697984D01*
X14522562Y-14697984D02*
X14503515Y-14688460D01*
X14503515Y-14688460D02*
X14493991Y-14678936D01*
X14493991Y-14678936D02*
X14484467Y-14659888D01*
X14484467Y-14659888D02*
X14474943Y-14621793D01*
X14474943Y-14621793D02*
X14474943Y-14574174D01*
X14474943Y-14574174D02*
X14484467Y-14536079D01*
X14484467Y-14536079D02*
X14493991Y-14517031D01*
X14493991Y-14517031D02*
X14503515Y-14507508D01*
X14503515Y-14507508D02*
X14522562Y-14497984D01*
X14713039Y-14497984D02*
X14732086Y-14497984D01*
X14732086Y-14497984D02*
X14751134Y-14507508D01*
X14751134Y-14507508D02*
X14760658Y-14517031D01*
X14760658Y-14517031D02*
X14770182Y-14536079D01*
X14770182Y-14536079D02*
X14779705Y-14574174D01*
X14779705Y-14574174D02*
X14779705Y-14621793D01*
X14779705Y-14621793D02*
X14770182Y-14659888D01*
X14770182Y-14659888D02*
X14760658Y-14678936D01*
X14760658Y-14678936D02*
X14751134Y-14688460D01*
X14751134Y-14688460D02*
X14732086Y-14697984D01*
X14732086Y-14697984D02*
X14713039Y-14697984D01*
X14713039Y-14697984D02*
X14693991Y-14688460D01*
X14693991Y-14688460D02*
X14684467Y-14678936D01*
X14684467Y-14678936D02*
X14674943Y-14659888D01*
X14674943Y-14659888D02*
X14665420Y-14621793D01*
X14665420Y-14621793D02*
X14665420Y-14574174D01*
X14665420Y-14574174D02*
X14674943Y-14536079D01*
X14674943Y-14536079D02*
X14684467Y-14517031D01*
X14684467Y-14517031D02*
X14693991Y-14507508D01*
X14693991Y-14507508D02*
X14713039Y-14497984D01*
X14865420Y-14697984D02*
X14865420Y-14564650D01*
X14865420Y-14583698D02*
X14874943Y-14574174D01*
X14874943Y-14574174D02*
X14893991Y-14564650D01*
X14893991Y-14564650D02*
X14922563Y-14564650D01*
X14922563Y-14564650D02*
X14941610Y-14574174D01*
X14941610Y-14574174D02*
X14951134Y-14593222D01*
X14951134Y-14593222D02*
X14951134Y-14697984D01*
X14951134Y-14593222D02*
X14960658Y-14574174D01*
X14960658Y-14574174D02*
X14979705Y-14564650D01*
X14979705Y-14564650D02*
X15008277Y-14564650D01*
X15008277Y-14564650D02*
X15027324Y-14574174D01*
X15027324Y-14574174D02*
X15036848Y-14593222D01*
X15036848Y-14593222D02*
X15036848Y-14697984D01*
X15132086Y-14697984D02*
X15132086Y-14564650D01*
X15132086Y-14583698D02*
X15141610Y-14574174D01*
X15141610Y-14574174D02*
X15160658Y-14564650D01*
X15160658Y-14564650D02*
X15189229Y-14564650D01*
X15189229Y-14564650D02*
X15208277Y-14574174D01*
X15208277Y-14574174D02*
X15217801Y-14593222D01*
X15217801Y-14593222D02*
X15217801Y-14697984D01*
X15217801Y-14593222D02*
X15227324Y-14574174D01*
X15227324Y-14574174D02*
X15246372Y-14564650D01*
X15246372Y-14564650D02*
X15274943Y-14564650D01*
X15274943Y-14564650D02*
X15293991Y-14574174D01*
X15293991Y-14574174D02*
X15303515Y-14593222D01*
X15303515Y-14593222D02*
X15303515Y-14697984D01*
X15693991Y-14488460D02*
X15522563Y-14745603D01*
X15951134Y-14497984D02*
X15970182Y-14497984D01*
X15970182Y-14497984D02*
X15989229Y-14507508D01*
X15989229Y-14507508D02*
X15998753Y-14517031D01*
X15998753Y-14517031D02*
X16008277Y-14536079D01*
X16008277Y-14536079D02*
X16017801Y-14574174D01*
X16017801Y-14574174D02*
X16017801Y-14621793D01*
X16017801Y-14621793D02*
X16008277Y-14659888D01*
X16008277Y-14659888D02*
X15998753Y-14678936D01*
X15998753Y-14678936D02*
X15989229Y-14688460D01*
X15989229Y-14688460D02*
X15970182Y-14697984D01*
X15970182Y-14697984D02*
X15951134Y-14697984D01*
X15951134Y-14697984D02*
X15932086Y-14688460D01*
X15932086Y-14688460D02*
X15922563Y-14678936D01*
X15922563Y-14678936D02*
X15913039Y-14659888D01*
X15913039Y-14659888D02*
X15903515Y-14621793D01*
X15903515Y-14621793D02*
X15903515Y-14574174D01*
X15903515Y-14574174D02*
X15913039Y-14536079D01*
X15913039Y-14536079D02*
X15922563Y-14517031D01*
X15922563Y-14517031D02*
X15932086Y-14507508D01*
X15932086Y-14507508D02*
X15951134Y-14497984D01*
X16103515Y-14678936D02*
X16113039Y-14688460D01*
X16113039Y-14688460D02*
X16103515Y-14697984D01*
X16103515Y-14697984D02*
X16093991Y-14688460D01*
X16093991Y-14688460D02*
X16103515Y-14678936D01*
X16103515Y-14678936D02*
X16103515Y-14697984D01*
X16236848Y-14497984D02*
X16255896Y-14497984D01*
X16255896Y-14497984D02*
X16274944Y-14507508D01*
X16274944Y-14507508D02*
X16284467Y-14517031D01*
X16284467Y-14517031D02*
X16293991Y-14536079D01*
X16293991Y-14536079D02*
X16303515Y-14574174D01*
X16303515Y-14574174D02*
X16303515Y-14621793D01*
X16303515Y-14621793D02*
X16293991Y-14659888D01*
X16293991Y-14659888D02*
X16284467Y-14678936D01*
X16284467Y-14678936D02*
X16274944Y-14688460D01*
X16274944Y-14688460D02*
X16255896Y-14697984D01*
X16255896Y-14697984D02*
X16236848Y-14697984D01*
X16236848Y-14697984D02*
X16217801Y-14688460D01*
X16217801Y-14688460D02*
X16208277Y-14678936D01*
X16208277Y-14678936D02*
X16198753Y-14659888D01*
X16198753Y-14659888D02*
X16189229Y-14621793D01*
X16189229Y-14621793D02*
X16189229Y-14574174D01*
X16189229Y-14574174D02*
X16198753Y-14536079D01*
X16198753Y-14536079D02*
X16208277Y-14517031D01*
X16208277Y-14517031D02*
X16217801Y-14507508D01*
X16217801Y-14507508D02*
X16236848Y-14497984D01*
X16493991Y-14697984D02*
X16379706Y-14697984D01*
X16436848Y-14697984D02*
X16436848Y-14497984D01*
X16436848Y-14497984D02*
X16417801Y-14526555D01*
X16417801Y-14526555D02*
X16398753Y-14545603D01*
X16398753Y-14545603D02*
X16379706Y-14555127D01*
X16589229Y-14697984D02*
X16627325Y-14697984D01*
X16627325Y-14697984D02*
X16646372Y-14688460D01*
X16646372Y-14688460D02*
X16655896Y-14678936D01*
X16655896Y-14678936D02*
X16674944Y-14650365D01*
X16674944Y-14650365D02*
X16684467Y-14612269D01*
X16684467Y-14612269D02*
X16684467Y-14536079D01*
X16684467Y-14536079D02*
X16674944Y-14517031D01*
X16674944Y-14517031D02*
X16665420Y-14507508D01*
X16665420Y-14507508D02*
X16646372Y-14497984D01*
X16646372Y-14497984D02*
X16608277Y-14497984D01*
X16608277Y-14497984D02*
X16589229Y-14507508D01*
X16589229Y-14507508D02*
X16579706Y-14517031D01*
X16579706Y-14517031D02*
X16570182Y-14536079D01*
X16570182Y-14536079D02*
X16570182Y-14583698D01*
X16570182Y-14583698D02*
X16579706Y-14602746D01*
X16579706Y-14602746D02*
X16589229Y-14612269D01*
X16589229Y-14612269D02*
X16608277Y-14621793D01*
X16608277Y-14621793D02*
X16646372Y-14621793D01*
X16646372Y-14621793D02*
X16665420Y-14612269D01*
X16665420Y-14612269D02*
X16674944Y-14602746D01*
X16674944Y-14602746D02*
X16684467Y-14583698D01*
X16751134Y-14497984D02*
X16884468Y-14497984D01*
X16884468Y-14497984D02*
X16798753Y-14697984D01*
X16951134Y-14497984D02*
X16951134Y-14536079D01*
X17027325Y-14497984D02*
X17027325Y-14536079D01*
X17322563Y-14774174D02*
X17313039Y-14764650D01*
X17313039Y-14764650D02*
X17293991Y-14736079D01*
X17293991Y-14736079D02*
X17284468Y-14717031D01*
X17284468Y-14717031D02*
X17274944Y-14688460D01*
X17274944Y-14688460D02*
X17265420Y-14640841D01*
X17265420Y-14640841D02*
X17265420Y-14602746D01*
X17265420Y-14602746D02*
X17274944Y-14555127D01*
X17274944Y-14555127D02*
X17284468Y-14526555D01*
X17284468Y-14526555D02*
X17293991Y-14507508D01*
X17293991Y-14507508D02*
X17313039Y-14478936D01*
X17313039Y-14478936D02*
X17322563Y-14469412D01*
X17493991Y-14497984D02*
X17398753Y-14497984D01*
X17398753Y-14497984D02*
X17389230Y-14593222D01*
X17389230Y-14593222D02*
X17398753Y-14583698D01*
X17398753Y-14583698D02*
X17417801Y-14574174D01*
X17417801Y-14574174D02*
X17465420Y-14574174D01*
X17465420Y-14574174D02*
X17484468Y-14583698D01*
X17484468Y-14583698D02*
X17493991Y-14593222D01*
X17493991Y-14593222D02*
X17503515Y-14612269D01*
X17503515Y-14612269D02*
X17503515Y-14659888D01*
X17503515Y-14659888D02*
X17493991Y-14678936D01*
X17493991Y-14678936D02*
X17484468Y-14688460D01*
X17484468Y-14688460D02*
X17465420Y-14697984D01*
X17465420Y-14697984D02*
X17417801Y-14697984D01*
X17417801Y-14697984D02*
X17398753Y-14688460D01*
X17398753Y-14688460D02*
X17389230Y-14678936D01*
X17741611Y-14697984D02*
X17741611Y-14497984D01*
X17827325Y-14697984D02*
X17827325Y-14593222D01*
X17827325Y-14593222D02*
X17817801Y-14574174D01*
X17817801Y-14574174D02*
X17798753Y-14564650D01*
X17798753Y-14564650D02*
X17770182Y-14564650D01*
X17770182Y-14564650D02*
X17751134Y-14574174D01*
X17751134Y-14574174D02*
X17741611Y-14583698D01*
X17951134Y-14697984D02*
X17932087Y-14688460D01*
X17932087Y-14688460D02*
X17922563Y-14678936D01*
X17922563Y-14678936D02*
X17913039Y-14659888D01*
X17913039Y-14659888D02*
X17913039Y-14602746D01*
X17913039Y-14602746D02*
X17922563Y-14583698D01*
X17922563Y-14583698D02*
X17932087Y-14574174D01*
X17932087Y-14574174D02*
X17951134Y-14564650D01*
X17951134Y-14564650D02*
X17979706Y-14564650D01*
X17979706Y-14564650D02*
X17998753Y-14574174D01*
X17998753Y-14574174D02*
X18008277Y-14583698D01*
X18008277Y-14583698D02*
X18017801Y-14602746D01*
X18017801Y-14602746D02*
X18017801Y-14659888D01*
X18017801Y-14659888D02*
X18008277Y-14678936D01*
X18008277Y-14678936D02*
X17998753Y-14688460D01*
X17998753Y-14688460D02*
X17979706Y-14697984D01*
X17979706Y-14697984D02*
X17951134Y-14697984D01*
X18132087Y-14697984D02*
X18113039Y-14688460D01*
X18113039Y-14688460D02*
X18103515Y-14669412D01*
X18103515Y-14669412D02*
X18103515Y-14497984D01*
X18284468Y-14688460D02*
X18265420Y-14697984D01*
X18265420Y-14697984D02*
X18227325Y-14697984D01*
X18227325Y-14697984D02*
X18208277Y-14688460D01*
X18208277Y-14688460D02*
X18198753Y-14669412D01*
X18198753Y-14669412D02*
X18198753Y-14593222D01*
X18198753Y-14593222D02*
X18208277Y-14574174D01*
X18208277Y-14574174D02*
X18227325Y-14564650D01*
X18227325Y-14564650D02*
X18265420Y-14564650D01*
X18265420Y-14564650D02*
X18284468Y-14574174D01*
X18284468Y-14574174D02*
X18293992Y-14593222D01*
X18293992Y-14593222D02*
X18293992Y-14612269D01*
X18293992Y-14612269D02*
X18198753Y-14631317D01*
X18370182Y-14688460D02*
X18389230Y-14697984D01*
X18389230Y-14697984D02*
X18427325Y-14697984D01*
X18427325Y-14697984D02*
X18446373Y-14688460D01*
X18446373Y-14688460D02*
X18455896Y-14669412D01*
X18455896Y-14669412D02*
X18455896Y-14659888D01*
X18455896Y-14659888D02*
X18446373Y-14640841D01*
X18446373Y-14640841D02*
X18427325Y-14631317D01*
X18427325Y-14631317D02*
X18398753Y-14631317D01*
X18398753Y-14631317D02*
X18379706Y-14621793D01*
X18379706Y-14621793D02*
X18370182Y-14602746D01*
X18370182Y-14602746D02*
X18370182Y-14593222D01*
X18370182Y-14593222D02*
X18379706Y-14574174D01*
X18379706Y-14574174D02*
X18398753Y-14564650D01*
X18398753Y-14564650D02*
X18427325Y-14564650D01*
X18427325Y-14564650D02*
X18446373Y-14574174D01*
X18522563Y-14774174D02*
X18532087Y-14764650D01*
X18532087Y-14764650D02*
X18551134Y-14736079D01*
X18551134Y-14736079D02*
X18560658Y-14717031D01*
X18560658Y-14717031D02*
X18570182Y-14688460D01*
X18570182Y-14688460D02*
X18579706Y-14640841D01*
X18579706Y-14640841D02*
X18579706Y-14602746D01*
X18579706Y-14602746D02*
X18570182Y-14555127D01*
X18570182Y-14555127D02*
X18560658Y-14526555D01*
X18560658Y-14526555D02*
X18551134Y-14507508D01*
X18551134Y-14507508D02*
X18532087Y-14478936D01*
X18532087Y-14478936D02*
X18522563Y-14469412D01*
D12*
X13717500Y-14840500D02*
X13717500Y-14900500D01*
X13687500Y-14870500D02*
X13747500Y-14870500D01*
D11*
X14046372Y-14761984D02*
X14065420Y-14761984D01*
X14065420Y-14761984D02*
X14084467Y-14771508D01*
X14084467Y-14771508D02*
X14093991Y-14781031D01*
X14093991Y-14781031D02*
X14103515Y-14800079D01*
X14103515Y-14800079D02*
X14113039Y-14838174D01*
X14113039Y-14838174D02*
X14113039Y-14885793D01*
X14113039Y-14885793D02*
X14103515Y-14923888D01*
X14103515Y-14923888D02*
X14093991Y-14942936D01*
X14093991Y-14942936D02*
X14084467Y-14952460D01*
X14084467Y-14952460D02*
X14065420Y-14961984D01*
X14065420Y-14961984D02*
X14046372Y-14961984D01*
X14046372Y-14961984D02*
X14027324Y-14952460D01*
X14027324Y-14952460D02*
X14017801Y-14942936D01*
X14017801Y-14942936D02*
X14008277Y-14923888D01*
X14008277Y-14923888D02*
X13998753Y-14885793D01*
X13998753Y-14885793D02*
X13998753Y-14838174D01*
X13998753Y-14838174D02*
X14008277Y-14800079D01*
X14008277Y-14800079D02*
X14017801Y-14781031D01*
X14017801Y-14781031D02*
X14027324Y-14771508D01*
X14027324Y-14771508D02*
X14046372Y-14761984D01*
X14198753Y-14942936D02*
X14208277Y-14952460D01*
X14208277Y-14952460D02*
X14198753Y-14961984D01*
X14198753Y-14961984D02*
X14189229Y-14952460D01*
X14189229Y-14952460D02*
X14198753Y-14942936D01*
X14198753Y-14942936D02*
X14198753Y-14961984D01*
X14379705Y-14761984D02*
X14341610Y-14761984D01*
X14341610Y-14761984D02*
X14322562Y-14771508D01*
X14322562Y-14771508D02*
X14313039Y-14781031D01*
X14313039Y-14781031D02*
X14293991Y-14809603D01*
X14293991Y-14809603D02*
X14284467Y-14847698D01*
X14284467Y-14847698D02*
X14284467Y-14923888D01*
X14284467Y-14923888D02*
X14293991Y-14942936D01*
X14293991Y-14942936D02*
X14303515Y-14952460D01*
X14303515Y-14952460D02*
X14322562Y-14961984D01*
X14322562Y-14961984D02*
X14360658Y-14961984D01*
X14360658Y-14961984D02*
X14379705Y-14952460D01*
X14379705Y-14952460D02*
X14389229Y-14942936D01*
X14389229Y-14942936D02*
X14398753Y-14923888D01*
X14398753Y-14923888D02*
X14398753Y-14876269D01*
X14398753Y-14876269D02*
X14389229Y-14857222D01*
X14389229Y-14857222D02*
X14379705Y-14847698D01*
X14379705Y-14847698D02*
X14360658Y-14838174D01*
X14360658Y-14838174D02*
X14322562Y-14838174D01*
X14322562Y-14838174D02*
X14303515Y-14847698D01*
X14303515Y-14847698D02*
X14293991Y-14857222D01*
X14293991Y-14857222D02*
X14284467Y-14876269D01*
X14522562Y-14761984D02*
X14541610Y-14761984D01*
X14541610Y-14761984D02*
X14560658Y-14771508D01*
X14560658Y-14771508D02*
X14570182Y-14781031D01*
X14570182Y-14781031D02*
X14579705Y-14800079D01*
X14579705Y-14800079D02*
X14589229Y-14838174D01*
X14589229Y-14838174D02*
X14589229Y-14885793D01*
X14589229Y-14885793D02*
X14579705Y-14923888D01*
X14579705Y-14923888D02*
X14570182Y-14942936D01*
X14570182Y-14942936D02*
X14560658Y-14952460D01*
X14560658Y-14952460D02*
X14541610Y-14961984D01*
X14541610Y-14961984D02*
X14522562Y-14961984D01*
X14522562Y-14961984D02*
X14503515Y-14952460D01*
X14503515Y-14952460D02*
X14493991Y-14942936D01*
X14493991Y-14942936D02*
X14484467Y-14923888D01*
X14484467Y-14923888D02*
X14474943Y-14885793D01*
X14474943Y-14885793D02*
X14474943Y-14838174D01*
X14474943Y-14838174D02*
X14484467Y-14800079D01*
X14484467Y-14800079D02*
X14493991Y-14781031D01*
X14493991Y-14781031D02*
X14503515Y-14771508D01*
X14503515Y-14771508D02*
X14522562Y-14761984D01*
X14713039Y-14761984D02*
X14732086Y-14761984D01*
X14732086Y-14761984D02*
X14751134Y-14771508D01*
X14751134Y-14771508D02*
X14760658Y-14781031D01*
X14760658Y-14781031D02*
X14770182Y-14800079D01*
X14770182Y-14800079D02*
X14779705Y-14838174D01*
X14779705Y-14838174D02*
X14779705Y-14885793D01*
X14779705Y-14885793D02*
X14770182Y-14923888D01*
X14770182Y-14923888D02*
X14760658Y-14942936D01*
X14760658Y-14942936D02*
X14751134Y-14952460D01*
X14751134Y-14952460D02*
X14732086Y-14961984D01*
X14732086Y-14961984D02*
X14713039Y-14961984D01*
X14713039Y-14961984D02*
X14693991Y-14952460D01*
X14693991Y-14952460D02*
X14684467Y-14942936D01*
X14684467Y-14942936D02*
X14674943Y-14923888D01*
X14674943Y-14923888D02*
X14665420Y-14885793D01*
X14665420Y-14885793D02*
X14665420Y-14838174D01*
X14665420Y-14838174D02*
X14674943Y-14800079D01*
X14674943Y-14800079D02*
X14684467Y-14781031D01*
X14684467Y-14781031D02*
X14693991Y-14771508D01*
X14693991Y-14771508D02*
X14713039Y-14761984D01*
X14865420Y-14961984D02*
X14865420Y-14828650D01*
X14865420Y-14847698D02*
X14874943Y-14838174D01*
X14874943Y-14838174D02*
X14893991Y-14828650D01*
X14893991Y-14828650D02*
X14922563Y-14828650D01*
X14922563Y-14828650D02*
X14941610Y-14838174D01*
X14941610Y-14838174D02*
X14951134Y-14857222D01*
X14951134Y-14857222D02*
X14951134Y-14961984D01*
X14951134Y-14857222D02*
X14960658Y-14838174D01*
X14960658Y-14838174D02*
X14979705Y-14828650D01*
X14979705Y-14828650D02*
X15008277Y-14828650D01*
X15008277Y-14828650D02*
X15027324Y-14838174D01*
X15027324Y-14838174D02*
X15036848Y-14857222D01*
X15036848Y-14857222D02*
X15036848Y-14961984D01*
X15132086Y-14961984D02*
X15132086Y-14828650D01*
X15132086Y-14847698D02*
X15141610Y-14838174D01*
X15141610Y-14838174D02*
X15160658Y-14828650D01*
X15160658Y-14828650D02*
X15189229Y-14828650D01*
X15189229Y-14828650D02*
X15208277Y-14838174D01*
X15208277Y-14838174D02*
X15217801Y-14857222D01*
X15217801Y-14857222D02*
X15217801Y-14961984D01*
X15217801Y-14857222D02*
X15227324Y-14838174D01*
X15227324Y-14838174D02*
X15246372Y-14828650D01*
X15246372Y-14828650D02*
X15274943Y-14828650D01*
X15274943Y-14828650D02*
X15293991Y-14838174D01*
X15293991Y-14838174D02*
X15303515Y-14857222D01*
X15303515Y-14857222D02*
X15303515Y-14961984D01*
X15693991Y-14752460D02*
X15522563Y-15009603D01*
X15951134Y-14761984D02*
X15970182Y-14761984D01*
X15970182Y-14761984D02*
X15989229Y-14771508D01*
X15989229Y-14771508D02*
X15998753Y-14781031D01*
X15998753Y-14781031D02*
X16008277Y-14800079D01*
X16008277Y-14800079D02*
X16017801Y-14838174D01*
X16017801Y-14838174D02*
X16017801Y-14885793D01*
X16017801Y-14885793D02*
X16008277Y-14923888D01*
X16008277Y-14923888D02*
X15998753Y-14942936D01*
X15998753Y-14942936D02*
X15989229Y-14952460D01*
X15989229Y-14952460D02*
X15970182Y-14961984D01*
X15970182Y-14961984D02*
X15951134Y-14961984D01*
X15951134Y-14961984D02*
X15932086Y-14952460D01*
X15932086Y-14952460D02*
X15922563Y-14942936D01*
X15922563Y-14942936D02*
X15913039Y-14923888D01*
X15913039Y-14923888D02*
X15903515Y-14885793D01*
X15903515Y-14885793D02*
X15903515Y-14838174D01*
X15903515Y-14838174D02*
X15913039Y-14800079D01*
X15913039Y-14800079D02*
X15922563Y-14781031D01*
X15922563Y-14781031D02*
X15932086Y-14771508D01*
X15932086Y-14771508D02*
X15951134Y-14761984D01*
X16103515Y-14942936D02*
X16113039Y-14952460D01*
X16113039Y-14952460D02*
X16103515Y-14961984D01*
X16103515Y-14961984D02*
X16093991Y-14952460D01*
X16093991Y-14952460D02*
X16103515Y-14942936D01*
X16103515Y-14942936D02*
X16103515Y-14961984D01*
X16236848Y-14761984D02*
X16255896Y-14761984D01*
X16255896Y-14761984D02*
X16274944Y-14771508D01*
X16274944Y-14771508D02*
X16284467Y-14781031D01*
X16284467Y-14781031D02*
X16293991Y-14800079D01*
X16293991Y-14800079D02*
X16303515Y-14838174D01*
X16303515Y-14838174D02*
X16303515Y-14885793D01*
X16303515Y-14885793D02*
X16293991Y-14923888D01*
X16293991Y-14923888D02*
X16284467Y-14942936D01*
X16284467Y-14942936D02*
X16274944Y-14952460D01*
X16274944Y-14952460D02*
X16255896Y-14961984D01*
X16255896Y-14961984D02*
X16236848Y-14961984D01*
X16236848Y-14961984D02*
X16217801Y-14952460D01*
X16217801Y-14952460D02*
X16208277Y-14942936D01*
X16208277Y-14942936D02*
X16198753Y-14923888D01*
X16198753Y-14923888D02*
X16189229Y-14885793D01*
X16189229Y-14885793D02*
X16189229Y-14838174D01*
X16189229Y-14838174D02*
X16198753Y-14800079D01*
X16198753Y-14800079D02*
X16208277Y-14781031D01*
X16208277Y-14781031D02*
X16217801Y-14771508D01*
X16217801Y-14771508D02*
X16236848Y-14761984D01*
X16379706Y-14781031D02*
X16389229Y-14771508D01*
X16389229Y-14771508D02*
X16408277Y-14761984D01*
X16408277Y-14761984D02*
X16455896Y-14761984D01*
X16455896Y-14761984D02*
X16474944Y-14771508D01*
X16474944Y-14771508D02*
X16484467Y-14781031D01*
X16484467Y-14781031D02*
X16493991Y-14800079D01*
X16493991Y-14800079D02*
X16493991Y-14819127D01*
X16493991Y-14819127D02*
X16484467Y-14847698D01*
X16484467Y-14847698D02*
X16370182Y-14961984D01*
X16370182Y-14961984D02*
X16493991Y-14961984D01*
X16560658Y-14761984D02*
X16684467Y-14761984D01*
X16684467Y-14761984D02*
X16617801Y-14838174D01*
X16617801Y-14838174D02*
X16646372Y-14838174D01*
X16646372Y-14838174D02*
X16665420Y-14847698D01*
X16665420Y-14847698D02*
X16674944Y-14857222D01*
X16674944Y-14857222D02*
X16684467Y-14876269D01*
X16684467Y-14876269D02*
X16684467Y-14923888D01*
X16684467Y-14923888D02*
X16674944Y-14942936D01*
X16674944Y-14942936D02*
X16665420Y-14952460D01*
X16665420Y-14952460D02*
X16646372Y-14961984D01*
X16646372Y-14961984D02*
X16589229Y-14961984D01*
X16589229Y-14961984D02*
X16570182Y-14952460D01*
X16570182Y-14952460D02*
X16560658Y-14942936D01*
X16855896Y-14761984D02*
X16817801Y-14761984D01*
X16817801Y-14761984D02*
X16798753Y-14771508D01*
X16798753Y-14771508D02*
X16789229Y-14781031D01*
X16789229Y-14781031D02*
X16770182Y-14809603D01*
X16770182Y-14809603D02*
X16760658Y-14847698D01*
X16760658Y-14847698D02*
X16760658Y-14923888D01*
X16760658Y-14923888D02*
X16770182Y-14942936D01*
X16770182Y-14942936D02*
X16779706Y-14952460D01*
X16779706Y-14952460D02*
X16798753Y-14961984D01*
X16798753Y-14961984D02*
X16836849Y-14961984D01*
X16836849Y-14961984D02*
X16855896Y-14952460D01*
X16855896Y-14952460D02*
X16865420Y-14942936D01*
X16865420Y-14942936D02*
X16874944Y-14923888D01*
X16874944Y-14923888D02*
X16874944Y-14876269D01*
X16874944Y-14876269D02*
X16865420Y-14857222D01*
X16865420Y-14857222D02*
X16855896Y-14847698D01*
X16855896Y-14847698D02*
X16836849Y-14838174D01*
X16836849Y-14838174D02*
X16798753Y-14838174D01*
X16798753Y-14838174D02*
X16779706Y-14847698D01*
X16779706Y-14847698D02*
X16770182Y-14857222D01*
X16770182Y-14857222D02*
X16760658Y-14876269D01*
X16951134Y-14761984D02*
X16951134Y-14800079D01*
X17027325Y-14761984D02*
X17027325Y-14800079D01*
X17322563Y-15038174D02*
X17313039Y-15028650D01*
X17313039Y-15028650D02*
X17293991Y-15000079D01*
X17293991Y-15000079D02*
X17284468Y-14981031D01*
X17284468Y-14981031D02*
X17274944Y-14952460D01*
X17274944Y-14952460D02*
X17265420Y-14904841D01*
X17265420Y-14904841D02*
X17265420Y-14866746D01*
X17265420Y-14866746D02*
X17274944Y-14819127D01*
X17274944Y-14819127D02*
X17284468Y-14790555D01*
X17284468Y-14790555D02*
X17293991Y-14771508D01*
X17293991Y-14771508D02*
X17313039Y-14742936D01*
X17313039Y-14742936D02*
X17322563Y-14733412D01*
X17436849Y-14761984D02*
X17455896Y-14761984D01*
X17455896Y-14761984D02*
X17474944Y-14771508D01*
X17474944Y-14771508D02*
X17484468Y-14781031D01*
X17484468Y-14781031D02*
X17493991Y-14800079D01*
X17493991Y-14800079D02*
X17503515Y-14838174D01*
X17503515Y-14838174D02*
X17503515Y-14885793D01*
X17503515Y-14885793D02*
X17493991Y-14923888D01*
X17493991Y-14923888D02*
X17484468Y-14942936D01*
X17484468Y-14942936D02*
X17474944Y-14952460D01*
X17474944Y-14952460D02*
X17455896Y-14961984D01*
X17455896Y-14961984D02*
X17436849Y-14961984D01*
X17436849Y-14961984D02*
X17417801Y-14952460D01*
X17417801Y-14952460D02*
X17408277Y-14942936D01*
X17408277Y-14942936D02*
X17398753Y-14923888D01*
X17398753Y-14923888D02*
X17389230Y-14885793D01*
X17389230Y-14885793D02*
X17389230Y-14838174D01*
X17389230Y-14838174D02*
X17398753Y-14800079D01*
X17398753Y-14800079D02*
X17408277Y-14781031D01*
X17408277Y-14781031D02*
X17417801Y-14771508D01*
X17417801Y-14771508D02*
X17436849Y-14761984D01*
X17741611Y-14961984D02*
X17741611Y-14761984D01*
X17827325Y-14961984D02*
X17827325Y-14857222D01*
X17827325Y-14857222D02*
X17817801Y-14838174D01*
X17817801Y-14838174D02*
X17798753Y-14828650D01*
X17798753Y-14828650D02*
X17770182Y-14828650D01*
X17770182Y-14828650D02*
X17751134Y-14838174D01*
X17751134Y-14838174D02*
X17741611Y-14847698D01*
X17951134Y-14961984D02*
X17932087Y-14952460D01*
X17932087Y-14952460D02*
X17922563Y-14942936D01*
X17922563Y-14942936D02*
X17913039Y-14923888D01*
X17913039Y-14923888D02*
X17913039Y-14866746D01*
X17913039Y-14866746D02*
X17922563Y-14847698D01*
X17922563Y-14847698D02*
X17932087Y-14838174D01*
X17932087Y-14838174D02*
X17951134Y-14828650D01*
X17951134Y-14828650D02*
X17979706Y-14828650D01*
X17979706Y-14828650D02*
X17998753Y-14838174D01*
X17998753Y-14838174D02*
X18008277Y-14847698D01*
X18008277Y-14847698D02*
X18017801Y-14866746D01*
X18017801Y-14866746D02*
X18017801Y-14923888D01*
X18017801Y-14923888D02*
X18008277Y-14942936D01*
X18008277Y-14942936D02*
X17998753Y-14952460D01*
X17998753Y-14952460D02*
X17979706Y-14961984D01*
X17979706Y-14961984D02*
X17951134Y-14961984D01*
X18132087Y-14961984D02*
X18113039Y-14952460D01*
X18113039Y-14952460D02*
X18103515Y-14933412D01*
X18103515Y-14933412D02*
X18103515Y-14761984D01*
X18284468Y-14952460D02*
X18265420Y-14961984D01*
X18265420Y-14961984D02*
X18227325Y-14961984D01*
X18227325Y-14961984D02*
X18208277Y-14952460D01*
X18208277Y-14952460D02*
X18198753Y-14933412D01*
X18198753Y-14933412D02*
X18198753Y-14857222D01*
X18198753Y-14857222D02*
X18208277Y-14838174D01*
X18208277Y-14838174D02*
X18227325Y-14828650D01*
X18227325Y-14828650D02*
X18265420Y-14828650D01*
X18265420Y-14828650D02*
X18284468Y-14838174D01*
X18284468Y-14838174D02*
X18293992Y-14857222D01*
X18293992Y-14857222D02*
X18293992Y-14876269D01*
X18293992Y-14876269D02*
X18198753Y-14895317D01*
X18370182Y-14952460D02*
X18389230Y-14961984D01*
X18389230Y-14961984D02*
X18427325Y-14961984D01*
X18427325Y-14961984D02*
X18446373Y-14952460D01*
X18446373Y-14952460D02*
X18455896Y-14933412D01*
X18455896Y-14933412D02*
X18455896Y-14923888D01*
X18455896Y-14923888D02*
X18446373Y-14904841D01*
X18446373Y-14904841D02*
X18427325Y-14895317D01*
X18427325Y-14895317D02*
X18398753Y-14895317D01*
X18398753Y-14895317D02*
X18379706Y-14885793D01*
X18379706Y-14885793D02*
X18370182Y-14866746D01*
X18370182Y-14866746D02*
X18370182Y-14857222D01*
X18370182Y-14857222D02*
X18379706Y-14838174D01*
X18379706Y-14838174D02*
X18398753Y-14828650D01*
X18398753Y-14828650D02*
X18427325Y-14828650D01*
X18427325Y-14828650D02*
X18446373Y-14838174D01*
X18693992Y-14885793D02*
X18846373Y-14885793D01*
X18770182Y-14961984D02*
X18770182Y-14809603D01*
X19179706Y-14828650D02*
X19179706Y-14961984D01*
X19132087Y-14752460D02*
X19084468Y-14895317D01*
X19084468Y-14895317D02*
X19208277Y-14895317D01*
X19427325Y-14952460D02*
X19446373Y-14961984D01*
X19446373Y-14961984D02*
X19484468Y-14961984D01*
X19484468Y-14961984D02*
X19503516Y-14952460D01*
X19503516Y-14952460D02*
X19513039Y-14933412D01*
X19513039Y-14933412D02*
X19513039Y-14923888D01*
X19513039Y-14923888D02*
X19503516Y-14904841D01*
X19503516Y-14904841D02*
X19484468Y-14895317D01*
X19484468Y-14895317D02*
X19455896Y-14895317D01*
X19455896Y-14895317D02*
X19436849Y-14885793D01*
X19436849Y-14885793D02*
X19427325Y-14866746D01*
X19427325Y-14866746D02*
X19427325Y-14857222D01*
X19427325Y-14857222D02*
X19436849Y-14838174D01*
X19436849Y-14838174D02*
X19455896Y-14828650D01*
X19455896Y-14828650D02*
X19484468Y-14828650D01*
X19484468Y-14828650D02*
X19503516Y-14838174D01*
X19627325Y-14961984D02*
X19608277Y-14952460D01*
X19608277Y-14952460D02*
X19598754Y-14933412D01*
X19598754Y-14933412D02*
X19598754Y-14761984D01*
X19732087Y-14961984D02*
X19713039Y-14952460D01*
X19713039Y-14952460D02*
X19703516Y-14942936D01*
X19703516Y-14942936D02*
X19693992Y-14923888D01*
X19693992Y-14923888D02*
X19693992Y-14866746D01*
X19693992Y-14866746D02*
X19703516Y-14847698D01*
X19703516Y-14847698D02*
X19713039Y-14838174D01*
X19713039Y-14838174D02*
X19732087Y-14828650D01*
X19732087Y-14828650D02*
X19760658Y-14828650D01*
X19760658Y-14828650D02*
X19779706Y-14838174D01*
X19779706Y-14838174D02*
X19789230Y-14847698D01*
X19789230Y-14847698D02*
X19798754Y-14866746D01*
X19798754Y-14866746D02*
X19798754Y-14923888D01*
X19798754Y-14923888D02*
X19789230Y-14942936D01*
X19789230Y-14942936D02*
X19779706Y-14952460D01*
X19779706Y-14952460D02*
X19760658Y-14961984D01*
X19760658Y-14961984D02*
X19732087Y-14961984D01*
X19855897Y-14828650D02*
X19932087Y-14828650D01*
X19884468Y-14761984D02*
X19884468Y-14933412D01*
X19884468Y-14933412D02*
X19893992Y-14952460D01*
X19893992Y-14952460D02*
X19913039Y-14961984D01*
X19913039Y-14961984D02*
X19932087Y-14961984D01*
X19989230Y-14952460D02*
X20008277Y-14961984D01*
X20008277Y-14961984D02*
X20046373Y-14961984D01*
X20046373Y-14961984D02*
X20065420Y-14952460D01*
X20065420Y-14952460D02*
X20074944Y-14933412D01*
X20074944Y-14933412D02*
X20074944Y-14923888D01*
X20074944Y-14923888D02*
X20065420Y-14904841D01*
X20065420Y-14904841D02*
X20046373Y-14895317D01*
X20046373Y-14895317D02*
X20017801Y-14895317D01*
X20017801Y-14895317D02*
X19998754Y-14885793D01*
X19998754Y-14885793D02*
X19989230Y-14866746D01*
X19989230Y-14866746D02*
X19989230Y-14857222D01*
X19989230Y-14857222D02*
X19998754Y-14838174D01*
X19998754Y-14838174D02*
X20017801Y-14828650D01*
X20017801Y-14828650D02*
X20046373Y-14828650D01*
X20046373Y-14828650D02*
X20065420Y-14838174D01*
X20141611Y-15038174D02*
X20151135Y-15028650D01*
X20151135Y-15028650D02*
X20170182Y-15000079D01*
X20170182Y-15000079D02*
X20179706Y-14981031D01*
X20179706Y-14981031D02*
X20189230Y-14952460D01*
X20189230Y-14952460D02*
X20198754Y-14904841D01*
X20198754Y-14904841D02*
X20198754Y-14866746D01*
X20198754Y-14866746D02*
X20189230Y-14819127D01*
X20189230Y-14819127D02*
X20179706Y-14790555D01*
X20179706Y-14790555D02*
X20170182Y-14771508D01*
X20170182Y-14771508D02*
X20151135Y-14742936D01*
X20151135Y-14742936D02*
X20141611Y-14733412D01*
D12*
X13733588Y-15168088D02*
X13733588Y-15100912D01*
X13666412Y-15100912D01*
X13666412Y-15168088D01*
X13733588Y-15168088D01*
D11*
X14046372Y-15025984D02*
X14065420Y-15025984D01*
X14065420Y-15025984D02*
X14084467Y-15035508D01*
X14084467Y-15035508D02*
X14093991Y-15045031D01*
X14093991Y-15045031D02*
X14103515Y-15064079D01*
X14103515Y-15064079D02*
X14113039Y-15102174D01*
X14113039Y-15102174D02*
X14113039Y-15149793D01*
X14113039Y-15149793D02*
X14103515Y-15187888D01*
X14103515Y-15187888D02*
X14093991Y-15206936D01*
X14093991Y-15206936D02*
X14084467Y-15216460D01*
X14084467Y-15216460D02*
X14065420Y-15225984D01*
X14065420Y-15225984D02*
X14046372Y-15225984D01*
X14046372Y-15225984D02*
X14027324Y-15216460D01*
X14027324Y-15216460D02*
X14017801Y-15206936D01*
X14017801Y-15206936D02*
X14008277Y-15187888D01*
X14008277Y-15187888D02*
X13998753Y-15149793D01*
X13998753Y-15149793D02*
X13998753Y-15102174D01*
X13998753Y-15102174D02*
X14008277Y-15064079D01*
X14008277Y-15064079D02*
X14017801Y-15045031D01*
X14017801Y-15045031D02*
X14027324Y-15035508D01*
X14027324Y-15035508D02*
X14046372Y-15025984D01*
X14198753Y-15206936D02*
X14208277Y-15216460D01*
X14208277Y-15216460D02*
X14198753Y-15225984D01*
X14198753Y-15225984D02*
X14189229Y-15216460D01*
X14189229Y-15216460D02*
X14198753Y-15206936D01*
X14198753Y-15206936D02*
X14198753Y-15225984D01*
X14303515Y-15225984D02*
X14341610Y-15225984D01*
X14341610Y-15225984D02*
X14360658Y-15216460D01*
X14360658Y-15216460D02*
X14370182Y-15206936D01*
X14370182Y-15206936D02*
X14389229Y-15178365D01*
X14389229Y-15178365D02*
X14398753Y-15140269D01*
X14398753Y-15140269D02*
X14398753Y-15064079D01*
X14398753Y-15064079D02*
X14389229Y-15045031D01*
X14389229Y-15045031D02*
X14379705Y-15035508D01*
X14379705Y-15035508D02*
X14360658Y-15025984D01*
X14360658Y-15025984D02*
X14322562Y-15025984D01*
X14322562Y-15025984D02*
X14303515Y-15035508D01*
X14303515Y-15035508D02*
X14293991Y-15045031D01*
X14293991Y-15045031D02*
X14284467Y-15064079D01*
X14284467Y-15064079D02*
X14284467Y-15111698D01*
X14284467Y-15111698D02*
X14293991Y-15130746D01*
X14293991Y-15130746D02*
X14303515Y-15140269D01*
X14303515Y-15140269D02*
X14322562Y-15149793D01*
X14322562Y-15149793D02*
X14360658Y-15149793D01*
X14360658Y-15149793D02*
X14379705Y-15140269D01*
X14379705Y-15140269D02*
X14389229Y-15130746D01*
X14389229Y-15130746D02*
X14398753Y-15111698D01*
X14579705Y-15025984D02*
X14484467Y-15025984D01*
X14484467Y-15025984D02*
X14474943Y-15121222D01*
X14474943Y-15121222D02*
X14484467Y-15111698D01*
X14484467Y-15111698D02*
X14503515Y-15102174D01*
X14503515Y-15102174D02*
X14551134Y-15102174D01*
X14551134Y-15102174D02*
X14570182Y-15111698D01*
X14570182Y-15111698D02*
X14579705Y-15121222D01*
X14579705Y-15121222D02*
X14589229Y-15140269D01*
X14589229Y-15140269D02*
X14589229Y-15187888D01*
X14589229Y-15187888D02*
X14579705Y-15206936D01*
X14579705Y-15206936D02*
X14570182Y-15216460D01*
X14570182Y-15216460D02*
X14551134Y-15225984D01*
X14551134Y-15225984D02*
X14503515Y-15225984D01*
X14503515Y-15225984D02*
X14484467Y-15216460D01*
X14484467Y-15216460D02*
X14474943Y-15206936D01*
X14713039Y-15025984D02*
X14732086Y-15025984D01*
X14732086Y-15025984D02*
X14751134Y-15035508D01*
X14751134Y-15035508D02*
X14760658Y-15045031D01*
X14760658Y-15045031D02*
X14770182Y-15064079D01*
X14770182Y-15064079D02*
X14779705Y-15102174D01*
X14779705Y-15102174D02*
X14779705Y-15149793D01*
X14779705Y-15149793D02*
X14770182Y-15187888D01*
X14770182Y-15187888D02*
X14760658Y-15206936D01*
X14760658Y-15206936D02*
X14751134Y-15216460D01*
X14751134Y-15216460D02*
X14732086Y-15225984D01*
X14732086Y-15225984D02*
X14713039Y-15225984D01*
X14713039Y-15225984D02*
X14693991Y-15216460D01*
X14693991Y-15216460D02*
X14684467Y-15206936D01*
X14684467Y-15206936D02*
X14674943Y-15187888D01*
X14674943Y-15187888D02*
X14665420Y-15149793D01*
X14665420Y-15149793D02*
X14665420Y-15102174D01*
X14665420Y-15102174D02*
X14674943Y-15064079D01*
X14674943Y-15064079D02*
X14684467Y-15045031D01*
X14684467Y-15045031D02*
X14693991Y-15035508D01*
X14693991Y-15035508D02*
X14713039Y-15025984D01*
X14865420Y-15225984D02*
X14865420Y-15092650D01*
X14865420Y-15111698D02*
X14874943Y-15102174D01*
X14874943Y-15102174D02*
X14893991Y-15092650D01*
X14893991Y-15092650D02*
X14922563Y-15092650D01*
X14922563Y-15092650D02*
X14941610Y-15102174D01*
X14941610Y-15102174D02*
X14951134Y-15121222D01*
X14951134Y-15121222D02*
X14951134Y-15225984D01*
X14951134Y-15121222D02*
X14960658Y-15102174D01*
X14960658Y-15102174D02*
X14979705Y-15092650D01*
X14979705Y-15092650D02*
X15008277Y-15092650D01*
X15008277Y-15092650D02*
X15027324Y-15102174D01*
X15027324Y-15102174D02*
X15036848Y-15121222D01*
X15036848Y-15121222D02*
X15036848Y-15225984D01*
X15132086Y-15225984D02*
X15132086Y-15092650D01*
X15132086Y-15111698D02*
X15141610Y-15102174D01*
X15141610Y-15102174D02*
X15160658Y-15092650D01*
X15160658Y-15092650D02*
X15189229Y-15092650D01*
X15189229Y-15092650D02*
X15208277Y-15102174D01*
X15208277Y-15102174D02*
X15217801Y-15121222D01*
X15217801Y-15121222D02*
X15217801Y-15225984D01*
X15217801Y-15121222D02*
X15227324Y-15102174D01*
X15227324Y-15102174D02*
X15246372Y-15092650D01*
X15246372Y-15092650D02*
X15274943Y-15092650D01*
X15274943Y-15092650D02*
X15293991Y-15102174D01*
X15293991Y-15102174D02*
X15303515Y-15121222D01*
X15303515Y-15121222D02*
X15303515Y-15225984D01*
X15693991Y-15016460D02*
X15522563Y-15273603D01*
X15951134Y-15025984D02*
X15970182Y-15025984D01*
X15970182Y-15025984D02*
X15989229Y-15035508D01*
X15989229Y-15035508D02*
X15998753Y-15045031D01*
X15998753Y-15045031D02*
X16008277Y-15064079D01*
X16008277Y-15064079D02*
X16017801Y-15102174D01*
X16017801Y-15102174D02*
X16017801Y-15149793D01*
X16017801Y-15149793D02*
X16008277Y-15187888D01*
X16008277Y-15187888D02*
X15998753Y-15206936D01*
X15998753Y-15206936D02*
X15989229Y-15216460D01*
X15989229Y-15216460D02*
X15970182Y-15225984D01*
X15970182Y-15225984D02*
X15951134Y-15225984D01*
X15951134Y-15225984D02*
X15932086Y-15216460D01*
X15932086Y-15216460D02*
X15922563Y-15206936D01*
X15922563Y-15206936D02*
X15913039Y-15187888D01*
X15913039Y-15187888D02*
X15903515Y-15149793D01*
X15903515Y-15149793D02*
X15903515Y-15102174D01*
X15903515Y-15102174D02*
X15913039Y-15064079D01*
X15913039Y-15064079D02*
X15922563Y-15045031D01*
X15922563Y-15045031D02*
X15932086Y-15035508D01*
X15932086Y-15035508D02*
X15951134Y-15025984D01*
X16103515Y-15206936D02*
X16113039Y-15216460D01*
X16113039Y-15216460D02*
X16103515Y-15225984D01*
X16103515Y-15225984D02*
X16093991Y-15216460D01*
X16093991Y-15216460D02*
X16103515Y-15206936D01*
X16103515Y-15206936D02*
X16103515Y-15225984D01*
X16236848Y-15025984D02*
X16255896Y-15025984D01*
X16255896Y-15025984D02*
X16274944Y-15035508D01*
X16274944Y-15035508D02*
X16284467Y-15045031D01*
X16284467Y-15045031D02*
X16293991Y-15064079D01*
X16293991Y-15064079D02*
X16303515Y-15102174D01*
X16303515Y-15102174D02*
X16303515Y-15149793D01*
X16303515Y-15149793D02*
X16293991Y-15187888D01*
X16293991Y-15187888D02*
X16284467Y-15206936D01*
X16284467Y-15206936D02*
X16274944Y-15216460D01*
X16274944Y-15216460D02*
X16255896Y-15225984D01*
X16255896Y-15225984D02*
X16236848Y-15225984D01*
X16236848Y-15225984D02*
X16217801Y-15216460D01*
X16217801Y-15216460D02*
X16208277Y-15206936D01*
X16208277Y-15206936D02*
X16198753Y-15187888D01*
X16198753Y-15187888D02*
X16189229Y-15149793D01*
X16189229Y-15149793D02*
X16189229Y-15102174D01*
X16189229Y-15102174D02*
X16198753Y-15064079D01*
X16198753Y-15064079D02*
X16208277Y-15045031D01*
X16208277Y-15045031D02*
X16217801Y-15035508D01*
X16217801Y-15035508D02*
X16236848Y-15025984D01*
X16370182Y-15025984D02*
X16493991Y-15025984D01*
X16493991Y-15025984D02*
X16427325Y-15102174D01*
X16427325Y-15102174D02*
X16455896Y-15102174D01*
X16455896Y-15102174D02*
X16474944Y-15111698D01*
X16474944Y-15111698D02*
X16484467Y-15121222D01*
X16484467Y-15121222D02*
X16493991Y-15140269D01*
X16493991Y-15140269D02*
X16493991Y-15187888D01*
X16493991Y-15187888D02*
X16484467Y-15206936D01*
X16484467Y-15206936D02*
X16474944Y-15216460D01*
X16474944Y-15216460D02*
X16455896Y-15225984D01*
X16455896Y-15225984D02*
X16398753Y-15225984D01*
X16398753Y-15225984D02*
X16379706Y-15216460D01*
X16379706Y-15216460D02*
X16370182Y-15206936D01*
X16560658Y-15025984D02*
X16693991Y-15025984D01*
X16693991Y-15025984D02*
X16608277Y-15225984D01*
X16855896Y-15092650D02*
X16855896Y-15225984D01*
X16808277Y-15016460D02*
X16760658Y-15159317D01*
X16760658Y-15159317D02*
X16884468Y-15159317D01*
X16951134Y-15025984D02*
X16951134Y-15064079D01*
X17027325Y-15025984D02*
X17027325Y-15064079D01*
X17322563Y-15302174D02*
X17313039Y-15292650D01*
X17313039Y-15292650D02*
X17293991Y-15264079D01*
X17293991Y-15264079D02*
X17284468Y-15245031D01*
X17284468Y-15245031D02*
X17274944Y-15216460D01*
X17274944Y-15216460D02*
X17265420Y-15168841D01*
X17265420Y-15168841D02*
X17265420Y-15130746D01*
X17265420Y-15130746D02*
X17274944Y-15083127D01*
X17274944Y-15083127D02*
X17284468Y-15054555D01*
X17284468Y-15054555D02*
X17293991Y-15035508D01*
X17293991Y-15035508D02*
X17313039Y-15006936D01*
X17313039Y-15006936D02*
X17322563Y-14997412D01*
X17408277Y-15225984D02*
X17446372Y-15225984D01*
X17446372Y-15225984D02*
X17465420Y-15216460D01*
X17465420Y-15216460D02*
X17474944Y-15206936D01*
X17474944Y-15206936D02*
X17493991Y-15178365D01*
X17493991Y-15178365D02*
X17503515Y-15140269D01*
X17503515Y-15140269D02*
X17503515Y-15064079D01*
X17503515Y-15064079D02*
X17493991Y-15045031D01*
X17493991Y-15045031D02*
X17484468Y-15035508D01*
X17484468Y-15035508D02*
X17465420Y-15025984D01*
X17465420Y-15025984D02*
X17427325Y-15025984D01*
X17427325Y-15025984D02*
X17408277Y-15035508D01*
X17408277Y-15035508D02*
X17398753Y-15045031D01*
X17398753Y-15045031D02*
X17389230Y-15064079D01*
X17389230Y-15064079D02*
X17389230Y-15111698D01*
X17389230Y-15111698D02*
X17398753Y-15130746D01*
X17398753Y-15130746D02*
X17408277Y-15140269D01*
X17408277Y-15140269D02*
X17427325Y-15149793D01*
X17427325Y-15149793D02*
X17465420Y-15149793D01*
X17465420Y-15149793D02*
X17484468Y-15140269D01*
X17484468Y-15140269D02*
X17493991Y-15130746D01*
X17493991Y-15130746D02*
X17503515Y-15111698D01*
X17570182Y-15025984D02*
X17693991Y-15025984D01*
X17693991Y-15025984D02*
X17627325Y-15102174D01*
X17627325Y-15102174D02*
X17655896Y-15102174D01*
X17655896Y-15102174D02*
X17674944Y-15111698D01*
X17674944Y-15111698D02*
X17684468Y-15121222D01*
X17684468Y-15121222D02*
X17693991Y-15140269D01*
X17693991Y-15140269D02*
X17693991Y-15187888D01*
X17693991Y-15187888D02*
X17684468Y-15206936D01*
X17684468Y-15206936D02*
X17674944Y-15216460D01*
X17674944Y-15216460D02*
X17655896Y-15225984D01*
X17655896Y-15225984D02*
X17598753Y-15225984D01*
X17598753Y-15225984D02*
X17579706Y-15216460D01*
X17579706Y-15216460D02*
X17570182Y-15206936D01*
X17932087Y-15225984D02*
X17932087Y-15025984D01*
X18017801Y-15225984D02*
X18017801Y-15121222D01*
X18017801Y-15121222D02*
X18008277Y-15102174D01*
X18008277Y-15102174D02*
X17989230Y-15092650D01*
X17989230Y-15092650D02*
X17960658Y-15092650D01*
X17960658Y-15092650D02*
X17941611Y-15102174D01*
X17941611Y-15102174D02*
X17932087Y-15111698D01*
X18141611Y-15225984D02*
X18122563Y-15216460D01*
X18122563Y-15216460D02*
X18113039Y-15206936D01*
X18113039Y-15206936D02*
X18103515Y-15187888D01*
X18103515Y-15187888D02*
X18103515Y-15130746D01*
X18103515Y-15130746D02*
X18113039Y-15111698D01*
X18113039Y-15111698D02*
X18122563Y-15102174D01*
X18122563Y-15102174D02*
X18141611Y-15092650D01*
X18141611Y-15092650D02*
X18170182Y-15092650D01*
X18170182Y-15092650D02*
X18189230Y-15102174D01*
X18189230Y-15102174D02*
X18198753Y-15111698D01*
X18198753Y-15111698D02*
X18208277Y-15130746D01*
X18208277Y-15130746D02*
X18208277Y-15187888D01*
X18208277Y-15187888D02*
X18198753Y-15206936D01*
X18198753Y-15206936D02*
X18189230Y-15216460D01*
X18189230Y-15216460D02*
X18170182Y-15225984D01*
X18170182Y-15225984D02*
X18141611Y-15225984D01*
X18322563Y-15225984D02*
X18303515Y-15216460D01*
X18303515Y-15216460D02*
X18293992Y-15197412D01*
X18293992Y-15197412D02*
X18293992Y-15025984D01*
X18474944Y-15216460D02*
X18455896Y-15225984D01*
X18455896Y-15225984D02*
X18417801Y-15225984D01*
X18417801Y-15225984D02*
X18398753Y-15216460D01*
X18398753Y-15216460D02*
X18389230Y-15197412D01*
X18389230Y-15197412D02*
X18389230Y-15121222D01*
X18389230Y-15121222D02*
X18398753Y-15102174D01*
X18398753Y-15102174D02*
X18417801Y-15092650D01*
X18417801Y-15092650D02*
X18455896Y-15092650D01*
X18455896Y-15092650D02*
X18474944Y-15102174D01*
X18474944Y-15102174D02*
X18484468Y-15121222D01*
X18484468Y-15121222D02*
X18484468Y-15140269D01*
X18484468Y-15140269D02*
X18389230Y-15159317D01*
X18560658Y-15216460D02*
X18579706Y-15225984D01*
X18579706Y-15225984D02*
X18617801Y-15225984D01*
X18617801Y-15225984D02*
X18636849Y-15216460D01*
X18636849Y-15216460D02*
X18646373Y-15197412D01*
X18646373Y-15197412D02*
X18646373Y-15187888D01*
X18646373Y-15187888D02*
X18636849Y-15168841D01*
X18636849Y-15168841D02*
X18617801Y-15159317D01*
X18617801Y-15159317D02*
X18589230Y-15159317D01*
X18589230Y-15159317D02*
X18570182Y-15149793D01*
X18570182Y-15149793D02*
X18560658Y-15130746D01*
X18560658Y-15130746D02*
X18560658Y-15121222D01*
X18560658Y-15121222D02*
X18570182Y-15102174D01*
X18570182Y-15102174D02*
X18589230Y-15092650D01*
X18589230Y-15092650D02*
X18617801Y-15092650D01*
X18617801Y-15092650D02*
X18636849Y-15102174D01*
X18713039Y-15302174D02*
X18722563Y-15292650D01*
X18722563Y-15292650D02*
X18741611Y-15264079D01*
X18741611Y-15264079D02*
X18751134Y-15245031D01*
X18751134Y-15245031D02*
X18760658Y-15216460D01*
X18760658Y-15216460D02*
X18770182Y-15168841D01*
X18770182Y-15168841D02*
X18770182Y-15130746D01*
X18770182Y-15130746D02*
X18760658Y-15083127D01*
X18760658Y-15083127D02*
X18751134Y-15054555D01*
X18751134Y-15054555D02*
X18741611Y-15035508D01*
X18741611Y-15035508D02*
X18722563Y-15006936D01*
X18722563Y-15006936D02*
X18713039Y-14997412D01*
D12*
X13697500Y-15448500D02*
X13747500Y-15398500D01*
X13697500Y-15348500D01*
X13647500Y-15398500D01*
X13697500Y-15448500D01*
D11*
X14113039Y-15489984D02*
X13998753Y-15489984D01*
X14055896Y-15489984D02*
X14055896Y-15289984D01*
X14055896Y-15289984D02*
X14036848Y-15318555D01*
X14036848Y-15318555D02*
X14017801Y-15337603D01*
X14017801Y-15337603D02*
X13998753Y-15347127D01*
X14198753Y-15470936D02*
X14208277Y-15480460D01*
X14208277Y-15480460D02*
X14198753Y-15489984D01*
X14198753Y-15489984D02*
X14189229Y-15480460D01*
X14189229Y-15480460D02*
X14198753Y-15470936D01*
X14198753Y-15470936D02*
X14198753Y-15489984D01*
X14332086Y-15289984D02*
X14351134Y-15289984D01*
X14351134Y-15289984D02*
X14370182Y-15299508D01*
X14370182Y-15299508D02*
X14379705Y-15309031D01*
X14379705Y-15309031D02*
X14389229Y-15328079D01*
X14389229Y-15328079D02*
X14398753Y-15366174D01*
X14398753Y-15366174D02*
X14398753Y-15413793D01*
X14398753Y-15413793D02*
X14389229Y-15451888D01*
X14389229Y-15451888D02*
X14379705Y-15470936D01*
X14379705Y-15470936D02*
X14370182Y-15480460D01*
X14370182Y-15480460D02*
X14351134Y-15489984D01*
X14351134Y-15489984D02*
X14332086Y-15489984D01*
X14332086Y-15489984D02*
X14313039Y-15480460D01*
X14313039Y-15480460D02*
X14303515Y-15470936D01*
X14303515Y-15470936D02*
X14293991Y-15451888D01*
X14293991Y-15451888D02*
X14284467Y-15413793D01*
X14284467Y-15413793D02*
X14284467Y-15366174D01*
X14284467Y-15366174D02*
X14293991Y-15328079D01*
X14293991Y-15328079D02*
X14303515Y-15309031D01*
X14303515Y-15309031D02*
X14313039Y-15299508D01*
X14313039Y-15299508D02*
X14332086Y-15289984D01*
X14522562Y-15289984D02*
X14541610Y-15289984D01*
X14541610Y-15289984D02*
X14560658Y-15299508D01*
X14560658Y-15299508D02*
X14570182Y-15309031D01*
X14570182Y-15309031D02*
X14579705Y-15328079D01*
X14579705Y-15328079D02*
X14589229Y-15366174D01*
X14589229Y-15366174D02*
X14589229Y-15413793D01*
X14589229Y-15413793D02*
X14579705Y-15451888D01*
X14579705Y-15451888D02*
X14570182Y-15470936D01*
X14570182Y-15470936D02*
X14560658Y-15480460D01*
X14560658Y-15480460D02*
X14541610Y-15489984D01*
X14541610Y-15489984D02*
X14522562Y-15489984D01*
X14522562Y-15489984D02*
X14503515Y-15480460D01*
X14503515Y-15480460D02*
X14493991Y-15470936D01*
X14493991Y-15470936D02*
X14484467Y-15451888D01*
X14484467Y-15451888D02*
X14474943Y-15413793D01*
X14474943Y-15413793D02*
X14474943Y-15366174D01*
X14474943Y-15366174D02*
X14484467Y-15328079D01*
X14484467Y-15328079D02*
X14493991Y-15309031D01*
X14493991Y-15309031D02*
X14503515Y-15299508D01*
X14503515Y-15299508D02*
X14522562Y-15289984D01*
X14713039Y-15289984D02*
X14732086Y-15289984D01*
X14732086Y-15289984D02*
X14751134Y-15299508D01*
X14751134Y-15299508D02*
X14760658Y-15309031D01*
X14760658Y-15309031D02*
X14770182Y-15328079D01*
X14770182Y-15328079D02*
X14779705Y-15366174D01*
X14779705Y-15366174D02*
X14779705Y-15413793D01*
X14779705Y-15413793D02*
X14770182Y-15451888D01*
X14770182Y-15451888D02*
X14760658Y-15470936D01*
X14760658Y-15470936D02*
X14751134Y-15480460D01*
X14751134Y-15480460D02*
X14732086Y-15489984D01*
X14732086Y-15489984D02*
X14713039Y-15489984D01*
X14713039Y-15489984D02*
X14693991Y-15480460D01*
X14693991Y-15480460D02*
X14684467Y-15470936D01*
X14684467Y-15470936D02*
X14674943Y-15451888D01*
X14674943Y-15451888D02*
X14665420Y-15413793D01*
X14665420Y-15413793D02*
X14665420Y-15366174D01*
X14665420Y-15366174D02*
X14674943Y-15328079D01*
X14674943Y-15328079D02*
X14684467Y-15309031D01*
X14684467Y-15309031D02*
X14693991Y-15299508D01*
X14693991Y-15299508D02*
X14713039Y-15289984D01*
X14865420Y-15489984D02*
X14865420Y-15356650D01*
X14865420Y-15375698D02*
X14874943Y-15366174D01*
X14874943Y-15366174D02*
X14893991Y-15356650D01*
X14893991Y-15356650D02*
X14922563Y-15356650D01*
X14922563Y-15356650D02*
X14941610Y-15366174D01*
X14941610Y-15366174D02*
X14951134Y-15385222D01*
X14951134Y-15385222D02*
X14951134Y-15489984D01*
X14951134Y-15385222D02*
X14960658Y-15366174D01*
X14960658Y-15366174D02*
X14979705Y-15356650D01*
X14979705Y-15356650D02*
X15008277Y-15356650D01*
X15008277Y-15356650D02*
X15027324Y-15366174D01*
X15027324Y-15366174D02*
X15036848Y-15385222D01*
X15036848Y-15385222D02*
X15036848Y-15489984D01*
X15132086Y-15489984D02*
X15132086Y-15356650D01*
X15132086Y-15375698D02*
X15141610Y-15366174D01*
X15141610Y-15366174D02*
X15160658Y-15356650D01*
X15160658Y-15356650D02*
X15189229Y-15356650D01*
X15189229Y-15356650D02*
X15208277Y-15366174D01*
X15208277Y-15366174D02*
X15217801Y-15385222D01*
X15217801Y-15385222D02*
X15217801Y-15489984D01*
X15217801Y-15385222D02*
X15227324Y-15366174D01*
X15227324Y-15366174D02*
X15246372Y-15356650D01*
X15246372Y-15356650D02*
X15274943Y-15356650D01*
X15274943Y-15356650D02*
X15293991Y-15366174D01*
X15293991Y-15366174D02*
X15303515Y-15385222D01*
X15303515Y-15385222D02*
X15303515Y-15489984D01*
X15693991Y-15280460D02*
X15522563Y-15537603D01*
X15951134Y-15289984D02*
X15970182Y-15289984D01*
X15970182Y-15289984D02*
X15989229Y-15299508D01*
X15989229Y-15299508D02*
X15998753Y-15309031D01*
X15998753Y-15309031D02*
X16008277Y-15328079D01*
X16008277Y-15328079D02*
X16017801Y-15366174D01*
X16017801Y-15366174D02*
X16017801Y-15413793D01*
X16017801Y-15413793D02*
X16008277Y-15451888D01*
X16008277Y-15451888D02*
X15998753Y-15470936D01*
X15998753Y-15470936D02*
X15989229Y-15480460D01*
X15989229Y-15480460D02*
X15970182Y-15489984D01*
X15970182Y-15489984D02*
X15951134Y-15489984D01*
X15951134Y-15489984D02*
X15932086Y-15480460D01*
X15932086Y-15480460D02*
X15922563Y-15470936D01*
X15922563Y-15470936D02*
X15913039Y-15451888D01*
X15913039Y-15451888D02*
X15903515Y-15413793D01*
X15903515Y-15413793D02*
X15903515Y-15366174D01*
X15903515Y-15366174D02*
X15913039Y-15328079D01*
X15913039Y-15328079D02*
X15922563Y-15309031D01*
X15922563Y-15309031D02*
X15932086Y-15299508D01*
X15932086Y-15299508D02*
X15951134Y-15289984D01*
X16103515Y-15470936D02*
X16113039Y-15480460D01*
X16113039Y-15480460D02*
X16103515Y-15489984D01*
X16103515Y-15489984D02*
X16093991Y-15480460D01*
X16093991Y-15480460D02*
X16103515Y-15470936D01*
X16103515Y-15470936D02*
X16103515Y-15489984D01*
X16236848Y-15289984D02*
X16255896Y-15289984D01*
X16255896Y-15289984D02*
X16274944Y-15299508D01*
X16274944Y-15299508D02*
X16284467Y-15309031D01*
X16284467Y-15309031D02*
X16293991Y-15328079D01*
X16293991Y-15328079D02*
X16303515Y-15366174D01*
X16303515Y-15366174D02*
X16303515Y-15413793D01*
X16303515Y-15413793D02*
X16293991Y-15451888D01*
X16293991Y-15451888D02*
X16284467Y-15470936D01*
X16284467Y-15470936D02*
X16274944Y-15480460D01*
X16274944Y-15480460D02*
X16255896Y-15489984D01*
X16255896Y-15489984D02*
X16236848Y-15489984D01*
X16236848Y-15489984D02*
X16217801Y-15480460D01*
X16217801Y-15480460D02*
X16208277Y-15470936D01*
X16208277Y-15470936D02*
X16198753Y-15451888D01*
X16198753Y-15451888D02*
X16189229Y-15413793D01*
X16189229Y-15413793D02*
X16189229Y-15366174D01*
X16189229Y-15366174D02*
X16198753Y-15328079D01*
X16198753Y-15328079D02*
X16208277Y-15309031D01*
X16208277Y-15309031D02*
X16217801Y-15299508D01*
X16217801Y-15299508D02*
X16236848Y-15289984D01*
X16370182Y-15289984D02*
X16493991Y-15289984D01*
X16493991Y-15289984D02*
X16427325Y-15366174D01*
X16427325Y-15366174D02*
X16455896Y-15366174D01*
X16455896Y-15366174D02*
X16474944Y-15375698D01*
X16474944Y-15375698D02*
X16484467Y-15385222D01*
X16484467Y-15385222D02*
X16493991Y-15404269D01*
X16493991Y-15404269D02*
X16493991Y-15451888D01*
X16493991Y-15451888D02*
X16484467Y-15470936D01*
X16484467Y-15470936D02*
X16474944Y-15480460D01*
X16474944Y-15480460D02*
X16455896Y-15489984D01*
X16455896Y-15489984D02*
X16398753Y-15489984D01*
X16398753Y-15489984D02*
X16379706Y-15480460D01*
X16379706Y-15480460D02*
X16370182Y-15470936D01*
X16589229Y-15489984D02*
X16627325Y-15489984D01*
X16627325Y-15489984D02*
X16646372Y-15480460D01*
X16646372Y-15480460D02*
X16655896Y-15470936D01*
X16655896Y-15470936D02*
X16674944Y-15442365D01*
X16674944Y-15442365D02*
X16684467Y-15404269D01*
X16684467Y-15404269D02*
X16684467Y-15328079D01*
X16684467Y-15328079D02*
X16674944Y-15309031D01*
X16674944Y-15309031D02*
X16665420Y-15299508D01*
X16665420Y-15299508D02*
X16646372Y-15289984D01*
X16646372Y-15289984D02*
X16608277Y-15289984D01*
X16608277Y-15289984D02*
X16589229Y-15299508D01*
X16589229Y-15299508D02*
X16579706Y-15309031D01*
X16579706Y-15309031D02*
X16570182Y-15328079D01*
X16570182Y-15328079D02*
X16570182Y-15375698D01*
X16570182Y-15375698D02*
X16579706Y-15394746D01*
X16579706Y-15394746D02*
X16589229Y-15404269D01*
X16589229Y-15404269D02*
X16608277Y-15413793D01*
X16608277Y-15413793D02*
X16646372Y-15413793D01*
X16646372Y-15413793D02*
X16665420Y-15404269D01*
X16665420Y-15404269D02*
X16674944Y-15394746D01*
X16674944Y-15394746D02*
X16684467Y-15375698D01*
X16855896Y-15356650D02*
X16855896Y-15489984D01*
X16808277Y-15280460D02*
X16760658Y-15423317D01*
X16760658Y-15423317D02*
X16884468Y-15423317D01*
X16951134Y-15289984D02*
X16951134Y-15328079D01*
X17027325Y-15289984D02*
X17027325Y-15328079D01*
X17322563Y-15566174D02*
X17313039Y-15556650D01*
X17313039Y-15556650D02*
X17293991Y-15528079D01*
X17293991Y-15528079D02*
X17284468Y-15509031D01*
X17284468Y-15509031D02*
X17274944Y-15480460D01*
X17274944Y-15480460D02*
X17265420Y-15432841D01*
X17265420Y-15432841D02*
X17265420Y-15394746D01*
X17265420Y-15394746D02*
X17274944Y-15347127D01*
X17274944Y-15347127D02*
X17284468Y-15318555D01*
X17284468Y-15318555D02*
X17293991Y-15299508D01*
X17293991Y-15299508D02*
X17313039Y-15270936D01*
X17313039Y-15270936D02*
X17322563Y-15261412D01*
X17389230Y-15309031D02*
X17398753Y-15299508D01*
X17398753Y-15299508D02*
X17417801Y-15289984D01*
X17417801Y-15289984D02*
X17465420Y-15289984D01*
X17465420Y-15289984D02*
X17484468Y-15299508D01*
X17484468Y-15299508D02*
X17493991Y-15309031D01*
X17493991Y-15309031D02*
X17503515Y-15328079D01*
X17503515Y-15328079D02*
X17503515Y-15347127D01*
X17503515Y-15347127D02*
X17493991Y-15375698D01*
X17493991Y-15375698D02*
X17379706Y-15489984D01*
X17379706Y-15489984D02*
X17503515Y-15489984D01*
X17741611Y-15489984D02*
X17741611Y-15289984D01*
X17827325Y-15489984D02*
X17827325Y-15385222D01*
X17827325Y-15385222D02*
X17817801Y-15366174D01*
X17817801Y-15366174D02*
X17798753Y-15356650D01*
X17798753Y-15356650D02*
X17770182Y-15356650D01*
X17770182Y-15356650D02*
X17751134Y-15366174D01*
X17751134Y-15366174D02*
X17741611Y-15375698D01*
X17951134Y-15489984D02*
X17932087Y-15480460D01*
X17932087Y-15480460D02*
X17922563Y-15470936D01*
X17922563Y-15470936D02*
X17913039Y-15451888D01*
X17913039Y-15451888D02*
X17913039Y-15394746D01*
X17913039Y-15394746D02*
X17922563Y-15375698D01*
X17922563Y-15375698D02*
X17932087Y-15366174D01*
X17932087Y-15366174D02*
X17951134Y-15356650D01*
X17951134Y-15356650D02*
X17979706Y-15356650D01*
X17979706Y-15356650D02*
X17998753Y-15366174D01*
X17998753Y-15366174D02*
X18008277Y-15375698D01*
X18008277Y-15375698D02*
X18017801Y-15394746D01*
X18017801Y-15394746D02*
X18017801Y-15451888D01*
X18017801Y-15451888D02*
X18008277Y-15470936D01*
X18008277Y-15470936D02*
X17998753Y-15480460D01*
X17998753Y-15480460D02*
X17979706Y-15489984D01*
X17979706Y-15489984D02*
X17951134Y-15489984D01*
X18132087Y-15489984D02*
X18113039Y-15480460D01*
X18113039Y-15480460D02*
X18103515Y-15461412D01*
X18103515Y-15461412D02*
X18103515Y-15289984D01*
X18284468Y-15480460D02*
X18265420Y-15489984D01*
X18265420Y-15489984D02*
X18227325Y-15489984D01*
X18227325Y-15489984D02*
X18208277Y-15480460D01*
X18208277Y-15480460D02*
X18198753Y-15461412D01*
X18198753Y-15461412D02*
X18198753Y-15385222D01*
X18198753Y-15385222D02*
X18208277Y-15366174D01*
X18208277Y-15366174D02*
X18227325Y-15356650D01*
X18227325Y-15356650D02*
X18265420Y-15356650D01*
X18265420Y-15356650D02*
X18284468Y-15366174D01*
X18284468Y-15366174D02*
X18293992Y-15385222D01*
X18293992Y-15385222D02*
X18293992Y-15404269D01*
X18293992Y-15404269D02*
X18198753Y-15423317D01*
X18370182Y-15480460D02*
X18389230Y-15489984D01*
X18389230Y-15489984D02*
X18427325Y-15489984D01*
X18427325Y-15489984D02*
X18446373Y-15480460D01*
X18446373Y-15480460D02*
X18455896Y-15461412D01*
X18455896Y-15461412D02*
X18455896Y-15451888D01*
X18455896Y-15451888D02*
X18446373Y-15432841D01*
X18446373Y-15432841D02*
X18427325Y-15423317D01*
X18427325Y-15423317D02*
X18398753Y-15423317D01*
X18398753Y-15423317D02*
X18379706Y-15413793D01*
X18379706Y-15413793D02*
X18370182Y-15394746D01*
X18370182Y-15394746D02*
X18370182Y-15385222D01*
X18370182Y-15385222D02*
X18379706Y-15366174D01*
X18379706Y-15366174D02*
X18398753Y-15356650D01*
X18398753Y-15356650D02*
X18427325Y-15356650D01*
X18427325Y-15356650D02*
X18446373Y-15366174D01*
X18522563Y-15566174D02*
X18532087Y-15556650D01*
X18532087Y-15556650D02*
X18551134Y-15528079D01*
X18551134Y-15528079D02*
X18560658Y-15509031D01*
X18560658Y-15509031D02*
X18570182Y-15480460D01*
X18570182Y-15480460D02*
X18579706Y-15432841D01*
X18579706Y-15432841D02*
X18579706Y-15394746D01*
X18579706Y-15394746D02*
X18570182Y-15347127D01*
X18570182Y-15347127D02*
X18560658Y-15318555D01*
X18560658Y-15318555D02*
X18551134Y-15299508D01*
X18551134Y-15299508D02*
X18532087Y-15270936D01*
X18532087Y-15270936D02*
X18522563Y-15261412D01*
D13*
X13627500Y-15602500D02*
X13747500Y-15722500D01*
X13747500Y-15602500D02*
X13627500Y-15722500D01*
X13747500Y-15662500D02*
G75*
G02*
X13627500Y-15662500I-60000J0D01*
G01*
X13627500Y-15662500D02*
G75*
G02*
X13747500Y-15662500I60000J0D01*
G01*
D11*
X14113039Y-15753984D02*
X13998753Y-15753984D01*
X14055896Y-15753984D02*
X14055896Y-15553984D01*
X14055896Y-15553984D02*
X14036848Y-15582555D01*
X14036848Y-15582555D02*
X14017801Y-15601603D01*
X14017801Y-15601603D02*
X13998753Y-15611127D01*
X14198753Y-15734936D02*
X14208277Y-15744460D01*
X14208277Y-15744460D02*
X14198753Y-15753984D01*
X14198753Y-15753984D02*
X14189229Y-15744460D01*
X14189229Y-15744460D02*
X14198753Y-15734936D01*
X14198753Y-15734936D02*
X14198753Y-15753984D01*
X14284467Y-15573031D02*
X14293991Y-15563508D01*
X14293991Y-15563508D02*
X14313039Y-15553984D01*
X14313039Y-15553984D02*
X14360658Y-15553984D01*
X14360658Y-15553984D02*
X14379705Y-15563508D01*
X14379705Y-15563508D02*
X14389229Y-15573031D01*
X14389229Y-15573031D02*
X14398753Y-15592079D01*
X14398753Y-15592079D02*
X14398753Y-15611127D01*
X14398753Y-15611127D02*
X14389229Y-15639698D01*
X14389229Y-15639698D02*
X14274943Y-15753984D01*
X14274943Y-15753984D02*
X14398753Y-15753984D01*
X14522562Y-15553984D02*
X14541610Y-15553984D01*
X14541610Y-15553984D02*
X14560658Y-15563508D01*
X14560658Y-15563508D02*
X14570182Y-15573031D01*
X14570182Y-15573031D02*
X14579705Y-15592079D01*
X14579705Y-15592079D02*
X14589229Y-15630174D01*
X14589229Y-15630174D02*
X14589229Y-15677793D01*
X14589229Y-15677793D02*
X14579705Y-15715888D01*
X14579705Y-15715888D02*
X14570182Y-15734936D01*
X14570182Y-15734936D02*
X14560658Y-15744460D01*
X14560658Y-15744460D02*
X14541610Y-15753984D01*
X14541610Y-15753984D02*
X14522562Y-15753984D01*
X14522562Y-15753984D02*
X14503515Y-15744460D01*
X14503515Y-15744460D02*
X14493991Y-15734936D01*
X14493991Y-15734936D02*
X14484467Y-15715888D01*
X14484467Y-15715888D02*
X14474943Y-15677793D01*
X14474943Y-15677793D02*
X14474943Y-15630174D01*
X14474943Y-15630174D02*
X14484467Y-15592079D01*
X14484467Y-15592079D02*
X14493991Y-15573031D01*
X14493991Y-15573031D02*
X14503515Y-15563508D01*
X14503515Y-15563508D02*
X14522562Y-15553984D01*
X14713039Y-15553984D02*
X14732086Y-15553984D01*
X14732086Y-15553984D02*
X14751134Y-15563508D01*
X14751134Y-15563508D02*
X14760658Y-15573031D01*
X14760658Y-15573031D02*
X14770182Y-15592079D01*
X14770182Y-15592079D02*
X14779705Y-15630174D01*
X14779705Y-15630174D02*
X14779705Y-15677793D01*
X14779705Y-15677793D02*
X14770182Y-15715888D01*
X14770182Y-15715888D02*
X14760658Y-15734936D01*
X14760658Y-15734936D02*
X14751134Y-15744460D01*
X14751134Y-15744460D02*
X14732086Y-15753984D01*
X14732086Y-15753984D02*
X14713039Y-15753984D01*
X14713039Y-15753984D02*
X14693991Y-15744460D01*
X14693991Y-15744460D02*
X14684467Y-15734936D01*
X14684467Y-15734936D02*
X14674943Y-15715888D01*
X14674943Y-15715888D02*
X14665420Y-15677793D01*
X14665420Y-15677793D02*
X14665420Y-15630174D01*
X14665420Y-15630174D02*
X14674943Y-15592079D01*
X14674943Y-15592079D02*
X14684467Y-15573031D01*
X14684467Y-15573031D02*
X14693991Y-15563508D01*
X14693991Y-15563508D02*
X14713039Y-15553984D01*
X14865420Y-15753984D02*
X14865420Y-15620650D01*
X14865420Y-15639698D02*
X14874943Y-15630174D01*
X14874943Y-15630174D02*
X14893991Y-15620650D01*
X14893991Y-15620650D02*
X14922563Y-15620650D01*
X14922563Y-15620650D02*
X14941610Y-15630174D01*
X14941610Y-15630174D02*
X14951134Y-15649222D01*
X14951134Y-15649222D02*
X14951134Y-15753984D01*
X14951134Y-15649222D02*
X14960658Y-15630174D01*
X14960658Y-15630174D02*
X14979705Y-15620650D01*
X14979705Y-15620650D02*
X15008277Y-15620650D01*
X15008277Y-15620650D02*
X15027324Y-15630174D01*
X15027324Y-15630174D02*
X15036848Y-15649222D01*
X15036848Y-15649222D02*
X15036848Y-15753984D01*
X15132086Y-15753984D02*
X15132086Y-15620650D01*
X15132086Y-15639698D02*
X15141610Y-15630174D01*
X15141610Y-15630174D02*
X15160658Y-15620650D01*
X15160658Y-15620650D02*
X15189229Y-15620650D01*
X15189229Y-15620650D02*
X15208277Y-15630174D01*
X15208277Y-15630174D02*
X15217801Y-15649222D01*
X15217801Y-15649222D02*
X15217801Y-15753984D01*
X15217801Y-15649222D02*
X15227324Y-15630174D01*
X15227324Y-15630174D02*
X15246372Y-15620650D01*
X15246372Y-15620650D02*
X15274943Y-15620650D01*
X15274943Y-15620650D02*
X15293991Y-15630174D01*
X15293991Y-15630174D02*
X15303515Y-15649222D01*
X15303515Y-15649222D02*
X15303515Y-15753984D01*
X15693991Y-15544460D02*
X15522563Y-15801603D01*
X15951134Y-15553984D02*
X15970182Y-15553984D01*
X15970182Y-15553984D02*
X15989229Y-15563508D01*
X15989229Y-15563508D02*
X15998753Y-15573031D01*
X15998753Y-15573031D02*
X16008277Y-15592079D01*
X16008277Y-15592079D02*
X16017801Y-15630174D01*
X16017801Y-15630174D02*
X16017801Y-15677793D01*
X16017801Y-15677793D02*
X16008277Y-15715888D01*
X16008277Y-15715888D02*
X15998753Y-15734936D01*
X15998753Y-15734936D02*
X15989229Y-15744460D01*
X15989229Y-15744460D02*
X15970182Y-15753984D01*
X15970182Y-15753984D02*
X15951134Y-15753984D01*
X15951134Y-15753984D02*
X15932086Y-15744460D01*
X15932086Y-15744460D02*
X15922563Y-15734936D01*
X15922563Y-15734936D02*
X15913039Y-15715888D01*
X15913039Y-15715888D02*
X15903515Y-15677793D01*
X15903515Y-15677793D02*
X15903515Y-15630174D01*
X15903515Y-15630174D02*
X15913039Y-15592079D01*
X15913039Y-15592079D02*
X15922563Y-15573031D01*
X15922563Y-15573031D02*
X15932086Y-15563508D01*
X15932086Y-15563508D02*
X15951134Y-15553984D01*
X16103515Y-15734936D02*
X16113039Y-15744460D01*
X16113039Y-15744460D02*
X16103515Y-15753984D01*
X16103515Y-15753984D02*
X16093991Y-15744460D01*
X16093991Y-15744460D02*
X16103515Y-15734936D01*
X16103515Y-15734936D02*
X16103515Y-15753984D01*
X16236848Y-15553984D02*
X16255896Y-15553984D01*
X16255896Y-15553984D02*
X16274944Y-15563508D01*
X16274944Y-15563508D02*
X16284467Y-15573031D01*
X16284467Y-15573031D02*
X16293991Y-15592079D01*
X16293991Y-15592079D02*
X16303515Y-15630174D01*
X16303515Y-15630174D02*
X16303515Y-15677793D01*
X16303515Y-15677793D02*
X16293991Y-15715888D01*
X16293991Y-15715888D02*
X16284467Y-15734936D01*
X16284467Y-15734936D02*
X16274944Y-15744460D01*
X16274944Y-15744460D02*
X16255896Y-15753984D01*
X16255896Y-15753984D02*
X16236848Y-15753984D01*
X16236848Y-15753984D02*
X16217801Y-15744460D01*
X16217801Y-15744460D02*
X16208277Y-15734936D01*
X16208277Y-15734936D02*
X16198753Y-15715888D01*
X16198753Y-15715888D02*
X16189229Y-15677793D01*
X16189229Y-15677793D02*
X16189229Y-15630174D01*
X16189229Y-15630174D02*
X16198753Y-15592079D01*
X16198753Y-15592079D02*
X16208277Y-15573031D01*
X16208277Y-15573031D02*
X16217801Y-15563508D01*
X16217801Y-15563508D02*
X16236848Y-15553984D01*
X16474944Y-15620650D02*
X16474944Y-15753984D01*
X16427325Y-15544460D02*
X16379706Y-15687317D01*
X16379706Y-15687317D02*
X16503515Y-15687317D01*
X16560658Y-15553984D02*
X16693991Y-15553984D01*
X16693991Y-15553984D02*
X16608277Y-15753984D01*
X16760658Y-15573031D02*
X16770182Y-15563508D01*
X16770182Y-15563508D02*
X16789229Y-15553984D01*
X16789229Y-15553984D02*
X16836849Y-15553984D01*
X16836849Y-15553984D02*
X16855896Y-15563508D01*
X16855896Y-15563508D02*
X16865420Y-15573031D01*
X16865420Y-15573031D02*
X16874944Y-15592079D01*
X16874944Y-15592079D02*
X16874944Y-15611127D01*
X16874944Y-15611127D02*
X16865420Y-15639698D01*
X16865420Y-15639698D02*
X16751134Y-15753984D01*
X16751134Y-15753984D02*
X16874944Y-15753984D01*
X16951134Y-15553984D02*
X16951134Y-15592079D01*
X17027325Y-15553984D02*
X17027325Y-15592079D01*
X17322563Y-15830174D02*
X17313039Y-15820650D01*
X17313039Y-15820650D02*
X17293991Y-15792079D01*
X17293991Y-15792079D02*
X17284468Y-15773031D01*
X17284468Y-15773031D02*
X17274944Y-15744460D01*
X17274944Y-15744460D02*
X17265420Y-15696841D01*
X17265420Y-15696841D02*
X17265420Y-15658746D01*
X17265420Y-15658746D02*
X17274944Y-15611127D01*
X17274944Y-15611127D02*
X17284468Y-15582555D01*
X17284468Y-15582555D02*
X17293991Y-15563508D01*
X17293991Y-15563508D02*
X17313039Y-15534936D01*
X17313039Y-15534936D02*
X17322563Y-15525412D01*
X17389230Y-15573031D02*
X17398753Y-15563508D01*
X17398753Y-15563508D02*
X17417801Y-15553984D01*
X17417801Y-15553984D02*
X17465420Y-15553984D01*
X17465420Y-15553984D02*
X17484468Y-15563508D01*
X17484468Y-15563508D02*
X17493991Y-15573031D01*
X17493991Y-15573031D02*
X17503515Y-15592079D01*
X17503515Y-15592079D02*
X17503515Y-15611127D01*
X17503515Y-15611127D02*
X17493991Y-15639698D01*
X17493991Y-15639698D02*
X17379706Y-15753984D01*
X17379706Y-15753984D02*
X17503515Y-15753984D01*
X17741611Y-15753984D02*
X17741611Y-15553984D01*
X17827325Y-15753984D02*
X17827325Y-15649222D01*
X17827325Y-15649222D02*
X17817801Y-15630174D01*
X17817801Y-15630174D02*
X17798753Y-15620650D01*
X17798753Y-15620650D02*
X17770182Y-15620650D01*
X17770182Y-15620650D02*
X17751134Y-15630174D01*
X17751134Y-15630174D02*
X17741611Y-15639698D01*
X17951134Y-15753984D02*
X17932087Y-15744460D01*
X17932087Y-15744460D02*
X17922563Y-15734936D01*
X17922563Y-15734936D02*
X17913039Y-15715888D01*
X17913039Y-15715888D02*
X17913039Y-15658746D01*
X17913039Y-15658746D02*
X17922563Y-15639698D01*
X17922563Y-15639698D02*
X17932087Y-15630174D01*
X17932087Y-15630174D02*
X17951134Y-15620650D01*
X17951134Y-15620650D02*
X17979706Y-15620650D01*
X17979706Y-15620650D02*
X17998753Y-15630174D01*
X17998753Y-15630174D02*
X18008277Y-15639698D01*
X18008277Y-15639698D02*
X18017801Y-15658746D01*
X18017801Y-15658746D02*
X18017801Y-15715888D01*
X18017801Y-15715888D02*
X18008277Y-15734936D01*
X18008277Y-15734936D02*
X17998753Y-15744460D01*
X17998753Y-15744460D02*
X17979706Y-15753984D01*
X17979706Y-15753984D02*
X17951134Y-15753984D01*
X18132087Y-15753984D02*
X18113039Y-15744460D01*
X18113039Y-15744460D02*
X18103515Y-15725412D01*
X18103515Y-15725412D02*
X18103515Y-15553984D01*
X18284468Y-15744460D02*
X18265420Y-15753984D01*
X18265420Y-15753984D02*
X18227325Y-15753984D01*
X18227325Y-15753984D02*
X18208277Y-15744460D01*
X18208277Y-15744460D02*
X18198753Y-15725412D01*
X18198753Y-15725412D02*
X18198753Y-15649222D01*
X18198753Y-15649222D02*
X18208277Y-15630174D01*
X18208277Y-15630174D02*
X18227325Y-15620650D01*
X18227325Y-15620650D02*
X18265420Y-15620650D01*
X18265420Y-15620650D02*
X18284468Y-15630174D01*
X18284468Y-15630174D02*
X18293992Y-15649222D01*
X18293992Y-15649222D02*
X18293992Y-15668269D01*
X18293992Y-15668269D02*
X18198753Y-15687317D01*
X18370182Y-15744460D02*
X18389230Y-15753984D01*
X18389230Y-15753984D02*
X18427325Y-15753984D01*
X18427325Y-15753984D02*
X18446373Y-15744460D01*
X18446373Y-15744460D02*
X18455896Y-15725412D01*
X18455896Y-15725412D02*
X18455896Y-15715888D01*
X18455896Y-15715888D02*
X18446373Y-15696841D01*
X18446373Y-15696841D02*
X18427325Y-15687317D01*
X18427325Y-15687317D02*
X18398753Y-15687317D01*
X18398753Y-15687317D02*
X18379706Y-15677793D01*
X18379706Y-15677793D02*
X18370182Y-15658746D01*
X18370182Y-15658746D02*
X18370182Y-15649222D01*
X18370182Y-15649222D02*
X18379706Y-15630174D01*
X18379706Y-15630174D02*
X18398753Y-15620650D01*
X18398753Y-15620650D02*
X18427325Y-15620650D01*
X18427325Y-15620650D02*
X18446373Y-15630174D01*
X18522563Y-15830174D02*
X18532087Y-15820650D01*
X18532087Y-15820650D02*
X18551134Y-15792079D01*
X18551134Y-15792079D02*
X18560658Y-15773031D01*
X18560658Y-15773031D02*
X18570182Y-15744460D01*
X18570182Y-15744460D02*
X18579706Y-15696841D01*
X18579706Y-15696841D02*
X18579706Y-15658746D01*
X18579706Y-15658746D02*
X18570182Y-15611127D01*
X18570182Y-15611127D02*
X18560658Y-15582555D01*
X18560658Y-15582555D02*
X18551134Y-15563508D01*
X18551134Y-15563508D02*
X18532087Y-15534936D01*
X18532087Y-15534936D02*
X18522563Y-15525412D01*
D14*
X13557500Y-15831500D02*
X13747500Y-16021500D01*
X13747500Y-15831500D02*
X13557500Y-16021500D01*
X13652500Y-15831500D02*
X13652500Y-16021500D01*
X13557500Y-15926500D02*
X13747500Y-15926500D01*
D11*
X14113039Y-16017984D02*
X13998753Y-16017984D01*
X14055896Y-16017984D02*
X14055896Y-15817984D01*
X14055896Y-15817984D02*
X14036848Y-15846555D01*
X14036848Y-15846555D02*
X14017801Y-15865603D01*
X14017801Y-15865603D02*
X13998753Y-15875127D01*
X14198753Y-15998936D02*
X14208277Y-16008460D01*
X14208277Y-16008460D02*
X14198753Y-16017984D01*
X14198753Y-16017984D02*
X14189229Y-16008460D01*
X14189229Y-16008460D02*
X14198753Y-15998936D01*
X14198753Y-15998936D02*
X14198753Y-16017984D01*
X14303515Y-16017984D02*
X14341610Y-16017984D01*
X14341610Y-16017984D02*
X14360658Y-16008460D01*
X14360658Y-16008460D02*
X14370182Y-15998936D01*
X14370182Y-15998936D02*
X14389229Y-15970365D01*
X14389229Y-15970365D02*
X14398753Y-15932269D01*
X14398753Y-15932269D02*
X14398753Y-15856079D01*
X14398753Y-15856079D02*
X14389229Y-15837031D01*
X14389229Y-15837031D02*
X14379705Y-15827508D01*
X14379705Y-15827508D02*
X14360658Y-15817984D01*
X14360658Y-15817984D02*
X14322562Y-15817984D01*
X14322562Y-15817984D02*
X14303515Y-15827508D01*
X14303515Y-15827508D02*
X14293991Y-15837031D01*
X14293991Y-15837031D02*
X14284467Y-15856079D01*
X14284467Y-15856079D02*
X14284467Y-15903698D01*
X14284467Y-15903698D02*
X14293991Y-15922746D01*
X14293991Y-15922746D02*
X14303515Y-15932269D01*
X14303515Y-15932269D02*
X14322562Y-15941793D01*
X14322562Y-15941793D02*
X14360658Y-15941793D01*
X14360658Y-15941793D02*
X14379705Y-15932269D01*
X14379705Y-15932269D02*
X14389229Y-15922746D01*
X14389229Y-15922746D02*
X14398753Y-15903698D01*
X14522562Y-15817984D02*
X14541610Y-15817984D01*
X14541610Y-15817984D02*
X14560658Y-15827508D01*
X14560658Y-15827508D02*
X14570182Y-15837031D01*
X14570182Y-15837031D02*
X14579705Y-15856079D01*
X14579705Y-15856079D02*
X14589229Y-15894174D01*
X14589229Y-15894174D02*
X14589229Y-15941793D01*
X14589229Y-15941793D02*
X14579705Y-15979888D01*
X14579705Y-15979888D02*
X14570182Y-15998936D01*
X14570182Y-15998936D02*
X14560658Y-16008460D01*
X14560658Y-16008460D02*
X14541610Y-16017984D01*
X14541610Y-16017984D02*
X14522562Y-16017984D01*
X14522562Y-16017984D02*
X14503515Y-16008460D01*
X14503515Y-16008460D02*
X14493991Y-15998936D01*
X14493991Y-15998936D02*
X14484467Y-15979888D01*
X14484467Y-15979888D02*
X14474943Y-15941793D01*
X14474943Y-15941793D02*
X14474943Y-15894174D01*
X14474943Y-15894174D02*
X14484467Y-15856079D01*
X14484467Y-15856079D02*
X14493991Y-15837031D01*
X14493991Y-15837031D02*
X14503515Y-15827508D01*
X14503515Y-15827508D02*
X14522562Y-15817984D01*
X14713039Y-15817984D02*
X14732086Y-15817984D01*
X14732086Y-15817984D02*
X14751134Y-15827508D01*
X14751134Y-15827508D02*
X14760658Y-15837031D01*
X14760658Y-15837031D02*
X14770182Y-15856079D01*
X14770182Y-15856079D02*
X14779705Y-15894174D01*
X14779705Y-15894174D02*
X14779705Y-15941793D01*
X14779705Y-15941793D02*
X14770182Y-15979888D01*
X14770182Y-15979888D02*
X14760658Y-15998936D01*
X14760658Y-15998936D02*
X14751134Y-16008460D01*
X14751134Y-16008460D02*
X14732086Y-16017984D01*
X14732086Y-16017984D02*
X14713039Y-16017984D01*
X14713039Y-16017984D02*
X14693991Y-16008460D01*
X14693991Y-16008460D02*
X14684467Y-15998936D01*
X14684467Y-15998936D02*
X14674943Y-15979888D01*
X14674943Y-15979888D02*
X14665420Y-15941793D01*
X14665420Y-15941793D02*
X14665420Y-15894174D01*
X14665420Y-15894174D02*
X14674943Y-15856079D01*
X14674943Y-15856079D02*
X14684467Y-15837031D01*
X14684467Y-15837031D02*
X14693991Y-15827508D01*
X14693991Y-15827508D02*
X14713039Y-15817984D01*
X14865420Y-16017984D02*
X14865420Y-15884650D01*
X14865420Y-15903698D02*
X14874943Y-15894174D01*
X14874943Y-15894174D02*
X14893991Y-15884650D01*
X14893991Y-15884650D02*
X14922563Y-15884650D01*
X14922563Y-15884650D02*
X14941610Y-15894174D01*
X14941610Y-15894174D02*
X14951134Y-15913222D01*
X14951134Y-15913222D02*
X14951134Y-16017984D01*
X14951134Y-15913222D02*
X14960658Y-15894174D01*
X14960658Y-15894174D02*
X14979705Y-15884650D01*
X14979705Y-15884650D02*
X15008277Y-15884650D01*
X15008277Y-15884650D02*
X15027324Y-15894174D01*
X15027324Y-15894174D02*
X15036848Y-15913222D01*
X15036848Y-15913222D02*
X15036848Y-16017984D01*
X15132086Y-16017984D02*
X15132086Y-15884650D01*
X15132086Y-15903698D02*
X15141610Y-15894174D01*
X15141610Y-15894174D02*
X15160658Y-15884650D01*
X15160658Y-15884650D02*
X15189229Y-15884650D01*
X15189229Y-15884650D02*
X15208277Y-15894174D01*
X15208277Y-15894174D02*
X15217801Y-15913222D01*
X15217801Y-15913222D02*
X15217801Y-16017984D01*
X15217801Y-15913222D02*
X15227324Y-15894174D01*
X15227324Y-15894174D02*
X15246372Y-15884650D01*
X15246372Y-15884650D02*
X15274943Y-15884650D01*
X15274943Y-15884650D02*
X15293991Y-15894174D01*
X15293991Y-15894174D02*
X15303515Y-15913222D01*
X15303515Y-15913222D02*
X15303515Y-16017984D01*
X15693991Y-15808460D02*
X15522563Y-16065603D01*
X15951134Y-15817984D02*
X15970182Y-15817984D01*
X15970182Y-15817984D02*
X15989229Y-15827508D01*
X15989229Y-15827508D02*
X15998753Y-15837031D01*
X15998753Y-15837031D02*
X16008277Y-15856079D01*
X16008277Y-15856079D02*
X16017801Y-15894174D01*
X16017801Y-15894174D02*
X16017801Y-15941793D01*
X16017801Y-15941793D02*
X16008277Y-15979888D01*
X16008277Y-15979888D02*
X15998753Y-15998936D01*
X15998753Y-15998936D02*
X15989229Y-16008460D01*
X15989229Y-16008460D02*
X15970182Y-16017984D01*
X15970182Y-16017984D02*
X15951134Y-16017984D01*
X15951134Y-16017984D02*
X15932086Y-16008460D01*
X15932086Y-16008460D02*
X15922563Y-15998936D01*
X15922563Y-15998936D02*
X15913039Y-15979888D01*
X15913039Y-15979888D02*
X15903515Y-15941793D01*
X15903515Y-15941793D02*
X15903515Y-15894174D01*
X15903515Y-15894174D02*
X15913039Y-15856079D01*
X15913039Y-15856079D02*
X15922563Y-15837031D01*
X15922563Y-15837031D02*
X15932086Y-15827508D01*
X15932086Y-15827508D02*
X15951134Y-15817984D01*
X16103515Y-15998936D02*
X16113039Y-16008460D01*
X16113039Y-16008460D02*
X16103515Y-16017984D01*
X16103515Y-16017984D02*
X16093991Y-16008460D01*
X16093991Y-16008460D02*
X16103515Y-15998936D01*
X16103515Y-15998936D02*
X16103515Y-16017984D01*
X16236848Y-15817984D02*
X16255896Y-15817984D01*
X16255896Y-15817984D02*
X16274944Y-15827508D01*
X16274944Y-15827508D02*
X16284467Y-15837031D01*
X16284467Y-15837031D02*
X16293991Y-15856079D01*
X16293991Y-15856079D02*
X16303515Y-15894174D01*
X16303515Y-15894174D02*
X16303515Y-15941793D01*
X16303515Y-15941793D02*
X16293991Y-15979888D01*
X16293991Y-15979888D02*
X16284467Y-15998936D01*
X16284467Y-15998936D02*
X16274944Y-16008460D01*
X16274944Y-16008460D02*
X16255896Y-16017984D01*
X16255896Y-16017984D02*
X16236848Y-16017984D01*
X16236848Y-16017984D02*
X16217801Y-16008460D01*
X16217801Y-16008460D02*
X16208277Y-15998936D01*
X16208277Y-15998936D02*
X16198753Y-15979888D01*
X16198753Y-15979888D02*
X16189229Y-15941793D01*
X16189229Y-15941793D02*
X16189229Y-15894174D01*
X16189229Y-15894174D02*
X16198753Y-15856079D01*
X16198753Y-15856079D02*
X16208277Y-15837031D01*
X16208277Y-15837031D02*
X16217801Y-15827508D01*
X16217801Y-15827508D02*
X16236848Y-15817984D01*
X16370182Y-15817984D02*
X16503515Y-15817984D01*
X16503515Y-15817984D02*
X16417801Y-16017984D01*
X16665420Y-15884650D02*
X16665420Y-16017984D01*
X16617801Y-15808460D02*
X16570182Y-15951317D01*
X16570182Y-15951317D02*
X16693991Y-15951317D01*
X16798753Y-15903698D02*
X16779706Y-15894174D01*
X16779706Y-15894174D02*
X16770182Y-15884650D01*
X16770182Y-15884650D02*
X16760658Y-15865603D01*
X16760658Y-15865603D02*
X16760658Y-15856079D01*
X16760658Y-15856079D02*
X16770182Y-15837031D01*
X16770182Y-15837031D02*
X16779706Y-15827508D01*
X16779706Y-15827508D02*
X16798753Y-15817984D01*
X16798753Y-15817984D02*
X16836849Y-15817984D01*
X16836849Y-15817984D02*
X16855896Y-15827508D01*
X16855896Y-15827508D02*
X16865420Y-15837031D01*
X16865420Y-15837031D02*
X16874944Y-15856079D01*
X16874944Y-15856079D02*
X16874944Y-15865603D01*
X16874944Y-15865603D02*
X16865420Y-15884650D01*
X16865420Y-15884650D02*
X16855896Y-15894174D01*
X16855896Y-15894174D02*
X16836849Y-15903698D01*
X16836849Y-15903698D02*
X16798753Y-15903698D01*
X16798753Y-15903698D02*
X16779706Y-15913222D01*
X16779706Y-15913222D02*
X16770182Y-15922746D01*
X16770182Y-15922746D02*
X16760658Y-15941793D01*
X16760658Y-15941793D02*
X16760658Y-15979888D01*
X16760658Y-15979888D02*
X16770182Y-15998936D01*
X16770182Y-15998936D02*
X16779706Y-16008460D01*
X16779706Y-16008460D02*
X16798753Y-16017984D01*
X16798753Y-16017984D02*
X16836849Y-16017984D01*
X16836849Y-16017984D02*
X16855896Y-16008460D01*
X16855896Y-16008460D02*
X16865420Y-15998936D01*
X16865420Y-15998936D02*
X16874944Y-15979888D01*
X16874944Y-15979888D02*
X16874944Y-15941793D01*
X16874944Y-15941793D02*
X16865420Y-15922746D01*
X16865420Y-15922746D02*
X16855896Y-15913222D01*
X16855896Y-15913222D02*
X16836849Y-15903698D01*
X16951134Y-15817984D02*
X16951134Y-15856079D01*
X17027325Y-15817984D02*
X17027325Y-15856079D01*
X17322563Y-16094174D02*
X17313039Y-16084650D01*
X17313039Y-16084650D02*
X17293991Y-16056079D01*
X17293991Y-16056079D02*
X17284468Y-16037031D01*
X17284468Y-16037031D02*
X17274944Y-16008460D01*
X17274944Y-16008460D02*
X17265420Y-15960841D01*
X17265420Y-15960841D02*
X17265420Y-15922746D01*
X17265420Y-15922746D02*
X17274944Y-15875127D01*
X17274944Y-15875127D02*
X17284468Y-15846555D01*
X17284468Y-15846555D02*
X17293991Y-15827508D01*
X17293991Y-15827508D02*
X17313039Y-15798936D01*
X17313039Y-15798936D02*
X17322563Y-15789412D01*
X17389230Y-15837031D02*
X17398753Y-15827508D01*
X17398753Y-15827508D02*
X17417801Y-15817984D01*
X17417801Y-15817984D02*
X17465420Y-15817984D01*
X17465420Y-15817984D02*
X17484468Y-15827508D01*
X17484468Y-15827508D02*
X17493991Y-15837031D01*
X17493991Y-15837031D02*
X17503515Y-15856079D01*
X17503515Y-15856079D02*
X17503515Y-15875127D01*
X17503515Y-15875127D02*
X17493991Y-15903698D01*
X17493991Y-15903698D02*
X17379706Y-16017984D01*
X17379706Y-16017984D02*
X17503515Y-16017984D01*
X17741611Y-16017984D02*
X17741611Y-15817984D01*
X17827325Y-16017984D02*
X17827325Y-15913222D01*
X17827325Y-15913222D02*
X17817801Y-15894174D01*
X17817801Y-15894174D02*
X17798753Y-15884650D01*
X17798753Y-15884650D02*
X17770182Y-15884650D01*
X17770182Y-15884650D02*
X17751134Y-15894174D01*
X17751134Y-15894174D02*
X17741611Y-15903698D01*
X17951134Y-16017984D02*
X17932087Y-16008460D01*
X17932087Y-16008460D02*
X17922563Y-15998936D01*
X17922563Y-15998936D02*
X17913039Y-15979888D01*
X17913039Y-15979888D02*
X17913039Y-15922746D01*
X17913039Y-15922746D02*
X17922563Y-15903698D01*
X17922563Y-15903698D02*
X17932087Y-15894174D01*
X17932087Y-15894174D02*
X17951134Y-15884650D01*
X17951134Y-15884650D02*
X17979706Y-15884650D01*
X17979706Y-15884650D02*
X17998753Y-15894174D01*
X17998753Y-15894174D02*
X18008277Y-15903698D01*
X18008277Y-15903698D02*
X18017801Y-15922746D01*
X18017801Y-15922746D02*
X18017801Y-15979888D01*
X18017801Y-15979888D02*
X18008277Y-15998936D01*
X18008277Y-15998936D02*
X17998753Y-16008460D01*
X17998753Y-16008460D02*
X17979706Y-16017984D01*
X17979706Y-16017984D02*
X17951134Y-16017984D01*
X18132087Y-16017984D02*
X18113039Y-16008460D01*
X18113039Y-16008460D02*
X18103515Y-15989412D01*
X18103515Y-15989412D02*
X18103515Y-15817984D01*
X18284468Y-16008460D02*
X18265420Y-16017984D01*
X18265420Y-16017984D02*
X18227325Y-16017984D01*
X18227325Y-16017984D02*
X18208277Y-16008460D01*
X18208277Y-16008460D02*
X18198753Y-15989412D01*
X18198753Y-15989412D02*
X18198753Y-15913222D01*
X18198753Y-15913222D02*
X18208277Y-15894174D01*
X18208277Y-15894174D02*
X18227325Y-15884650D01*
X18227325Y-15884650D02*
X18265420Y-15884650D01*
X18265420Y-15884650D02*
X18284468Y-15894174D01*
X18284468Y-15894174D02*
X18293992Y-15913222D01*
X18293992Y-15913222D02*
X18293992Y-15932269D01*
X18293992Y-15932269D02*
X18198753Y-15951317D01*
X18370182Y-16008460D02*
X18389230Y-16017984D01*
X18389230Y-16017984D02*
X18427325Y-16017984D01*
X18427325Y-16017984D02*
X18446373Y-16008460D01*
X18446373Y-16008460D02*
X18455896Y-15989412D01*
X18455896Y-15989412D02*
X18455896Y-15979888D01*
X18455896Y-15979888D02*
X18446373Y-15960841D01*
X18446373Y-15960841D02*
X18427325Y-15951317D01*
X18427325Y-15951317D02*
X18398753Y-15951317D01*
X18398753Y-15951317D02*
X18379706Y-15941793D01*
X18379706Y-15941793D02*
X18370182Y-15922746D01*
X18370182Y-15922746D02*
X18370182Y-15913222D01*
X18370182Y-15913222D02*
X18379706Y-15894174D01*
X18379706Y-15894174D02*
X18398753Y-15884650D01*
X18398753Y-15884650D02*
X18427325Y-15884650D01*
X18427325Y-15884650D02*
X18446373Y-15894174D01*
X18522563Y-16094174D02*
X18532087Y-16084650D01*
X18532087Y-16084650D02*
X18551134Y-16056079D01*
X18551134Y-16056079D02*
X18560658Y-16037031D01*
X18560658Y-16037031D02*
X18570182Y-16008460D01*
X18570182Y-16008460D02*
X18579706Y-15960841D01*
X18579706Y-15960841D02*
X18579706Y-15922746D01*
X18579706Y-15922746D02*
X18570182Y-15875127D01*
X18570182Y-15875127D02*
X18560658Y-15846555D01*
X18560658Y-15846555D02*
X18551134Y-15827508D01*
X18551134Y-15827508D02*
X18532087Y-15798936D01*
X18532087Y-15798936D02*
X18522563Y-15789412D01*
M02*
