%TF.GenerationSoftware,KiCad,Pcbnew,9.0.6*%
%TF.CreationDate,2026-01-30T19:37:08-05:00*%
%TF.ProjectId,flight controller,666c6967-6874-4206-936f-6e74726f6c6c,rev?*%
%TF.SameCoordinates,Original*%
%TF.FileFunction,Soldermask,Bot*%
%TF.FilePolarity,Negative*%
%FSLAX46Y46*%
G04 Gerber Fmt 4.6, Leading zero omitted, Abs format (unit mm)*
G04 Created by KiCad (PCBNEW 9.0.6) date 2026-01-30 19:37:08*
%MOMM*%
%LPD*%
G01*
G04 APERTURE LIST*
G04 Aperture macros list*
%AMRoundRect*
0 Rectangle with rounded corners*
0 $1 Rounding radius*
0 $2 $3 $4 $5 $6 $7 $8 $9 X,Y pos of 4 corners*
0 Add a 4 corners polygon primitive as box body*
4,1,4,$2,$3,$4,$5,$6,$7,$8,$9,$2,$3,0*
0 Add four circle primitives for the rounded corners*
1,1,$1+$1,$2,$3*
1,1,$1+$1,$4,$5*
1,1,$1+$1,$6,$7*
1,1,$1+$1,$8,$9*
0 Add four rect primitives between the rounded corners*
20,1,$1+$1,$2,$3,$4,$5,0*
20,1,$1+$1,$4,$5,$6,$7,0*
20,1,$1+$1,$6,$7,$8,$9,0*
20,1,$1+$1,$8,$9,$2,$3,0*%
G04 Aperture macros list end*
%ADD10C,2.700000*%
%ADD11RoundRect,0.250000X-0.600000X-0.725000X0.600000X-0.725000X0.600000X0.725000X-0.600000X0.725000X0*%
%ADD12O,1.700000X1.950000*%
%ADD13C,1.400000*%
%ADD14RoundRect,0.770000X0.980000X0.980000X-0.980000X0.980000X-0.980000X-0.980000X0.980000X-0.980000X0*%
%ADD15C,3.500000*%
%ADD16C,0.650000*%
%ADD17O,2.100000X1.000000*%
%ADD18O,1.600000X1.000000*%
%ADD19C,1.200000*%
%ADD20RoundRect,0.250000X0.650000X-0.325000X0.650000X0.325000X-0.650000X0.325000X-0.650000X-0.325000X0*%
%ADD21RoundRect,0.200000X0.200000X0.275000X-0.200000X0.275000X-0.200000X-0.275000X0.200000X-0.275000X0*%
%ADD22RoundRect,0.200000X-0.275000X0.200000X-0.275000X-0.200000X0.275000X-0.200000X0.275000X0.200000X0*%
%ADD23R,1.800000X1.000000*%
%ADD24RoundRect,0.225000X-0.225000X-0.250000X0.225000X-0.250000X0.225000X0.250000X-0.225000X0.250000X0*%
%ADD25RoundRect,0.225000X0.250000X-0.225000X0.250000X0.225000X-0.250000X0.225000X-0.250000X-0.225000X0*%
%ADD26RoundRect,0.225000X0.225000X0.250000X-0.225000X0.250000X-0.225000X-0.250000X0.225000X-0.250000X0*%
%ADD27RoundRect,0.200000X0.275000X-0.200000X0.275000X0.200000X-0.275000X0.200000X-0.275000X-0.200000X0*%
%ADD28R,0.360000X0.800000*%
%ADD29R,2.800000X1.500000*%
%ADD30RoundRect,0.225000X-0.250000X0.225000X-0.250000X-0.225000X0.250000X-0.225000X0.250000X0.225000X0*%
%ADD31RoundRect,0.250000X-0.450000X-0.350000X0.450000X-0.350000X0.450000X0.350000X-0.450000X0.350000X0*%
%ADD32RoundRect,0.250000X0.350000X-0.450000X0.350000X0.450000X-0.350000X0.450000X-0.350000X-0.450000X0*%
%ADD33RoundRect,0.075000X0.725000X0.075000X-0.725000X0.075000X-0.725000X-0.075000X0.725000X-0.075000X0*%
%ADD34RoundRect,0.075000X0.075000X0.725000X-0.075000X0.725000X-0.075000X-0.725000X0.075000X-0.725000X0*%
G04 APERTURE END LIST*
D10*
%TO.C,REF\u002A\u002A*%
X142500000Y-60000000D03*
%TD*%
D11*
%TO.C,J4*%
X160000000Y-108000000D03*
D12*
X162500000Y-108000000D03*
X165000000Y-108000000D03*
%TD*%
D10*
%TO.C,REF\u002A\u002A*%
X142500000Y-127500000D03*
%TD*%
D11*
%TO.C,J10*%
X170000000Y-114500000D03*
D12*
X172500000Y-114500000D03*
X175000000Y-114500000D03*
%TD*%
D11*
%TO.C,J22*%
X167500000Y-96000000D03*
D12*
X170000000Y-96000000D03*
X172500000Y-96000000D03*
X175000000Y-96000000D03*
%TD*%
D11*
%TO.C,J26*%
X167500000Y-90000000D03*
D12*
X170000000Y-90000000D03*
X172500000Y-90000000D03*
X175000000Y-90000000D03*
%TD*%
D13*
%TO.C,J1*%
X163000000Y-133825000D03*
X152000000Y-133825000D03*
D14*
X155000000Y-123825000D03*
D15*
X160000000Y-123825000D03*
%TD*%
D11*
%TO.C,J16*%
X140000000Y-53000000D03*
D12*
X142500000Y-53000000D03*
X145000000Y-53000000D03*
%TD*%
D11*
%TO.C,J11*%
X140000000Y-120500000D03*
D12*
X142500000Y-120500000D03*
X145000000Y-120500000D03*
%TD*%
D11*
%TO.C,J13*%
X140000000Y-133475000D03*
D12*
X142500000Y-133475000D03*
X145000000Y-133475000D03*
%TD*%
D11*
%TO.C,J21*%
X162500000Y-65975000D03*
D12*
X165000000Y-65975000D03*
X167500000Y-65975000D03*
X170000000Y-65975000D03*
X172500000Y-65975000D03*
X175000000Y-65975000D03*
%TD*%
D11*
%TO.C,J18*%
X140000000Y-66000000D03*
D12*
X142500000Y-66000000D03*
X145000000Y-66000000D03*
%TD*%
D11*
%TO.C,J12*%
X170000000Y-120500000D03*
D12*
X172500000Y-120500000D03*
X175000000Y-120500000D03*
%TD*%
D11*
%TO.C,J25*%
X162500000Y-53000000D03*
D12*
X165000000Y-53000000D03*
X167500000Y-53000000D03*
X170000000Y-53000000D03*
X172500000Y-53000000D03*
X175000000Y-53000000D03*
%TD*%
D16*
%TO.C,J19*%
X143605000Y-73110000D03*
X143605000Y-78890000D03*
D17*
X144105000Y-71680000D03*
D18*
X139925000Y-71680000D03*
D17*
X144105000Y-80320000D03*
D18*
X139925000Y-80320000D03*
%TD*%
D11*
%TO.C,J27*%
X167500000Y-84000000D03*
D12*
X170000000Y-84000000D03*
X172500000Y-84000000D03*
X175000000Y-84000000D03*
%TD*%
D11*
%TO.C,J3*%
X150000000Y-108000000D03*
D12*
X152500000Y-108000000D03*
X155000000Y-108000000D03*
%TD*%
D11*
%TO.C,J14*%
X170000000Y-133475000D03*
D12*
X172500000Y-133475000D03*
X175000000Y-133475000D03*
%TD*%
D11*
%TO.C,J6*%
X140000000Y-114500000D03*
D12*
X142500000Y-114500000D03*
X145000000Y-114500000D03*
%TD*%
D19*
%TO.C,J8*%
X141162500Y-85550000D03*
X141162500Y-93550000D03*
%TD*%
D11*
%TO.C,J2*%
X140000000Y-108000000D03*
D12*
X142500000Y-108000000D03*
X145000000Y-108000000D03*
%TD*%
D11*
%TO.C,J20*%
X162500000Y-72000000D03*
D12*
X165000000Y-72000000D03*
X167500000Y-72000000D03*
X170000000Y-72000000D03*
X172500000Y-72000000D03*
X175000000Y-72000000D03*
%TD*%
D11*
%TO.C,J23*%
X167500000Y-78000000D03*
D12*
X170000000Y-78000000D03*
X172500000Y-78000000D03*
X175000000Y-78000000D03*
%TD*%
D11*
%TO.C,J15*%
X167500000Y-102000000D03*
D12*
X170000000Y-102000000D03*
X172500000Y-102000000D03*
X175000000Y-102000000D03*
%TD*%
D10*
%TO.C,REF\u002A\u002A*%
X172500000Y-127500000D03*
%TD*%
D11*
%TO.C,J17*%
X150000000Y-53000000D03*
D12*
X152500000Y-53000000D03*
X155000000Y-53000000D03*
%TD*%
D11*
%TO.C,J24*%
X140000000Y-102000000D03*
D12*
X142500000Y-102000000D03*
X145000000Y-102000000D03*
X147500000Y-102000000D03*
X150000000Y-102000000D03*
X152500000Y-102000000D03*
X155000000Y-102000000D03*
X157500000Y-102000000D03*
X160000000Y-102000000D03*
X162500000Y-102000000D03*
%TD*%
D11*
%TO.C,J9*%
X160000000Y-114500000D03*
D12*
X162500000Y-114500000D03*
X165000000Y-114500000D03*
%TD*%
D11*
%TO.C,J7*%
X150000000Y-114500000D03*
D12*
X152500000Y-114500000D03*
X155000000Y-114500000D03*
%TD*%
D11*
%TO.C,J5*%
X170000000Y-108000000D03*
D12*
X172500000Y-108000000D03*
X175000000Y-108000000D03*
%TD*%
D10*
%TO.C,REF\u002A\u002A*%
X172500000Y-60000000D03*
%TD*%
D20*
%TO.C,C20*%
X155000000Y-61475000D03*
X155000000Y-58525000D03*
%TD*%
D21*
%TO.C,R6*%
X140325000Y-84000000D03*
X138675000Y-84000000D03*
%TD*%
D22*
%TO.C,R21*%
X165000000Y-59175000D03*
X165000000Y-60825000D03*
%TD*%
D21*
%TO.C,R4*%
X140325000Y-87000000D03*
X138675000Y-87000000D03*
%TD*%
D23*
%TO.C,Y3*%
X162500000Y-85750000D03*
X162500000Y-83250000D03*
%TD*%
D22*
%TO.C,R22*%
X166500000Y-59175000D03*
X166500000Y-60825000D03*
%TD*%
D21*
%TO.C,R1*%
X140325000Y-96000000D03*
X138675000Y-96000000D03*
%TD*%
D24*
%TO.C,C6*%
X157225000Y-81000000D03*
X158775000Y-81000000D03*
%TD*%
D25*
%TO.C,C27*%
X165000000Y-87275000D03*
X165000000Y-85725000D03*
%TD*%
D26*
%TO.C,C10*%
X145775000Y-100000000D03*
X144225000Y-100000000D03*
%TD*%
D22*
%TO.C,R17*%
X148000000Y-65175000D03*
X148000000Y-66825000D03*
%TD*%
D27*
%TO.C,R19*%
X141000000Y-70325000D03*
X141000000Y-68675000D03*
%TD*%
D21*
%TO.C,R9*%
X140325000Y-88500000D03*
X138675000Y-88500000D03*
%TD*%
D25*
%TO.C,C24*%
X165000000Y-83275000D03*
X165000000Y-81725000D03*
%TD*%
D28*
%TO.C,U5*%
X155270000Y-67580000D03*
X154620000Y-67580000D03*
X153970000Y-67580000D03*
X153320000Y-67580000D03*
X152670000Y-67580000D03*
X152020000Y-67580000D03*
X151370000Y-67580000D03*
X150720000Y-67580000D03*
X150720000Y-64420000D03*
X151370000Y-64420000D03*
X152020000Y-64420000D03*
X152670000Y-64420000D03*
X153320000Y-64420000D03*
X153970000Y-64420000D03*
X154620000Y-64420000D03*
X155270000Y-64420000D03*
D29*
X154170000Y-66000000D03*
X151170000Y-66000000D03*
%TD*%
D27*
%TO.C,R18*%
X143000000Y-70325000D03*
X143000000Y-68675000D03*
%TD*%
D26*
%TO.C,C26*%
X140275000Y-82500000D03*
X138725000Y-82500000D03*
%TD*%
D24*
%TO.C,C28*%
X147225000Y-100000000D03*
X148775000Y-100000000D03*
%TD*%
D21*
%TO.C,R12*%
X140325000Y-91500000D03*
X138675000Y-91500000D03*
%TD*%
%TO.C,R15*%
X141325000Y-74500000D03*
X139675000Y-74500000D03*
%TD*%
%TO.C,R13*%
X141325000Y-76000000D03*
X139675000Y-76000000D03*
%TD*%
%TO.C,R3*%
X162825000Y-99500000D03*
X161175000Y-99500000D03*
%TD*%
%TO.C,R14*%
X152825000Y-58500000D03*
X151175000Y-58500000D03*
%TD*%
D25*
%TO.C,C11*%
X142000000Y-84275000D03*
X142000000Y-82725000D03*
%TD*%
D30*
%TO.C,C18*%
X157000000Y-66225000D03*
X157000000Y-67775000D03*
%TD*%
D26*
%TO.C,C22*%
X163275000Y-87500000D03*
X161725000Y-87500000D03*
%TD*%
D31*
%TO.C,Y1*%
X153400000Y-69650000D03*
X155600000Y-69650000D03*
X155600000Y-71350000D03*
X153400000Y-71350000D03*
%TD*%
D21*
%TO.C,R16*%
X152825000Y-60000000D03*
X151175000Y-60000000D03*
%TD*%
D20*
%TO.C,C19*%
X157500000Y-61475000D03*
X157500000Y-58525000D03*
%TD*%
D26*
%TO.C,C23*%
X163275000Y-93500000D03*
X161725000Y-93500000D03*
%TD*%
D21*
%TO.C,R11*%
X140325000Y-90000000D03*
X138675000Y-90000000D03*
%TD*%
D30*
%TO.C,C17*%
X158500000Y-66225000D03*
X158500000Y-67775000D03*
%TD*%
D21*
%TO.C,R5*%
X162825000Y-98000000D03*
X161175000Y-98000000D03*
%TD*%
D32*
%TO.C,Y2*%
X161650000Y-91600000D03*
X161650000Y-89400000D03*
X163350000Y-89400000D03*
X163350000Y-91600000D03*
%TD*%
D33*
%TO.C,U4*%
X159175000Y-84500000D03*
X159175000Y-85000000D03*
X159175000Y-85500000D03*
X159175000Y-86000000D03*
X159175000Y-86500000D03*
X159175000Y-87000000D03*
X159175000Y-87500000D03*
X159175000Y-88000000D03*
X159175000Y-88500000D03*
X159175000Y-89000000D03*
X159175000Y-89500000D03*
X159175000Y-90000000D03*
X159175000Y-90500000D03*
X159175000Y-91000000D03*
X159175000Y-91500000D03*
X159175000Y-92000000D03*
X159175000Y-92500000D03*
X159175000Y-93000000D03*
X159175000Y-93500000D03*
X159175000Y-94000000D03*
X159175000Y-94500000D03*
X159175000Y-95000000D03*
X159175000Y-95500000D03*
X159175000Y-96000000D03*
X159175000Y-96500000D03*
D34*
X157500000Y-98175000D03*
X157000000Y-98175000D03*
X156500000Y-98175000D03*
X156000000Y-98175000D03*
X155500000Y-98175000D03*
X155000000Y-98175000D03*
X154500000Y-98175000D03*
X154000000Y-98175000D03*
X153500000Y-98175000D03*
X153000000Y-98175000D03*
X152500000Y-98175000D03*
X152000000Y-98175000D03*
X151500000Y-98175000D03*
X151000000Y-98175000D03*
X150500000Y-98175000D03*
X150000000Y-98175000D03*
X149500000Y-98175000D03*
X149000000Y-98175000D03*
X148500000Y-98175000D03*
X148000000Y-98175000D03*
X147500000Y-98175000D03*
X147000000Y-98175000D03*
X146500000Y-98175000D03*
X146000000Y-98175000D03*
X145500000Y-98175000D03*
D33*
X143825000Y-96500000D03*
X143825000Y-96000000D03*
X143825000Y-95500000D03*
X143825000Y-95000000D03*
X143825000Y-94500000D03*
X143825000Y-94000000D03*
X143825000Y-93500000D03*
X143825000Y-93000000D03*
X143825000Y-92500000D03*
X143825000Y-92000000D03*
X143825000Y-91500000D03*
X143825000Y-91000000D03*
X143825000Y-90500000D03*
X143825000Y-90000000D03*
X143825000Y-89500000D03*
X143825000Y-89000000D03*
X143825000Y-88500000D03*
X143825000Y-88000000D03*
X143825000Y-87500000D03*
X143825000Y-87000000D03*
X143825000Y-86500000D03*
X143825000Y-86000000D03*
X143825000Y-85500000D03*
X143825000Y-85000000D03*
X143825000Y-84500000D03*
D34*
X145500000Y-82825000D03*
X146000000Y-82825000D03*
X146500000Y-82825000D03*
X147000000Y-82825000D03*
X147500000Y-82825000D03*
X148000000Y-82825000D03*
X148500000Y-82825000D03*
X149000000Y-82825000D03*
X149500000Y-82825000D03*
X150000000Y-82825000D03*
X150500000Y-82825000D03*
X151000000Y-82825000D03*
X151500000Y-82825000D03*
X152000000Y-82825000D03*
X152500000Y-82825000D03*
X153000000Y-82825000D03*
X153500000Y-82825000D03*
X154000000Y-82825000D03*
X154500000Y-82825000D03*
X155000000Y-82825000D03*
X155500000Y-82825000D03*
X156000000Y-82825000D03*
X156500000Y-82825000D03*
X157000000Y-82825000D03*
X157500000Y-82825000D03*
%TD*%
D26*
%TO.C,C21*%
X152275000Y-63000000D03*
X150725000Y-63000000D03*
%TD*%
M02*
