%TF.GenerationSoftware,KiCad,Pcbnew,9.0.6*%
%TF.CreationDate,2026-01-30T19:54:56-05:00*%
%TF.ProjectId,flight controller,666c6967-6874-4206-936f-6e74726f6c6c,rev?*%
%TF.SameCoordinates,Original*%
%TF.FileFunction,Paste,Top*%
%TF.FilePolarity,Positive*%
%FSLAX46Y46*%
G04 Gerber Fmt 4.6, Leading zero omitted, Abs format (unit mm)*
G04 Created by KiCad (PCBNEW 9.0.6) date 2026-01-30 19:54:56*
%MOMM*%
%LPD*%
G01*
G04 APERTURE LIST*
G04 Aperture macros list*
%AMRoundRect*
0 Rectangle with rounded corners*
0 $1 Rounding radius*
0 $2 $3 $4 $5 $6 $7 $8 $9 X,Y pos of 4 corners*
0 Add a 4 corners polygon primitive as box body*
4,1,4,$2,$3,$4,$5,$6,$7,$8,$9,$2,$3,0*
0 Add four circle primitives for the rounded corners*
1,1,$1+$1,$2,$3*
1,1,$1+$1,$4,$5*
1,1,$1+$1,$6,$7*
1,1,$1+$1,$8,$9*
0 Add four rect primitives between the rounded corners*
20,1,$1+$1,$2,$3,$4,$5,0*
20,1,$1+$1,$4,$5,$6,$7,0*
20,1,$1+$1,$6,$7,$8,$9,0*
20,1,$1+$1,$8,$9,$2,$3,0*%
G04 Aperture macros list end*
%ADD10RoundRect,0.200000X-0.200000X-0.275000X0.200000X-0.275000X0.200000X0.275000X-0.200000X0.275000X0*%
%ADD11RoundRect,0.225000X-0.225000X-0.250000X0.225000X-0.250000X0.225000X0.250000X-0.225000X0.250000X0*%
%ADD12RoundRect,0.225000X0.250000X-0.225000X0.250000X0.225000X-0.250000X0.225000X-0.250000X-0.225000X0*%
%ADD13RoundRect,0.225000X0.225000X0.250000X-0.225000X0.250000X-0.225000X-0.250000X0.225000X-0.250000X0*%
%ADD14RoundRect,0.225000X-0.250000X0.225000X-0.250000X-0.225000X0.250000X-0.225000X0.250000X0.225000X0*%
%ADD15RoundRect,0.250000X0.325000X0.650000X-0.325000X0.650000X-0.325000X-0.650000X0.325000X-0.650000X0*%
%ADD16RoundRect,0.250000X1.000000X0.650000X-1.000000X0.650000X-1.000000X-0.650000X1.000000X-0.650000X0*%
%ADD17RoundRect,0.250000X0.925000X1.500000X-0.925000X1.500000X-0.925000X-1.500000X0.925000X-1.500000X0*%
%ADD18RoundRect,0.150000X-0.500000X0.150000X-0.500000X-0.150000X0.500000X-0.150000X0.500000X0.150000X0*%
%ADD19RoundRect,0.075000X-0.575000X0.075000X-0.575000X-0.075000X0.575000X-0.075000X0.575000X0.075000X0*%
%ADD20RoundRect,0.250000X0.475000X-0.250000X0.475000X0.250000X-0.475000X0.250000X-0.475000X-0.250000X0*%
%ADD21RoundRect,0.250000X0.250000X0.475000X-0.250000X0.475000X-0.250000X-0.475000X0.250000X-0.475000X0*%
%ADD22RoundRect,0.200000X0.200000X0.275000X-0.200000X0.275000X-0.200000X-0.275000X0.200000X-0.275000X0*%
%ADD23RoundRect,0.090000X0.660000X0.360000X-0.660000X0.360000X-0.660000X-0.360000X0.660000X-0.360000X0*%
%ADD24R,1.600000X0.700000*%
%ADD25R,1.500000X1.200000*%
%ADD26R,2.200000X1.200000*%
%ADD27R,1.500000X1.600000*%
%ADD28RoundRect,0.243750X0.243750X0.456250X-0.243750X0.456250X-0.243750X-0.456250X0.243750X-0.456250X0*%
%ADD29RoundRect,0.087500X0.125000X0.087500X-0.125000X0.087500X-0.125000X-0.087500X0.125000X-0.087500X0*%
%ADD30RoundRect,0.087500X0.087500X0.125000X-0.087500X0.125000X-0.087500X-0.125000X0.087500X-0.125000X0*%
%ADD31R,0.450000X0.300000*%
%ADD32R,0.300000X0.450000*%
%ADD33RoundRect,0.250000X-0.325000X-0.650000X0.325000X-0.650000X0.325000X0.650000X-0.325000X0.650000X0*%
%ADD34RoundRect,0.150000X0.512500X0.150000X-0.512500X0.150000X-0.512500X-0.150000X0.512500X-0.150000X0*%
%ADD35RoundRect,0.087500X0.087500X-0.225000X0.087500X0.225000X-0.087500X0.225000X-0.087500X-0.225000X0*%
%ADD36RoundRect,0.087500X0.225000X-0.087500X0.225000X0.087500X-0.225000X0.087500X-0.225000X-0.087500X0*%
G04 APERTURE END LIST*
D10*
%TO.C,R2*%
X152175000Y-79000000D03*
X153825000Y-79000000D03*
%TD*%
D11*
%TO.C,C9*%
X157225000Y-97500000D03*
X158775000Y-97500000D03*
%TD*%
D12*
%TO.C,C25*%
X160000000Y-80775000D03*
X160000000Y-79225000D03*
%TD*%
D13*
%TO.C,C1*%
X158275000Y-77000000D03*
X156725000Y-77000000D03*
%TD*%
D14*
%TO.C,C15*%
X154000000Y-88225000D03*
X154000000Y-89775000D03*
%TD*%
D15*
%TO.C,C4*%
X150475000Y-80500000D03*
X147525000Y-80500000D03*
%TD*%
D11*
%TO.C,C3*%
X152225000Y-77500000D03*
X153775000Y-77500000D03*
%TD*%
D16*
%TO.C,D1*%
X155500000Y-59500000D03*
X151500000Y-59500000D03*
%TD*%
D17*
%TO.C,L1*%
X153525000Y-73000000D03*
X147475000Y-73000000D03*
%TD*%
D18*
%TO.C,J19*%
X144745000Y-72800000D03*
X144745000Y-73600000D03*
D19*
X144745000Y-74750000D03*
X144745000Y-75750000D03*
X144745000Y-76250000D03*
X144745000Y-77250000D03*
D18*
X144745000Y-78400000D03*
X144745000Y-79200000D03*
X144745000Y-79200000D03*
X144745000Y-78400000D03*
D19*
X144745000Y-77750000D03*
X144745000Y-76750000D03*
X144745000Y-75250000D03*
X144745000Y-74250000D03*
D18*
X144745000Y-73600000D03*
X144745000Y-72800000D03*
%TD*%
D20*
%TO.C,C16*%
X159000000Y-84950000D03*
X159000000Y-83050000D03*
%TD*%
D21*
%TO.C,C2*%
X158450000Y-71500000D03*
X156550000Y-71500000D03*
%TD*%
D22*
%TO.C,R8*%
X153825000Y-80500000D03*
X152175000Y-80500000D03*
%TD*%
D10*
%TO.C,R7*%
X161675000Y-92000000D03*
X163325000Y-92000000D03*
%TD*%
%TO.C,R10*%
X161675000Y-90500000D03*
X163325000Y-90500000D03*
%TD*%
D23*
%TO.C,D2*%
X156450000Y-67150000D03*
X156450000Y-63850000D03*
X151550000Y-63850000D03*
X151550000Y-67150000D03*
%TD*%
D24*
%TO.C,J8*%
X152162500Y-92750000D03*
X152162500Y-91650000D03*
X152162500Y-90550000D03*
X152162500Y-89450000D03*
X152162500Y-88350000D03*
X152162500Y-87250000D03*
X152162500Y-86150000D03*
X152162500Y-85050000D03*
D25*
X151162500Y-82750000D03*
D26*
X141562500Y-82750000D03*
X141562500Y-98250000D03*
D27*
X151162500Y-97350000D03*
D24*
X152162500Y-83950000D03*
%TD*%
D28*
%TO.C,D3*%
X163437500Y-84500000D03*
X161562500Y-84500000D03*
%TD*%
D14*
%TO.C,C8*%
X159000000Y-92725000D03*
X159000000Y-94275000D03*
%TD*%
D29*
%TO.C,U2*%
X156262500Y-93250000D03*
X156262500Y-92750000D03*
D30*
X156000000Y-92237500D03*
X155500000Y-92237500D03*
X155000000Y-92237500D03*
D29*
X154737500Y-92750000D03*
X154737500Y-93250000D03*
D30*
X155000000Y-93762500D03*
X155500000Y-93762500D03*
X156000000Y-93762500D03*
%TD*%
D12*
%TO.C,C7*%
X159000000Y-89775000D03*
X159000000Y-88225000D03*
%TD*%
D31*
%TO.C,U3*%
X154725000Y-83250000D03*
X154725000Y-83750000D03*
X154725000Y-84250000D03*
X154725000Y-84750000D03*
D32*
X155250000Y-85275000D03*
X155750000Y-85275000D03*
X156250000Y-85275000D03*
X156750000Y-85275000D03*
D31*
X157275000Y-84750000D03*
X157275000Y-84250000D03*
X157275000Y-83750000D03*
X157275000Y-83250000D03*
D32*
X156750000Y-82725000D03*
X156250000Y-82725000D03*
X155750000Y-82725000D03*
X155250000Y-82725000D03*
%TD*%
D33*
%TO.C,C5*%
X147525000Y-78000000D03*
X150475000Y-78000000D03*
%TD*%
D14*
%TO.C,C14*%
X155500000Y-88225000D03*
X155500000Y-89775000D03*
%TD*%
D11*
%TO.C,C13*%
X155225000Y-86500000D03*
X156775000Y-86500000D03*
%TD*%
D34*
%TO.C,U1*%
X158637500Y-75450000D03*
X158637500Y-74500000D03*
X158637500Y-73550000D03*
X156362500Y-73550000D03*
X156362500Y-74500000D03*
X156362500Y-75450000D03*
%TD*%
D35*
%TO.C,U6*%
X156750000Y-81162500D03*
X157250000Y-81162500D03*
X157750000Y-81162500D03*
X158250000Y-81162500D03*
D36*
X158412500Y-80500000D03*
X158412500Y-80000000D03*
X158412500Y-79500000D03*
D35*
X158250000Y-78837500D03*
X157750000Y-78837500D03*
X157250000Y-78837500D03*
X156750000Y-78837500D03*
D36*
X156587500Y-79500000D03*
X156587500Y-80000000D03*
X156587500Y-80500000D03*
%TD*%
D22*
%TO.C,R20*%
X163325000Y-82500000D03*
X161675000Y-82500000D03*
%TD*%
D11*
%TO.C,C12*%
X155725000Y-95000000D03*
X157275000Y-95000000D03*
%TD*%
M02*
