M48
; DRILL file {KiCad 9.0.6} date 2026-01-30T19:55:17-0500
; FORMAT={-:-/ absolute / metric / decimal}
; #@! TF.CreationDate,2026-01-30T19:55:17-05:00
; #@! TF.GenerationSoftware,Kicad,Pcbnew,9.0.6
; #@! TF.FileFunction,Plated,1,4,PTH
FMAT,2
METRIC
; #@! TA.AperFunction,Plated,PTH,ViaDrill
T1C0.300
; #@! TA.AperFunction,Plated,PTH,ViaDrill
T2C0.500
; #@! TA.AperFunction,Plated,PTH,ComponentDrill
T3C0.600
; #@! TA.AperFunction,Plated,PTH,ComponentDrill
T4C0.950
; #@! TA.AperFunction,Plated,PTH,ComponentDrill
T5C1.000
; #@! TA.AperFunction,Plated,PTH,ComponentDrill
T6C1.200
; #@! TA.AperFunction,Plated,PTH,ComponentDrill
T7C1.900
%
G90
G05
T1
X138.75Y-95.25
X139.2Y-92.5
X140.0Y-92.5
X140.799Y-92.459
X141.0Y-68.0
X141.0Y-84.0
X141.0Y-88.5
X141.0Y-90.0
X141.0Y-91.5
X141.0Y-96.0
X141.998Y-81.649
X142.0Y-74.5
X142.0Y-76.0
X142.0Y-85.0
X142.5Y-80.25
X142.5Y-86.75
X142.5Y-87.55
X142.5Y-92.5
X143.0Y-68.0
X143.5Y-75.25
X143.5Y-77.25
X143.5Y-100.0
X143.798Y-81.75
X145.25Y-86.5
X145.25Y-87.3
X145.25Y-92.6
X145.25Y-93.4
X145.25Y-94.2
X145.25Y-95.0
X145.25Y-95.8
X145.25Y-96.6
X145.434Y-59.684
X145.75Y-84.25
X145.75Y-85.05
X145.75Y-88.75
X145.75Y-89.55
X145.75Y-90.35
X145.75Y-91.15
X145.75Y-100.75
X146.0Y-60.25
X146.0Y-63.75
X146.0Y-67.1
X146.0Y-67.9
X146.0Y-68.7
X146.0Y-69.5
X146.85Y-96.75
X147.65Y-96.75
X148.0Y-67.5
X148.25Y-86.775
X148.45Y-96.75
X148.513Y-81.508
X148.6Y-78.0
X148.6Y-80.028
X149.05Y-86.775
X149.25Y-96.75
X149.27Y-66.0
X149.399Y-79.994
X149.4Y-78.0
X149.5Y-100.0
X149.75Y-59.25
X149.75Y-63.75
X149.85Y-86.775
X150.0Y-99.289
X150.25Y-69.751
X150.295Y-68.5
X150.5Y-84.25
X150.75Y-62.25
X151.0Y-88.25
X151.0Y-91.75
X151.0Y-92.75
X151.0Y-99.289
X151.095Y-68.5
X151.375Y-80.5
X151.895Y-68.5
X152.25Y-62.25
X152.25Y-70.5
X152.25Y-76.75
X152.695Y-68.5
X153.0Y-76.25
X153.5Y-60.0
X153.5Y-84.25
X153.995Y-63.75
X154.035Y-81.539
X154.226Y-91.918
X154.226Y-92.718
X154.698Y-68.291
X154.725Y-77.499
X154.75Y-78.75
X154.75Y-80.5
X155.25Y-87.25
X155.305Y-76.948
X155.5Y-68.625
X155.5Y-91.25
X156.125Y-91.794
X156.25Y-87.25
X156.25Y-88.25
X156.25Y-89.75
X156.5Y-65.25
X156.5Y-95.75
X156.779Y-92.722
X157.227Y-96.773
X157.5Y-80.25
X157.741Y-86.931
X157.75Y-87.75
X157.75Y-88.75
X157.75Y-89.55
X157.75Y-91.65
X157.75Y-92.45
X157.75Y-93.25
X157.75Y-94.05
X158.5Y-82.0
X158.9Y-61.5
X159.25Y-65.0
X159.25Y-66.25
X159.25Y-67.75
X159.5Y-97.5
X159.95Y-78.0
X160.0Y-83.0
X160.25Y-97.125
X160.75Y-78.0
X160.75Y-79.25
X160.75Y-80.75
X160.75Y-89.25
X161.05Y-97.125
X161.55Y-78.0
X162.35Y-78.0
X163.362Y-81.525
X163.5Y-98.75
X164.0Y-60.0
X164.25Y-90.5
X164.25Y-91.75
X165.0Y-81.0
X165.0Y-88.0
X165.0Y-93.5
X166.5Y-61.5
T2
X147.5Y-76.0
X150.5Y-76.0
X157.0Y-69.75
X159.5Y-71.5
X159.75Y-75.5
T4
X140.0Y-53.0
X140.0Y-66.0
X140.0Y-102.0
X140.0Y-108.0
X140.0Y-114.5
X140.0Y-120.5
X140.0Y-133.475
X142.5Y-53.0
X142.5Y-66.0
X142.5Y-102.0
X142.5Y-108.0
X142.5Y-114.5
X142.5Y-120.5
X142.5Y-133.475
X145.0Y-53.0
X145.0Y-66.0
X145.0Y-102.0
X145.0Y-108.0
X145.0Y-114.5
X145.0Y-120.5
X145.0Y-133.475
X147.5Y-102.0
X150.0Y-53.0
X150.0Y-102.0
X150.0Y-108.0
X150.0Y-114.5
X152.5Y-53.0
X152.5Y-102.0
X152.5Y-108.0
X152.5Y-114.5
X155.0Y-53.0
X155.0Y-102.0
X155.0Y-108.0
X155.0Y-114.5
X157.5Y-102.0
X160.0Y-102.0
X160.0Y-108.0
X160.0Y-114.5
X162.5Y-53.0
X162.5Y-65.975
X162.5Y-72.0
X162.5Y-102.0
X162.5Y-108.0
X162.5Y-114.5
X165.0Y-53.0
X165.0Y-65.975
X165.0Y-72.0
X165.0Y-108.0
X165.0Y-114.5
X167.5Y-53.0
X167.5Y-65.975
X167.5Y-72.0
X167.5Y-78.0
X167.5Y-84.0
X167.5Y-90.0
X167.5Y-96.0
X167.5Y-102.0
X170.0Y-53.0
X170.0Y-65.975
X170.0Y-72.0
X170.0Y-78.0
X170.0Y-84.0
X170.0Y-90.0
X170.0Y-96.0
X170.0Y-102.0
X170.0Y-108.0
X170.0Y-114.5
X170.0Y-120.5
X170.0Y-133.475
X172.5Y-53.0
X172.5Y-65.975
X172.5Y-72.0
X172.5Y-78.0
X172.5Y-84.0
X172.5Y-90.0
X172.5Y-96.0
X172.5Y-102.0
X172.5Y-108.0
X172.5Y-114.5
X172.5Y-120.5
X172.5Y-133.475
X175.0Y-53.0
X175.0Y-65.975
X175.0Y-72.0
X175.0Y-78.0
X175.0Y-84.0
X175.0Y-90.0
X175.0Y-96.0
X175.0Y-102.0
X175.0Y-108.0
X175.0Y-114.5
X175.0Y-120.5
X175.0Y-133.475
T5
X152.0Y-133.825
X163.0Y-133.825
T6
X141.162Y-85.55
X141.162Y-93.55
T7
X155.0Y-123.825
X160.0Y-123.825
T3
X140.225Y-71.68G85X139.625Y-71.68
G05
X140.225Y-80.32G85X139.625Y-80.32
G05
X144.655Y-71.68G85X143.555Y-71.68
G05
X144.655Y-80.32G85X143.555Y-80.32
G05
M30
