%TF.GenerationSoftware,KiCad,Pcbnew,9.0.6*%
%TF.CreationDate,2026-01-30T19:54:56-05:00*%
%TF.ProjectId,flight controller,666c6967-6874-4206-936f-6e74726f6c6c,rev?*%
%TF.SameCoordinates,Original*%
%TF.FileFunction,Legend,Bot*%
%TF.FilePolarity,Positive*%
%FSLAX46Y46*%
G04 Gerber Fmt 4.6, Leading zero omitted, Abs format (unit mm)*
G04 Created by KiCad (PCBNEW 9.0.6) date 2026-01-30 19:54:56*
%MOMM*%
%LPD*%
G01*
G04 APERTURE LIST*
G04 Aperture macros list*
%AMRoundRect*
0 Rectangle with rounded corners*
0 $1 Rounding radius*
0 $2 $3 $4 $5 $6 $7 $8 $9 X,Y pos of 4 corners*
0 Add a 4 corners polygon primitive as box body*
4,1,4,$2,$3,$4,$5,$6,$7,$8,$9,$2,$3,0*
0 Add four circle primitives for the rounded corners*
1,1,$1+$1,$2,$3*
1,1,$1+$1,$4,$5*
1,1,$1+$1,$6,$7*
1,1,$1+$1,$8,$9*
0 Add four rect primitives between the rounded corners*
20,1,$1+$1,$2,$3,$4,$5,0*
20,1,$1+$1,$4,$5,$6,$7,0*
20,1,$1+$1,$6,$7,$8,$9,0*
20,1,$1+$1,$8,$9,$2,$3,0*%
G04 Aperture macros list end*
%ADD10C,0.150000*%
%ADD11C,0.120000*%
%ADD12C,0.250000*%
%ADD13C,0.300000*%
%ADD14C,2.700000*%
%ADD15RoundRect,0.250000X-0.600000X-0.725000X0.600000X-0.725000X0.600000X0.725000X-0.600000X0.725000X0*%
%ADD16O,1.700000X1.950000*%
%ADD17C,1.400000*%
%ADD18RoundRect,0.770000X0.980000X0.980000X-0.980000X0.980000X-0.980000X-0.980000X0.980000X-0.980000X0*%
%ADD19C,3.500000*%
%ADD20C,0.650000*%
%ADD21O,2.100000X1.000000*%
%ADD22O,1.600000X1.000000*%
%ADD23C,1.200000*%
%ADD24RoundRect,0.250000X0.650000X-0.325000X0.650000X0.325000X-0.650000X0.325000X-0.650000X-0.325000X0*%
%ADD25RoundRect,0.200000X0.200000X0.275000X-0.200000X0.275000X-0.200000X-0.275000X0.200000X-0.275000X0*%
%ADD26RoundRect,0.200000X-0.275000X0.200000X-0.275000X-0.200000X0.275000X-0.200000X0.275000X0.200000X0*%
%ADD27R,1.800000X1.000000*%
%ADD28RoundRect,0.225000X-0.225000X-0.250000X0.225000X-0.250000X0.225000X0.250000X-0.225000X0.250000X0*%
%ADD29RoundRect,0.225000X0.250000X-0.225000X0.250000X0.225000X-0.250000X0.225000X-0.250000X-0.225000X0*%
%ADD30RoundRect,0.225000X0.225000X0.250000X-0.225000X0.250000X-0.225000X-0.250000X0.225000X-0.250000X0*%
%ADD31RoundRect,0.200000X0.275000X-0.200000X0.275000X0.200000X-0.275000X0.200000X-0.275000X-0.200000X0*%
%ADD32R,0.360000X0.800000*%
%ADD33R,2.800000X1.500000*%
%ADD34RoundRect,0.225000X-0.250000X0.225000X-0.250000X-0.225000X0.250000X-0.225000X0.250000X0.225000X0*%
%ADD35RoundRect,0.250000X-0.450000X-0.350000X0.450000X-0.350000X0.450000X0.350000X-0.450000X0.350000X0*%
%ADD36RoundRect,0.250000X0.350000X-0.450000X0.350000X0.450000X-0.350000X0.450000X-0.350000X-0.450000X0*%
%ADD37RoundRect,0.075000X0.725000X0.075000X-0.725000X0.075000X-0.725000X-0.075000X0.725000X-0.075000X0*%
%ADD38RoundRect,0.075000X0.075000X0.725000X-0.075000X0.725000X-0.075000X-0.725000X0.075000X-0.725000X0*%
G04 APERTURE END LIST*
D10*
X157209580Y-59357142D02*
X157257200Y-59309523D01*
X157257200Y-59309523D02*
X157304819Y-59166666D01*
X157304819Y-59166666D02*
X157304819Y-59071428D01*
X157304819Y-59071428D02*
X157257200Y-58928571D01*
X157257200Y-58928571D02*
X157161961Y-58833333D01*
X157161961Y-58833333D02*
X157066723Y-58785714D01*
X157066723Y-58785714D02*
X156876247Y-58738095D01*
X156876247Y-58738095D02*
X156733390Y-58738095D01*
X156733390Y-58738095D02*
X156542914Y-58785714D01*
X156542914Y-58785714D02*
X156447676Y-58833333D01*
X156447676Y-58833333D02*
X156352438Y-58928571D01*
X156352438Y-58928571D02*
X156304819Y-59071428D01*
X156304819Y-59071428D02*
X156304819Y-59166666D01*
X156304819Y-59166666D02*
X156352438Y-59309523D01*
X156352438Y-59309523D02*
X156400057Y-59357142D01*
X156400057Y-59738095D02*
X156352438Y-59785714D01*
X156352438Y-59785714D02*
X156304819Y-59880952D01*
X156304819Y-59880952D02*
X156304819Y-60119047D01*
X156304819Y-60119047D02*
X156352438Y-60214285D01*
X156352438Y-60214285D02*
X156400057Y-60261904D01*
X156400057Y-60261904D02*
X156495295Y-60309523D01*
X156495295Y-60309523D02*
X156590533Y-60309523D01*
X156590533Y-60309523D02*
X156733390Y-60261904D01*
X156733390Y-60261904D02*
X157304819Y-59690476D01*
X157304819Y-59690476D02*
X157304819Y-60309523D01*
X156304819Y-60928571D02*
X156304819Y-61023809D01*
X156304819Y-61023809D02*
X156352438Y-61119047D01*
X156352438Y-61119047D02*
X156400057Y-61166666D01*
X156400057Y-61166666D02*
X156495295Y-61214285D01*
X156495295Y-61214285D02*
X156685771Y-61261904D01*
X156685771Y-61261904D02*
X156923866Y-61261904D01*
X156923866Y-61261904D02*
X157114342Y-61214285D01*
X157114342Y-61214285D02*
X157209580Y-61166666D01*
X157209580Y-61166666D02*
X157257200Y-61119047D01*
X157257200Y-61119047D02*
X157304819Y-61023809D01*
X157304819Y-61023809D02*
X157304819Y-60928571D01*
X157304819Y-60928571D02*
X157257200Y-60833333D01*
X157257200Y-60833333D02*
X157209580Y-60785714D01*
X157209580Y-60785714D02*
X157114342Y-60738095D01*
X157114342Y-60738095D02*
X156923866Y-60690476D01*
X156923866Y-60690476D02*
X156685771Y-60690476D01*
X156685771Y-60690476D02*
X156495295Y-60738095D01*
X156495295Y-60738095D02*
X156400057Y-60785714D01*
X156400057Y-60785714D02*
X156352438Y-60833333D01*
X156352438Y-60833333D02*
X156304819Y-60928571D01*
X139666666Y-83024819D02*
X139999999Y-82548628D01*
X140238094Y-83024819D02*
X140238094Y-82024819D01*
X140238094Y-82024819D02*
X139857142Y-82024819D01*
X139857142Y-82024819D02*
X139761904Y-82072438D01*
X139761904Y-82072438D02*
X139714285Y-82120057D01*
X139714285Y-82120057D02*
X139666666Y-82215295D01*
X139666666Y-82215295D02*
X139666666Y-82358152D01*
X139666666Y-82358152D02*
X139714285Y-82453390D01*
X139714285Y-82453390D02*
X139761904Y-82501009D01*
X139761904Y-82501009D02*
X139857142Y-82548628D01*
X139857142Y-82548628D02*
X140238094Y-82548628D01*
X138809523Y-82024819D02*
X138999999Y-82024819D01*
X138999999Y-82024819D02*
X139095237Y-82072438D01*
X139095237Y-82072438D02*
X139142856Y-82120057D01*
X139142856Y-82120057D02*
X139238094Y-82262914D01*
X139238094Y-82262914D02*
X139285713Y-82453390D01*
X139285713Y-82453390D02*
X139285713Y-82834342D01*
X139285713Y-82834342D02*
X139238094Y-82929580D01*
X139238094Y-82929580D02*
X139190475Y-82977200D01*
X139190475Y-82977200D02*
X139095237Y-83024819D01*
X139095237Y-83024819D02*
X138904761Y-83024819D01*
X138904761Y-83024819D02*
X138809523Y-82977200D01*
X138809523Y-82977200D02*
X138761904Y-82929580D01*
X138761904Y-82929580D02*
X138714285Y-82834342D01*
X138714285Y-82834342D02*
X138714285Y-82596247D01*
X138714285Y-82596247D02*
X138761904Y-82501009D01*
X138761904Y-82501009D02*
X138809523Y-82453390D01*
X138809523Y-82453390D02*
X138904761Y-82405771D01*
X138904761Y-82405771D02*
X139095237Y-82405771D01*
X139095237Y-82405771D02*
X139190475Y-82453390D01*
X139190475Y-82453390D02*
X139238094Y-82501009D01*
X139238094Y-82501009D02*
X139285713Y-82596247D01*
X164024819Y-59357142D02*
X163548628Y-59023809D01*
X164024819Y-58785714D02*
X163024819Y-58785714D01*
X163024819Y-58785714D02*
X163024819Y-59166666D01*
X163024819Y-59166666D02*
X163072438Y-59261904D01*
X163072438Y-59261904D02*
X163120057Y-59309523D01*
X163120057Y-59309523D02*
X163215295Y-59357142D01*
X163215295Y-59357142D02*
X163358152Y-59357142D01*
X163358152Y-59357142D02*
X163453390Y-59309523D01*
X163453390Y-59309523D02*
X163501009Y-59261904D01*
X163501009Y-59261904D02*
X163548628Y-59166666D01*
X163548628Y-59166666D02*
X163548628Y-58785714D01*
X163120057Y-59738095D02*
X163072438Y-59785714D01*
X163072438Y-59785714D02*
X163024819Y-59880952D01*
X163024819Y-59880952D02*
X163024819Y-60119047D01*
X163024819Y-60119047D02*
X163072438Y-60214285D01*
X163072438Y-60214285D02*
X163120057Y-60261904D01*
X163120057Y-60261904D02*
X163215295Y-60309523D01*
X163215295Y-60309523D02*
X163310533Y-60309523D01*
X163310533Y-60309523D02*
X163453390Y-60261904D01*
X163453390Y-60261904D02*
X164024819Y-59690476D01*
X164024819Y-59690476D02*
X164024819Y-60309523D01*
X164024819Y-61261904D02*
X164024819Y-60690476D01*
X164024819Y-60976190D02*
X163024819Y-60976190D01*
X163024819Y-60976190D02*
X163167676Y-60880952D01*
X163167676Y-60880952D02*
X163262914Y-60785714D01*
X163262914Y-60785714D02*
X163310533Y-60690476D01*
X139666666Y-86024819D02*
X139999999Y-85548628D01*
X140238094Y-86024819D02*
X140238094Y-85024819D01*
X140238094Y-85024819D02*
X139857142Y-85024819D01*
X139857142Y-85024819D02*
X139761904Y-85072438D01*
X139761904Y-85072438D02*
X139714285Y-85120057D01*
X139714285Y-85120057D02*
X139666666Y-85215295D01*
X139666666Y-85215295D02*
X139666666Y-85358152D01*
X139666666Y-85358152D02*
X139714285Y-85453390D01*
X139714285Y-85453390D02*
X139761904Y-85501009D01*
X139761904Y-85501009D02*
X139857142Y-85548628D01*
X139857142Y-85548628D02*
X140238094Y-85548628D01*
X138809523Y-85358152D02*
X138809523Y-86024819D01*
X139047618Y-84977200D02*
X139285713Y-85691485D01*
X139285713Y-85691485D02*
X138666666Y-85691485D01*
X160478628Y-84023809D02*
X160954819Y-84023809D01*
X159954819Y-83690476D02*
X160478628Y-84023809D01*
X160478628Y-84023809D02*
X159954819Y-84357142D01*
X159954819Y-84595238D02*
X159954819Y-85214285D01*
X159954819Y-85214285D02*
X160335771Y-84880952D01*
X160335771Y-84880952D02*
X160335771Y-85023809D01*
X160335771Y-85023809D02*
X160383390Y-85119047D01*
X160383390Y-85119047D02*
X160431009Y-85166666D01*
X160431009Y-85166666D02*
X160526247Y-85214285D01*
X160526247Y-85214285D02*
X160764342Y-85214285D01*
X160764342Y-85214285D02*
X160859580Y-85166666D01*
X160859580Y-85166666D02*
X160907200Y-85119047D01*
X160907200Y-85119047D02*
X160954819Y-85023809D01*
X160954819Y-85023809D02*
X160954819Y-84738095D01*
X160954819Y-84738095D02*
X160907200Y-84642857D01*
X160907200Y-84642857D02*
X160859580Y-84595238D01*
X165524819Y-59357142D02*
X165048628Y-59023809D01*
X165524819Y-58785714D02*
X164524819Y-58785714D01*
X164524819Y-58785714D02*
X164524819Y-59166666D01*
X164524819Y-59166666D02*
X164572438Y-59261904D01*
X164572438Y-59261904D02*
X164620057Y-59309523D01*
X164620057Y-59309523D02*
X164715295Y-59357142D01*
X164715295Y-59357142D02*
X164858152Y-59357142D01*
X164858152Y-59357142D02*
X164953390Y-59309523D01*
X164953390Y-59309523D02*
X165001009Y-59261904D01*
X165001009Y-59261904D02*
X165048628Y-59166666D01*
X165048628Y-59166666D02*
X165048628Y-58785714D01*
X164620057Y-59738095D02*
X164572438Y-59785714D01*
X164572438Y-59785714D02*
X164524819Y-59880952D01*
X164524819Y-59880952D02*
X164524819Y-60119047D01*
X164524819Y-60119047D02*
X164572438Y-60214285D01*
X164572438Y-60214285D02*
X164620057Y-60261904D01*
X164620057Y-60261904D02*
X164715295Y-60309523D01*
X164715295Y-60309523D02*
X164810533Y-60309523D01*
X164810533Y-60309523D02*
X164953390Y-60261904D01*
X164953390Y-60261904D02*
X165524819Y-59690476D01*
X165524819Y-59690476D02*
X165524819Y-60309523D01*
X164620057Y-60690476D02*
X164572438Y-60738095D01*
X164572438Y-60738095D02*
X164524819Y-60833333D01*
X164524819Y-60833333D02*
X164524819Y-61071428D01*
X164524819Y-61071428D02*
X164572438Y-61166666D01*
X164572438Y-61166666D02*
X164620057Y-61214285D01*
X164620057Y-61214285D02*
X164715295Y-61261904D01*
X164715295Y-61261904D02*
X164810533Y-61261904D01*
X164810533Y-61261904D02*
X164953390Y-61214285D01*
X164953390Y-61214285D02*
X165524819Y-60642857D01*
X165524819Y-60642857D02*
X165524819Y-61261904D01*
X139666666Y-95024819D02*
X139999999Y-94548628D01*
X140238094Y-95024819D02*
X140238094Y-94024819D01*
X140238094Y-94024819D02*
X139857142Y-94024819D01*
X139857142Y-94024819D02*
X139761904Y-94072438D01*
X139761904Y-94072438D02*
X139714285Y-94120057D01*
X139714285Y-94120057D02*
X139666666Y-94215295D01*
X139666666Y-94215295D02*
X139666666Y-94358152D01*
X139666666Y-94358152D02*
X139714285Y-94453390D01*
X139714285Y-94453390D02*
X139761904Y-94501009D01*
X139761904Y-94501009D02*
X139857142Y-94548628D01*
X139857142Y-94548628D02*
X140238094Y-94548628D01*
X138714285Y-95024819D02*
X139285713Y-95024819D01*
X138999999Y-95024819D02*
X138999999Y-94024819D01*
X138999999Y-94024819D02*
X139095237Y-94167676D01*
X139095237Y-94167676D02*
X139190475Y-94262914D01*
X139190475Y-94262914D02*
X139285713Y-94310533D01*
X158166666Y-82789580D02*
X158214285Y-82837200D01*
X158214285Y-82837200D02*
X158357142Y-82884819D01*
X158357142Y-82884819D02*
X158452380Y-82884819D01*
X158452380Y-82884819D02*
X158595237Y-82837200D01*
X158595237Y-82837200D02*
X158690475Y-82741961D01*
X158690475Y-82741961D02*
X158738094Y-82646723D01*
X158738094Y-82646723D02*
X158785713Y-82456247D01*
X158785713Y-82456247D02*
X158785713Y-82313390D01*
X158785713Y-82313390D02*
X158738094Y-82122914D01*
X158738094Y-82122914D02*
X158690475Y-82027676D01*
X158690475Y-82027676D02*
X158595237Y-81932438D01*
X158595237Y-81932438D02*
X158452380Y-81884819D01*
X158452380Y-81884819D02*
X158357142Y-81884819D01*
X158357142Y-81884819D02*
X158214285Y-81932438D01*
X158214285Y-81932438D02*
X158166666Y-81980057D01*
X157309523Y-81884819D02*
X157499999Y-81884819D01*
X157499999Y-81884819D02*
X157595237Y-81932438D01*
X157595237Y-81932438D02*
X157642856Y-81980057D01*
X157642856Y-81980057D02*
X157738094Y-82122914D01*
X157738094Y-82122914D02*
X157785713Y-82313390D01*
X157785713Y-82313390D02*
X157785713Y-82694342D01*
X157785713Y-82694342D02*
X157738094Y-82789580D01*
X157738094Y-82789580D02*
X157690475Y-82837200D01*
X157690475Y-82837200D02*
X157595237Y-82884819D01*
X157595237Y-82884819D02*
X157404761Y-82884819D01*
X157404761Y-82884819D02*
X157309523Y-82837200D01*
X157309523Y-82837200D02*
X157261904Y-82789580D01*
X157261904Y-82789580D02*
X157214285Y-82694342D01*
X157214285Y-82694342D02*
X157214285Y-82456247D01*
X157214285Y-82456247D02*
X157261904Y-82361009D01*
X157261904Y-82361009D02*
X157309523Y-82313390D01*
X157309523Y-82313390D02*
X157404761Y-82265771D01*
X157404761Y-82265771D02*
X157595237Y-82265771D01*
X157595237Y-82265771D02*
X157690475Y-82313390D01*
X157690475Y-82313390D02*
X157738094Y-82361009D01*
X157738094Y-82361009D02*
X157785713Y-82456247D01*
X166789580Y-85857142D02*
X166837200Y-85809523D01*
X166837200Y-85809523D02*
X166884819Y-85666666D01*
X166884819Y-85666666D02*
X166884819Y-85571428D01*
X166884819Y-85571428D02*
X166837200Y-85428571D01*
X166837200Y-85428571D02*
X166741961Y-85333333D01*
X166741961Y-85333333D02*
X166646723Y-85285714D01*
X166646723Y-85285714D02*
X166456247Y-85238095D01*
X166456247Y-85238095D02*
X166313390Y-85238095D01*
X166313390Y-85238095D02*
X166122914Y-85285714D01*
X166122914Y-85285714D02*
X166027676Y-85333333D01*
X166027676Y-85333333D02*
X165932438Y-85428571D01*
X165932438Y-85428571D02*
X165884819Y-85571428D01*
X165884819Y-85571428D02*
X165884819Y-85666666D01*
X165884819Y-85666666D02*
X165932438Y-85809523D01*
X165932438Y-85809523D02*
X165980057Y-85857142D01*
X165980057Y-86238095D02*
X165932438Y-86285714D01*
X165932438Y-86285714D02*
X165884819Y-86380952D01*
X165884819Y-86380952D02*
X165884819Y-86619047D01*
X165884819Y-86619047D02*
X165932438Y-86714285D01*
X165932438Y-86714285D02*
X165980057Y-86761904D01*
X165980057Y-86761904D02*
X166075295Y-86809523D01*
X166075295Y-86809523D02*
X166170533Y-86809523D01*
X166170533Y-86809523D02*
X166313390Y-86761904D01*
X166313390Y-86761904D02*
X166884819Y-86190476D01*
X166884819Y-86190476D02*
X166884819Y-86809523D01*
X165884819Y-87142857D02*
X165884819Y-87809523D01*
X165884819Y-87809523D02*
X166884819Y-87380952D01*
X145642857Y-98929580D02*
X145690476Y-98977200D01*
X145690476Y-98977200D02*
X145833333Y-99024819D01*
X145833333Y-99024819D02*
X145928571Y-99024819D01*
X145928571Y-99024819D02*
X146071428Y-98977200D01*
X146071428Y-98977200D02*
X146166666Y-98881961D01*
X146166666Y-98881961D02*
X146214285Y-98786723D01*
X146214285Y-98786723D02*
X146261904Y-98596247D01*
X146261904Y-98596247D02*
X146261904Y-98453390D01*
X146261904Y-98453390D02*
X146214285Y-98262914D01*
X146214285Y-98262914D02*
X146166666Y-98167676D01*
X146166666Y-98167676D02*
X146071428Y-98072438D01*
X146071428Y-98072438D02*
X145928571Y-98024819D01*
X145928571Y-98024819D02*
X145833333Y-98024819D01*
X145833333Y-98024819D02*
X145690476Y-98072438D01*
X145690476Y-98072438D02*
X145642857Y-98120057D01*
X144690476Y-99024819D02*
X145261904Y-99024819D01*
X144976190Y-99024819D02*
X144976190Y-98024819D01*
X144976190Y-98024819D02*
X145071428Y-98167676D01*
X145071428Y-98167676D02*
X145166666Y-98262914D01*
X145166666Y-98262914D02*
X145261904Y-98310533D01*
X144071428Y-98024819D02*
X143976190Y-98024819D01*
X143976190Y-98024819D02*
X143880952Y-98072438D01*
X143880952Y-98072438D02*
X143833333Y-98120057D01*
X143833333Y-98120057D02*
X143785714Y-98215295D01*
X143785714Y-98215295D02*
X143738095Y-98405771D01*
X143738095Y-98405771D02*
X143738095Y-98643866D01*
X143738095Y-98643866D02*
X143785714Y-98834342D01*
X143785714Y-98834342D02*
X143833333Y-98929580D01*
X143833333Y-98929580D02*
X143880952Y-98977200D01*
X143880952Y-98977200D02*
X143976190Y-99024819D01*
X143976190Y-99024819D02*
X144071428Y-99024819D01*
X144071428Y-99024819D02*
X144166666Y-98977200D01*
X144166666Y-98977200D02*
X144214285Y-98929580D01*
X144214285Y-98929580D02*
X144261904Y-98834342D01*
X144261904Y-98834342D02*
X144309523Y-98643866D01*
X144309523Y-98643866D02*
X144309523Y-98405771D01*
X144309523Y-98405771D02*
X144261904Y-98215295D01*
X144261904Y-98215295D02*
X144214285Y-98120057D01*
X144214285Y-98120057D02*
X144166666Y-98072438D01*
X144166666Y-98072438D02*
X144071428Y-98024819D01*
X147024819Y-65357142D02*
X146548628Y-65023809D01*
X147024819Y-64785714D02*
X146024819Y-64785714D01*
X146024819Y-64785714D02*
X146024819Y-65166666D01*
X146024819Y-65166666D02*
X146072438Y-65261904D01*
X146072438Y-65261904D02*
X146120057Y-65309523D01*
X146120057Y-65309523D02*
X146215295Y-65357142D01*
X146215295Y-65357142D02*
X146358152Y-65357142D01*
X146358152Y-65357142D02*
X146453390Y-65309523D01*
X146453390Y-65309523D02*
X146501009Y-65261904D01*
X146501009Y-65261904D02*
X146548628Y-65166666D01*
X146548628Y-65166666D02*
X146548628Y-64785714D01*
X147024819Y-66309523D02*
X147024819Y-65738095D01*
X147024819Y-66023809D02*
X146024819Y-66023809D01*
X146024819Y-66023809D02*
X146167676Y-65928571D01*
X146167676Y-65928571D02*
X146262914Y-65833333D01*
X146262914Y-65833333D02*
X146310533Y-65738095D01*
X146024819Y-66642857D02*
X146024819Y-67309523D01*
X146024819Y-67309523D02*
X147024819Y-66880952D01*
X142884819Y-68857142D02*
X142408628Y-68523809D01*
X142884819Y-68285714D02*
X141884819Y-68285714D01*
X141884819Y-68285714D02*
X141884819Y-68666666D01*
X141884819Y-68666666D02*
X141932438Y-68761904D01*
X141932438Y-68761904D02*
X141980057Y-68809523D01*
X141980057Y-68809523D02*
X142075295Y-68857142D01*
X142075295Y-68857142D02*
X142218152Y-68857142D01*
X142218152Y-68857142D02*
X142313390Y-68809523D01*
X142313390Y-68809523D02*
X142361009Y-68761904D01*
X142361009Y-68761904D02*
X142408628Y-68666666D01*
X142408628Y-68666666D02*
X142408628Y-68285714D01*
X142884819Y-69809523D02*
X142884819Y-69238095D01*
X142884819Y-69523809D02*
X141884819Y-69523809D01*
X141884819Y-69523809D02*
X142027676Y-69428571D01*
X142027676Y-69428571D02*
X142122914Y-69333333D01*
X142122914Y-69333333D02*
X142170533Y-69238095D01*
X142884819Y-70285714D02*
X142884819Y-70476190D01*
X142884819Y-70476190D02*
X142837200Y-70571428D01*
X142837200Y-70571428D02*
X142789580Y-70619047D01*
X142789580Y-70619047D02*
X142646723Y-70714285D01*
X142646723Y-70714285D02*
X142456247Y-70761904D01*
X142456247Y-70761904D02*
X142075295Y-70761904D01*
X142075295Y-70761904D02*
X141980057Y-70714285D01*
X141980057Y-70714285D02*
X141932438Y-70666666D01*
X141932438Y-70666666D02*
X141884819Y-70571428D01*
X141884819Y-70571428D02*
X141884819Y-70380952D01*
X141884819Y-70380952D02*
X141932438Y-70285714D01*
X141932438Y-70285714D02*
X141980057Y-70238095D01*
X141980057Y-70238095D02*
X142075295Y-70190476D01*
X142075295Y-70190476D02*
X142313390Y-70190476D01*
X142313390Y-70190476D02*
X142408628Y-70238095D01*
X142408628Y-70238095D02*
X142456247Y-70285714D01*
X142456247Y-70285714D02*
X142503866Y-70380952D01*
X142503866Y-70380952D02*
X142503866Y-70571428D01*
X142503866Y-70571428D02*
X142456247Y-70666666D01*
X142456247Y-70666666D02*
X142408628Y-70714285D01*
X142408628Y-70714285D02*
X142313390Y-70761904D01*
X139666666Y-87524819D02*
X139999999Y-87048628D01*
X140238094Y-87524819D02*
X140238094Y-86524819D01*
X140238094Y-86524819D02*
X139857142Y-86524819D01*
X139857142Y-86524819D02*
X139761904Y-86572438D01*
X139761904Y-86572438D02*
X139714285Y-86620057D01*
X139714285Y-86620057D02*
X139666666Y-86715295D01*
X139666666Y-86715295D02*
X139666666Y-86858152D01*
X139666666Y-86858152D02*
X139714285Y-86953390D01*
X139714285Y-86953390D02*
X139761904Y-87001009D01*
X139761904Y-87001009D02*
X139857142Y-87048628D01*
X139857142Y-87048628D02*
X140238094Y-87048628D01*
X139190475Y-87524819D02*
X138999999Y-87524819D01*
X138999999Y-87524819D02*
X138904761Y-87477200D01*
X138904761Y-87477200D02*
X138857142Y-87429580D01*
X138857142Y-87429580D02*
X138761904Y-87286723D01*
X138761904Y-87286723D02*
X138714285Y-87096247D01*
X138714285Y-87096247D02*
X138714285Y-86715295D01*
X138714285Y-86715295D02*
X138761904Y-86620057D01*
X138761904Y-86620057D02*
X138809523Y-86572438D01*
X138809523Y-86572438D02*
X138904761Y-86524819D01*
X138904761Y-86524819D02*
X139095237Y-86524819D01*
X139095237Y-86524819D02*
X139190475Y-86572438D01*
X139190475Y-86572438D02*
X139238094Y-86620057D01*
X139238094Y-86620057D02*
X139285713Y-86715295D01*
X139285713Y-86715295D02*
X139285713Y-86953390D01*
X139285713Y-86953390D02*
X139238094Y-87048628D01*
X139238094Y-87048628D02*
X139190475Y-87096247D01*
X139190475Y-87096247D02*
X139095237Y-87143866D01*
X139095237Y-87143866D02*
X138904761Y-87143866D01*
X138904761Y-87143866D02*
X138809523Y-87096247D01*
X138809523Y-87096247D02*
X138761904Y-87048628D01*
X138761904Y-87048628D02*
X138714285Y-86953390D01*
X166789580Y-81857142D02*
X166837200Y-81809523D01*
X166837200Y-81809523D02*
X166884819Y-81666666D01*
X166884819Y-81666666D02*
X166884819Y-81571428D01*
X166884819Y-81571428D02*
X166837200Y-81428571D01*
X166837200Y-81428571D02*
X166741961Y-81333333D01*
X166741961Y-81333333D02*
X166646723Y-81285714D01*
X166646723Y-81285714D02*
X166456247Y-81238095D01*
X166456247Y-81238095D02*
X166313390Y-81238095D01*
X166313390Y-81238095D02*
X166122914Y-81285714D01*
X166122914Y-81285714D02*
X166027676Y-81333333D01*
X166027676Y-81333333D02*
X165932438Y-81428571D01*
X165932438Y-81428571D02*
X165884819Y-81571428D01*
X165884819Y-81571428D02*
X165884819Y-81666666D01*
X165884819Y-81666666D02*
X165932438Y-81809523D01*
X165932438Y-81809523D02*
X165980057Y-81857142D01*
X165980057Y-82238095D02*
X165932438Y-82285714D01*
X165932438Y-82285714D02*
X165884819Y-82380952D01*
X165884819Y-82380952D02*
X165884819Y-82619047D01*
X165884819Y-82619047D02*
X165932438Y-82714285D01*
X165932438Y-82714285D02*
X165980057Y-82761904D01*
X165980057Y-82761904D02*
X166075295Y-82809523D01*
X166075295Y-82809523D02*
X166170533Y-82809523D01*
X166170533Y-82809523D02*
X166313390Y-82761904D01*
X166313390Y-82761904D02*
X166884819Y-82190476D01*
X166884819Y-82190476D02*
X166884819Y-82809523D01*
X166218152Y-83666666D02*
X166884819Y-83666666D01*
X165837200Y-83428571D02*
X166551485Y-83190476D01*
X166551485Y-83190476D02*
X166551485Y-83809523D01*
X158724819Y-65238095D02*
X159534342Y-65238095D01*
X159534342Y-65238095D02*
X159629580Y-65285714D01*
X159629580Y-65285714D02*
X159677200Y-65333333D01*
X159677200Y-65333333D02*
X159724819Y-65428571D01*
X159724819Y-65428571D02*
X159724819Y-65619047D01*
X159724819Y-65619047D02*
X159677200Y-65714285D01*
X159677200Y-65714285D02*
X159629580Y-65761904D01*
X159629580Y-65761904D02*
X159534342Y-65809523D01*
X159534342Y-65809523D02*
X158724819Y-65809523D01*
X158724819Y-66761904D02*
X158724819Y-66285714D01*
X158724819Y-66285714D02*
X159201009Y-66238095D01*
X159201009Y-66238095D02*
X159153390Y-66285714D01*
X159153390Y-66285714D02*
X159105771Y-66380952D01*
X159105771Y-66380952D02*
X159105771Y-66619047D01*
X159105771Y-66619047D02*
X159153390Y-66714285D01*
X159153390Y-66714285D02*
X159201009Y-66761904D01*
X159201009Y-66761904D02*
X159296247Y-66809523D01*
X159296247Y-66809523D02*
X159534342Y-66809523D01*
X159534342Y-66809523D02*
X159629580Y-66761904D01*
X159629580Y-66761904D02*
X159677200Y-66714285D01*
X159677200Y-66714285D02*
X159724819Y-66619047D01*
X159724819Y-66619047D02*
X159724819Y-66380952D01*
X159724819Y-66380952D02*
X159677200Y-66285714D01*
X159677200Y-66285714D02*
X159629580Y-66238095D01*
X144884819Y-68857142D02*
X144408628Y-68523809D01*
X144884819Y-68285714D02*
X143884819Y-68285714D01*
X143884819Y-68285714D02*
X143884819Y-68666666D01*
X143884819Y-68666666D02*
X143932438Y-68761904D01*
X143932438Y-68761904D02*
X143980057Y-68809523D01*
X143980057Y-68809523D02*
X144075295Y-68857142D01*
X144075295Y-68857142D02*
X144218152Y-68857142D01*
X144218152Y-68857142D02*
X144313390Y-68809523D01*
X144313390Y-68809523D02*
X144361009Y-68761904D01*
X144361009Y-68761904D02*
X144408628Y-68666666D01*
X144408628Y-68666666D02*
X144408628Y-68285714D01*
X144884819Y-69809523D02*
X144884819Y-69238095D01*
X144884819Y-69523809D02*
X143884819Y-69523809D01*
X143884819Y-69523809D02*
X144027676Y-69428571D01*
X144027676Y-69428571D02*
X144122914Y-69333333D01*
X144122914Y-69333333D02*
X144170533Y-69238095D01*
X144313390Y-70380952D02*
X144265771Y-70285714D01*
X144265771Y-70285714D02*
X144218152Y-70238095D01*
X144218152Y-70238095D02*
X144122914Y-70190476D01*
X144122914Y-70190476D02*
X144075295Y-70190476D01*
X144075295Y-70190476D02*
X143980057Y-70238095D01*
X143980057Y-70238095D02*
X143932438Y-70285714D01*
X143932438Y-70285714D02*
X143884819Y-70380952D01*
X143884819Y-70380952D02*
X143884819Y-70571428D01*
X143884819Y-70571428D02*
X143932438Y-70666666D01*
X143932438Y-70666666D02*
X143980057Y-70714285D01*
X143980057Y-70714285D02*
X144075295Y-70761904D01*
X144075295Y-70761904D02*
X144122914Y-70761904D01*
X144122914Y-70761904D02*
X144218152Y-70714285D01*
X144218152Y-70714285D02*
X144265771Y-70666666D01*
X144265771Y-70666666D02*
X144313390Y-70571428D01*
X144313390Y-70571428D02*
X144313390Y-70380952D01*
X144313390Y-70380952D02*
X144361009Y-70285714D01*
X144361009Y-70285714D02*
X144408628Y-70238095D01*
X144408628Y-70238095D02*
X144503866Y-70190476D01*
X144503866Y-70190476D02*
X144694342Y-70190476D01*
X144694342Y-70190476D02*
X144789580Y-70238095D01*
X144789580Y-70238095D02*
X144837200Y-70285714D01*
X144837200Y-70285714D02*
X144884819Y-70380952D01*
X144884819Y-70380952D02*
X144884819Y-70571428D01*
X144884819Y-70571428D02*
X144837200Y-70666666D01*
X144837200Y-70666666D02*
X144789580Y-70714285D01*
X144789580Y-70714285D02*
X144694342Y-70761904D01*
X144694342Y-70761904D02*
X144503866Y-70761904D01*
X144503866Y-70761904D02*
X144408628Y-70714285D01*
X144408628Y-70714285D02*
X144361009Y-70666666D01*
X144361009Y-70666666D02*
X144313390Y-70571428D01*
X140142857Y-81429580D02*
X140190476Y-81477200D01*
X140190476Y-81477200D02*
X140333333Y-81524819D01*
X140333333Y-81524819D02*
X140428571Y-81524819D01*
X140428571Y-81524819D02*
X140571428Y-81477200D01*
X140571428Y-81477200D02*
X140666666Y-81381961D01*
X140666666Y-81381961D02*
X140714285Y-81286723D01*
X140714285Y-81286723D02*
X140761904Y-81096247D01*
X140761904Y-81096247D02*
X140761904Y-80953390D01*
X140761904Y-80953390D02*
X140714285Y-80762914D01*
X140714285Y-80762914D02*
X140666666Y-80667676D01*
X140666666Y-80667676D02*
X140571428Y-80572438D01*
X140571428Y-80572438D02*
X140428571Y-80524819D01*
X140428571Y-80524819D02*
X140333333Y-80524819D01*
X140333333Y-80524819D02*
X140190476Y-80572438D01*
X140190476Y-80572438D02*
X140142857Y-80620057D01*
X139761904Y-80620057D02*
X139714285Y-80572438D01*
X139714285Y-80572438D02*
X139619047Y-80524819D01*
X139619047Y-80524819D02*
X139380952Y-80524819D01*
X139380952Y-80524819D02*
X139285714Y-80572438D01*
X139285714Y-80572438D02*
X139238095Y-80620057D01*
X139238095Y-80620057D02*
X139190476Y-80715295D01*
X139190476Y-80715295D02*
X139190476Y-80810533D01*
X139190476Y-80810533D02*
X139238095Y-80953390D01*
X139238095Y-80953390D02*
X139809523Y-81524819D01*
X139809523Y-81524819D02*
X139190476Y-81524819D01*
X138333333Y-80524819D02*
X138523809Y-80524819D01*
X138523809Y-80524819D02*
X138619047Y-80572438D01*
X138619047Y-80572438D02*
X138666666Y-80620057D01*
X138666666Y-80620057D02*
X138761904Y-80762914D01*
X138761904Y-80762914D02*
X138809523Y-80953390D01*
X138809523Y-80953390D02*
X138809523Y-81334342D01*
X138809523Y-81334342D02*
X138761904Y-81429580D01*
X138761904Y-81429580D02*
X138714285Y-81477200D01*
X138714285Y-81477200D02*
X138619047Y-81524819D01*
X138619047Y-81524819D02*
X138428571Y-81524819D01*
X138428571Y-81524819D02*
X138333333Y-81477200D01*
X138333333Y-81477200D02*
X138285714Y-81429580D01*
X138285714Y-81429580D02*
X138238095Y-81334342D01*
X138238095Y-81334342D02*
X138238095Y-81096247D01*
X138238095Y-81096247D02*
X138285714Y-81001009D01*
X138285714Y-81001009D02*
X138333333Y-80953390D01*
X138333333Y-80953390D02*
X138428571Y-80905771D01*
X138428571Y-80905771D02*
X138619047Y-80905771D01*
X138619047Y-80905771D02*
X138714285Y-80953390D01*
X138714285Y-80953390D02*
X138761904Y-81001009D01*
X138761904Y-81001009D02*
X138809523Y-81096247D01*
X148642857Y-101789580D02*
X148690476Y-101837200D01*
X148690476Y-101837200D02*
X148833333Y-101884819D01*
X148833333Y-101884819D02*
X148928571Y-101884819D01*
X148928571Y-101884819D02*
X149071428Y-101837200D01*
X149071428Y-101837200D02*
X149166666Y-101741961D01*
X149166666Y-101741961D02*
X149214285Y-101646723D01*
X149214285Y-101646723D02*
X149261904Y-101456247D01*
X149261904Y-101456247D02*
X149261904Y-101313390D01*
X149261904Y-101313390D02*
X149214285Y-101122914D01*
X149214285Y-101122914D02*
X149166666Y-101027676D01*
X149166666Y-101027676D02*
X149071428Y-100932438D01*
X149071428Y-100932438D02*
X148928571Y-100884819D01*
X148928571Y-100884819D02*
X148833333Y-100884819D01*
X148833333Y-100884819D02*
X148690476Y-100932438D01*
X148690476Y-100932438D02*
X148642857Y-100980057D01*
X148261904Y-100980057D02*
X148214285Y-100932438D01*
X148214285Y-100932438D02*
X148119047Y-100884819D01*
X148119047Y-100884819D02*
X147880952Y-100884819D01*
X147880952Y-100884819D02*
X147785714Y-100932438D01*
X147785714Y-100932438D02*
X147738095Y-100980057D01*
X147738095Y-100980057D02*
X147690476Y-101075295D01*
X147690476Y-101075295D02*
X147690476Y-101170533D01*
X147690476Y-101170533D02*
X147738095Y-101313390D01*
X147738095Y-101313390D02*
X148309523Y-101884819D01*
X148309523Y-101884819D02*
X147690476Y-101884819D01*
X147119047Y-101313390D02*
X147214285Y-101265771D01*
X147214285Y-101265771D02*
X147261904Y-101218152D01*
X147261904Y-101218152D02*
X147309523Y-101122914D01*
X147309523Y-101122914D02*
X147309523Y-101075295D01*
X147309523Y-101075295D02*
X147261904Y-100980057D01*
X147261904Y-100980057D02*
X147214285Y-100932438D01*
X147214285Y-100932438D02*
X147119047Y-100884819D01*
X147119047Y-100884819D02*
X146928571Y-100884819D01*
X146928571Y-100884819D02*
X146833333Y-100932438D01*
X146833333Y-100932438D02*
X146785714Y-100980057D01*
X146785714Y-100980057D02*
X146738095Y-101075295D01*
X146738095Y-101075295D02*
X146738095Y-101122914D01*
X146738095Y-101122914D02*
X146785714Y-101218152D01*
X146785714Y-101218152D02*
X146833333Y-101265771D01*
X146833333Y-101265771D02*
X146928571Y-101313390D01*
X146928571Y-101313390D02*
X147119047Y-101313390D01*
X147119047Y-101313390D02*
X147214285Y-101361009D01*
X147214285Y-101361009D02*
X147261904Y-101408628D01*
X147261904Y-101408628D02*
X147309523Y-101503866D01*
X147309523Y-101503866D02*
X147309523Y-101694342D01*
X147309523Y-101694342D02*
X147261904Y-101789580D01*
X147261904Y-101789580D02*
X147214285Y-101837200D01*
X147214285Y-101837200D02*
X147119047Y-101884819D01*
X147119047Y-101884819D02*
X146928571Y-101884819D01*
X146928571Y-101884819D02*
X146833333Y-101837200D01*
X146833333Y-101837200D02*
X146785714Y-101789580D01*
X146785714Y-101789580D02*
X146738095Y-101694342D01*
X146738095Y-101694342D02*
X146738095Y-101503866D01*
X146738095Y-101503866D02*
X146785714Y-101408628D01*
X146785714Y-101408628D02*
X146833333Y-101361009D01*
X146833333Y-101361009D02*
X146928571Y-101313390D01*
X140142857Y-90524819D02*
X140476190Y-90048628D01*
X140714285Y-90524819D02*
X140714285Y-89524819D01*
X140714285Y-89524819D02*
X140333333Y-89524819D01*
X140333333Y-89524819D02*
X140238095Y-89572438D01*
X140238095Y-89572438D02*
X140190476Y-89620057D01*
X140190476Y-89620057D02*
X140142857Y-89715295D01*
X140142857Y-89715295D02*
X140142857Y-89858152D01*
X140142857Y-89858152D02*
X140190476Y-89953390D01*
X140190476Y-89953390D02*
X140238095Y-90001009D01*
X140238095Y-90001009D02*
X140333333Y-90048628D01*
X140333333Y-90048628D02*
X140714285Y-90048628D01*
X139190476Y-90524819D02*
X139761904Y-90524819D01*
X139476190Y-90524819D02*
X139476190Y-89524819D01*
X139476190Y-89524819D02*
X139571428Y-89667676D01*
X139571428Y-89667676D02*
X139666666Y-89762914D01*
X139666666Y-89762914D02*
X139761904Y-89810533D01*
X138809523Y-89620057D02*
X138761904Y-89572438D01*
X138761904Y-89572438D02*
X138666666Y-89524819D01*
X138666666Y-89524819D02*
X138428571Y-89524819D01*
X138428571Y-89524819D02*
X138333333Y-89572438D01*
X138333333Y-89572438D02*
X138285714Y-89620057D01*
X138285714Y-89620057D02*
X138238095Y-89715295D01*
X138238095Y-89715295D02*
X138238095Y-89810533D01*
X138238095Y-89810533D02*
X138285714Y-89953390D01*
X138285714Y-89953390D02*
X138857142Y-90524819D01*
X138857142Y-90524819D02*
X138238095Y-90524819D01*
X141142857Y-73524819D02*
X141476190Y-73048628D01*
X141714285Y-73524819D02*
X141714285Y-72524819D01*
X141714285Y-72524819D02*
X141333333Y-72524819D01*
X141333333Y-72524819D02*
X141238095Y-72572438D01*
X141238095Y-72572438D02*
X141190476Y-72620057D01*
X141190476Y-72620057D02*
X141142857Y-72715295D01*
X141142857Y-72715295D02*
X141142857Y-72858152D01*
X141142857Y-72858152D02*
X141190476Y-72953390D01*
X141190476Y-72953390D02*
X141238095Y-73001009D01*
X141238095Y-73001009D02*
X141333333Y-73048628D01*
X141333333Y-73048628D02*
X141714285Y-73048628D01*
X140190476Y-73524819D02*
X140761904Y-73524819D01*
X140476190Y-73524819D02*
X140476190Y-72524819D01*
X140476190Y-72524819D02*
X140571428Y-72667676D01*
X140571428Y-72667676D02*
X140666666Y-72762914D01*
X140666666Y-72762914D02*
X140761904Y-72810533D01*
X139285714Y-72524819D02*
X139761904Y-72524819D01*
X139761904Y-72524819D02*
X139809523Y-73001009D01*
X139809523Y-73001009D02*
X139761904Y-72953390D01*
X139761904Y-72953390D02*
X139666666Y-72905771D01*
X139666666Y-72905771D02*
X139428571Y-72905771D01*
X139428571Y-72905771D02*
X139333333Y-72953390D01*
X139333333Y-72953390D02*
X139285714Y-73001009D01*
X139285714Y-73001009D02*
X139238095Y-73096247D01*
X139238095Y-73096247D02*
X139238095Y-73334342D01*
X139238095Y-73334342D02*
X139285714Y-73429580D01*
X139285714Y-73429580D02*
X139333333Y-73477200D01*
X139333333Y-73477200D02*
X139428571Y-73524819D01*
X139428571Y-73524819D02*
X139666666Y-73524819D01*
X139666666Y-73524819D02*
X139761904Y-73477200D01*
X139761904Y-73477200D02*
X139809523Y-73429580D01*
X141142857Y-75024819D02*
X141476190Y-74548628D01*
X141714285Y-75024819D02*
X141714285Y-74024819D01*
X141714285Y-74024819D02*
X141333333Y-74024819D01*
X141333333Y-74024819D02*
X141238095Y-74072438D01*
X141238095Y-74072438D02*
X141190476Y-74120057D01*
X141190476Y-74120057D02*
X141142857Y-74215295D01*
X141142857Y-74215295D02*
X141142857Y-74358152D01*
X141142857Y-74358152D02*
X141190476Y-74453390D01*
X141190476Y-74453390D02*
X141238095Y-74501009D01*
X141238095Y-74501009D02*
X141333333Y-74548628D01*
X141333333Y-74548628D02*
X141714285Y-74548628D01*
X140190476Y-75024819D02*
X140761904Y-75024819D01*
X140476190Y-75024819D02*
X140476190Y-74024819D01*
X140476190Y-74024819D02*
X140571428Y-74167676D01*
X140571428Y-74167676D02*
X140666666Y-74262914D01*
X140666666Y-74262914D02*
X140761904Y-74310533D01*
X139857142Y-74024819D02*
X139238095Y-74024819D01*
X139238095Y-74024819D02*
X139571428Y-74405771D01*
X139571428Y-74405771D02*
X139428571Y-74405771D01*
X139428571Y-74405771D02*
X139333333Y-74453390D01*
X139333333Y-74453390D02*
X139285714Y-74501009D01*
X139285714Y-74501009D02*
X139238095Y-74596247D01*
X139238095Y-74596247D02*
X139238095Y-74834342D01*
X139238095Y-74834342D02*
X139285714Y-74929580D01*
X139285714Y-74929580D02*
X139333333Y-74977200D01*
X139333333Y-74977200D02*
X139428571Y-75024819D01*
X139428571Y-75024819D02*
X139714285Y-75024819D01*
X139714285Y-75024819D02*
X139809523Y-74977200D01*
X139809523Y-74977200D02*
X139857142Y-74929580D01*
X162166666Y-98524819D02*
X162499999Y-98048628D01*
X162738094Y-98524819D02*
X162738094Y-97524819D01*
X162738094Y-97524819D02*
X162357142Y-97524819D01*
X162357142Y-97524819D02*
X162261904Y-97572438D01*
X162261904Y-97572438D02*
X162214285Y-97620057D01*
X162214285Y-97620057D02*
X162166666Y-97715295D01*
X162166666Y-97715295D02*
X162166666Y-97858152D01*
X162166666Y-97858152D02*
X162214285Y-97953390D01*
X162214285Y-97953390D02*
X162261904Y-98001009D01*
X162261904Y-98001009D02*
X162357142Y-98048628D01*
X162357142Y-98048628D02*
X162738094Y-98048628D01*
X161833332Y-97524819D02*
X161214285Y-97524819D01*
X161214285Y-97524819D02*
X161547618Y-97905771D01*
X161547618Y-97905771D02*
X161404761Y-97905771D01*
X161404761Y-97905771D02*
X161309523Y-97953390D01*
X161309523Y-97953390D02*
X161261904Y-98001009D01*
X161261904Y-98001009D02*
X161214285Y-98096247D01*
X161214285Y-98096247D02*
X161214285Y-98334342D01*
X161214285Y-98334342D02*
X161261904Y-98429580D01*
X161261904Y-98429580D02*
X161309523Y-98477200D01*
X161309523Y-98477200D02*
X161404761Y-98524819D01*
X161404761Y-98524819D02*
X161690475Y-98524819D01*
X161690475Y-98524819D02*
X161785713Y-98477200D01*
X161785713Y-98477200D02*
X161833332Y-98429580D01*
X152642857Y-57524819D02*
X152976190Y-57048628D01*
X153214285Y-57524819D02*
X153214285Y-56524819D01*
X153214285Y-56524819D02*
X152833333Y-56524819D01*
X152833333Y-56524819D02*
X152738095Y-56572438D01*
X152738095Y-56572438D02*
X152690476Y-56620057D01*
X152690476Y-56620057D02*
X152642857Y-56715295D01*
X152642857Y-56715295D02*
X152642857Y-56858152D01*
X152642857Y-56858152D02*
X152690476Y-56953390D01*
X152690476Y-56953390D02*
X152738095Y-57001009D01*
X152738095Y-57001009D02*
X152833333Y-57048628D01*
X152833333Y-57048628D02*
X153214285Y-57048628D01*
X151690476Y-57524819D02*
X152261904Y-57524819D01*
X151976190Y-57524819D02*
X151976190Y-56524819D01*
X151976190Y-56524819D02*
X152071428Y-56667676D01*
X152071428Y-56667676D02*
X152166666Y-56762914D01*
X152166666Y-56762914D02*
X152261904Y-56810533D01*
X150833333Y-56858152D02*
X150833333Y-57524819D01*
X151071428Y-56477200D02*
X151309523Y-57191485D01*
X151309523Y-57191485D02*
X150690476Y-57191485D01*
X143789580Y-82857142D02*
X143837200Y-82809523D01*
X143837200Y-82809523D02*
X143884819Y-82666666D01*
X143884819Y-82666666D02*
X143884819Y-82571428D01*
X143884819Y-82571428D02*
X143837200Y-82428571D01*
X143837200Y-82428571D02*
X143741961Y-82333333D01*
X143741961Y-82333333D02*
X143646723Y-82285714D01*
X143646723Y-82285714D02*
X143456247Y-82238095D01*
X143456247Y-82238095D02*
X143313390Y-82238095D01*
X143313390Y-82238095D02*
X143122914Y-82285714D01*
X143122914Y-82285714D02*
X143027676Y-82333333D01*
X143027676Y-82333333D02*
X142932438Y-82428571D01*
X142932438Y-82428571D02*
X142884819Y-82571428D01*
X142884819Y-82571428D02*
X142884819Y-82666666D01*
X142884819Y-82666666D02*
X142932438Y-82809523D01*
X142932438Y-82809523D02*
X142980057Y-82857142D01*
X143884819Y-83809523D02*
X143884819Y-83238095D01*
X143884819Y-83523809D02*
X142884819Y-83523809D01*
X142884819Y-83523809D02*
X143027676Y-83428571D01*
X143027676Y-83428571D02*
X143122914Y-83333333D01*
X143122914Y-83333333D02*
X143170533Y-83238095D01*
X143884819Y-84761904D02*
X143884819Y-84190476D01*
X143884819Y-84476190D02*
X142884819Y-84476190D01*
X142884819Y-84476190D02*
X143027676Y-84380952D01*
X143027676Y-84380952D02*
X143122914Y-84285714D01*
X143122914Y-84285714D02*
X143170533Y-84190476D01*
X155929580Y-66357142D02*
X155977200Y-66309523D01*
X155977200Y-66309523D02*
X156024819Y-66166666D01*
X156024819Y-66166666D02*
X156024819Y-66071428D01*
X156024819Y-66071428D02*
X155977200Y-65928571D01*
X155977200Y-65928571D02*
X155881961Y-65833333D01*
X155881961Y-65833333D02*
X155786723Y-65785714D01*
X155786723Y-65785714D02*
X155596247Y-65738095D01*
X155596247Y-65738095D02*
X155453390Y-65738095D01*
X155453390Y-65738095D02*
X155262914Y-65785714D01*
X155262914Y-65785714D02*
X155167676Y-65833333D01*
X155167676Y-65833333D02*
X155072438Y-65928571D01*
X155072438Y-65928571D02*
X155024819Y-66071428D01*
X155024819Y-66071428D02*
X155024819Y-66166666D01*
X155024819Y-66166666D02*
X155072438Y-66309523D01*
X155072438Y-66309523D02*
X155120057Y-66357142D01*
X156024819Y-67309523D02*
X156024819Y-66738095D01*
X156024819Y-67023809D02*
X155024819Y-67023809D01*
X155024819Y-67023809D02*
X155167676Y-66928571D01*
X155167676Y-66928571D02*
X155262914Y-66833333D01*
X155262914Y-66833333D02*
X155310533Y-66738095D01*
X155453390Y-67880952D02*
X155405771Y-67785714D01*
X155405771Y-67785714D02*
X155358152Y-67738095D01*
X155358152Y-67738095D02*
X155262914Y-67690476D01*
X155262914Y-67690476D02*
X155215295Y-67690476D01*
X155215295Y-67690476D02*
X155120057Y-67738095D01*
X155120057Y-67738095D02*
X155072438Y-67785714D01*
X155072438Y-67785714D02*
X155024819Y-67880952D01*
X155024819Y-67880952D02*
X155024819Y-68071428D01*
X155024819Y-68071428D02*
X155072438Y-68166666D01*
X155072438Y-68166666D02*
X155120057Y-68214285D01*
X155120057Y-68214285D02*
X155215295Y-68261904D01*
X155215295Y-68261904D02*
X155262914Y-68261904D01*
X155262914Y-68261904D02*
X155358152Y-68214285D01*
X155358152Y-68214285D02*
X155405771Y-68166666D01*
X155405771Y-68166666D02*
X155453390Y-68071428D01*
X155453390Y-68071428D02*
X155453390Y-67880952D01*
X155453390Y-67880952D02*
X155501009Y-67785714D01*
X155501009Y-67785714D02*
X155548628Y-67738095D01*
X155548628Y-67738095D02*
X155643866Y-67690476D01*
X155643866Y-67690476D02*
X155834342Y-67690476D01*
X155834342Y-67690476D02*
X155929580Y-67738095D01*
X155929580Y-67738095D02*
X155977200Y-67785714D01*
X155977200Y-67785714D02*
X156024819Y-67880952D01*
X156024819Y-67880952D02*
X156024819Y-68071428D01*
X156024819Y-68071428D02*
X155977200Y-68166666D01*
X155977200Y-68166666D02*
X155929580Y-68214285D01*
X155929580Y-68214285D02*
X155834342Y-68261904D01*
X155834342Y-68261904D02*
X155643866Y-68261904D01*
X155643866Y-68261904D02*
X155548628Y-68214285D01*
X155548628Y-68214285D02*
X155501009Y-68166666D01*
X155501009Y-68166666D02*
X155453390Y-68071428D01*
X163142857Y-86429580D02*
X163190476Y-86477200D01*
X163190476Y-86477200D02*
X163333333Y-86524819D01*
X163333333Y-86524819D02*
X163428571Y-86524819D01*
X163428571Y-86524819D02*
X163571428Y-86477200D01*
X163571428Y-86477200D02*
X163666666Y-86381961D01*
X163666666Y-86381961D02*
X163714285Y-86286723D01*
X163714285Y-86286723D02*
X163761904Y-86096247D01*
X163761904Y-86096247D02*
X163761904Y-85953390D01*
X163761904Y-85953390D02*
X163714285Y-85762914D01*
X163714285Y-85762914D02*
X163666666Y-85667676D01*
X163666666Y-85667676D02*
X163571428Y-85572438D01*
X163571428Y-85572438D02*
X163428571Y-85524819D01*
X163428571Y-85524819D02*
X163333333Y-85524819D01*
X163333333Y-85524819D02*
X163190476Y-85572438D01*
X163190476Y-85572438D02*
X163142857Y-85620057D01*
X162761904Y-85620057D02*
X162714285Y-85572438D01*
X162714285Y-85572438D02*
X162619047Y-85524819D01*
X162619047Y-85524819D02*
X162380952Y-85524819D01*
X162380952Y-85524819D02*
X162285714Y-85572438D01*
X162285714Y-85572438D02*
X162238095Y-85620057D01*
X162238095Y-85620057D02*
X162190476Y-85715295D01*
X162190476Y-85715295D02*
X162190476Y-85810533D01*
X162190476Y-85810533D02*
X162238095Y-85953390D01*
X162238095Y-85953390D02*
X162809523Y-86524819D01*
X162809523Y-86524819D02*
X162190476Y-86524819D01*
X161809523Y-85620057D02*
X161761904Y-85572438D01*
X161761904Y-85572438D02*
X161666666Y-85524819D01*
X161666666Y-85524819D02*
X161428571Y-85524819D01*
X161428571Y-85524819D02*
X161333333Y-85572438D01*
X161333333Y-85572438D02*
X161285714Y-85620057D01*
X161285714Y-85620057D02*
X161238095Y-85715295D01*
X161238095Y-85715295D02*
X161238095Y-85810533D01*
X161238095Y-85810533D02*
X161285714Y-85953390D01*
X161285714Y-85953390D02*
X161857142Y-86524819D01*
X161857142Y-86524819D02*
X161238095Y-86524819D01*
X154976190Y-72928628D02*
X154976190Y-73404819D01*
X155309523Y-72404819D02*
X154976190Y-72928628D01*
X154976190Y-72928628D02*
X154642857Y-72404819D01*
X153785714Y-73404819D02*
X154357142Y-73404819D01*
X154071428Y-73404819D02*
X154071428Y-72404819D01*
X154071428Y-72404819D02*
X154166666Y-72547676D01*
X154166666Y-72547676D02*
X154261904Y-72642914D01*
X154261904Y-72642914D02*
X154357142Y-72690533D01*
X152642857Y-59024819D02*
X152976190Y-58548628D01*
X153214285Y-59024819D02*
X153214285Y-58024819D01*
X153214285Y-58024819D02*
X152833333Y-58024819D01*
X152833333Y-58024819D02*
X152738095Y-58072438D01*
X152738095Y-58072438D02*
X152690476Y-58120057D01*
X152690476Y-58120057D02*
X152642857Y-58215295D01*
X152642857Y-58215295D02*
X152642857Y-58358152D01*
X152642857Y-58358152D02*
X152690476Y-58453390D01*
X152690476Y-58453390D02*
X152738095Y-58501009D01*
X152738095Y-58501009D02*
X152833333Y-58548628D01*
X152833333Y-58548628D02*
X153214285Y-58548628D01*
X151690476Y-59024819D02*
X152261904Y-59024819D01*
X151976190Y-59024819D02*
X151976190Y-58024819D01*
X151976190Y-58024819D02*
X152071428Y-58167676D01*
X152071428Y-58167676D02*
X152166666Y-58262914D01*
X152166666Y-58262914D02*
X152261904Y-58310533D01*
X150833333Y-58024819D02*
X151023809Y-58024819D01*
X151023809Y-58024819D02*
X151119047Y-58072438D01*
X151119047Y-58072438D02*
X151166666Y-58120057D01*
X151166666Y-58120057D02*
X151261904Y-58262914D01*
X151261904Y-58262914D02*
X151309523Y-58453390D01*
X151309523Y-58453390D02*
X151309523Y-58834342D01*
X151309523Y-58834342D02*
X151261904Y-58929580D01*
X151261904Y-58929580D02*
X151214285Y-58977200D01*
X151214285Y-58977200D02*
X151119047Y-59024819D01*
X151119047Y-59024819D02*
X150928571Y-59024819D01*
X150928571Y-59024819D02*
X150833333Y-58977200D01*
X150833333Y-58977200D02*
X150785714Y-58929580D01*
X150785714Y-58929580D02*
X150738095Y-58834342D01*
X150738095Y-58834342D02*
X150738095Y-58596247D01*
X150738095Y-58596247D02*
X150785714Y-58501009D01*
X150785714Y-58501009D02*
X150833333Y-58453390D01*
X150833333Y-58453390D02*
X150928571Y-58405771D01*
X150928571Y-58405771D02*
X151119047Y-58405771D01*
X151119047Y-58405771D02*
X151214285Y-58453390D01*
X151214285Y-58453390D02*
X151261904Y-58501009D01*
X151261904Y-58501009D02*
X151309523Y-58596247D01*
X159709580Y-59357142D02*
X159757200Y-59309523D01*
X159757200Y-59309523D02*
X159804819Y-59166666D01*
X159804819Y-59166666D02*
X159804819Y-59071428D01*
X159804819Y-59071428D02*
X159757200Y-58928571D01*
X159757200Y-58928571D02*
X159661961Y-58833333D01*
X159661961Y-58833333D02*
X159566723Y-58785714D01*
X159566723Y-58785714D02*
X159376247Y-58738095D01*
X159376247Y-58738095D02*
X159233390Y-58738095D01*
X159233390Y-58738095D02*
X159042914Y-58785714D01*
X159042914Y-58785714D02*
X158947676Y-58833333D01*
X158947676Y-58833333D02*
X158852438Y-58928571D01*
X158852438Y-58928571D02*
X158804819Y-59071428D01*
X158804819Y-59071428D02*
X158804819Y-59166666D01*
X158804819Y-59166666D02*
X158852438Y-59309523D01*
X158852438Y-59309523D02*
X158900057Y-59357142D01*
X159804819Y-60309523D02*
X159804819Y-59738095D01*
X159804819Y-60023809D02*
X158804819Y-60023809D01*
X158804819Y-60023809D02*
X158947676Y-59928571D01*
X158947676Y-59928571D02*
X159042914Y-59833333D01*
X159042914Y-59833333D02*
X159090533Y-59738095D01*
X159804819Y-60785714D02*
X159804819Y-60976190D01*
X159804819Y-60976190D02*
X159757200Y-61071428D01*
X159757200Y-61071428D02*
X159709580Y-61119047D01*
X159709580Y-61119047D02*
X159566723Y-61214285D01*
X159566723Y-61214285D02*
X159376247Y-61261904D01*
X159376247Y-61261904D02*
X158995295Y-61261904D01*
X158995295Y-61261904D02*
X158900057Y-61214285D01*
X158900057Y-61214285D02*
X158852438Y-61166666D01*
X158852438Y-61166666D02*
X158804819Y-61071428D01*
X158804819Y-61071428D02*
X158804819Y-60880952D01*
X158804819Y-60880952D02*
X158852438Y-60785714D01*
X158852438Y-60785714D02*
X158900057Y-60738095D01*
X158900057Y-60738095D02*
X158995295Y-60690476D01*
X158995295Y-60690476D02*
X159233390Y-60690476D01*
X159233390Y-60690476D02*
X159328628Y-60738095D01*
X159328628Y-60738095D02*
X159376247Y-60785714D01*
X159376247Y-60785714D02*
X159423866Y-60880952D01*
X159423866Y-60880952D02*
X159423866Y-61071428D01*
X159423866Y-61071428D02*
X159376247Y-61166666D01*
X159376247Y-61166666D02*
X159328628Y-61214285D01*
X159328628Y-61214285D02*
X159233390Y-61261904D01*
X163142857Y-92429580D02*
X163190476Y-92477200D01*
X163190476Y-92477200D02*
X163333333Y-92524819D01*
X163333333Y-92524819D02*
X163428571Y-92524819D01*
X163428571Y-92524819D02*
X163571428Y-92477200D01*
X163571428Y-92477200D02*
X163666666Y-92381961D01*
X163666666Y-92381961D02*
X163714285Y-92286723D01*
X163714285Y-92286723D02*
X163761904Y-92096247D01*
X163761904Y-92096247D02*
X163761904Y-91953390D01*
X163761904Y-91953390D02*
X163714285Y-91762914D01*
X163714285Y-91762914D02*
X163666666Y-91667676D01*
X163666666Y-91667676D02*
X163571428Y-91572438D01*
X163571428Y-91572438D02*
X163428571Y-91524819D01*
X163428571Y-91524819D02*
X163333333Y-91524819D01*
X163333333Y-91524819D02*
X163190476Y-91572438D01*
X163190476Y-91572438D02*
X163142857Y-91620057D01*
X162761904Y-91620057D02*
X162714285Y-91572438D01*
X162714285Y-91572438D02*
X162619047Y-91524819D01*
X162619047Y-91524819D02*
X162380952Y-91524819D01*
X162380952Y-91524819D02*
X162285714Y-91572438D01*
X162285714Y-91572438D02*
X162238095Y-91620057D01*
X162238095Y-91620057D02*
X162190476Y-91715295D01*
X162190476Y-91715295D02*
X162190476Y-91810533D01*
X162190476Y-91810533D02*
X162238095Y-91953390D01*
X162238095Y-91953390D02*
X162809523Y-92524819D01*
X162809523Y-92524819D02*
X162190476Y-92524819D01*
X161857142Y-91524819D02*
X161238095Y-91524819D01*
X161238095Y-91524819D02*
X161571428Y-91905771D01*
X161571428Y-91905771D02*
X161428571Y-91905771D01*
X161428571Y-91905771D02*
X161333333Y-91953390D01*
X161333333Y-91953390D02*
X161285714Y-92001009D01*
X161285714Y-92001009D02*
X161238095Y-92096247D01*
X161238095Y-92096247D02*
X161238095Y-92334342D01*
X161238095Y-92334342D02*
X161285714Y-92429580D01*
X161285714Y-92429580D02*
X161333333Y-92477200D01*
X161333333Y-92477200D02*
X161428571Y-92524819D01*
X161428571Y-92524819D02*
X161714285Y-92524819D01*
X161714285Y-92524819D02*
X161809523Y-92477200D01*
X161809523Y-92477200D02*
X161857142Y-92429580D01*
X140142857Y-89024819D02*
X140476190Y-88548628D01*
X140714285Y-89024819D02*
X140714285Y-88024819D01*
X140714285Y-88024819D02*
X140333333Y-88024819D01*
X140333333Y-88024819D02*
X140238095Y-88072438D01*
X140238095Y-88072438D02*
X140190476Y-88120057D01*
X140190476Y-88120057D02*
X140142857Y-88215295D01*
X140142857Y-88215295D02*
X140142857Y-88358152D01*
X140142857Y-88358152D02*
X140190476Y-88453390D01*
X140190476Y-88453390D02*
X140238095Y-88501009D01*
X140238095Y-88501009D02*
X140333333Y-88548628D01*
X140333333Y-88548628D02*
X140714285Y-88548628D01*
X139190476Y-89024819D02*
X139761904Y-89024819D01*
X139476190Y-89024819D02*
X139476190Y-88024819D01*
X139476190Y-88024819D02*
X139571428Y-88167676D01*
X139571428Y-88167676D02*
X139666666Y-88262914D01*
X139666666Y-88262914D02*
X139761904Y-88310533D01*
X138238095Y-89024819D02*
X138809523Y-89024819D01*
X138523809Y-89024819D02*
X138523809Y-88024819D01*
X138523809Y-88024819D02*
X138619047Y-88167676D01*
X138619047Y-88167676D02*
X138714285Y-88262914D01*
X138714285Y-88262914D02*
X138809523Y-88310533D01*
X157429580Y-66357142D02*
X157477200Y-66309523D01*
X157477200Y-66309523D02*
X157524819Y-66166666D01*
X157524819Y-66166666D02*
X157524819Y-66071428D01*
X157524819Y-66071428D02*
X157477200Y-65928571D01*
X157477200Y-65928571D02*
X157381961Y-65833333D01*
X157381961Y-65833333D02*
X157286723Y-65785714D01*
X157286723Y-65785714D02*
X157096247Y-65738095D01*
X157096247Y-65738095D02*
X156953390Y-65738095D01*
X156953390Y-65738095D02*
X156762914Y-65785714D01*
X156762914Y-65785714D02*
X156667676Y-65833333D01*
X156667676Y-65833333D02*
X156572438Y-65928571D01*
X156572438Y-65928571D02*
X156524819Y-66071428D01*
X156524819Y-66071428D02*
X156524819Y-66166666D01*
X156524819Y-66166666D02*
X156572438Y-66309523D01*
X156572438Y-66309523D02*
X156620057Y-66357142D01*
X157524819Y-67309523D02*
X157524819Y-66738095D01*
X157524819Y-67023809D02*
X156524819Y-67023809D01*
X156524819Y-67023809D02*
X156667676Y-66928571D01*
X156667676Y-66928571D02*
X156762914Y-66833333D01*
X156762914Y-66833333D02*
X156810533Y-66738095D01*
X156524819Y-67642857D02*
X156524819Y-68309523D01*
X156524819Y-68309523D02*
X157524819Y-67880952D01*
X162166666Y-97024819D02*
X162499999Y-96548628D01*
X162738094Y-97024819D02*
X162738094Y-96024819D01*
X162738094Y-96024819D02*
X162357142Y-96024819D01*
X162357142Y-96024819D02*
X162261904Y-96072438D01*
X162261904Y-96072438D02*
X162214285Y-96120057D01*
X162214285Y-96120057D02*
X162166666Y-96215295D01*
X162166666Y-96215295D02*
X162166666Y-96358152D01*
X162166666Y-96358152D02*
X162214285Y-96453390D01*
X162214285Y-96453390D02*
X162261904Y-96501009D01*
X162261904Y-96501009D02*
X162357142Y-96548628D01*
X162357142Y-96548628D02*
X162738094Y-96548628D01*
X161261904Y-96024819D02*
X161738094Y-96024819D01*
X161738094Y-96024819D02*
X161785713Y-96501009D01*
X161785713Y-96501009D02*
X161738094Y-96453390D01*
X161738094Y-96453390D02*
X161642856Y-96405771D01*
X161642856Y-96405771D02*
X161404761Y-96405771D01*
X161404761Y-96405771D02*
X161309523Y-96453390D01*
X161309523Y-96453390D02*
X161261904Y-96501009D01*
X161261904Y-96501009D02*
X161214285Y-96596247D01*
X161214285Y-96596247D02*
X161214285Y-96834342D01*
X161214285Y-96834342D02*
X161261904Y-96929580D01*
X161261904Y-96929580D02*
X161309523Y-96977200D01*
X161309523Y-96977200D02*
X161404761Y-97024819D01*
X161404761Y-97024819D02*
X161642856Y-97024819D01*
X161642856Y-97024819D02*
X161738094Y-96977200D01*
X161738094Y-96977200D02*
X161785713Y-96929580D01*
X164928628Y-90023809D02*
X165404819Y-90023809D01*
X164404819Y-89690476D02*
X164928628Y-90023809D01*
X164928628Y-90023809D02*
X164404819Y-90357142D01*
X164500057Y-90642857D02*
X164452438Y-90690476D01*
X164452438Y-90690476D02*
X164404819Y-90785714D01*
X164404819Y-90785714D02*
X164404819Y-91023809D01*
X164404819Y-91023809D02*
X164452438Y-91119047D01*
X164452438Y-91119047D02*
X164500057Y-91166666D01*
X164500057Y-91166666D02*
X164595295Y-91214285D01*
X164595295Y-91214285D02*
X164690533Y-91214285D01*
X164690533Y-91214285D02*
X164833390Y-91166666D01*
X164833390Y-91166666D02*
X165404819Y-90595238D01*
X165404819Y-90595238D02*
X165404819Y-91214285D01*
X152261904Y-80524819D02*
X152261904Y-81334342D01*
X152261904Y-81334342D02*
X152214285Y-81429580D01*
X152214285Y-81429580D02*
X152166666Y-81477200D01*
X152166666Y-81477200D02*
X152071428Y-81524819D01*
X152071428Y-81524819D02*
X151880952Y-81524819D01*
X151880952Y-81524819D02*
X151785714Y-81477200D01*
X151785714Y-81477200D02*
X151738095Y-81429580D01*
X151738095Y-81429580D02*
X151690476Y-81334342D01*
X151690476Y-81334342D02*
X151690476Y-80524819D01*
X150785714Y-80858152D02*
X150785714Y-81524819D01*
X151023809Y-80477200D02*
X151261904Y-81191485D01*
X151261904Y-81191485D02*
X150642857Y-81191485D01*
X152142857Y-61929580D02*
X152190476Y-61977200D01*
X152190476Y-61977200D02*
X152333333Y-62024819D01*
X152333333Y-62024819D02*
X152428571Y-62024819D01*
X152428571Y-62024819D02*
X152571428Y-61977200D01*
X152571428Y-61977200D02*
X152666666Y-61881961D01*
X152666666Y-61881961D02*
X152714285Y-61786723D01*
X152714285Y-61786723D02*
X152761904Y-61596247D01*
X152761904Y-61596247D02*
X152761904Y-61453390D01*
X152761904Y-61453390D02*
X152714285Y-61262914D01*
X152714285Y-61262914D02*
X152666666Y-61167676D01*
X152666666Y-61167676D02*
X152571428Y-61072438D01*
X152571428Y-61072438D02*
X152428571Y-61024819D01*
X152428571Y-61024819D02*
X152333333Y-61024819D01*
X152333333Y-61024819D02*
X152190476Y-61072438D01*
X152190476Y-61072438D02*
X152142857Y-61120057D01*
X151761904Y-61120057D02*
X151714285Y-61072438D01*
X151714285Y-61072438D02*
X151619047Y-61024819D01*
X151619047Y-61024819D02*
X151380952Y-61024819D01*
X151380952Y-61024819D02*
X151285714Y-61072438D01*
X151285714Y-61072438D02*
X151238095Y-61120057D01*
X151238095Y-61120057D02*
X151190476Y-61215295D01*
X151190476Y-61215295D02*
X151190476Y-61310533D01*
X151190476Y-61310533D02*
X151238095Y-61453390D01*
X151238095Y-61453390D02*
X151809523Y-62024819D01*
X151809523Y-62024819D02*
X151190476Y-62024819D01*
X150238095Y-62024819D02*
X150809523Y-62024819D01*
X150523809Y-62024819D02*
X150523809Y-61024819D01*
X150523809Y-61024819D02*
X150619047Y-61167676D01*
X150619047Y-61167676D02*
X150714285Y-61262914D01*
X150714285Y-61262914D02*
X150809523Y-61310533D01*
D11*
%TO.C,C20*%
X154090000Y-60711252D02*
X154090000Y-59288748D01*
X155910000Y-60711252D02*
X155910000Y-59288748D01*
%TO.C,R6*%
X139737258Y-83477500D02*
X139262742Y-83477500D01*
X139737258Y-84522500D02*
X139262742Y-84522500D01*
%TO.C,R21*%
X164477500Y-59762742D02*
X164477500Y-60237258D01*
X165522500Y-59762742D02*
X165522500Y-60237258D01*
%TO.C,R4*%
X139737258Y-86477500D02*
X139262742Y-86477500D01*
X139737258Y-87522500D02*
X139262742Y-87522500D01*
%TO.C,Y3*%
X161625000Y-83825000D02*
X161625000Y-85175000D01*
X163375000Y-83825000D02*
X163375000Y-85175000D01*
%TO.C,R22*%
X165977500Y-59762742D02*
X165977500Y-60237258D01*
X167022500Y-59762742D02*
X167022500Y-60237258D01*
%TO.C,R1*%
X139737258Y-95477500D02*
X139262742Y-95477500D01*
X139737258Y-96522500D02*
X139262742Y-96522500D01*
%TO.C,C6*%
X157859420Y-80490000D02*
X158140580Y-80490000D01*
X157859420Y-81510000D02*
X158140580Y-81510000D01*
%TO.C,C27*%
X164490000Y-86640580D02*
X164490000Y-86359420D01*
X165510000Y-86640580D02*
X165510000Y-86359420D01*
%TO.C,C10*%
X145140580Y-99490000D02*
X144859420Y-99490000D01*
X145140580Y-100510000D02*
X144859420Y-100510000D01*
%TO.C,R17*%
X147477500Y-65762742D02*
X147477500Y-66237258D01*
X148522500Y-65762742D02*
X148522500Y-66237258D01*
%TO.C,R19*%
X140477500Y-69737258D02*
X140477500Y-69262742D01*
X141522500Y-69737258D02*
X141522500Y-69262742D01*
%TO.C,R9*%
X139737258Y-87977500D02*
X139262742Y-87977500D01*
X139737258Y-89022500D02*
X139262742Y-89022500D01*
%TO.C,C24*%
X164490000Y-82640580D02*
X164490000Y-82359420D01*
X165510000Y-82640580D02*
X165510000Y-82359420D01*
D12*
%TO.C,U5*%
X149280000Y-64000000D02*
X149280000Y-68000000D01*
X149280000Y-68000000D02*
X150320000Y-68000000D01*
X150320000Y-64000000D02*
X149280000Y-64000000D01*
X155690000Y-68000000D02*
X156080000Y-68000000D01*
X156080000Y-64000000D02*
X155690000Y-64000000D01*
X156080000Y-68000000D02*
X156080000Y-64000000D01*
D13*
X155110000Y-68540000D02*
G75*
G02*
X154810000Y-68540000I-150000J0D01*
G01*
X154810000Y-68540000D02*
G75*
G02*
X155110000Y-68540000I150000J0D01*
G01*
D11*
%TO.C,R18*%
X142477500Y-69737258D02*
X142477500Y-69262742D01*
X143522500Y-69737258D02*
X143522500Y-69262742D01*
%TO.C,C26*%
X139640580Y-81990000D02*
X139359420Y-81990000D01*
X139640580Y-83010000D02*
X139359420Y-83010000D01*
%TO.C,C28*%
X147859420Y-99490000D02*
X148140580Y-99490000D01*
X147859420Y-100510000D02*
X148140580Y-100510000D01*
%TO.C,R12*%
X139737258Y-90977500D02*
X139262742Y-90977500D01*
X139737258Y-92022500D02*
X139262742Y-92022500D01*
%TO.C,R15*%
X140737258Y-73977500D02*
X140262742Y-73977500D01*
X140737258Y-75022500D02*
X140262742Y-75022500D01*
%TO.C,R13*%
X140737258Y-75477500D02*
X140262742Y-75477500D01*
X140737258Y-76522500D02*
X140262742Y-76522500D01*
%TO.C,R3*%
X162237258Y-98977500D02*
X161762742Y-98977500D01*
X162237258Y-100022500D02*
X161762742Y-100022500D01*
%TO.C,R14*%
X152237258Y-57977500D02*
X151762742Y-57977500D01*
X152237258Y-59022500D02*
X151762742Y-59022500D01*
%TO.C,C11*%
X141490000Y-83640580D02*
X141490000Y-83359420D01*
X142510000Y-83640580D02*
X142510000Y-83359420D01*
%TO.C,C18*%
X156490000Y-66859420D02*
X156490000Y-67140580D01*
X157510000Y-66859420D02*
X157510000Y-67140580D01*
%TO.C,C22*%
X162640580Y-86990000D02*
X162359420Y-86990000D01*
X162640580Y-88010000D02*
X162359420Y-88010000D01*
%TO.C,Y1*%
X152440000Y-68790000D02*
X156560000Y-68790000D01*
X152440000Y-72210000D02*
X152440000Y-68790000D01*
%TO.C,R16*%
X152237258Y-59477500D02*
X151762742Y-59477500D01*
X152237258Y-60522500D02*
X151762742Y-60522500D01*
%TO.C,C19*%
X156590000Y-60711252D02*
X156590000Y-59288748D01*
X158410000Y-60711252D02*
X158410000Y-59288748D01*
%TO.C,C23*%
X162640580Y-92990000D02*
X162359420Y-92990000D01*
X162640580Y-94010000D02*
X162359420Y-94010000D01*
%TO.C,R11*%
X139737258Y-89477500D02*
X139262742Y-89477500D01*
X139737258Y-90522500D02*
X139262742Y-90522500D01*
%TO.C,C17*%
X157990000Y-66859420D02*
X157990000Y-67140580D01*
X159010000Y-66859420D02*
X159010000Y-67140580D01*
%TO.C,R5*%
X162237258Y-97477500D02*
X161762742Y-97477500D01*
X162237258Y-98522500D02*
X161762742Y-98522500D01*
%TO.C,Y2*%
X160790000Y-92560000D02*
X160790000Y-88440000D01*
X164210000Y-92560000D02*
X160790000Y-92560000D01*
%TO.C,U4*%
X144390000Y-83390000D02*
X144390000Y-84090000D01*
X144390000Y-96910000D02*
X144390000Y-97610000D01*
X144390000Y-97610000D02*
X145090000Y-97610000D01*
X145090000Y-83390000D02*
X144390000Y-83390000D01*
X157910000Y-97610000D02*
X158610000Y-97610000D01*
X158610000Y-83390000D02*
X157910000Y-83390000D01*
X158610000Y-84090000D02*
X158610000Y-83390000D01*
X158610000Y-97610000D02*
X158610000Y-96910000D01*
X159250000Y-84090000D02*
X158910000Y-83620000D01*
X159590000Y-83620000D01*
X159250000Y-84090000D01*
G36*
X159250000Y-84090000D02*
G01*
X158910000Y-83620000D01*
X159590000Y-83620000D01*
X159250000Y-84090000D01*
G37*
%TO.C,C21*%
X151640580Y-62490000D02*
X151359420Y-62490000D01*
X151640580Y-63510000D02*
X151359420Y-63510000D01*
%TD*%
%LPC*%
D14*
%TO.C,REF\u002A\u002A*%
X142500000Y-60000000D03*
%TD*%
D15*
%TO.C,J4*%
X160000000Y-108000000D03*
D16*
X162500000Y-108000000D03*
X165000000Y-108000000D03*
%TD*%
D14*
%TO.C,REF\u002A\u002A*%
X142500000Y-127500000D03*
%TD*%
D15*
%TO.C,J10*%
X170000000Y-114500000D03*
D16*
X172500000Y-114500000D03*
X175000000Y-114500000D03*
%TD*%
D15*
%TO.C,J22*%
X167500000Y-96000000D03*
D16*
X170000000Y-96000000D03*
X172500000Y-96000000D03*
X175000000Y-96000000D03*
%TD*%
D15*
%TO.C,J26*%
X167500000Y-90000000D03*
D16*
X170000000Y-90000000D03*
X172500000Y-90000000D03*
X175000000Y-90000000D03*
%TD*%
D17*
%TO.C,J1*%
X163000000Y-133825000D03*
X152000000Y-133825000D03*
D18*
X155000000Y-123825000D03*
D19*
X160000000Y-123825000D03*
%TD*%
D15*
%TO.C,J16*%
X140000000Y-53000000D03*
D16*
X142500000Y-53000000D03*
X145000000Y-53000000D03*
%TD*%
D15*
%TO.C,J11*%
X140000000Y-120500000D03*
D16*
X142500000Y-120500000D03*
X145000000Y-120500000D03*
%TD*%
D15*
%TO.C,J13*%
X140000000Y-133475000D03*
D16*
X142500000Y-133475000D03*
X145000000Y-133475000D03*
%TD*%
D15*
%TO.C,J21*%
X162500000Y-65975000D03*
D16*
X165000000Y-65975000D03*
X167500000Y-65975000D03*
X170000000Y-65975000D03*
X172500000Y-65975000D03*
X175000000Y-65975000D03*
%TD*%
D15*
%TO.C,J18*%
X140000000Y-66000000D03*
D16*
X142500000Y-66000000D03*
X145000000Y-66000000D03*
%TD*%
D15*
%TO.C,J12*%
X170000000Y-120500000D03*
D16*
X172500000Y-120500000D03*
X175000000Y-120500000D03*
%TD*%
D15*
%TO.C,J25*%
X162500000Y-53000000D03*
D16*
X165000000Y-53000000D03*
X167500000Y-53000000D03*
X170000000Y-53000000D03*
X172500000Y-53000000D03*
X175000000Y-53000000D03*
%TD*%
D20*
%TO.C,J19*%
X143605000Y-73110000D03*
X143605000Y-78890000D03*
D21*
X144105000Y-71680000D03*
D22*
X139925000Y-71680000D03*
D21*
X144105000Y-80320000D03*
D22*
X139925000Y-80320000D03*
%TD*%
D15*
%TO.C,J27*%
X167500000Y-84000000D03*
D16*
X170000000Y-84000000D03*
X172500000Y-84000000D03*
X175000000Y-84000000D03*
%TD*%
D15*
%TO.C,J3*%
X150000000Y-108000000D03*
D16*
X152500000Y-108000000D03*
X155000000Y-108000000D03*
%TD*%
D15*
%TO.C,J14*%
X170000000Y-133475000D03*
D16*
X172500000Y-133475000D03*
X175000000Y-133475000D03*
%TD*%
D15*
%TO.C,J6*%
X140000000Y-114500000D03*
D16*
X142500000Y-114500000D03*
X145000000Y-114500000D03*
%TD*%
D23*
%TO.C,J8*%
X141162500Y-85550000D03*
X141162500Y-93550000D03*
%TD*%
D15*
%TO.C,J2*%
X140000000Y-108000000D03*
D16*
X142500000Y-108000000D03*
X145000000Y-108000000D03*
%TD*%
D15*
%TO.C,J20*%
X162500000Y-72000000D03*
D16*
X165000000Y-72000000D03*
X167500000Y-72000000D03*
X170000000Y-72000000D03*
X172500000Y-72000000D03*
X175000000Y-72000000D03*
%TD*%
D15*
%TO.C,J23*%
X167500000Y-78000000D03*
D16*
X170000000Y-78000000D03*
X172500000Y-78000000D03*
X175000000Y-78000000D03*
%TD*%
D15*
%TO.C,J15*%
X167500000Y-102000000D03*
D16*
X170000000Y-102000000D03*
X172500000Y-102000000D03*
X175000000Y-102000000D03*
%TD*%
D14*
%TO.C,REF\u002A\u002A*%
X172500000Y-127500000D03*
%TD*%
D15*
%TO.C,J17*%
X150000000Y-53000000D03*
D16*
X152500000Y-53000000D03*
X155000000Y-53000000D03*
%TD*%
D15*
%TO.C,J24*%
X140000000Y-102000000D03*
D16*
X142500000Y-102000000D03*
X145000000Y-102000000D03*
X147500000Y-102000000D03*
X150000000Y-102000000D03*
X152500000Y-102000000D03*
X155000000Y-102000000D03*
X157500000Y-102000000D03*
X160000000Y-102000000D03*
X162500000Y-102000000D03*
%TD*%
D15*
%TO.C,J9*%
X160000000Y-114500000D03*
D16*
X162500000Y-114500000D03*
X165000000Y-114500000D03*
%TD*%
D15*
%TO.C,J7*%
X150000000Y-114500000D03*
D16*
X152500000Y-114500000D03*
X155000000Y-114500000D03*
%TD*%
D15*
%TO.C,J5*%
X170000000Y-108000000D03*
D16*
X172500000Y-108000000D03*
X175000000Y-108000000D03*
%TD*%
D14*
%TO.C,REF\u002A\u002A*%
X172500000Y-60000000D03*
%TD*%
D24*
%TO.C,C20*%
X155000000Y-61475000D03*
X155000000Y-58525000D03*
%TD*%
D25*
%TO.C,R6*%
X140325000Y-84000000D03*
X138675000Y-84000000D03*
%TD*%
D26*
%TO.C,R21*%
X165000000Y-59175000D03*
X165000000Y-60825000D03*
%TD*%
D25*
%TO.C,R4*%
X140325000Y-87000000D03*
X138675000Y-87000000D03*
%TD*%
D27*
%TO.C,Y3*%
X162500000Y-85750000D03*
X162500000Y-83250000D03*
%TD*%
D26*
%TO.C,R22*%
X166500000Y-59175000D03*
X166500000Y-60825000D03*
%TD*%
D25*
%TO.C,R1*%
X140325000Y-96000000D03*
X138675000Y-96000000D03*
%TD*%
D28*
%TO.C,C6*%
X157225000Y-81000000D03*
X158775000Y-81000000D03*
%TD*%
D29*
%TO.C,C27*%
X165000000Y-87275000D03*
X165000000Y-85725000D03*
%TD*%
D30*
%TO.C,C10*%
X145775000Y-100000000D03*
X144225000Y-100000000D03*
%TD*%
D26*
%TO.C,R17*%
X148000000Y-65175000D03*
X148000000Y-66825000D03*
%TD*%
D31*
%TO.C,R19*%
X141000000Y-70325000D03*
X141000000Y-68675000D03*
%TD*%
D25*
%TO.C,R9*%
X140325000Y-88500000D03*
X138675000Y-88500000D03*
%TD*%
D29*
%TO.C,C24*%
X165000000Y-83275000D03*
X165000000Y-81725000D03*
%TD*%
D32*
%TO.C,U5*%
X155270000Y-67580000D03*
X154620000Y-67580000D03*
X153970000Y-67580000D03*
X153320000Y-67580000D03*
X152670000Y-67580000D03*
X152020000Y-67580000D03*
X151370000Y-67580000D03*
X150720000Y-67580000D03*
X150720000Y-64420000D03*
X151370000Y-64420000D03*
X152020000Y-64420000D03*
X152670000Y-64420000D03*
X153320000Y-64420000D03*
X153970000Y-64420000D03*
X154620000Y-64420000D03*
X155270000Y-64420000D03*
D33*
X154170000Y-66000000D03*
X151170000Y-66000000D03*
%TD*%
D31*
%TO.C,R18*%
X143000000Y-70325000D03*
X143000000Y-68675000D03*
%TD*%
D30*
%TO.C,C26*%
X140275000Y-82500000D03*
X138725000Y-82500000D03*
%TD*%
D28*
%TO.C,C28*%
X147225000Y-100000000D03*
X148775000Y-100000000D03*
%TD*%
D25*
%TO.C,R12*%
X140325000Y-91500000D03*
X138675000Y-91500000D03*
%TD*%
%TO.C,R15*%
X141325000Y-74500000D03*
X139675000Y-74500000D03*
%TD*%
%TO.C,R13*%
X141325000Y-76000000D03*
X139675000Y-76000000D03*
%TD*%
%TO.C,R3*%
X162825000Y-99500000D03*
X161175000Y-99500000D03*
%TD*%
%TO.C,R14*%
X152825000Y-58500000D03*
X151175000Y-58500000D03*
%TD*%
D29*
%TO.C,C11*%
X142000000Y-84275000D03*
X142000000Y-82725000D03*
%TD*%
D34*
%TO.C,C18*%
X157000000Y-66225000D03*
X157000000Y-67775000D03*
%TD*%
D30*
%TO.C,C22*%
X163275000Y-87500000D03*
X161725000Y-87500000D03*
%TD*%
D35*
%TO.C,Y1*%
X153400000Y-69650000D03*
X155600000Y-69650000D03*
X155600000Y-71350000D03*
X153400000Y-71350000D03*
%TD*%
D25*
%TO.C,R16*%
X152825000Y-60000000D03*
X151175000Y-60000000D03*
%TD*%
D24*
%TO.C,C19*%
X157500000Y-61475000D03*
X157500000Y-58525000D03*
%TD*%
D30*
%TO.C,C23*%
X163275000Y-93500000D03*
X161725000Y-93500000D03*
%TD*%
D25*
%TO.C,R11*%
X140325000Y-90000000D03*
X138675000Y-90000000D03*
%TD*%
D34*
%TO.C,C17*%
X158500000Y-66225000D03*
X158500000Y-67775000D03*
%TD*%
D25*
%TO.C,R5*%
X162825000Y-98000000D03*
X161175000Y-98000000D03*
%TD*%
D36*
%TO.C,Y2*%
X161650000Y-91600000D03*
X161650000Y-89400000D03*
X163350000Y-89400000D03*
X163350000Y-91600000D03*
%TD*%
D37*
%TO.C,U4*%
X159175000Y-84500000D03*
X159175000Y-85000000D03*
X159175000Y-85500000D03*
X159175000Y-86000000D03*
X159175000Y-86500000D03*
X159175000Y-87000000D03*
X159175000Y-87500000D03*
X159175000Y-88000000D03*
X159175000Y-88500000D03*
X159175000Y-89000000D03*
X159175000Y-89500000D03*
X159175000Y-90000000D03*
X159175000Y-90500000D03*
X159175000Y-91000000D03*
X159175000Y-91500000D03*
X159175000Y-92000000D03*
X159175000Y-92500000D03*
X159175000Y-93000000D03*
X159175000Y-93500000D03*
X159175000Y-94000000D03*
X159175000Y-94500000D03*
X159175000Y-95000000D03*
X159175000Y-95500000D03*
X159175000Y-96000000D03*
X159175000Y-96500000D03*
D38*
X157500000Y-98175000D03*
X157000000Y-98175000D03*
X156500000Y-98175000D03*
X156000000Y-98175000D03*
X155500000Y-98175000D03*
X155000000Y-98175000D03*
X154500000Y-98175000D03*
X154000000Y-98175000D03*
X153500000Y-98175000D03*
X153000000Y-98175000D03*
X152500000Y-98175000D03*
X152000000Y-98175000D03*
X151500000Y-98175000D03*
X151000000Y-98175000D03*
X150500000Y-98175000D03*
X150000000Y-98175000D03*
X149500000Y-98175000D03*
X149000000Y-98175000D03*
X148500000Y-98175000D03*
X148000000Y-98175000D03*
X147500000Y-98175000D03*
X147000000Y-98175000D03*
X146500000Y-98175000D03*
X146000000Y-98175000D03*
X145500000Y-98175000D03*
D37*
X143825000Y-96500000D03*
X143825000Y-96000000D03*
X143825000Y-95500000D03*
X143825000Y-95000000D03*
X143825000Y-94500000D03*
X143825000Y-94000000D03*
X143825000Y-93500000D03*
X143825000Y-93000000D03*
X143825000Y-92500000D03*
X143825000Y-92000000D03*
X143825000Y-91500000D03*
X143825000Y-91000000D03*
X143825000Y-90500000D03*
X143825000Y-90000000D03*
X143825000Y-89500000D03*
X143825000Y-89000000D03*
X143825000Y-88500000D03*
X143825000Y-88000000D03*
X143825000Y-87500000D03*
X143825000Y-87000000D03*
X143825000Y-86500000D03*
X143825000Y-86000000D03*
X143825000Y-85500000D03*
X143825000Y-85000000D03*
X143825000Y-84500000D03*
D38*
X145500000Y-82825000D03*
X146000000Y-82825000D03*
X146500000Y-82825000D03*
X147000000Y-82825000D03*
X147500000Y-82825000D03*
X148000000Y-82825000D03*
X148500000Y-82825000D03*
X149000000Y-82825000D03*
X149500000Y-82825000D03*
X150000000Y-82825000D03*
X150500000Y-82825000D03*
X151000000Y-82825000D03*
X151500000Y-82825000D03*
X152000000Y-82825000D03*
X152500000Y-82825000D03*
X153000000Y-82825000D03*
X153500000Y-82825000D03*
X154000000Y-82825000D03*
X154500000Y-82825000D03*
X155000000Y-82825000D03*
X155500000Y-82825000D03*
X156000000Y-82825000D03*
X156500000Y-82825000D03*
X157000000Y-82825000D03*
X157500000Y-82825000D03*
%TD*%
D30*
%TO.C,C21*%
X152275000Y-63000000D03*
X150725000Y-63000000D03*
%TD*%
%LPD*%
M02*
