%TF.GenerationSoftware,KiCad,Pcbnew,9.0.6*%
%TF.CreationDate,2026-01-30T19:55:17-05:00*%
%TF.ProjectId,flight controller,666c6967-6874-4206-936f-6e74726f6c6c,rev?*%
%TF.SameCoordinates,Original*%
%TF.FileFunction,Drillmap*%
%TF.FilePolarity,Positive*%
%FSLAX45Y45*%
G04 Gerber Fmt 4.5, Leading zero omitted, Abs format (unit mm)*
G04 Created by KiCad (PCBNEW 9.0.6) date 2026-01-30 19:55:17*
%MOMM*%
%LPD*%
G01*
G04 APERTURE LIST*
%ADD10C,0.050000*%
%ADD11C,0.200000*%
%ADD12C,0.100000*%
%ADD13C,0.270000*%
G04 APERTURE END LIST*
D10*
X13750000Y-5050000D02*
X17750000Y-5050000D01*
X17750000Y-13700000D01*
X13750000Y-13700000D01*
X13750000Y-5050000D01*
D11*
D12*
X14328000Y-7278500D02*
X14393000Y-7343500D01*
X14393000Y-7278500D02*
X14328000Y-7343500D01*
X14328000Y-7856500D02*
X14393000Y-7921500D01*
X14393000Y-7856500D02*
X14328000Y-7921500D01*
D13*
X14385000Y-6000000D02*
G75*
G02*
X14115000Y-6000000I-135000J0D01*
G01*
X14115000Y-6000000D02*
G75*
G02*
X14385000Y-6000000I135000J0D01*
G01*
X14385000Y-12750000D02*
G75*
G02*
X14115000Y-12750000I-135000J0D01*
G01*
X14115000Y-12750000D02*
G75*
G02*
X14385000Y-12750000I135000J0D01*
G01*
X17385000Y-6000000D02*
G75*
G02*
X17115000Y-6000000I-135000J0D01*
G01*
X17115000Y-6000000D02*
G75*
G02*
X17385000Y-6000000I135000J0D01*
G01*
X17385000Y-12750000D02*
G75*
G02*
X17115000Y-12750000I-135000J0D01*
G01*
X17115000Y-12750000D02*
G75*
G02*
X17385000Y-12750000I135000J0D01*
G01*
D11*
X14008277Y-14013984D02*
X14008277Y-13813984D01*
X14008277Y-13813984D02*
X14055896Y-13813984D01*
X14055896Y-13813984D02*
X14084467Y-13823508D01*
X14084467Y-13823508D02*
X14103515Y-13842555D01*
X14103515Y-13842555D02*
X14113039Y-13861603D01*
X14113039Y-13861603D02*
X14122562Y-13899698D01*
X14122562Y-13899698D02*
X14122562Y-13928269D01*
X14122562Y-13928269D02*
X14113039Y-13966365D01*
X14113039Y-13966365D02*
X14103515Y-13985412D01*
X14103515Y-13985412D02*
X14084467Y-14004460D01*
X14084467Y-14004460D02*
X14055896Y-14013984D01*
X14055896Y-14013984D02*
X14008277Y-14013984D01*
X14208277Y-14013984D02*
X14208277Y-13880650D01*
X14208277Y-13918746D02*
X14217801Y-13899698D01*
X14217801Y-13899698D02*
X14227324Y-13890174D01*
X14227324Y-13890174D02*
X14246372Y-13880650D01*
X14246372Y-13880650D02*
X14265420Y-13880650D01*
X14332086Y-14013984D02*
X14332086Y-13880650D01*
X14332086Y-13813984D02*
X14322562Y-13823508D01*
X14322562Y-13823508D02*
X14332086Y-13833031D01*
X14332086Y-13833031D02*
X14341610Y-13823508D01*
X14341610Y-13823508D02*
X14332086Y-13813984D01*
X14332086Y-13813984D02*
X14332086Y-13833031D01*
X14455896Y-14013984D02*
X14436848Y-14004460D01*
X14436848Y-14004460D02*
X14427324Y-13985412D01*
X14427324Y-13985412D02*
X14427324Y-13813984D01*
X14560658Y-14013984D02*
X14541610Y-14004460D01*
X14541610Y-14004460D02*
X14532086Y-13985412D01*
X14532086Y-13985412D02*
X14532086Y-13813984D01*
X14789229Y-14013984D02*
X14789229Y-13813984D01*
X14789229Y-13813984D02*
X14855896Y-13956841D01*
X14855896Y-13956841D02*
X14922562Y-13813984D01*
X14922562Y-13813984D02*
X14922562Y-14013984D01*
X15103515Y-14013984D02*
X15103515Y-13909222D01*
X15103515Y-13909222D02*
X15093991Y-13890174D01*
X15093991Y-13890174D02*
X15074943Y-13880650D01*
X15074943Y-13880650D02*
X15036848Y-13880650D01*
X15036848Y-13880650D02*
X15017801Y-13890174D01*
X15103515Y-14004460D02*
X15084467Y-14013984D01*
X15084467Y-14013984D02*
X15036848Y-14013984D01*
X15036848Y-14013984D02*
X15017801Y-14004460D01*
X15017801Y-14004460D02*
X15008277Y-13985412D01*
X15008277Y-13985412D02*
X15008277Y-13966365D01*
X15008277Y-13966365D02*
X15017801Y-13947317D01*
X15017801Y-13947317D02*
X15036848Y-13937793D01*
X15036848Y-13937793D02*
X15084467Y-13937793D01*
X15084467Y-13937793D02*
X15103515Y-13928269D01*
X15198753Y-13880650D02*
X15198753Y-14080650D01*
X15198753Y-13890174D02*
X15217801Y-13880650D01*
X15217801Y-13880650D02*
X15255896Y-13880650D01*
X15255896Y-13880650D02*
X15274943Y-13890174D01*
X15274943Y-13890174D02*
X15284467Y-13899698D01*
X15284467Y-13899698D02*
X15293991Y-13918746D01*
X15293991Y-13918746D02*
X15293991Y-13975888D01*
X15293991Y-13975888D02*
X15284467Y-13994936D01*
X15284467Y-13994936D02*
X15274943Y-14004460D01*
X15274943Y-14004460D02*
X15255896Y-14013984D01*
X15255896Y-14013984D02*
X15217801Y-14013984D01*
X15217801Y-14013984D02*
X15198753Y-14004460D01*
X15379705Y-13994936D02*
X15389229Y-14004460D01*
X15389229Y-14004460D02*
X15379705Y-14013984D01*
X15379705Y-14013984D02*
X15370182Y-14004460D01*
X15370182Y-14004460D02*
X15379705Y-13994936D01*
X15379705Y-13994936D02*
X15379705Y-14013984D01*
X15379705Y-13890174D02*
X15389229Y-13899698D01*
X15389229Y-13899698D02*
X15379705Y-13909222D01*
X15379705Y-13909222D02*
X15370182Y-13899698D01*
X15370182Y-13899698D02*
X15379705Y-13890174D01*
X15379705Y-13890174D02*
X15379705Y-13909222D01*
D12*
X13682500Y-14310000D02*
X13747500Y-14375000D01*
X13747500Y-14310000D02*
X13682500Y-14375000D01*
D11*
X14046372Y-14233984D02*
X14065420Y-14233984D01*
X14065420Y-14233984D02*
X14084467Y-14243508D01*
X14084467Y-14243508D02*
X14093991Y-14253031D01*
X14093991Y-14253031D02*
X14103515Y-14272079D01*
X14103515Y-14272079D02*
X14113039Y-14310174D01*
X14113039Y-14310174D02*
X14113039Y-14357793D01*
X14113039Y-14357793D02*
X14103515Y-14395888D01*
X14103515Y-14395888D02*
X14093991Y-14414936D01*
X14093991Y-14414936D02*
X14084467Y-14424460D01*
X14084467Y-14424460D02*
X14065420Y-14433984D01*
X14065420Y-14433984D02*
X14046372Y-14433984D01*
X14046372Y-14433984D02*
X14027324Y-14424460D01*
X14027324Y-14424460D02*
X14017801Y-14414936D01*
X14017801Y-14414936D02*
X14008277Y-14395888D01*
X14008277Y-14395888D02*
X13998753Y-14357793D01*
X13998753Y-14357793D02*
X13998753Y-14310174D01*
X13998753Y-14310174D02*
X14008277Y-14272079D01*
X14008277Y-14272079D02*
X14017801Y-14253031D01*
X14017801Y-14253031D02*
X14027324Y-14243508D01*
X14027324Y-14243508D02*
X14046372Y-14233984D01*
X14198753Y-14414936D02*
X14208277Y-14424460D01*
X14208277Y-14424460D02*
X14198753Y-14433984D01*
X14198753Y-14433984D02*
X14189229Y-14424460D01*
X14189229Y-14424460D02*
X14198753Y-14414936D01*
X14198753Y-14414936D02*
X14198753Y-14433984D01*
X14379705Y-14233984D02*
X14341610Y-14233984D01*
X14341610Y-14233984D02*
X14322562Y-14243508D01*
X14322562Y-14243508D02*
X14313039Y-14253031D01*
X14313039Y-14253031D02*
X14293991Y-14281603D01*
X14293991Y-14281603D02*
X14284467Y-14319698D01*
X14284467Y-14319698D02*
X14284467Y-14395888D01*
X14284467Y-14395888D02*
X14293991Y-14414936D01*
X14293991Y-14414936D02*
X14303515Y-14424460D01*
X14303515Y-14424460D02*
X14322562Y-14433984D01*
X14322562Y-14433984D02*
X14360658Y-14433984D01*
X14360658Y-14433984D02*
X14379705Y-14424460D01*
X14379705Y-14424460D02*
X14389229Y-14414936D01*
X14389229Y-14414936D02*
X14398753Y-14395888D01*
X14398753Y-14395888D02*
X14398753Y-14348269D01*
X14398753Y-14348269D02*
X14389229Y-14329222D01*
X14389229Y-14329222D02*
X14379705Y-14319698D01*
X14379705Y-14319698D02*
X14360658Y-14310174D01*
X14360658Y-14310174D02*
X14322562Y-14310174D01*
X14322562Y-14310174D02*
X14303515Y-14319698D01*
X14303515Y-14319698D02*
X14293991Y-14329222D01*
X14293991Y-14329222D02*
X14284467Y-14348269D01*
X14579705Y-14233984D02*
X14484467Y-14233984D01*
X14484467Y-14233984D02*
X14474943Y-14329222D01*
X14474943Y-14329222D02*
X14484467Y-14319698D01*
X14484467Y-14319698D02*
X14503515Y-14310174D01*
X14503515Y-14310174D02*
X14551134Y-14310174D01*
X14551134Y-14310174D02*
X14570182Y-14319698D01*
X14570182Y-14319698D02*
X14579705Y-14329222D01*
X14579705Y-14329222D02*
X14589229Y-14348269D01*
X14589229Y-14348269D02*
X14589229Y-14395888D01*
X14589229Y-14395888D02*
X14579705Y-14414936D01*
X14579705Y-14414936D02*
X14570182Y-14424460D01*
X14570182Y-14424460D02*
X14551134Y-14433984D01*
X14551134Y-14433984D02*
X14503515Y-14433984D01*
X14503515Y-14433984D02*
X14484467Y-14424460D01*
X14484467Y-14424460D02*
X14474943Y-14414936D01*
X14713039Y-14233984D02*
X14732086Y-14233984D01*
X14732086Y-14233984D02*
X14751134Y-14243508D01*
X14751134Y-14243508D02*
X14760658Y-14253031D01*
X14760658Y-14253031D02*
X14770182Y-14272079D01*
X14770182Y-14272079D02*
X14779705Y-14310174D01*
X14779705Y-14310174D02*
X14779705Y-14357793D01*
X14779705Y-14357793D02*
X14770182Y-14395888D01*
X14770182Y-14395888D02*
X14760658Y-14414936D01*
X14760658Y-14414936D02*
X14751134Y-14424460D01*
X14751134Y-14424460D02*
X14732086Y-14433984D01*
X14732086Y-14433984D02*
X14713039Y-14433984D01*
X14713039Y-14433984D02*
X14693991Y-14424460D01*
X14693991Y-14424460D02*
X14684467Y-14414936D01*
X14684467Y-14414936D02*
X14674943Y-14395888D01*
X14674943Y-14395888D02*
X14665420Y-14357793D01*
X14665420Y-14357793D02*
X14665420Y-14310174D01*
X14665420Y-14310174D02*
X14674943Y-14272079D01*
X14674943Y-14272079D02*
X14684467Y-14253031D01*
X14684467Y-14253031D02*
X14693991Y-14243508D01*
X14693991Y-14243508D02*
X14713039Y-14233984D01*
X14865420Y-14433984D02*
X14865420Y-14300650D01*
X14865420Y-14319698D02*
X14874943Y-14310174D01*
X14874943Y-14310174D02*
X14893991Y-14300650D01*
X14893991Y-14300650D02*
X14922563Y-14300650D01*
X14922563Y-14300650D02*
X14941610Y-14310174D01*
X14941610Y-14310174D02*
X14951134Y-14329222D01*
X14951134Y-14329222D02*
X14951134Y-14433984D01*
X14951134Y-14329222D02*
X14960658Y-14310174D01*
X14960658Y-14310174D02*
X14979705Y-14300650D01*
X14979705Y-14300650D02*
X15008277Y-14300650D01*
X15008277Y-14300650D02*
X15027324Y-14310174D01*
X15027324Y-14310174D02*
X15036848Y-14329222D01*
X15036848Y-14329222D02*
X15036848Y-14433984D01*
X15132086Y-14433984D02*
X15132086Y-14300650D01*
X15132086Y-14319698D02*
X15141610Y-14310174D01*
X15141610Y-14310174D02*
X15160658Y-14300650D01*
X15160658Y-14300650D02*
X15189229Y-14300650D01*
X15189229Y-14300650D02*
X15208277Y-14310174D01*
X15208277Y-14310174D02*
X15217801Y-14329222D01*
X15217801Y-14329222D02*
X15217801Y-14433984D01*
X15217801Y-14329222D02*
X15227324Y-14310174D01*
X15227324Y-14310174D02*
X15246372Y-14300650D01*
X15246372Y-14300650D02*
X15274943Y-14300650D01*
X15274943Y-14300650D02*
X15293991Y-14310174D01*
X15293991Y-14310174D02*
X15303515Y-14329222D01*
X15303515Y-14329222D02*
X15303515Y-14433984D01*
X15693991Y-14224460D02*
X15522563Y-14481603D01*
X15951134Y-14233984D02*
X15970182Y-14233984D01*
X15970182Y-14233984D02*
X15989229Y-14243508D01*
X15989229Y-14243508D02*
X15998753Y-14253031D01*
X15998753Y-14253031D02*
X16008277Y-14272079D01*
X16008277Y-14272079D02*
X16017801Y-14310174D01*
X16017801Y-14310174D02*
X16017801Y-14357793D01*
X16017801Y-14357793D02*
X16008277Y-14395888D01*
X16008277Y-14395888D02*
X15998753Y-14414936D01*
X15998753Y-14414936D02*
X15989229Y-14424460D01*
X15989229Y-14424460D02*
X15970182Y-14433984D01*
X15970182Y-14433984D02*
X15951134Y-14433984D01*
X15951134Y-14433984D02*
X15932086Y-14424460D01*
X15932086Y-14424460D02*
X15922563Y-14414936D01*
X15922563Y-14414936D02*
X15913039Y-14395888D01*
X15913039Y-14395888D02*
X15903515Y-14357793D01*
X15903515Y-14357793D02*
X15903515Y-14310174D01*
X15903515Y-14310174D02*
X15913039Y-14272079D01*
X15913039Y-14272079D02*
X15922563Y-14253031D01*
X15922563Y-14253031D02*
X15932086Y-14243508D01*
X15932086Y-14243508D02*
X15951134Y-14233984D01*
X16103515Y-14414936D02*
X16113039Y-14424460D01*
X16113039Y-14424460D02*
X16103515Y-14433984D01*
X16103515Y-14433984D02*
X16093991Y-14424460D01*
X16093991Y-14424460D02*
X16103515Y-14414936D01*
X16103515Y-14414936D02*
X16103515Y-14433984D01*
X16236848Y-14233984D02*
X16255896Y-14233984D01*
X16255896Y-14233984D02*
X16274944Y-14243508D01*
X16274944Y-14243508D02*
X16284467Y-14253031D01*
X16284467Y-14253031D02*
X16293991Y-14272079D01*
X16293991Y-14272079D02*
X16303515Y-14310174D01*
X16303515Y-14310174D02*
X16303515Y-14357793D01*
X16303515Y-14357793D02*
X16293991Y-14395888D01*
X16293991Y-14395888D02*
X16284467Y-14414936D01*
X16284467Y-14414936D02*
X16274944Y-14424460D01*
X16274944Y-14424460D02*
X16255896Y-14433984D01*
X16255896Y-14433984D02*
X16236848Y-14433984D01*
X16236848Y-14433984D02*
X16217801Y-14424460D01*
X16217801Y-14424460D02*
X16208277Y-14414936D01*
X16208277Y-14414936D02*
X16198753Y-14395888D01*
X16198753Y-14395888D02*
X16189229Y-14357793D01*
X16189229Y-14357793D02*
X16189229Y-14310174D01*
X16189229Y-14310174D02*
X16198753Y-14272079D01*
X16198753Y-14272079D02*
X16208277Y-14253031D01*
X16208277Y-14253031D02*
X16217801Y-14243508D01*
X16217801Y-14243508D02*
X16236848Y-14233984D01*
X16379706Y-14253031D02*
X16389229Y-14243508D01*
X16389229Y-14243508D02*
X16408277Y-14233984D01*
X16408277Y-14233984D02*
X16455896Y-14233984D01*
X16455896Y-14233984D02*
X16474944Y-14243508D01*
X16474944Y-14243508D02*
X16484467Y-14253031D01*
X16484467Y-14253031D02*
X16493991Y-14272079D01*
X16493991Y-14272079D02*
X16493991Y-14291127D01*
X16493991Y-14291127D02*
X16484467Y-14319698D01*
X16484467Y-14319698D02*
X16370182Y-14433984D01*
X16370182Y-14433984D02*
X16493991Y-14433984D01*
X16674944Y-14233984D02*
X16579706Y-14233984D01*
X16579706Y-14233984D02*
X16570182Y-14329222D01*
X16570182Y-14329222D02*
X16579706Y-14319698D01*
X16579706Y-14319698D02*
X16598753Y-14310174D01*
X16598753Y-14310174D02*
X16646372Y-14310174D01*
X16646372Y-14310174D02*
X16665420Y-14319698D01*
X16665420Y-14319698D02*
X16674944Y-14329222D01*
X16674944Y-14329222D02*
X16684467Y-14348269D01*
X16684467Y-14348269D02*
X16684467Y-14395888D01*
X16684467Y-14395888D02*
X16674944Y-14414936D01*
X16674944Y-14414936D02*
X16665420Y-14424460D01*
X16665420Y-14424460D02*
X16646372Y-14433984D01*
X16646372Y-14433984D02*
X16598753Y-14433984D01*
X16598753Y-14433984D02*
X16579706Y-14424460D01*
X16579706Y-14424460D02*
X16570182Y-14414936D01*
X16855896Y-14233984D02*
X16817801Y-14233984D01*
X16817801Y-14233984D02*
X16798753Y-14243508D01*
X16798753Y-14243508D02*
X16789229Y-14253031D01*
X16789229Y-14253031D02*
X16770182Y-14281603D01*
X16770182Y-14281603D02*
X16760658Y-14319698D01*
X16760658Y-14319698D02*
X16760658Y-14395888D01*
X16760658Y-14395888D02*
X16770182Y-14414936D01*
X16770182Y-14414936D02*
X16779706Y-14424460D01*
X16779706Y-14424460D02*
X16798753Y-14433984D01*
X16798753Y-14433984D02*
X16836849Y-14433984D01*
X16836849Y-14433984D02*
X16855896Y-14424460D01*
X16855896Y-14424460D02*
X16865420Y-14414936D01*
X16865420Y-14414936D02*
X16874944Y-14395888D01*
X16874944Y-14395888D02*
X16874944Y-14348269D01*
X16874944Y-14348269D02*
X16865420Y-14329222D01*
X16865420Y-14329222D02*
X16855896Y-14319698D01*
X16855896Y-14319698D02*
X16836849Y-14310174D01*
X16836849Y-14310174D02*
X16798753Y-14310174D01*
X16798753Y-14310174D02*
X16779706Y-14319698D01*
X16779706Y-14319698D02*
X16770182Y-14329222D01*
X16770182Y-14329222D02*
X16760658Y-14348269D01*
X16951134Y-14233984D02*
X16951134Y-14272079D01*
X17027325Y-14233984D02*
X17027325Y-14272079D01*
X17322563Y-14510174D02*
X17313039Y-14500650D01*
X17313039Y-14500650D02*
X17293991Y-14472079D01*
X17293991Y-14472079D02*
X17284468Y-14453031D01*
X17284468Y-14453031D02*
X17274944Y-14424460D01*
X17274944Y-14424460D02*
X17265420Y-14376841D01*
X17265420Y-14376841D02*
X17265420Y-14338746D01*
X17265420Y-14338746D02*
X17274944Y-14291127D01*
X17274944Y-14291127D02*
X17284468Y-14262555D01*
X17284468Y-14262555D02*
X17293991Y-14243508D01*
X17293991Y-14243508D02*
X17313039Y-14214936D01*
X17313039Y-14214936D02*
X17322563Y-14205412D01*
X17389230Y-14253031D02*
X17398753Y-14243508D01*
X17398753Y-14243508D02*
X17417801Y-14233984D01*
X17417801Y-14233984D02*
X17465420Y-14233984D01*
X17465420Y-14233984D02*
X17484468Y-14243508D01*
X17484468Y-14243508D02*
X17493991Y-14253031D01*
X17493991Y-14253031D02*
X17503515Y-14272079D01*
X17503515Y-14272079D02*
X17503515Y-14291127D01*
X17503515Y-14291127D02*
X17493991Y-14319698D01*
X17493991Y-14319698D02*
X17379706Y-14433984D01*
X17379706Y-14433984D02*
X17503515Y-14433984D01*
X17741611Y-14433984D02*
X17741611Y-14233984D01*
X17827325Y-14433984D02*
X17827325Y-14329222D01*
X17827325Y-14329222D02*
X17817801Y-14310174D01*
X17817801Y-14310174D02*
X17798753Y-14300650D01*
X17798753Y-14300650D02*
X17770182Y-14300650D01*
X17770182Y-14300650D02*
X17751134Y-14310174D01*
X17751134Y-14310174D02*
X17741611Y-14319698D01*
X17951134Y-14433984D02*
X17932087Y-14424460D01*
X17932087Y-14424460D02*
X17922563Y-14414936D01*
X17922563Y-14414936D02*
X17913039Y-14395888D01*
X17913039Y-14395888D02*
X17913039Y-14338746D01*
X17913039Y-14338746D02*
X17922563Y-14319698D01*
X17922563Y-14319698D02*
X17932087Y-14310174D01*
X17932087Y-14310174D02*
X17951134Y-14300650D01*
X17951134Y-14300650D02*
X17979706Y-14300650D01*
X17979706Y-14300650D02*
X17998753Y-14310174D01*
X17998753Y-14310174D02*
X18008277Y-14319698D01*
X18008277Y-14319698D02*
X18017801Y-14338746D01*
X18017801Y-14338746D02*
X18017801Y-14395888D01*
X18017801Y-14395888D02*
X18008277Y-14414936D01*
X18008277Y-14414936D02*
X17998753Y-14424460D01*
X17998753Y-14424460D02*
X17979706Y-14433984D01*
X17979706Y-14433984D02*
X17951134Y-14433984D01*
X18132087Y-14433984D02*
X18113039Y-14424460D01*
X18113039Y-14424460D02*
X18103515Y-14405412D01*
X18103515Y-14405412D02*
X18103515Y-14233984D01*
X18284468Y-14424460D02*
X18265420Y-14433984D01*
X18265420Y-14433984D02*
X18227325Y-14433984D01*
X18227325Y-14433984D02*
X18208277Y-14424460D01*
X18208277Y-14424460D02*
X18198753Y-14405412D01*
X18198753Y-14405412D02*
X18198753Y-14329222D01*
X18198753Y-14329222D02*
X18208277Y-14310174D01*
X18208277Y-14310174D02*
X18227325Y-14300650D01*
X18227325Y-14300650D02*
X18265420Y-14300650D01*
X18265420Y-14300650D02*
X18284468Y-14310174D01*
X18284468Y-14310174D02*
X18293992Y-14329222D01*
X18293992Y-14329222D02*
X18293992Y-14348269D01*
X18293992Y-14348269D02*
X18198753Y-14367317D01*
X18370182Y-14424460D02*
X18389230Y-14433984D01*
X18389230Y-14433984D02*
X18427325Y-14433984D01*
X18427325Y-14433984D02*
X18446373Y-14424460D01*
X18446373Y-14424460D02*
X18455896Y-14405412D01*
X18455896Y-14405412D02*
X18455896Y-14395888D01*
X18455896Y-14395888D02*
X18446373Y-14376841D01*
X18446373Y-14376841D02*
X18427325Y-14367317D01*
X18427325Y-14367317D02*
X18398753Y-14367317D01*
X18398753Y-14367317D02*
X18379706Y-14357793D01*
X18379706Y-14357793D02*
X18370182Y-14338746D01*
X18370182Y-14338746D02*
X18370182Y-14329222D01*
X18370182Y-14329222D02*
X18379706Y-14310174D01*
X18379706Y-14310174D02*
X18398753Y-14300650D01*
X18398753Y-14300650D02*
X18427325Y-14300650D01*
X18427325Y-14300650D02*
X18446373Y-14310174D01*
X18522563Y-14510174D02*
X18532087Y-14500650D01*
X18532087Y-14500650D02*
X18551134Y-14472079D01*
X18551134Y-14472079D02*
X18560658Y-14453031D01*
X18560658Y-14453031D02*
X18570182Y-14424460D01*
X18570182Y-14424460D02*
X18579706Y-14376841D01*
X18579706Y-14376841D02*
X18579706Y-14338746D01*
X18579706Y-14338746D02*
X18570182Y-14291127D01*
X18570182Y-14291127D02*
X18560658Y-14262555D01*
X18560658Y-14262555D02*
X18551134Y-14243508D01*
X18551134Y-14243508D02*
X18532087Y-14214936D01*
X18532087Y-14214936D02*
X18522563Y-14205412D01*
X18884468Y-14510174D02*
X18874944Y-14500650D01*
X18874944Y-14500650D02*
X18855896Y-14472079D01*
X18855896Y-14472079D02*
X18846373Y-14453031D01*
X18846373Y-14453031D02*
X18836849Y-14424460D01*
X18836849Y-14424460D02*
X18827325Y-14376841D01*
X18827325Y-14376841D02*
X18827325Y-14338746D01*
X18827325Y-14338746D02*
X18836849Y-14291127D01*
X18836849Y-14291127D02*
X18846373Y-14262555D01*
X18846373Y-14262555D02*
X18855896Y-14243508D01*
X18855896Y-14243508D02*
X18874944Y-14214936D01*
X18874944Y-14214936D02*
X18884468Y-14205412D01*
X18960658Y-14300650D02*
X18960658Y-14433984D01*
X18960658Y-14319698D02*
X18970182Y-14310174D01*
X18970182Y-14310174D02*
X18989230Y-14300650D01*
X18989230Y-14300650D02*
X19017801Y-14300650D01*
X19017801Y-14300650D02*
X19036849Y-14310174D01*
X19036849Y-14310174D02*
X19046373Y-14329222D01*
X19046373Y-14329222D02*
X19046373Y-14433984D01*
X19170182Y-14433984D02*
X19151134Y-14424460D01*
X19151134Y-14424460D02*
X19141611Y-14414936D01*
X19141611Y-14414936D02*
X19132087Y-14395888D01*
X19132087Y-14395888D02*
X19132087Y-14338746D01*
X19132087Y-14338746D02*
X19141611Y-14319698D01*
X19141611Y-14319698D02*
X19151134Y-14310174D01*
X19151134Y-14310174D02*
X19170182Y-14300650D01*
X19170182Y-14300650D02*
X19198754Y-14300650D01*
X19198754Y-14300650D02*
X19217801Y-14310174D01*
X19217801Y-14310174D02*
X19227325Y-14319698D01*
X19227325Y-14319698D02*
X19236849Y-14338746D01*
X19236849Y-14338746D02*
X19236849Y-14395888D01*
X19236849Y-14395888D02*
X19227325Y-14414936D01*
X19227325Y-14414936D02*
X19217801Y-14424460D01*
X19217801Y-14424460D02*
X19198754Y-14433984D01*
X19198754Y-14433984D02*
X19170182Y-14433984D01*
X19293992Y-14300650D02*
X19370182Y-14300650D01*
X19322563Y-14233984D02*
X19322563Y-14405412D01*
X19322563Y-14405412D02*
X19332087Y-14424460D01*
X19332087Y-14424460D02*
X19351134Y-14433984D01*
X19351134Y-14433984D02*
X19370182Y-14433984D01*
X19589230Y-14300650D02*
X19589230Y-14500650D01*
X19589230Y-14310174D02*
X19608277Y-14300650D01*
X19608277Y-14300650D02*
X19646373Y-14300650D01*
X19646373Y-14300650D02*
X19665420Y-14310174D01*
X19665420Y-14310174D02*
X19674944Y-14319698D01*
X19674944Y-14319698D02*
X19684468Y-14338746D01*
X19684468Y-14338746D02*
X19684468Y-14395888D01*
X19684468Y-14395888D02*
X19674944Y-14414936D01*
X19674944Y-14414936D02*
X19665420Y-14424460D01*
X19665420Y-14424460D02*
X19646373Y-14433984D01*
X19646373Y-14433984D02*
X19608277Y-14433984D01*
X19608277Y-14433984D02*
X19589230Y-14424460D01*
X19798754Y-14433984D02*
X19779706Y-14424460D01*
X19779706Y-14424460D02*
X19770182Y-14405412D01*
X19770182Y-14405412D02*
X19770182Y-14233984D01*
X19960658Y-14433984D02*
X19960658Y-14329222D01*
X19960658Y-14329222D02*
X19951135Y-14310174D01*
X19951135Y-14310174D02*
X19932087Y-14300650D01*
X19932087Y-14300650D02*
X19893992Y-14300650D01*
X19893992Y-14300650D02*
X19874944Y-14310174D01*
X19960658Y-14424460D02*
X19941611Y-14433984D01*
X19941611Y-14433984D02*
X19893992Y-14433984D01*
X19893992Y-14433984D02*
X19874944Y-14424460D01*
X19874944Y-14424460D02*
X19865420Y-14405412D01*
X19865420Y-14405412D02*
X19865420Y-14386365D01*
X19865420Y-14386365D02*
X19874944Y-14367317D01*
X19874944Y-14367317D02*
X19893992Y-14357793D01*
X19893992Y-14357793D02*
X19941611Y-14357793D01*
X19941611Y-14357793D02*
X19960658Y-14348269D01*
X20027325Y-14300650D02*
X20103515Y-14300650D01*
X20055896Y-14233984D02*
X20055896Y-14405412D01*
X20055896Y-14405412D02*
X20065420Y-14424460D01*
X20065420Y-14424460D02*
X20084468Y-14433984D01*
X20084468Y-14433984D02*
X20103515Y-14433984D01*
X20246373Y-14424460D02*
X20227325Y-14433984D01*
X20227325Y-14433984D02*
X20189230Y-14433984D01*
X20189230Y-14433984D02*
X20170182Y-14424460D01*
X20170182Y-14424460D02*
X20160658Y-14405412D01*
X20160658Y-14405412D02*
X20160658Y-14329222D01*
X20160658Y-14329222D02*
X20170182Y-14310174D01*
X20170182Y-14310174D02*
X20189230Y-14300650D01*
X20189230Y-14300650D02*
X20227325Y-14300650D01*
X20227325Y-14300650D02*
X20246373Y-14310174D01*
X20246373Y-14310174D02*
X20255896Y-14329222D01*
X20255896Y-14329222D02*
X20255896Y-14348269D01*
X20255896Y-14348269D02*
X20160658Y-14367317D01*
X20427325Y-14433984D02*
X20427325Y-14233984D01*
X20427325Y-14424460D02*
X20408277Y-14433984D01*
X20408277Y-14433984D02*
X20370182Y-14433984D01*
X20370182Y-14433984D02*
X20351135Y-14424460D01*
X20351135Y-14424460D02*
X20341611Y-14414936D01*
X20341611Y-14414936D02*
X20332087Y-14395888D01*
X20332087Y-14395888D02*
X20332087Y-14338746D01*
X20332087Y-14338746D02*
X20341611Y-14319698D01*
X20341611Y-14319698D02*
X20351135Y-14310174D01*
X20351135Y-14310174D02*
X20370182Y-14300650D01*
X20370182Y-14300650D02*
X20408277Y-14300650D01*
X20408277Y-14300650D02*
X20427325Y-14310174D01*
X20503516Y-14510174D02*
X20513039Y-14500650D01*
X20513039Y-14500650D02*
X20532087Y-14472079D01*
X20532087Y-14472079D02*
X20541611Y-14453031D01*
X20541611Y-14453031D02*
X20551135Y-14424460D01*
X20551135Y-14424460D02*
X20560658Y-14376841D01*
X20560658Y-14376841D02*
X20560658Y-14338746D01*
X20560658Y-14338746D02*
X20551135Y-14291127D01*
X20551135Y-14291127D02*
X20541611Y-14262555D01*
X20541611Y-14262555D02*
X20532087Y-14243508D01*
X20532087Y-14243508D02*
X20513039Y-14214936D01*
X20513039Y-14214936D02*
X20503516Y-14205412D01*
X13747500Y-14606500D02*
G75*
G02*
X13547500Y-14606500I-100000J0D01*
G01*
X13547500Y-14606500D02*
G75*
G02*
X13747500Y-14606500I100000J0D01*
G01*
X13998753Y-14517031D02*
X14008277Y-14507508D01*
X14008277Y-14507508D02*
X14027324Y-14497984D01*
X14027324Y-14497984D02*
X14074943Y-14497984D01*
X14074943Y-14497984D02*
X14093991Y-14507508D01*
X14093991Y-14507508D02*
X14103515Y-14517031D01*
X14103515Y-14517031D02*
X14113039Y-14536079D01*
X14113039Y-14536079D02*
X14113039Y-14555127D01*
X14113039Y-14555127D02*
X14103515Y-14583698D01*
X14103515Y-14583698D02*
X13989229Y-14697984D01*
X13989229Y-14697984D02*
X14113039Y-14697984D01*
X14198753Y-14678936D02*
X14208277Y-14688460D01*
X14208277Y-14688460D02*
X14198753Y-14697984D01*
X14198753Y-14697984D02*
X14189229Y-14688460D01*
X14189229Y-14688460D02*
X14198753Y-14678936D01*
X14198753Y-14678936D02*
X14198753Y-14697984D01*
X14274943Y-14497984D02*
X14408277Y-14497984D01*
X14408277Y-14497984D02*
X14322562Y-14697984D01*
X14522562Y-14497984D02*
X14541610Y-14497984D01*
X14541610Y-14497984D02*
X14560658Y-14507508D01*
X14560658Y-14507508D02*
X14570182Y-14517031D01*
X14570182Y-14517031D02*
X14579705Y-14536079D01*
X14579705Y-14536079D02*
X14589229Y-14574174D01*
X14589229Y-14574174D02*
X14589229Y-14621793D01*
X14589229Y-14621793D02*
X14579705Y-14659888D01*
X14579705Y-14659888D02*
X14570182Y-14678936D01*
X14570182Y-14678936D02*
X14560658Y-14688460D01*
X14560658Y-14688460D02*
X14541610Y-14697984D01*
X14541610Y-14697984D02*
X14522562Y-14697984D01*
X14522562Y-14697984D02*
X14503515Y-14688460D01*
X14503515Y-14688460D02*
X14493991Y-14678936D01*
X14493991Y-14678936D02*
X14484467Y-14659888D01*
X14484467Y-14659888D02*
X14474943Y-14621793D01*
X14474943Y-14621793D02*
X14474943Y-14574174D01*
X14474943Y-14574174D02*
X14484467Y-14536079D01*
X14484467Y-14536079D02*
X14493991Y-14517031D01*
X14493991Y-14517031D02*
X14503515Y-14507508D01*
X14503515Y-14507508D02*
X14522562Y-14497984D01*
X14713039Y-14497984D02*
X14732086Y-14497984D01*
X14732086Y-14497984D02*
X14751134Y-14507508D01*
X14751134Y-14507508D02*
X14760658Y-14517031D01*
X14760658Y-14517031D02*
X14770182Y-14536079D01*
X14770182Y-14536079D02*
X14779705Y-14574174D01*
X14779705Y-14574174D02*
X14779705Y-14621793D01*
X14779705Y-14621793D02*
X14770182Y-14659888D01*
X14770182Y-14659888D02*
X14760658Y-14678936D01*
X14760658Y-14678936D02*
X14751134Y-14688460D01*
X14751134Y-14688460D02*
X14732086Y-14697984D01*
X14732086Y-14697984D02*
X14713039Y-14697984D01*
X14713039Y-14697984D02*
X14693991Y-14688460D01*
X14693991Y-14688460D02*
X14684467Y-14678936D01*
X14684467Y-14678936D02*
X14674943Y-14659888D01*
X14674943Y-14659888D02*
X14665420Y-14621793D01*
X14665420Y-14621793D02*
X14665420Y-14574174D01*
X14665420Y-14574174D02*
X14674943Y-14536079D01*
X14674943Y-14536079D02*
X14684467Y-14517031D01*
X14684467Y-14517031D02*
X14693991Y-14507508D01*
X14693991Y-14507508D02*
X14713039Y-14497984D01*
X14865420Y-14697984D02*
X14865420Y-14564650D01*
X14865420Y-14583698D02*
X14874943Y-14574174D01*
X14874943Y-14574174D02*
X14893991Y-14564650D01*
X14893991Y-14564650D02*
X14922563Y-14564650D01*
X14922563Y-14564650D02*
X14941610Y-14574174D01*
X14941610Y-14574174D02*
X14951134Y-14593222D01*
X14951134Y-14593222D02*
X14951134Y-14697984D01*
X14951134Y-14593222D02*
X14960658Y-14574174D01*
X14960658Y-14574174D02*
X14979705Y-14564650D01*
X14979705Y-14564650D02*
X15008277Y-14564650D01*
X15008277Y-14564650D02*
X15027324Y-14574174D01*
X15027324Y-14574174D02*
X15036848Y-14593222D01*
X15036848Y-14593222D02*
X15036848Y-14697984D01*
X15132086Y-14697984D02*
X15132086Y-14564650D01*
X15132086Y-14583698D02*
X15141610Y-14574174D01*
X15141610Y-14574174D02*
X15160658Y-14564650D01*
X15160658Y-14564650D02*
X15189229Y-14564650D01*
X15189229Y-14564650D02*
X15208277Y-14574174D01*
X15208277Y-14574174D02*
X15217801Y-14593222D01*
X15217801Y-14593222D02*
X15217801Y-14697984D01*
X15217801Y-14593222D02*
X15227324Y-14574174D01*
X15227324Y-14574174D02*
X15246372Y-14564650D01*
X15246372Y-14564650D02*
X15274943Y-14564650D01*
X15274943Y-14564650D02*
X15293991Y-14574174D01*
X15293991Y-14574174D02*
X15303515Y-14593222D01*
X15303515Y-14593222D02*
X15303515Y-14697984D01*
X15693991Y-14488460D02*
X15522563Y-14745603D01*
X15951134Y-14497984D02*
X15970182Y-14497984D01*
X15970182Y-14497984D02*
X15989229Y-14507508D01*
X15989229Y-14507508D02*
X15998753Y-14517031D01*
X15998753Y-14517031D02*
X16008277Y-14536079D01*
X16008277Y-14536079D02*
X16017801Y-14574174D01*
X16017801Y-14574174D02*
X16017801Y-14621793D01*
X16017801Y-14621793D02*
X16008277Y-14659888D01*
X16008277Y-14659888D02*
X15998753Y-14678936D01*
X15998753Y-14678936D02*
X15989229Y-14688460D01*
X15989229Y-14688460D02*
X15970182Y-14697984D01*
X15970182Y-14697984D02*
X15951134Y-14697984D01*
X15951134Y-14697984D02*
X15932086Y-14688460D01*
X15932086Y-14688460D02*
X15922563Y-14678936D01*
X15922563Y-14678936D02*
X15913039Y-14659888D01*
X15913039Y-14659888D02*
X15903515Y-14621793D01*
X15903515Y-14621793D02*
X15903515Y-14574174D01*
X15903515Y-14574174D02*
X15913039Y-14536079D01*
X15913039Y-14536079D02*
X15922563Y-14517031D01*
X15922563Y-14517031D02*
X15932086Y-14507508D01*
X15932086Y-14507508D02*
X15951134Y-14497984D01*
X16103515Y-14678936D02*
X16113039Y-14688460D01*
X16113039Y-14688460D02*
X16103515Y-14697984D01*
X16103515Y-14697984D02*
X16093991Y-14688460D01*
X16093991Y-14688460D02*
X16103515Y-14678936D01*
X16103515Y-14678936D02*
X16103515Y-14697984D01*
X16303515Y-14697984D02*
X16189229Y-14697984D01*
X16246372Y-14697984D02*
X16246372Y-14497984D01*
X16246372Y-14497984D02*
X16227325Y-14526555D01*
X16227325Y-14526555D02*
X16208277Y-14545603D01*
X16208277Y-14545603D02*
X16189229Y-14555127D01*
X16427325Y-14497984D02*
X16446372Y-14497984D01*
X16446372Y-14497984D02*
X16465420Y-14507508D01*
X16465420Y-14507508D02*
X16474944Y-14517031D01*
X16474944Y-14517031D02*
X16484467Y-14536079D01*
X16484467Y-14536079D02*
X16493991Y-14574174D01*
X16493991Y-14574174D02*
X16493991Y-14621793D01*
X16493991Y-14621793D02*
X16484467Y-14659888D01*
X16484467Y-14659888D02*
X16474944Y-14678936D01*
X16474944Y-14678936D02*
X16465420Y-14688460D01*
X16465420Y-14688460D02*
X16446372Y-14697984D01*
X16446372Y-14697984D02*
X16427325Y-14697984D01*
X16427325Y-14697984D02*
X16408277Y-14688460D01*
X16408277Y-14688460D02*
X16398753Y-14678936D01*
X16398753Y-14678936D02*
X16389229Y-14659888D01*
X16389229Y-14659888D02*
X16379706Y-14621793D01*
X16379706Y-14621793D02*
X16379706Y-14574174D01*
X16379706Y-14574174D02*
X16389229Y-14536079D01*
X16389229Y-14536079D02*
X16398753Y-14517031D01*
X16398753Y-14517031D02*
X16408277Y-14507508D01*
X16408277Y-14507508D02*
X16427325Y-14497984D01*
X16665420Y-14497984D02*
X16627325Y-14497984D01*
X16627325Y-14497984D02*
X16608277Y-14507508D01*
X16608277Y-14507508D02*
X16598753Y-14517031D01*
X16598753Y-14517031D02*
X16579706Y-14545603D01*
X16579706Y-14545603D02*
X16570182Y-14583698D01*
X16570182Y-14583698D02*
X16570182Y-14659888D01*
X16570182Y-14659888D02*
X16579706Y-14678936D01*
X16579706Y-14678936D02*
X16589229Y-14688460D01*
X16589229Y-14688460D02*
X16608277Y-14697984D01*
X16608277Y-14697984D02*
X16646372Y-14697984D01*
X16646372Y-14697984D02*
X16665420Y-14688460D01*
X16665420Y-14688460D02*
X16674944Y-14678936D01*
X16674944Y-14678936D02*
X16684467Y-14659888D01*
X16684467Y-14659888D02*
X16684467Y-14612269D01*
X16684467Y-14612269D02*
X16674944Y-14593222D01*
X16674944Y-14593222D02*
X16665420Y-14583698D01*
X16665420Y-14583698D02*
X16646372Y-14574174D01*
X16646372Y-14574174D02*
X16608277Y-14574174D01*
X16608277Y-14574174D02*
X16589229Y-14583698D01*
X16589229Y-14583698D02*
X16579706Y-14593222D01*
X16579706Y-14593222D02*
X16570182Y-14612269D01*
X16751134Y-14497984D02*
X16874944Y-14497984D01*
X16874944Y-14497984D02*
X16808277Y-14574174D01*
X16808277Y-14574174D02*
X16836849Y-14574174D01*
X16836849Y-14574174D02*
X16855896Y-14583698D01*
X16855896Y-14583698D02*
X16865420Y-14593222D01*
X16865420Y-14593222D02*
X16874944Y-14612269D01*
X16874944Y-14612269D02*
X16874944Y-14659888D01*
X16874944Y-14659888D02*
X16865420Y-14678936D01*
X16865420Y-14678936D02*
X16855896Y-14688460D01*
X16855896Y-14688460D02*
X16836849Y-14697984D01*
X16836849Y-14697984D02*
X16779706Y-14697984D01*
X16779706Y-14697984D02*
X16760658Y-14688460D01*
X16760658Y-14688460D02*
X16751134Y-14678936D01*
X16951134Y-14497984D02*
X16951134Y-14536079D01*
X17027325Y-14497984D02*
X17027325Y-14536079D01*
X17322563Y-14774174D02*
X17313039Y-14764650D01*
X17313039Y-14764650D02*
X17293991Y-14736079D01*
X17293991Y-14736079D02*
X17284468Y-14717031D01*
X17284468Y-14717031D02*
X17274944Y-14688460D01*
X17274944Y-14688460D02*
X17265420Y-14640841D01*
X17265420Y-14640841D02*
X17265420Y-14602746D01*
X17265420Y-14602746D02*
X17274944Y-14555127D01*
X17274944Y-14555127D02*
X17284468Y-14526555D01*
X17284468Y-14526555D02*
X17293991Y-14507508D01*
X17293991Y-14507508D02*
X17313039Y-14478936D01*
X17313039Y-14478936D02*
X17322563Y-14469412D01*
X17484468Y-14564650D02*
X17484468Y-14697984D01*
X17436849Y-14488460D02*
X17389230Y-14631317D01*
X17389230Y-14631317D02*
X17513039Y-14631317D01*
X17741611Y-14697984D02*
X17741611Y-14497984D01*
X17827325Y-14697984D02*
X17827325Y-14593222D01*
X17827325Y-14593222D02*
X17817801Y-14574174D01*
X17817801Y-14574174D02*
X17798753Y-14564650D01*
X17798753Y-14564650D02*
X17770182Y-14564650D01*
X17770182Y-14564650D02*
X17751134Y-14574174D01*
X17751134Y-14574174D02*
X17741611Y-14583698D01*
X17951134Y-14697984D02*
X17932087Y-14688460D01*
X17932087Y-14688460D02*
X17922563Y-14678936D01*
X17922563Y-14678936D02*
X17913039Y-14659888D01*
X17913039Y-14659888D02*
X17913039Y-14602746D01*
X17913039Y-14602746D02*
X17922563Y-14583698D01*
X17922563Y-14583698D02*
X17932087Y-14574174D01*
X17932087Y-14574174D02*
X17951134Y-14564650D01*
X17951134Y-14564650D02*
X17979706Y-14564650D01*
X17979706Y-14564650D02*
X17998753Y-14574174D01*
X17998753Y-14574174D02*
X18008277Y-14583698D01*
X18008277Y-14583698D02*
X18017801Y-14602746D01*
X18017801Y-14602746D02*
X18017801Y-14659888D01*
X18017801Y-14659888D02*
X18008277Y-14678936D01*
X18008277Y-14678936D02*
X17998753Y-14688460D01*
X17998753Y-14688460D02*
X17979706Y-14697984D01*
X17979706Y-14697984D02*
X17951134Y-14697984D01*
X18132087Y-14697984D02*
X18113039Y-14688460D01*
X18113039Y-14688460D02*
X18103515Y-14669412D01*
X18103515Y-14669412D02*
X18103515Y-14497984D01*
X18284468Y-14688460D02*
X18265420Y-14697984D01*
X18265420Y-14697984D02*
X18227325Y-14697984D01*
X18227325Y-14697984D02*
X18208277Y-14688460D01*
X18208277Y-14688460D02*
X18198753Y-14669412D01*
X18198753Y-14669412D02*
X18198753Y-14593222D01*
X18198753Y-14593222D02*
X18208277Y-14574174D01*
X18208277Y-14574174D02*
X18227325Y-14564650D01*
X18227325Y-14564650D02*
X18265420Y-14564650D01*
X18265420Y-14564650D02*
X18284468Y-14574174D01*
X18284468Y-14574174D02*
X18293992Y-14593222D01*
X18293992Y-14593222D02*
X18293992Y-14612269D01*
X18293992Y-14612269D02*
X18198753Y-14631317D01*
X18370182Y-14688460D02*
X18389230Y-14697984D01*
X18389230Y-14697984D02*
X18427325Y-14697984D01*
X18427325Y-14697984D02*
X18446373Y-14688460D01*
X18446373Y-14688460D02*
X18455896Y-14669412D01*
X18455896Y-14669412D02*
X18455896Y-14659888D01*
X18455896Y-14659888D02*
X18446373Y-14640841D01*
X18446373Y-14640841D02*
X18427325Y-14631317D01*
X18427325Y-14631317D02*
X18398753Y-14631317D01*
X18398753Y-14631317D02*
X18379706Y-14621793D01*
X18379706Y-14621793D02*
X18370182Y-14602746D01*
X18370182Y-14602746D02*
X18370182Y-14593222D01*
X18370182Y-14593222D02*
X18379706Y-14574174D01*
X18379706Y-14574174D02*
X18398753Y-14564650D01*
X18398753Y-14564650D02*
X18427325Y-14564650D01*
X18427325Y-14564650D02*
X18446373Y-14574174D01*
X18522563Y-14774174D02*
X18532087Y-14764650D01*
X18532087Y-14764650D02*
X18551134Y-14736079D01*
X18551134Y-14736079D02*
X18560658Y-14717031D01*
X18560658Y-14717031D02*
X18570182Y-14688460D01*
X18570182Y-14688460D02*
X18579706Y-14640841D01*
X18579706Y-14640841D02*
X18579706Y-14602746D01*
X18579706Y-14602746D02*
X18570182Y-14555127D01*
X18570182Y-14555127D02*
X18560658Y-14526555D01*
X18560658Y-14526555D02*
X18551134Y-14507508D01*
X18551134Y-14507508D02*
X18532087Y-14478936D01*
X18532087Y-14478936D02*
X18522563Y-14469412D01*
X18884468Y-14774174D02*
X18874944Y-14764650D01*
X18874944Y-14764650D02*
X18855896Y-14736079D01*
X18855896Y-14736079D02*
X18846373Y-14717031D01*
X18846373Y-14717031D02*
X18836849Y-14688460D01*
X18836849Y-14688460D02*
X18827325Y-14640841D01*
X18827325Y-14640841D02*
X18827325Y-14602746D01*
X18827325Y-14602746D02*
X18836849Y-14555127D01*
X18836849Y-14555127D02*
X18846373Y-14526555D01*
X18846373Y-14526555D02*
X18855896Y-14507508D01*
X18855896Y-14507508D02*
X18874944Y-14478936D01*
X18874944Y-14478936D02*
X18884468Y-14469412D01*
X18960658Y-14564650D02*
X18960658Y-14697984D01*
X18960658Y-14583698D02*
X18970182Y-14574174D01*
X18970182Y-14574174D02*
X18989230Y-14564650D01*
X18989230Y-14564650D02*
X19017801Y-14564650D01*
X19017801Y-14564650D02*
X19036849Y-14574174D01*
X19036849Y-14574174D02*
X19046373Y-14593222D01*
X19046373Y-14593222D02*
X19046373Y-14697984D01*
X19170182Y-14697984D02*
X19151134Y-14688460D01*
X19151134Y-14688460D02*
X19141611Y-14678936D01*
X19141611Y-14678936D02*
X19132087Y-14659888D01*
X19132087Y-14659888D02*
X19132087Y-14602746D01*
X19132087Y-14602746D02*
X19141611Y-14583698D01*
X19141611Y-14583698D02*
X19151134Y-14574174D01*
X19151134Y-14574174D02*
X19170182Y-14564650D01*
X19170182Y-14564650D02*
X19198754Y-14564650D01*
X19198754Y-14564650D02*
X19217801Y-14574174D01*
X19217801Y-14574174D02*
X19227325Y-14583698D01*
X19227325Y-14583698D02*
X19236849Y-14602746D01*
X19236849Y-14602746D02*
X19236849Y-14659888D01*
X19236849Y-14659888D02*
X19227325Y-14678936D01*
X19227325Y-14678936D02*
X19217801Y-14688460D01*
X19217801Y-14688460D02*
X19198754Y-14697984D01*
X19198754Y-14697984D02*
X19170182Y-14697984D01*
X19293992Y-14564650D02*
X19370182Y-14564650D01*
X19322563Y-14497984D02*
X19322563Y-14669412D01*
X19322563Y-14669412D02*
X19332087Y-14688460D01*
X19332087Y-14688460D02*
X19351134Y-14697984D01*
X19351134Y-14697984D02*
X19370182Y-14697984D01*
X19589230Y-14564650D02*
X19589230Y-14764650D01*
X19589230Y-14574174D02*
X19608277Y-14564650D01*
X19608277Y-14564650D02*
X19646373Y-14564650D01*
X19646373Y-14564650D02*
X19665420Y-14574174D01*
X19665420Y-14574174D02*
X19674944Y-14583698D01*
X19674944Y-14583698D02*
X19684468Y-14602746D01*
X19684468Y-14602746D02*
X19684468Y-14659888D01*
X19684468Y-14659888D02*
X19674944Y-14678936D01*
X19674944Y-14678936D02*
X19665420Y-14688460D01*
X19665420Y-14688460D02*
X19646373Y-14697984D01*
X19646373Y-14697984D02*
X19608277Y-14697984D01*
X19608277Y-14697984D02*
X19589230Y-14688460D01*
X19798754Y-14697984D02*
X19779706Y-14688460D01*
X19779706Y-14688460D02*
X19770182Y-14669412D01*
X19770182Y-14669412D02*
X19770182Y-14497984D01*
X19960658Y-14697984D02*
X19960658Y-14593222D01*
X19960658Y-14593222D02*
X19951135Y-14574174D01*
X19951135Y-14574174D02*
X19932087Y-14564650D01*
X19932087Y-14564650D02*
X19893992Y-14564650D01*
X19893992Y-14564650D02*
X19874944Y-14574174D01*
X19960658Y-14688460D02*
X19941611Y-14697984D01*
X19941611Y-14697984D02*
X19893992Y-14697984D01*
X19893992Y-14697984D02*
X19874944Y-14688460D01*
X19874944Y-14688460D02*
X19865420Y-14669412D01*
X19865420Y-14669412D02*
X19865420Y-14650365D01*
X19865420Y-14650365D02*
X19874944Y-14631317D01*
X19874944Y-14631317D02*
X19893992Y-14621793D01*
X19893992Y-14621793D02*
X19941611Y-14621793D01*
X19941611Y-14621793D02*
X19960658Y-14612269D01*
X20027325Y-14564650D02*
X20103515Y-14564650D01*
X20055896Y-14497984D02*
X20055896Y-14669412D01*
X20055896Y-14669412D02*
X20065420Y-14688460D01*
X20065420Y-14688460D02*
X20084468Y-14697984D01*
X20084468Y-14697984D02*
X20103515Y-14697984D01*
X20246373Y-14688460D02*
X20227325Y-14697984D01*
X20227325Y-14697984D02*
X20189230Y-14697984D01*
X20189230Y-14697984D02*
X20170182Y-14688460D01*
X20170182Y-14688460D02*
X20160658Y-14669412D01*
X20160658Y-14669412D02*
X20160658Y-14593222D01*
X20160658Y-14593222D02*
X20170182Y-14574174D01*
X20170182Y-14574174D02*
X20189230Y-14564650D01*
X20189230Y-14564650D02*
X20227325Y-14564650D01*
X20227325Y-14564650D02*
X20246373Y-14574174D01*
X20246373Y-14574174D02*
X20255896Y-14593222D01*
X20255896Y-14593222D02*
X20255896Y-14612269D01*
X20255896Y-14612269D02*
X20160658Y-14631317D01*
X20427325Y-14697984D02*
X20427325Y-14497984D01*
X20427325Y-14688460D02*
X20408277Y-14697984D01*
X20408277Y-14697984D02*
X20370182Y-14697984D01*
X20370182Y-14697984D02*
X20351135Y-14688460D01*
X20351135Y-14688460D02*
X20341611Y-14678936D01*
X20341611Y-14678936D02*
X20332087Y-14659888D01*
X20332087Y-14659888D02*
X20332087Y-14602746D01*
X20332087Y-14602746D02*
X20341611Y-14583698D01*
X20341611Y-14583698D02*
X20351135Y-14574174D01*
X20351135Y-14574174D02*
X20370182Y-14564650D01*
X20370182Y-14564650D02*
X20408277Y-14564650D01*
X20408277Y-14564650D02*
X20427325Y-14574174D01*
X20503516Y-14774174D02*
X20513039Y-14764650D01*
X20513039Y-14764650D02*
X20532087Y-14736079D01*
X20532087Y-14736079D02*
X20541611Y-14717031D01*
X20541611Y-14717031D02*
X20551135Y-14688460D01*
X20551135Y-14688460D02*
X20560658Y-14640841D01*
X20560658Y-14640841D02*
X20560658Y-14602746D01*
X20560658Y-14602746D02*
X20551135Y-14555127D01*
X20551135Y-14555127D02*
X20541611Y-14526555D01*
X20541611Y-14526555D02*
X20532087Y-14507508D01*
X20532087Y-14507508D02*
X20513039Y-14478936D01*
X20513039Y-14478936D02*
X20503516Y-14469412D01*
M02*
